<?xml version="1.0" encoding="UTF-8" standalone="no"?>
<!-- Created with Inkscape (http://www.inkscape.org/) -->

<svg
   xmlns:dc="http://purl.org/dc/elements/1.1/"
   xmlns:cc="http://creativecommons.org/ns#"
   xmlns:rdf="http://www.w3.org/1999/02/22-rdf-syntax-ns#"
   xmlns:svg="http://www.w3.org/2000/svg"
   xmlns="http://www.w3.org/2000/svg"
   xmlns:xlink="http://www.w3.org/1999/xlink"
   xmlns:sodipodi="http://sodipodi.sourceforge.net/DTD/sodipodi-0.dtd"
   xmlns:inkscape="http://www.inkscape.org/namespaces/inkscape"
   width="8in"
   height="6in"
   viewBox="0 0 719.99998 540"
   id="svg2"
   version="1.1"
   inkscape:version="0.92pre1 unknown"
   sodipodi:docname="antenna_squint.svg">
  <sodipodi:namedview
     inkscape:measure-end="-896.654,673"
     inkscape:measure-start="-896.654,672.481"
     id="base"
     pagecolor="#ffffff"
     bordercolor="#666666"
     borderopacity="1.0"
     inkscape:pageopacity="0.0"
     inkscape:pageshadow="2"
     inkscape:zoom="0.81076389"
     inkscape:cx="157.59987"
     inkscape:cy="479.52895"
     inkscape:document-units="px"
     inkscape:current-layer="layer1"
     showgrid="false"
     inkscape:snap-bbox="true"
     inkscape:snap-object-midpoints="true"
     inkscape:snap-center="true"
     inkscape:snap-smooth-nodes="true"
     inkscape:snap-midpoints="true"
     inkscape:object-nodes="true"
     inkscape:snap-intersection-paths="true"
     inkscape:object-paths="true"
     inkscape:snap-bbox-edge-midpoints="true"
     inkscape:window-width="1855"
     inkscape:window-height="1056"
     inkscape:window-x="65"
     inkscape:window-y="24"
     inkscape:window-maximized="1"
     showguides="true"
     inkscape:snap-global="true"
     fit-margin-top="0"
     fit-margin-left="0"
     fit-margin-right="0"
     fit-margin-bottom="0"
     inkscape:guide-bbox="true"
     inkscape:locked="false"
     units="in">
    <sodipodi:guide
       position="278.19043,607.64845"
       orientation="0.98478326,0.17378701"
       id="guide11412"
       inkscape:locked="false" />
    <sodipodi:guide
       inkscape:locked="false"
       id="guide50298"
       orientation="-0.97431085,0.22520738"
       position="971.78474,165.73204" />
    <sodipodi:guide
       inkscape:locked="false"
       id="guide14802"
       orientation="0,1"
       position="-1151.2249,343.14859" />
    <sodipodi:guide
       inkscape:locked="false"
       id="guide15584"
       orientation="0,1"
       position="44.46455,85.373678" />
    <sodipodi:guide
       inkscape:locked="false"
       id="guide15766"
       orientation="0,1"
       position="105.65644,130.33345" />
    <sodipodi:guide
       inkscape:locked="false"
       id="guide16300"
       orientation="1,0"
       position="70.93761,151.8452" />
    <sodipodi:guide
       inkscape:locked="false"
       id="guide16302"
       orientation="1,0"
       position="293.13813,151.88821" />
    <sodipodi:guide
       inkscape:locked="false"
       id="guide16304"
       orientation="0,1"
       position="70.937608,42.100966" />
  </sodipodi:namedview>
  <defs
     id="defs4">
    <marker
       inkscape:isstock="true"
       style="overflow:visible"
       id="marker13530"
       refX="0"
       refY="0"
       orient="auto"
       inkscape:stockid="StopL">
      <path
         transform="scale(0.8)"
         style="fill:#000080;fill-opacity:1;fill-rule:evenodd;stroke:#000080;stroke-width:1.00000003pt;stroke-opacity:1"
         d="M 0,5.65 V -5.65"
         id="path13528"
         inkscape:connector-curvature="0" />
    </marker>
    <marker
       inkscape:isstock="true"
       style="overflow:visible"
       id="marker13504"
       refX="0"
       refY="0"
       orient="auto"
       inkscape:stockid="StopL">
      <path
         transform="scale(0.8)"
         style="fill:#000080;fill-opacity:1;fill-rule:evenodd;stroke:#000080;stroke-width:1.00000003pt;stroke-opacity:1"
         d="M 0,5.65 V -5.65"
         id="path13502"
         inkscape:connector-curvature="0" />
    </marker>
    <marker
       inkscape:stockid="StopL"
       orient="auto"
       refY="0"
       refX="0"
       id="marker54775"
       style="overflow:visible"
       inkscape:isstock="true">
      <path
         id="path54773"
         d="M 0,5.65 V -5.65"
         style="fill:none;fill-opacity:0.75;fill-rule:evenodd;stroke:#000000;stroke-width:1.00000003pt;stroke-opacity:1"
         transform="scale(0.8)"
         inkscape:connector-curvature="0" />
    </marker>
    <marker
       inkscape:stockid="StopL"
       orient="auto"
       refY="0"
       refX="0"
       id="marker54665"
       style="overflow:visible"
       inkscape:isstock="true">
      <path
         id="path54663"
         d="M 0,5.65 V -5.65"
         style="fill:none;fill-opacity:0.75;fill-rule:evenodd;stroke:#000000;stroke-width:1.00000003pt;stroke-opacity:1"
         transform="scale(0.8)"
         inkscape:connector-curvature="0" />
    </marker>
    <marker
       inkscape:isstock="true"
       style="overflow:visible"
       id="marker53551"
       refX="0"
       refY="0"
       orient="auto"
       inkscape:stockid="StopL">
      <path
         transform="scale(0.8)"
         style="fill:#000080;fill-opacity:1;fill-rule:evenodd;stroke:#ff0000;stroke-width:1.00000003pt;stroke-opacity:1"
         d="M 0,5.65 V -5.65"
         id="path53549"
         inkscape:connector-curvature="0" />
    </marker>
    <marker
       inkscape:isstock="true"
       style="overflow:visible"
       id="marker53541"
       refX="0"
       refY="0"
       orient="auto"
       inkscape:stockid="StopL">
      <path
         transform="scale(0.8)"
         style="fill:#000080;fill-opacity:1;fill-rule:evenodd;stroke:#ff0000;stroke-width:1.00000003pt;stroke-opacity:1"
         d="M 0,5.65 V -5.65"
         id="path53539"
         inkscape:connector-curvature="0" />
    </marker>
    <marker
       inkscape:stockid="StopL"
       orient="auto"
       refY="0"
       refX="0"
       id="marker51627"
       style="overflow:visible"
       inkscape:isstock="true"
       inkscape:collect="always">
      <path
         id="path51625"
         d="M 0,5.65 V -5.65"
         style="fill:#000080;fill-opacity:1;fill-rule:evenodd;stroke:#ff00ff;stroke-width:1.00000003pt;stroke-opacity:1"
         transform="scale(0.8)"
         inkscape:connector-curvature="0" />
    </marker>
    <marker
       inkscape:stockid="StopL"
       orient="auto"
       refY="0"
       refX="0"
       id="marker51617"
       style="overflow:visible"
       inkscape:isstock="true"
       inkscape:collect="always">
      <path
         id="path51615"
         d="M 0,5.65 V -5.65"
         style="fill:#000080;fill-opacity:1;fill-rule:evenodd;stroke:#ff00ff;stroke-width:1.00000003pt;stroke-opacity:1"
         transform="scale(0.8)"
         inkscape:connector-curvature="0" />
    </marker>
    <marker
       inkscape:isstock="true"
       style="overflow:visible"
       id="marker50344"
       refX="0"
       refY="0"
       orient="auto"
       inkscape:stockid="StopL"
       inkscape:collect="always">
      <path
         transform="scale(0.8)"
         style="fill:#000080;fill-opacity:1;fill-rule:evenodd;stroke:#000080;stroke-width:1.00000003pt;stroke-opacity:1"
         d="M 0,5.65 V -5.65"
         id="path50342"
         inkscape:connector-curvature="0" />
    </marker>
    <marker
       inkscape:isstock="true"
       style="overflow:visible"
       id="StopL"
       refX="0"
       refY="0"
       orient="auto"
       inkscape:stockid="StopL"
       inkscape:collect="always">
      <path
         transform="scale(0.8)"
         style="fill:#000080;fill-opacity:1;fill-rule:evenodd;stroke:#000080;stroke-width:1.00000003pt;stroke-opacity:1"
         d="M 0,5.65 V -5.65"
         id="path8368"
         inkscape:connector-curvature="0" />
    </marker>
    <marker
       inkscape:isstock="true"
       style="overflow:visible"
       id="marker20912"
       refX="0"
       refY="0"
       orient="auto"
       inkscape:stockid="TriangleOutM">
      <path
         inkscape:connector-curvature="0"
         transform="scale(0.4)"
         style="fill:#000000;fill-opacity:1;fill-rule:evenodd;stroke:#000000;stroke-width:1.00000003pt;stroke-opacity:1"
         d="M 5.77,0 -2.88,5 V -5 Z"
         id="path20910" />
    </marker>
    <!--
    <inkscape:path-effect
       reflection_line="M 241.19682,733.08108 325.07456,367.13882"
       discard_orig_path="false"
       is_visible="true"
       id="path-effect10686"
       effect="mirror_symmetry" />
-->
    <linearGradient
       inkscape:collect="always"
       id="linearGradient10676">
      <stop
         style="stop-color:#000080;stop-opacity:1"
         offset="0"
         id="stop10672" />
      <stop
         id="stop10680"
         offset="0.54080814"
         style="stop-color:#ff00ff;stop-opacity:1" />
      <stop
         style="stop-color:#ff0000;stop-opacity:1"
         offset="1"
         id="stop10674" />
    </linearGradient>
    <!--
    <inkscape:path-effect
       reflection_line="M 247.9644,733.37795 182.43501,363.70904"
       discard_orig_path="false"
       is_visible="true"
       id="path-effect8195"
       effect="mirror_symmetry" />
    <inkscape:path-effect
       effect="mirror_symmetry"
       id="path-effect8199"
       is_visible="true"
       discard_orig_path="false"
       reflection_line="M 245.24449,733.63988 V 358.20785" />
-->
    <marker
       inkscape:stockid="EmptyTriangleInL"
       orient="auto"
       refY="0"
       refX="0"
       id="EmptyTriangleInL"
       style="overflow:visible"
       inkscape:isstock="true">
      <path
         id="path8241"
         d="M 5.77,0 -2.88,5 V -5 Z"
         style="fill:#ffffff;fill-rule:evenodd;stroke:#000000;stroke-width:1.00000003pt;stroke-opacity:1"
         transform="matrix(-0.8,0,0,-0.8,4.8,0)"
         inkscape:connector-curvature="0" />
    </marker>
    <marker
       inkscape:collect="always"
       inkscape:stockid="TriangleOutM"
       orient="auto"
       refY="0"
       refX="0"
       id="TriangleOutM"
       style="overflow:visible"
       inkscape:isstock="true">
      <path
         id="path8235"
         d="M 5.77,0 -2.88,5 V -5 Z"
         style="fill:#000000;fill-opacity:1;fill-rule:evenodd;stroke:#000000;stroke-width:1.00000003pt;stroke-opacity:1"
         transform="scale(0.4)"
         inkscape:connector-curvature="0" />
    </marker>
    <linearGradient
       inkscape:collect="always"
       xlink:href="#linearGradient10676"
       id="linearGradient10678"
       x1="93.433022"
       y1="932.6911"
       x2="447.92282"
       y2="932.6911"
       gradientUnits="userSpaceOnUse"
       gradientTransform="matrix(0.7,0,0,0.7,253.96349,-21.33886)" />
  </defs>
  <metadata
     id="metadata7">
    <rdf:RDF>
      <cc:Work
         rdf:about="">
        <dc:format>image/svg+xml</dc:format>
        <dc:type
           rdf:resource="http://purl.org/dc/dcmitype/StillImage" />
        <dc:title></dc:title>
      </cc:Work>
    </rdf:RDF>
  </metadata>
  <g
     inkscape:label="Layer 1"
     inkscape:groupmode="layer"
     id="layer1"
     transform="translate(100.10111,-406.84219)">
    <path
       style="color:#000000;clip-rule:nonzero;display:inline;overflow:visible;visibility:visible;opacity:1;isolation:auto;mix-blend-mode:normal;color-interpolation:sRGB;color-interpolation-filters:linearRGB;solid-color:#000000;solid-opacity:1;fill:none;fill-opacity:1;fill-rule:nonzero;stroke:#000000;stroke-width:0.93897635;stroke-linecap:butt;stroke-linejoin:miter;stroke-miterlimit:4;stroke-dasharray:none;stroke-dashoffset:0;stroke-opacity:1;color-rendering:auto;image-rendering:auto;shape-rendering:auto;text-rendering:auto;enable-background:accumulate"
       d=""
       title="sin(0.5*x**2"
       id="path10516"
       inkscape:connector-curvature="0" />
    <path
       style="color:#000000;clip-rule:nonzero;display:inline;overflow:visible;visibility:visible;opacity:1;isolation:auto;mix-blend-mode:normal;color-interpolation:sRGB;color-interpolation-filters:linearRGB;solid-color:#000000;solid-opacity:1;fill:none;fill-opacity:1;fill-rule:nonzero;stroke:#000000;stroke-width:2.0999999;stroke-linecap:butt;stroke-linejoin:miter;stroke-miterlimit:4;stroke-dasharray:none;stroke-dashoffset:0;stroke-opacity:1;marker-end:url(#TriangleOutM);color-rendering:auto;image-rendering:auto;shape-rendering:auto;text-rendering:auto;enable-background:accumulate"
       d="M 191.92127,795.92214 V 459.64283"
       id="path7270"
       inkscape:connector-curvature="0" />
    <path
       sodipodi:nodetypes="ccc"
       style="fill:none;fill-rule:evenodd;stroke:#000000;stroke-width:1.75;stroke-linecap:butt;stroke-linejoin:miter;stroke-miterlimit:4;stroke-dasharray:none;stroke-opacity:1;marker-start:url(#EmptyTriangleInL)"
       d="m 433.92982,824.06266 h 64.312 l -0.38613,-143.61988"
       id="path8449"
       inkscape:connector-curvature="0" />
    <path
       style="color:#000000;clip-rule:nonzero;display:inline;overflow:visible;visibility:visible;opacity:1;isolation:auto;mix-blend-mode:normal;color-interpolation:sRGB;color-interpolation-filters:linearRGB;solid-color:#000000;solid-opacity:1;fill:none;fill-opacity:1;fill-rule:nonzero;stroke:#ff00ff;stroke-width:3.5;stroke-linecap:round;stroke-linejoin:round;stroke-miterlimit:4;stroke-dasharray:none;stroke-dashoffset:0;stroke-opacity:1;color-rendering:auto;image-rendering:auto;shape-rendering:auto;text-rendering:auto;enable-background:accumulate"
       d="m 191.80185,525.55506 c 55.2032,0.38205 10.63644,201.49779 0.30027,270.36708 m 0.11942,-270.36708 c -55.2032,0.38205 -10.63644,201.49779 -0.30027,270.36708"
       id="path8196"
       inkscape:original-d="m 244.94471,333.30689 c 78.86172,0.54579 15.19491,287.85399 0.42896,386.23868"
       inkscape:connector-curvature="0"
       sodipodi:nodetypes="cc" />
    <path
       sodipodi:nodetypes="cc"
       inkscape:connector-curvature="0"
       inkscape:original-d="m 330.34564,342.80031 c 76.7464,18.15101 -49.50052,283.97271 -85.874,376.57158"
       id="use8201"
       d="m 251.5825,532.20045 c 53.72248,12.70571 -34.65036,198.7809 -60.1118,263.60011 m 60.52089,-263.50634 c -53.8932,-11.96091 -55.38553,194.02818 -60.69717,263.46594"
       style="color:#000000;clip-rule:nonzero;display:inline;overflow:visible;visibility:visible;opacity:1;isolation:auto;mix-blend-mode:normal;color-interpolation:sRGB;color-interpolation-filters:linearRGB;solid-color:#000000;solid-opacity:1;fill:none;fill-opacity:1;fill-rule:nonzero;stroke:#ff0000;stroke-width:3.5;stroke-linecap:round;stroke-linejoin:round;stroke-miterlimit:4;stroke-dasharray:none;stroke-dashoffset:0;stroke-opacity:1;color-rendering:auto;image-rendering:auto;shape-rendering:auto;text-rendering:auto;enable-background:accumulate" />
    <path
       sodipodi:nodetypes="cc"
       inkscape:connector-curvature="0"
       inkscape:original-d="m 177.79352,339.24265 c 77.7464,-13.22743 65.20483,280.78307 67.838,380.2348"
       id="use8203"
       d="m 144.79602,529.71009 c 54.42248,-9.2592 45.64338,196.54815 47.4866,266.16436 M 145.20927,529.63684 c -54.28912,10.01157 24.69706,200.2612 46.89527,266.26918"
       style="color:#000000;clip-rule:nonzero;display:inline;overflow:visible;visibility:visible;opacity:1;isolation:auto;mix-blend-mode:normal;color-interpolation:sRGB;color-interpolation-filters:linearRGB;solid-color:#000000;solid-opacity:1;fill:none;fill-opacity:1;fill-rule:nonzero;stroke:#000080;stroke-width:3.5;stroke-linecap:round;stroke-linejoin:round;stroke-miterlimit:4;stroke-dasharray:none;stroke-dashoffset:0;stroke-opacity:1;color-rendering:auto;image-rendering:auto;shape-rendering:auto;text-rendering:auto;enable-background:accumulate"
       inkscape:transform-center-x="-132.21537"
       inkscape:transform-center-y="-32.525023" />
    <path
       sodipodi:nodetypes="cc"
       style="fill:none;fill-rule:evenodd;stroke:#000000;stroke-width:1.75;stroke-linecap:butt;stroke-linejoin:miter;stroke-miterlimit:4;stroke-dasharray:6.99999998, 13.99999996;stroke-dashoffset:0;stroke-opacity:1"
       d="M 263.20853,482.83485 192.25756,794.8934"
       id="path11402"
       inkscape:connector-curvature="0" />
    <path
       style="fill:none;fill-rule:evenodd;stroke:#000000;stroke-width:1.75;stroke-linecap:butt;stroke-linejoin:miter;stroke-miterlimit:4;stroke-dasharray:6.99999998, 13.99999996;stroke-dashoffset:0;stroke-opacity:1"
       d="m 136.10377,479.247 56.15379,315.64639"
       id="path11404"
       inkscape:connector-curvature="0"
       sodipodi:nodetypes="cc" />
    <path
       style="fill:none;fill-rule:evenodd;stroke:#000000;stroke-width:0.65625;stroke-linecap:butt;stroke-linejoin:miter;stroke-miterlimit:4;stroke-dasharray:2.62499999, 5.24999999;stroke-dashoffset:0;stroke-opacity:1"
       d="M 191.92127,525.5562 V 793.00597"
       id="path11406"
       inkscape:connector-curvature="0" />
    <path
       style="color:#000000;clip-rule:nonzero;display:inline;overflow:visible;visibility:visible;opacity:1;isolation:auto;mix-blend-mode:normal;color-interpolation:sRGB;color-interpolation-filters:linearRGB;solid-color:#000000;solid-opacity:1;fill:none;fill-opacity:1;fill-rule:nonzero;stroke:#000000;stroke-width:1.75;stroke-linecap:butt;stroke-linejoin:miter;stroke-miterlimit:4;stroke-dasharray:none;stroke-dashoffset:0;stroke-opacity:1;color-rendering:auto;image-rendering:auto;shape-rendering:auto;text-rendering:auto;enable-background:accumulate"
       id="path11416"
       sodipodi:type="arc"
       sodipodi:cx="192.12433"
       sodipodi:cy="794.14459"
       sodipodi:rx="308.48911"
       sodipodi:ry="308.48911"
       sodipodi:start="4.5331564"
       sodipodi:end="4.7142736"
       sodipodi:open="true"
       d="m 137.12859,490.59724 a 308.48911,308.48911 0 0 1 55.57712,-4.94121" />
    <g
       transform="matrix(0.53436591,0,0,0.53436591,-21.780475,307.075)"
       id="g11514">
      <g
         style="font-style:normal;font-variant:normal;font-weight:normal;font-stretch:normal;letter-spacing:normal;word-spacing:normal;text-anchor:start;fill:none;fill-opacity:1;fill-rule:evenodd;stroke:#000000;stroke-linecap:butt;stroke-linejoin:miter;stroke-miterlimit:10.43299961;stroke-dasharray:none;stroke-dashoffset:0;stroke-opacity:1"
         id="content"
         transform="matrix(1.1027691,0,0,-1.1027691,-192.98459,762.56535)"
         xml:space="preserve"
         stroke-miterlimit="10.433"
         font-style="normal"
         font-variant="normal"
         font-weight="normal"
         font-stretch="normal"
         font-size-adjust="none"
         letter-spacing="normal"
         word-spacing="normal"><path
           style="fill:#000000;stroke-width:0"
           inkscape:connector-curvature="0"
           d="m 478.19,431.11 v 0.31 l -0.01,0.34 -0.02,0.36 -0.02,0.37 -0.03,0.39 -0.04,0.39 -0.04,0.41 -0.06,0.41 -0.07,0.42 -0.07,0.43 -0.09,0.42 -0.1,0.43 -0.12,0.42 -0.12,0.42 -0.14,0.41 -0.16,0.41 -0.17,0.4 -0.18,0.38 -0.2,0.37 -0.22,0.36 -0.23,0.34 -0.25,0.32 -0.28,0.3 -0.29,0.27 -0.31,0.25 -0.16,0.12 -0.17,0.1 -0.17,0.1 -0.18,0.1 -0.18,0.08 -0.19,0.08 -0.19,0.07 -0.2,0.06 -0.21,0.05 -0.21,0.05 -0.22,0.03 -0.22,0.02 -0.23,0.02 h -0.23 l -0.05,-1.09 c 2.44,0 2.73,-3.19 2.73,-6.03 0,-2.44 -0.39,-4.99 -1.59,-9.92 h -10.41 c 0.85,3.2 1.85,7.18 3.83,10.72 1.36,2.43 3.19,5.23 5.44,5.23 l 0.05,1.09 c -6.92,0 -14.6,-14.04 -14.6,-25.45 0,-4.69 1.44,-10.22 5.99,-10.22 v 1.1 c -1.66,0 -2.71,1.45 -2.71,6.07 0,2.1 0.3,4.99 1.6,9.86 h 10.37 c -0.54,-2.28 -1.59,-6.51 -3.5,-10.11 -1.73,-3.39 -3.62,-5.82 -5.76,-5.82 v -1.1 c 7.01,0 14.59,14.3 14.59,25.46 z"
           id="path11507" /><path
           style="fill:#000000;stroke-width:0"
           inkscape:connector-curvature="0"
           d="m 493.94,411.86 -0.09,-0.03 -0.08,-0.02 -0.08,-0.03 -0.08,-0.02 -0.07,-0.04 -0.07,-0.03 -0.08,-0.04 -0.06,-0.04 -0.07,-0.04 -0.06,-0.04 -0.07,-0.05 -0.06,-0.05 -0.05,-0.05 -0.06,-0.05 -0.05,-0.05 -0.05,-0.06 -0.04,-0.05 -0.05,-0.06 -0.04,-0.06 -0.04,-0.06 -0.03,-0.06 -0.03,-0.06 -0.03,-0.06 -0.03,-0.06 -0.02,-0.07 -0.02,-0.06 -0.02,-0.07 -0.02,-0.06 -0.01,-0.07 v -0.06 l -0.01,-0.07 v -0.06 c 0,-0.81 0.7,-1.12 1.15,-1.12 0.35,0 1.68,0.21 1.68,1.98 0,2.27 -2.5,3.03 -4.63,3.03 -5.44,0 -6.42,-4 -6.42,-5.08 0,-1.29 0.73,-2.12 1.22,-2.54 0.91,-0.71 1.53,-0.83 3.94,-1.25 0.73,-0.14 2.97,-0.57 2.97,-2.3 0,-0.59 -0.4,-1.92 -1.85,-2.8 -1.36,-0.76 -3.08,-0.76 -3.48,-0.76 -1.41,0 -3.39,0.31 -4.19,1.47 1.16,0.14 1.92,1 1.92,1.98 0,0.87 -0.62,1.28 -1.36,1.28 -1.01,0 -2.03,-0.8 -2.03,-2.33 0,-2.09 2.23,-3.37 5.61,-3.37 6.42,0 7.61,4.39 7.61,5.75 0,3.2 -3.53,3.83 -4.81,4.08 -0.32,0.06 -1.19,0.2 -1.39,0.26 -1.3,0.25 -1.93,0.99 -1.93,1.75 0,0.8 0.63,1.74 1.4,2.24 0.93,0.59 2.15,0.65 2.74,0.65 0.74,0 2.55,-0.11 3.32,-1.29 z"
           id="path11509" /><path
           style="fill:#000000;stroke-width:0"
           inkscape:connector-curvature="0"
           d="m 515.5,413.12 v 0.03 l 0.01,0.03 v 0.03 l 0.01,0.03 0.01,0.03 v 0.03 l 0.01,0.03 0.01,0.04 v 0.03 l 0.01,0.04 v 0.03 l 0.01,0.03 v 0.04 0.03 0.03 0.04 c 0,0.22 -0.14,0.48 -0.45,0.48 -0.36,0 -1.81,-1.17 -2.52,-2.3 -0.34,0.71 -1.49,2.3 -3.73,2.3 v -0.97 c 2.44,0 3.11,-2.69 3.11,-3.03 0,-0.17 -0.08,-0.39 -0.11,-0.51 l -1.64,-6.46 c -0.17,-0.59 -0.17,-0.65 -0.62,-1.22 -1.36,-1.61 -3,-2.54 -4.36,-2.54 -1.29,0 -2.54,0.9 -2.54,3.37 0,1.86 1,5.69 1.82,7.08 1.59,2.8 3.37,3.31 4.34,3.31 v 0.97 c -4.45,0 -8.98,-4.91 -8.98,-9.92 0,-3.38 2.26,-5.78 5.26,-5.78 1.99,0 3.63,1.25 4.39,1.9 -0.03,-0.09 -1.12,-4.48 -1.26,-5.07 -0.49,-1.93 -0.52,-1.96 -2.67,-1.99 -0.43,0 -0.91,0 -0.91,-0.76 0,-0.22 0.17,-0.5 0.51,-0.5 1.16,0 2.44,0.14 3.63,0.14 1.19,0 2.66,-0.14 3.73,-0.14 0.32,0 0.69,0.11 0.69,0.76 0,0.5 -0.48,0.5 -0.91,0.5 -0.76,0 -1.7,0 -1.7,0.41 0,0.11 0,0.19 0.17,0.76 z"
           id="path11511" /></g>    </g>
    <path
       id="path10612"
       title="sin(0.5*x**2)"
       d="m 319.36661,631.54492 c 0.83259,-4e-5 1.66517,-0.0337 2.49775,-0.10092 0.83259,-0.0673 1.66517,-0.16824 2.49776,-0.30275 0.83258,-0.13451 1.66516,-0.30276 2.49775,-0.50448 0.83258,-0.20172 1.66517,-0.43711 2.49775,-0.70583 0.83258,-0.26872 1.66517,-0.57096 2.49775,-0.90621 0.83259,-0.33524 1.66518,-0.70369 2.49776,-1.10455 0.83258,-0.40086 1.66516,-0.83433 2.49775,-1.29925 0.83259,-0.46491 1.66517,-0.96145 2.49775,-1.48795 0.83258,-0.5265 1.66517,-1.08314 2.49776,-1.66758 0.83258,-0.58443 1.66516,-1.19684 2.49775,-1.83407 0.83258,-0.63723 1.66517,-1.29943 2.49775,-1.98248 0.83259,-0.68305 1.66517,-1.38707 2.49775,-2.10681 0.83259,-0.71974 1.66517,-1.45529 2.49776,-2.20011 0.83258,-0.74483 1.66516,-1.49898 2.49775,-2.25452 0.83258,-0.75554 1.66517,-1.51248 2.49775,-2.26139 0.83258,-0.74892 1.66517,-1.48977 2.49775,-2.21163 0.83259,-0.72186 1.66518,-1.4246 2.49776,-2.0959 0.83258,-0.67129 1.66516,-1.31093 2.49775,-1.90528 0.83259,-0.59436 1.66517,-1.14313 2.49775,-1.63172 0.83259,-0.48859 1.66517,-0.9166 2.49776,-1.26884 0.83258,-0.35225 1.66516,-0.62825 2.49775,-0.81282 0.83258,-0.18457 1.66517,-0.27711 2.49775,-0.26322 0.83259,0.0139 1.66517,0.13489 2.49775,0.37576 0.83259,0.24087 1.66517,0.6024 2.49776,1.09459 0.83258,0.49219 1.66516,1.11589 2.49775,1.87722 0.83258,0.76133 1.66517,1.66119 2.49775,2.70054 0.83258,1.03935 1.66517,2.21911 2.49775,3.53389 0.83259,1.31478 1.66518,2.76544 2.49776,4.33915 0.83258,1.57372 1.66516,3.27125 2.49775,5.07145 0.83259,1.8002 1.66517,3.70368 2.49775,5.68051 0.83258,1.97681 1.66517,4.02738 2.49776,6.11299 0.83258,2.08562 1.66516,4.20641 2.49775,6.3157 0.83258,2.1093 1.66517,4.20688 2.49775,6.23964 0.83259,2.03275 1.66517,4.00009 2.49775,5.84492 0.83259,1.84482 1.66517,3.56613 2.49776,5.10623 0.83258,1.5401 1.66516,2.89759 2.49775,4.01839 0.83258,1.12081 1.66517,2.00318 2.49775,2.60157 0.83258,0.59839 1.66517,0.91076 2.49775,0.90537 0.83259,-0.006 1.66518,-0.33076 2.49776,-0.98883 0.83258,-0.65807 1.66516,-1.65108 2.49775,-2.96821 0.83259,-1.31713 1.66517,-2.96046 2.49775,-4.89235 0.83258,-1.93188 1.66517,-4.15402 2.49776,-6.60072 0.83258,-2.44669 1.66516,-5.11906 2.49775,-7.92468 0.83258,-2.80562 1.66517,-5.74484 2.49775,-8.703 0.83259,-2.95818 1.66517,-5.93474 2.49775,-8.80066 0.83259,-2.86591 1.66517,-5.61965 2.49776,-8.12881 0.83258,-2.50916 1.66516,-4.7713 2.49775,-6.66428 0.83258,-1.89298 1.66517,-3.41358 2.49775,-4.46505 0.83258,-1.05147 1.66517,-1.63008 2.49775,-1.67934 0.83259,-0.0493 1.66518,0.43469 2.49776,1.45541 0.83258,1.02071 1.66516,2.58169 2.49775,4.62543 0.83259,2.04372 1.66517,4.57287 2.49775,7.46729 0.83258,2.89441 1.66517,6.15546 2.49776,9.60716 0.83258,3.4517 1.66516,7.09377 2.49775,10.71021 0.83258,3.61643 1.66517,7.20517 2.49775,10.53458 0.83259,3.3294 1.66517,6.39571 2.49775,8.98256 0.83259,2.58685 1.66517,4.68914 2.49776,6.13954 0.83258,1.45041 1.66516,2.24316 2.49775,2.29152 0.83258,0.0484 1.66517,-0.65321 2.49775,-2.08717 0.83258,-1.43395 1.66517,-3.60467 2.49775,-6.38019 0.83259,-2.77553 1.66518,-6.15819 2.49776,-9.90953 0.83258,-3.75132 1.66516,-7.87093 2.49775,-12.04169 0.83259,-4.17077 1.66517,-8.38933 2.49775,-12.30624 0.83258,-3.9169 1.66517,-7.52613 2.49776,-10.50514 0.83258,-2.979 1.66516,-5.32 2.49775,-6.7902 0.83258,-1.4702 1.66517,-2.06145 2.49775,-1.68518 0.83259,0.37628 1.66517,1.72696 2.49775,3.96313 0.83259,2.23618 1.66517,5.36184 2.49776,9.10922 0.83258,3.74738 1.66516,8.11636 2.49775,12.69658 0.83258,4.58023 1.66517,9.36705 2.49775,13.87969 0.83258,4.51264 1.66517,8.74248 2.49775,12.23588 0.83259,3.4934 1.66518,6.23938 2.49776,7.91575 0.83258,1.67638 1.66516,2.27223 2.49775,1.68407 0.83259,-0.58816 1.66517,-2.36843 2.49775,-5.17955 0.83258,-2.81113 1.66517,-6.65595 2.49776,-11.12154 0.83258,-4.46559 1.66516,-9.54821 2.49775,-14.66123 0.83258,-5.11302 1.66517,-10.24638 2.49775,-14.77213 0.83259,-4.52575 1.66517,-8.42957 2.49775,-11.20158 0.83259,-2.77202 1.66517,-4.39724 2.49776,-4.63057 0.83258,-0.23334 1.66516,0.93662 2.49775,3.39919 0.83258,2.46256 1.66517,6.22176 2.49775,10.81001 0.83258,4.58825 1.66517,10.00015 2.49775,15.51311 0.83259,5.51296 1.66518,11.11277 2.49776,16.01072 0.83258,4.89794 1.66516,9.07453 2.49775,11.905 0.83259,2.83048 1.66517,4.29579 2.49775,4.14022 0.83258,-0.15557 1.66517,-1.94431 2.49776,-5.14181 0.83258,-3.19751 1.66516,-7.80441 2.49775,-13.14792 0.83258,-5.3435 1.66517,-11.41107 2.49775,-17.26433 0.83259,-5.85326 1.66517,-11.46947 2.49775,-15.93618 0.83259,-4.4667 1.66517,-7.75796 2.49776,-9.30028 0.83258,-1.54232 1.66516,-1.31572 2.49775,0.68793 0.83258,2.00363 1.66517,5.79022 2.49775,10.7553 0.83258,4.96508 1.66517,11.09672 2.49775,17.34965 0.83259,6.25294 1.66518,12.60012 2.49776,17.90854 0.83258,5.30842 1.66516,9.54497 2.49775,11.91014 0.83259,2.36516 1.66517,2.83242 2.49775,1.26863 0.83258,-1.56378 1.66517,-5.16695 2.49776,-10.17468 0.83258,-5.00773 1.66516,-11.40479 2.49775,-17.9865 0.83258,-6.58171 1.66517,-13.31329 2.49775,-18.87094"
       style="color:#000000;clip-rule:nonzero;display:inline;overflow:visible;visibility:visible;opacity:1;isolation:auto;mix-blend-mode:normal;color-interpolation:sRGB;color-interpolation-filters:linearRGB;solid-color:#000000;solid-opacity:1;fill:none;fill-opacity:1;fill-rule:nonzero;stroke:url(#linearGradient10678);stroke-width:3.5;stroke-linecap:butt;stroke-linejoin:miter;stroke-miterlimit:4;stroke-dasharray:none;stroke-dashoffset:0;stroke-opacity:1;color-rendering:auto;image-rendering:auto;shape-rendering:auto;text-rendering:auto;enable-background:accumulate"
       inkscape:connector-curvature="0" />
    <rect
       y="541.64124"
       x="300.73068"
       height="138.80153"
       width="295.13348"
       id="rect20058"
       style="color:#000000;clip-rule:nonzero;display:inline;overflow:visible;visibility:visible;opacity:1;isolation:auto;mix-blend-mode:normal;color-interpolation:sRGB;color-interpolation-filters:linearRGB;solid-color:#000000;solid-opacity:1;fill:none;fill-opacity:1;fill-rule:nonzero;stroke:#000000;stroke-width:1.43952966;stroke-linecap:butt;stroke-linejoin:miter;stroke-miterlimit:4;stroke-dasharray:none;stroke-dashoffset:0;stroke-opacity:1;color-rendering:auto;image-rendering:auto;shape-rendering:auto;text-rendering:auto;enable-background:accumulate" />
    <path
       sodipodi:nodetypes="ccc"
       inkscape:connector-curvature="0"
       id="path20902"
       d="m 313.8897,562.75196 v 68.79296 l 268.62012,-0.63702"
       style="fill:none;fill-rule:evenodd;stroke:#000000;stroke-width:1.75;stroke-linecap:butt;stroke-linejoin:miter;stroke-miterlimit:4;stroke-dasharray:none;stroke-opacity:1;marker-end:url(#marker20912)" />
    <g
       transform="matrix(0.7,0,0,0.7,332.36576,485.51569)"
       id="g33261">
      <g
         style="font-style:normal;font-variant:normal;font-weight:normal;font-stretch:normal;letter-spacing:normal;word-spacing:normal;text-anchor:start;fill:none;fill-opacity:1;fill-rule:evenodd;stroke:#000000;stroke-linecap:butt;stroke-linejoin:miter;stroke-miterlimit:10.43299961;stroke-dasharray:none;stroke-dashoffset:0;stroke-opacity:1"
         word-spacing="normal"
         letter-spacing="normal"
         font-size-adjust="none"
         font-stretch="normal"
         font-weight="normal"
         font-variant="normal"
         font-style="normal"
         stroke-miterlimit="10.433"
         xml:space="preserve"
         transform="matrix(1.1973621,0,0,-1.1973621,-209.53837,755.06533)"
         id="g33259"><path
           style="fill:#000000;stroke-width:0"
           inkscape:connector-curvature="0"
           id="path33257"
           d="m 465.79,426.12 h 4.68 c 0.99,0 1.49,0 1.49,1 0,0.55 -0.5,0.55 -1.39,0.55 h -4.39 c 1.79,7.08 2.04,8.08 2.04,8.37 0,0.85 -0.59,1.35 -1.43,1.35 -0.16,0 -1.55,-0.05 -2,-1.8 l -1.94,-7.92 h -4.69 c -1,0 -1.5,0 -1.5,-0.94 0,-0.61 0.41,-0.61 1.41,-0.61 h 4.37 c -3.58,-14.14 -3.78,-14.98 -3.78,-15.89 0,-2.69 1.89,-4.58 4.58,-4.58 5.08,0 7.92,7.27 7.92,7.67 0,0.5 -0.39,0.5 -0.59,0.5 -0.46,0 -0.5,-0.15 -0.75,-0.7 -2.14,-5.17 -4.78,-6.37 -6.47,-6.37 -1.05,0 -1.55,0.65 -1.55,2.29 0,1.19 0.09,1.55 0.3,2.39 z" /></g>    </g>
    <g
       transform="matrix(0.7,0,0,0.7,86.67662,390.51589)"
       id="g33399">
      <g
         style="font-style:normal;font-variant:normal;font-weight:normal;font-stretch:normal;letter-spacing:normal;word-spacing:normal;text-anchor:start;fill:none;fill-opacity:1;fill-rule:evenodd;stroke:#000000;stroke-linecap:butt;stroke-linejoin:miter;stroke-miterlimit:10.43299961;stroke-dasharray:none;stroke-dashoffset:0;stroke-opacity:1"
         id="g33397"
         transform="matrix(1.1973621,0,0,-1.1973621,-209.53837,755.06533)"
         xml:space="preserve"
         stroke-miterlimit="10.433"
         font-style="normal"
         font-variant="normal"
         font-weight="normal"
         font-stretch="normal"
         font-size-adjust="none"
         letter-spacing="normal"
         word-spacing="normal"><path
           style="fill:#000000;stroke-width:0"
           inkscape:connector-curvature="0"
           d="m 475,424.84 -0.13,-0.01 -0.12,-0.01 -0.13,-0.02 -0.12,-0.03 -0.12,-0.03 -0.12,-0.04 -0.11,-0.04 -0.11,-0.04 -0.11,-0.05 -0.1,-0.06 -0.1,-0.06 -0.1,-0.06 -0.09,-0.07 -0.09,-0.07 -0.09,-0.07 -0.08,-0.08 -0.08,-0.08 -0.07,-0.08 -0.07,-0.09 -0.06,-0.08 -0.06,-0.09 -0.06,-0.1 -0.05,-0.09 -0.04,-0.1 -0.04,-0.09 -0.04,-0.1 -0.03,-0.1 -0.02,-0.1 -0.02,-0.1 -0.02,-0.11 v -0.1 l -0.01,-0.1 c 0,-0.7 0.44,-1.44 1.55,-1.44 1.09,0 2.28,0.85 2.28,2.78 0,2.25 -2.14,4.28 -5.92,4.28 -6.58,0 -8.42,-5.07 -8.42,-7.26 0,-3.89 3.69,-4.64 5.12,-4.94 2.6,-0.5 5.19,-1.05 5.19,-3.78 0,-1.3 -1.14,-5.48 -7.12,-5.48 -0.71,0 -4.54,0 -5.69,2.64 1.9,-0.25 3.14,1.25 3.14,2.64 0,1.14 -0.8,1.75 -1.85,1.75 -1.29,0 -2.78,-1.05 -2.78,-3.3 0,-2.84 2.85,-4.83 7.13,-4.83 8.06,0 10.01,6.03 10.01,8.27 0,1.79 -0.95,3.04 -1.54,3.64 -1.35,1.39 -2.8,1.64 -4.99,2.09 -1.79,0.39 -3.78,0.75 -3.78,2.99 0,1.45 1.19,4.48 5.58,4.48 1.23,0 3.73,-0.34 4.48,-2.28 z"
           id="path33389" /><path
           style="fill:#000000;stroke-width:0"
           inkscape:connector-curvature="0"
           d="m 495.4,394.25 v 0.02 0.03 0.01 0.02 l -0.01,0.01 v 0.02 l -0.01,0.01 v 0.02 l -0.01,0.02 -0.01,0.02 -0.01,0.02 -0.02,0.03 -0.01,0.02 -0.02,0.03 -0.02,0.03 -0.03,0.03 -0.02,0.03 -0.03,0.04 -0.02,0.02 -0.02,0.02 -0.01,0.02 -0.02,0.02 -0.02,0.02 -0.02,0.03 -0.02,0.02 -0.02,0.02 -0.03,0.03 -0.02,0.02 -0.02,0.03 -0.03,0.03 -0.03,0.03 -0.02,0.03 -0.03,0.03 -0.03,0.03 -0.03,0.03 -0.04,0.03 -0.03,0.04 -0.03,0.03 -0.04,0.04 -0.03,0.03 -0.04,0.04 -0.04,0.04 c -6.22,6.28 -7.81,15.69 -7.81,23.31 0,8.67 1.89,17.35 8.01,23.56 0.64,0.61 0.64,0.71 0.64,0.86 0,0.35 -0.19,0.49 -0.48,0.49 -0.5,0 -4.99,-3.38 -7.92,-9.7 -2.55,-5.49 -3.14,-11.02 -3.14,-15.21 0,-3.89 0.54,-9.9 3.28,-15.54 2.98,-6.13 7.28,-9.36 7.78,-9.36 0.29,0 0.48,0.14 0.48,0.5 z"
           id="path33391" /><path
           style="fill:#000000;stroke-width:0"
           inkscape:connector-curvature="0"
           d="m 508.5,426.12 h 4.69 c 0.98,0 1.48,0 1.48,1 0,0.55 -0.5,0.55 -1.39,0.55 h -4.39 c 1.8,7.08 2.05,8.08 2.05,8.37 0,0.85 -0.6,1.35 -1.44,1.35 -0.16,0 -1.55,-0.05 -2,-1.8 l -1.94,-7.92 h -4.68 c -1,0 -1.5,0 -1.5,-0.94 0,-0.61 0.4,-0.61 1.4,-0.61 h 4.38 c -3.58,-14.14 -3.78,-14.98 -3.78,-15.89 0,-2.69 1.89,-4.58 4.57,-4.58 5.08,0 7.93,7.27 7.93,7.67 0,0.5 -0.4,0.5 -0.6,0.5 -0.45,0 -0.5,-0.15 -0.75,-0.7 -2.14,-5.17 -4.78,-6.37 -6.47,-6.37 -1.04,0 -1.54,0.65 -1.54,2.29 0,1.19 0.09,1.55 0.29,2.39 z"
           id="path33393" /><path
           style="fill:#000000;stroke-width:0"
           inkscape:connector-curvature="0"
           d="m 530.62,418.65 v 0.37 0.39 l -0.01,0.39 -0.01,0.41 -0.04,0.84 -0.06,0.88 -0.09,0.92 -0.1,0.95 -0.14,0.97 -0.16,1.01 -0.2,1.02 -0.23,1.03 -0.26,1.05 -0.31,1.06 -0.35,1.07 -0.39,1.07 -0.21,0.53 -0.23,0.53 -0.24,0.53 -0.25,0.53 c -2.98,6.12 -7.26,9.36 -7.76,9.36 -0.3,0 -0.5,-0.19 -0.5,-0.49 0,-0.15 0,-0.25 0.94,-1.15 4.89,-4.92 7.73,-12.85 7.73,-23.27 0,-8.51 -1.84,-17.28 -8.03,-23.56 -0.64,-0.59 -0.64,-0.7 -0.64,-0.84 0,-0.3 0.2,-0.5 0.5,-0.5 0.5,0 4.97,3.39 7.92,9.71 2.53,5.47 3.12,11 3.12,15.19 z"
           id="path33395" /></g>    </g>
    <path
       sodipodi:nodetypes="cc"
       inkscape:connector-curvature="0"
       id="path50300"
       d="M -0.07389885,936.05907 H 155.46647"
       style="fill:#000080;fill-opacity:1;fill-rule:evenodd;stroke:#000080;stroke-width:1.75;stroke-linecap:butt;stroke-linejoin:miter;stroke-miterlimit:4;stroke-dasharray:none;stroke-opacity:1;marker-start:url(#StopL);marker-end:url(#marker50344)" />
    <g
       id="g51344"
       transform="matrix(0.343,0,0,0.343,44.60776,846.96805)">
      <g
         word-spacing="normal"
         letter-spacing="normal"
         font-size-adjust="none"
         font-stretch="normal"
         font-weight="normal"
         font-variant="normal"
         font-style="normal"
         stroke-miterlimit="10.433"
         xml:space="preserve"
         transform="matrix(1.1973621,0,0,-1.1973621,-209.53837,755.06533)"
         id="g51342"
         style="font-style:normal;font-variant:normal;font-weight:normal;font-stretch:normal;letter-spacing:normal;word-spacing:normal;text-anchor:start;fill:none;fill-opacity:1;fill-rule:evenodd;stroke:#000000;stroke-linecap:butt;stroke-linejoin:miter;stroke-miterlimit:10.43299961;stroke-dasharray:none;stroke-dashoffset:0;stroke-opacity:1"><path
           id="path51332"
           d="m 473.3,420.75 0.19,-0.5 0.2,-0.51 0.39,-1.05 0.4,-1.08 0.39,-1.1 0.39,-1.1 0.39,-1.09 0.37,-1.07 0.19,-0.53 0.18,-0.51 0.17,-0.5 0.18,-0.49 0.16,-0.47 0.17,-0.45 0.16,-0.44 0.15,-0.42 0.15,-0.39 0.14,-0.37 0.13,-0.35 0.13,-0.32 0.12,-0.29 0.12,-0.26 0.1,-0.23 0.1,-0.2 0.09,-0.16 0.08,-0.12 c 0.79,-1.1 1.29,-1.1 2.64,-1.1 h 1.09 c 0.5,0.05 0.55,0.35 0.55,0.5 0,0.14 -0.1,0.25 -0.25,0.46 -0.49,0.54 -0.8,1.28 -1.14,2.28 l -10.16,28.34 c -1.05,2.89 -3.75,3.55 -6.08,3.55 -0.25,0 -0.9,0 -0.9,-0.55 0,-0.41 0.4,-0.5 0.45,-0.5 1.64,-0.3 1.98,-0.59 3.23,-3.98 l 4.83,-13.55 -13.75,-13.66 c -0.59,-0.59 -0.89,-0.9 -0.89,-1.54 0,-0.85 0.7,-1.44 1.5,-1.44 0.8,0 1.23,0.55 1.64,1.05 z"
           inkscape:connector-curvature="0"
           style="fill:#000000;stroke-width:0" /><path
           id="path51334"
           d="m 494.39,447.34 v 0 0.01 0 0.01 h 0.01 v 0.01 0 0.01 0.01 h 0.01 v 0.02 l 0.01,0.02 v 0.02 l 0.01,0.02 v 0.02 l 0.01,0.02 v 0.02 l 0.01,0.02 0.01,0.03 0.01,0.04 0.01,0.05 0.01,0.02 v 0.03 l 0.01,0.02 v 0.02 l 0.01,0.02 v 0.02 0.01 l 0.01,0.02 v 0.01 0 0.01 0.01 0 0.01 h 0.01 v 0.01 0 0 0.01 0 c 0,0.18 -0.14,0.5 -0.57,0.5 -0.68,0 -3.59,-0.28 -4.45,-0.36 -0.25,-0.03 -0.73,-0.07 -0.73,-0.8 0,-0.48 0.48,-0.48 0.87,-0.48 1.67,0 1.67,-0.25 1.67,-0.54 0,-0.23 -0.07,-0.45 -0.14,-0.76 l -4.32,-17.2 c -0.11,-0.36 -0.15,-0.74 -0.15,-1.08 0,-2.24 1.99,-3.31 3.66,-3.31 0.84,0 1.89,0.28 2.8,1.84 0.73,1.28 1.22,3.34 1.22,3.48 0,0.46 -0.46,0.46 -0.57,0.46 -0.48,0 -0.54,-0.21 -0.68,-0.85 -0.46,-1.73 -1.13,-3.97 -2.63,-3.97 -0.94,0 -1.17,0.88 -1.17,1.71 0,0.39 0.09,1.04 0.2,1.43 z"
           inkscape:connector-curvature="0"
           style="fill:#000000;stroke-width:0" /><path
           id="path51336"
           d="m 515.9,433.46 -0.01,0.36 -0.03,0.35 -0.04,0.34 -0.05,0.33 -0.07,0.32 -0.09,0.31 -0.1,0.29 -0.12,0.29 -0.12,0.28 -0.15,0.27 -0.15,0.25 -0.17,0.25 -0.17,0.23 -0.19,0.22 -0.2,0.21 -0.21,0.21 -0.22,0.18 -0.23,0.18 -0.24,0.17 -0.25,0.15 -0.25,0.15 -0.27,0.13 -0.27,0.11 -0.28,0.11 -0.28,0.1 -0.29,0.08 -0.3,0.07 -0.3,0.06 -0.31,0.04 -0.31,0.03 -0.31,0.02 -0.32,0.01 c -5.17,0 -10.05,-4.85 -10.05,-9.61 0,-3.49 2.55,-6.09 6.35,-6.09 l 0.03,0.96 c -1.73,0 -3.48,1.13 -3.48,3.88 0,1.42 0.67,4.84 2.03,6.83 1.5,2.15 3.51,3.06 5.07,3.06 1.9,0 3.49,-1.3 3.49,-3.88 0,-0.82 -0.41,-4.28 -1.95,-6.71 -1.32,-2.05 -3.41,-3.18 -5.16,-3.18 v 0 l -0.03,-0.96 c 4.98,0 10,4.59 10,9.6 z"
           inkscape:connector-curvature="0"
           style="fill:#000000;stroke-width:0" /><path
           id="path51338"
           d="m 535.41,435.31 0.02,0.09 0.02,0.1 0.03,0.09 0.03,0.11 0.02,0.1 0.03,0.11 0.05,0.21 0.06,0.23 0.05,0.22 0.06,0.22 0.02,0.1 0.03,0.11 0.02,0.1 0.03,0.1 0.02,0.1 0.02,0.1 0.02,0.09 0.02,0.08 0.02,0.08 0.02,0.08 0.01,0.07 0.01,0.07 0.02,0.05 0.01,0.05 v 0.05 l 0.01,0.04 v 0.01 0.01 0.02 0.01 c 0,0.68 -0.54,1.1 -1.14,1.1 -0.67,0 -1.3,-0.42 -1.5,-1.01 -0.11,-0.27 -0.45,-1.74 -0.7,-2.61 -0.49,-1.98 -0.49,-2.05 -1,-4 -0.45,-1.92 -0.53,-2.2 -0.56,-3.2 0.14,-0.71 -0.14,-1.36 -0.99,-2.41 -0.44,-0.56 -1.14,-1.16 -2.33,-1.16 -1.36,0 -3.14,0.49 -3.14,3.21 0,1.78 0.99,4.36 1.68,6.14 0.59,1.53 0.73,1.84 0.73,2.44 0,1.67 -1.42,2.95 -3.31,2.95 -3.52,0 -5.08,-4.74 -5.08,-5.33 0,-0.45 0.48,-0.45 0.59,-0.45 0.49,0 0.52,0.17 0.63,0.56 0.87,2.89 2.37,4.25 3.76,4.25 0.6,0 0.86,-0.39 0.86,-1.22 0,-0.8 -0.31,-1.56 -0.48,-2.01 -1.99,-5.1 -1.99,-5.8 -1.99,-6.88 0,-4.11 3.74,-4.62 5.61,-4.62 0.68,0 2.38,0 3.94,2.32 0.8,-1.56 2.72,-2.32 4.84,-2.32 3.11,0 4.64,2.67 5.33,4.1 1.5,2.93 2.44,7.29 2.44,8.9 0,2.6 -1.48,2.75 -1.73,2.75 -0.91,0 -1.88,-0.96 -1.88,-1.86 0,-0.58 0.34,-0.86 0.58,-1.08 0.84,-0.69 1.3,-1.67 1.3,-2.78 0,-0.46 -1.47,-9.07 -5.9,-9.07 -2.82,0 -2.82,2.52 -2.82,3.11 0,0.94 0.14,1.5 0.64,3.49 z"
           inkscape:connector-curvature="0"
           style="fill:#000000;stroke-width:0" /><path
           id="path51340"
           d="m 503.09,406.7 0.01,0.05 0.01,0.04 0.02,0.05 0.01,0.04 0.01,0.04 v 0.03 l 0.01,0.04 0.01,0.03 0.01,0.04 v 0.03 l 0.01,0.03 0.01,0.03 v 0.02 l 0.01,0.03 v 0.02 0.02 l 0.01,0.02 v 0.02 0.02 0.02 0.01 l 0.01,0.02 v 0.01 0.01 0.01 0.01 0.01 0.01 0.01 0 0.01 0 c 0,0.77 -0.62,1.11 -1.19,1.11 -0.79,0 -1.45,-0.65 -1.59,-1.33 -0.59,0.96 -1.78,1.99 -3.59,1.99 v -0.97 c 2.43,0 3.1,-2.61 3.1,-2.97 0,-0.06 0,-0.12 -0.1,-0.51 l -1.57,-6.27 c -0.14,-0.53 -0.14,-0.59 -0.73,-1.3 -1.22,-1.47 -2.89,-2.37 -4.22,-2.37 -1.78,0 -2.61,1.5 -2.61,3.31 0,1.53 0.94,5.44 1.84,6.97 1.47,2.44 3.1,3.14 4.29,3.14 v 0.97 c -4.36,0 -8.93,-4.66 -8.93,-9.64 0,-3.6 2.44,-5.72 5.3,-5.72 1.61,0 3.14,0.8 4.36,1.87 l -0.77,-3.12 c -0.39,-1.47 -0.62,-2.41 -1.95,-3.59 -1.53,-1.29 -3.03,-1.29 -3.91,-1.29 -1.59,0 -2.04,0.1 -2.67,0.24 0.86,0.42 1.11,1.25 1.11,1.75 0,0.83 -0.65,1.28 -1.36,1.28 -0.97,0 -1.98,-0.8 -1.98,-2.12 0,-2.1 3,-2.13 4.95,-2.13 5.47,0 7.8,2.78 8.28,4.78 z"
           inkscape:connector-curvature="0"
           style="fill:#000000;stroke-width:0" /></g>    </g>
    <path
       sodipodi:nodetypes="cc"
       style="opacity:1;fill:#000080;fill-opacity:1;fill-rule:evenodd;stroke:#ff00ff;stroke-width:1.75;stroke-linecap:butt;stroke-linejoin:miter;stroke-miterlimit:4;stroke-dasharray:none;stroke-dashoffset:0;stroke-opacity:1;marker-start:url(#marker51617);marker-end:url(#marker51627)"
       d="M -0.07389785,905.76817 H 120.53063"
       id="path51539"
       inkscape:connector-curvature="0" />
    <path
       sodipodi:nodetypes="cc"
       style="opacity:1;fill:#000080;fill-opacity:1;fill-rule:evenodd;stroke:#ff0000;stroke-width:1.75;stroke-linecap:butt;stroke-linejoin:miter;stroke-miterlimit:4;stroke-dasharray:none;stroke-dashoffset:0;stroke-opacity:1;marker-start:url(#marker53541);marker-end:url(#marker53551)"
       d="M 0.85943515,874.29635 H 98.07216"
       id="path53463"
       inkscape:connector-curvature="0" />
    <g
       id="g54112"
       transform="matrix(0.343,0,0,0.343,10.340288,817.38766)">
      <g
         id="g54110"
         transform="matrix(1.1973621,0,0,-1.1973621,-209.53837,755.06533)"
         xml:space="preserve"
         stroke-miterlimit="10.433"
         font-style="normal"
         font-variant="normal"
         font-weight="normal"
         font-stretch="normal"
         font-size-adjust="none"
         letter-spacing="normal"
         word-spacing="normal"
         style="font-style:normal;font-variant:normal;font-weight:normal;font-stretch:normal;letter-spacing:normal;word-spacing:normal;text-anchor:start;fill:none;fill-opacity:1;fill-rule:evenodd;stroke:#000000;stroke-linecap:butt;stroke-linejoin:miter;stroke-miterlimit:10.43299961;stroke-dasharray:none;stroke-dashoffset:0;stroke-opacity:1"><path
           d="m 473.3,420.75 0.19,-0.5 0.2,-0.51 0.39,-1.05 0.4,-1.08 0.39,-1.1 0.39,-1.1 0.39,-1.09 0.37,-1.07 0.19,-0.53 0.18,-0.51 0.17,-0.5 0.18,-0.49 0.16,-0.47 0.17,-0.45 0.16,-0.44 0.15,-0.42 0.15,-0.39 0.14,-0.37 0.13,-0.35 0.13,-0.32 0.12,-0.29 0.12,-0.26 0.1,-0.23 0.1,-0.2 0.09,-0.16 0.08,-0.12 c 0.79,-1.1 1.29,-1.1 2.64,-1.1 h 1.09 c 0.5,0.05 0.55,0.35 0.55,0.5 0,0.14 -0.1,0.25 -0.25,0.46 -0.49,0.54 -0.8,1.28 -1.14,2.28 l -10.16,28.34 c -1.05,2.89 -3.75,3.55 -6.08,3.55 -0.25,0 -0.9,0 -0.9,-0.55 0,-0.41 0.4,-0.5 0.45,-0.5 1.64,-0.3 1.98,-0.59 3.23,-3.98 l 4.83,-13.55 -13.75,-13.66 c -0.59,-0.59 -0.89,-0.9 -0.89,-1.54 0,-0.85 0.7,-1.44 1.5,-1.44 0.8,0 1.23,0.55 1.64,1.05 z"
           id="path54092"
           inkscape:connector-curvature="0"
           style="fill:#000000;stroke-width:0" /><path
           d="m 504.45,447.34 v 0 0.01 h 0.01 v 0.01 0 0.01 h 0.01 v 0.01 0.01 0 l 0.01,0.02 0.01,0.02 v 0.02 l 0.01,0.02 v 0.02 l 0.01,0.02 v 0.02 l 0.01,0.02 0.01,0.03 0.01,0.04 v 0.03 l 0.01,0.02 v 0.02 l 0.01,0.03 v 0.02 l 0.01,0.02 v 0.02 0.02 l 0.01,0.01 v 0.02 0.01 0 0.01 l 0.01,0.01 v 0 0.01 0 0.01 0 0 0.01 0 c 0,0.18 -0.14,0.5 -0.55,0.5 -0.7,0 -3.59,-0.28 -4.47,-0.36 -0.28,-0.03 -0.76,-0.07 -0.76,-0.8 0,-0.48 0.48,-0.48 0.9,-0.48 1.68,0 1.68,-0.25 1.68,-0.54 0,-0.23 -0.07,-0.45 -0.14,-0.76 l -1.99,-7.94 c -0.73,1.14 -1.92,2.05 -3.59,2.05 v -0.97 c 2.44,0 3.11,-2.64 3.11,-3.03 0,-0.14 -0.08,-0.39 -0.11,-0.49 l -1.64,-6.51 c -0.24,-0.99 -1,-1.67 -1.77,-2.35 -0.31,-0.26 -1.72,-1.39 -3.22,-1.39 -1.28,0 -2.53,0.91 -2.53,3.38 0,1.86 1,5.69 1.81,7.08 1.6,2.79 3.38,3.31 4.35,3.31 v 0.97 c -4.46,0 -8.99,-4.91 -8.99,-9.92 0,-3.38 2.27,-5.78 5.27,-5.78 1.87,0 3.55,1.07 4.94,2.43 0.67,-2.09 2.68,-2.43 3.59,-2.43 1.25,0 2.13,0.76 2.75,1.84 0.77,1.36 1.22,3.34 1.22,3.48 0,0.46 -0.45,0.46 -0.55,0.46 -0.5,0 -0.53,-0.14 -0.76,-1.08 -0.43,-1.67 -1.1,-3.74 -2.55,-3.74 -0.91,0 -1.16,0.77 -1.16,1.71 0,0.67 0.08,0.98 0.18,1.43 z"
           id="path54094"
           inkscape:connector-curvature="0"
           style="fill:#000000;stroke-width:0" /><path
           d="m 513.13,432.14 h 0.1 0.1 0.12 0.12 0.13 l 0.14,0.01 h 0.15 l 0.16,0.01 0.16,0.01 0.17,0.01 h 0.17 l 0.18,0.02 0.18,0.01 0.19,0.01 0.39,0.04 0.39,0.04 0.41,0.05 0.4,0.06 0.41,0.07 0.4,0.08 0.2,0.04 0.19,0.05 0.2,0.05 0.18,0.05 0.19,0.06 0.18,0.06 c 2.58,0.91 3.06,2.58 3.06,3.63 0,1.92 -1.92,3.06 -4.33,3.06 v -0.97 c 1.53,0 2.83,-0.77 2.83,-2.09 0,-3.38 -5.89,-3.38 -7.39,-3.38 h -1.7 c 1.42,5.05 5.29,5.47 6.26,5.47 v 0.97 c -4.17,0 -9.83,-3.2 -9.83,-9.16 0,-3.51 2.21,-6.54 6.29,-6.54 5.89,0 8.64,3.43 8.64,3.93 0,0.21 -0.32,0.6 -0.6,0.6 -0.2,0 -0.28,-0.08 -0.56,-0.36 -2.72,-3.21 -6.8,-3.21 -7.42,-3.21 -2.1,0 -3.49,1.39 -3.49,4.22 0,0.49 0,1.19 0.43,3.1 z"
           id="path54096"
           inkscape:connector-curvature="0"
           style="fill:#000000;stroke-width:0" /><path
           d="m 539.17,437.29 -0.08,-0.02 -0.08,-0.02 -0.08,-0.03 -0.08,-0.03 -0.08,-0.03 -0.07,-0.03 -0.07,-0.04 -0.07,-0.04 -0.07,-0.04 -0.06,-0.05 -0.06,-0.04 -0.06,-0.05 -0.06,-0.05 -0.05,-0.05 -0.05,-0.05 -0.05,-0.06 -0.05,-0.05 -0.04,-0.06 -0.04,-0.06 -0.04,-0.06 -0.04,-0.06 -0.03,-0.06 -0.03,-0.06 -0.02,-0.07 -0.03,-0.06 -0.02,-0.06 -0.02,-0.07 -0.01,-0.06 -0.01,-0.07 -0.01,-0.06 -0.01,-0.07 v -0.06 c 0,-0.81 0.71,-1.13 1.16,-1.13 0.34,0 1.67,0.22 1.67,1.99 0,2.26 -2.5,3.03 -4.62,3.03 -5.44,0 -6.43,-4 -6.43,-5.08 0,-1.3 0.74,-2.12 1.22,-2.55 0.91,-0.7 1.53,-0.82 3.94,-1.25 0.74,-0.14 2.97,-0.56 2.97,-2.29 0,-0.6 -0.39,-1.93 -1.84,-2.8 -1.36,-0.77 -3.08,-0.77 -3.49,-0.77 -1.4,0 -3.39,0.32 -4.19,1.47 1.16,0.14 1.93,1 1.93,1.99 0,0.87 -0.63,1.28 -1.36,1.28 -1.02,0 -2.04,-0.8 -2.04,-2.33 0,-2.09 2.24,-3.37 5.61,-3.37 6.43,0 7.61,4.39 7.61,5.75 0,3.2 -3.53,3.82 -4.81,4.07 -0.31,0.07 -1.19,0.21 -1.39,0.27 -1.3,0.25 -1.92,0.98 -1.92,1.75 0,0.8 0.62,1.73 1.39,2.23 0.94,0.6 2.16,0.66 2.75,0.66 0.73,0 2.55,-0.11 3.31,-1.3 z"
           id="path54098"
           inkscape:connector-curvature="0"
           style="fill:#000000;stroke-width:0" /><path
           d="m 554.29,445.98 v 0.05 0.06 l -0.01,0.05 -0.01,0.05 -0.01,0.06 -0.01,0.06 -0.02,0.05 -0.02,0.06 -0.02,0.05 -0.02,0.06 -0.03,0.06 -0.03,0.05 -0.04,0.05 -0.03,0.06 -0.04,0.05 -0.04,0.05 -0.05,0.05 -0.04,0.05 -0.05,0.04 -0.06,0.04 -0.05,0.04 -0.06,0.04 -0.06,0.04 -0.07,0.03 -0.07,0.03 -0.07,0.02 -0.07,0.03 -0.08,0.01 -0.08,0.02 -0.09,0.01 -0.08,0.01 h -0.09 c -0.94,0 -1.96,-0.91 -1.96,-1.92 0,-0.6 0.46,-1.33 1.41,-1.33 1,0 1.95,0.98 1.95,1.92 z"
           id="path54100"
           inkscape:connector-curvature="0"
           style="fill:#000000;stroke-width:0" /><path
           d="m 547.18,428.28 -0.05,-0.17 -0.05,-0.17 -0.03,-0.08 -0.03,-0.09 -0.02,-0.09 -0.03,-0.08 -0.02,-0.09 -0.02,-0.1 -0.01,-0.09 -0.02,-0.1 -0.01,-0.09 -0.01,-0.05 v -0.06 -0.05 l -0.01,-0.05 v -0.06 -0.05 c 0,-1.64 1.39,-2.95 3.3,-2.95 3.48,0 5.03,4.79 5.03,5.32 0,0.46 -0.45,0.46 -0.56,0.46 -0.49,0 -0.54,-0.21 -0.67,-0.6 -0.8,-2.78 -2.33,-4.22 -3.69,-4.22 -0.71,0 -0.88,0.46 -0.88,1.22 0,0.8 0.25,1.47 0.57,2.24 0.34,0.93 0.73,1.87 1.1,2.78 0.32,0.84 1.58,4.01 1.72,4.44 0.1,0.34 0.21,0.76 0.21,1.11 0,1.64 -1.4,2.95 -3.32,2.95 -3.45,0 -5.04,-4.74 -5.04,-5.33 0,-0.45 0.48,-0.45 0.59,-0.45 0.49,0 0.52,0.17 0.62,0.56 0.91,3 2.44,4.25 3.72,4.25 0.57,0 0.88,-0.28 0.88,-1.22 0,-0.8 -0.2,-1.33 -1.08,-3.48 z"
           id="path54102"
           inkscape:connector-curvature="0"
           style="fill:#000000;stroke-width:0" /><path
           d="m 575.57,437.06 0.01,0.05 0.01,0.04 0.01,0.04 0.01,0.05 0.01,0.04 0.01,0.03 0.01,0.04 0.01,0.03 v 0.04 l 0.01,0.03 0.01,0.03 v 0.03 l 0.01,0.02 v 0.03 l 0.01,0.02 v 0.02 0.02 l 0.01,0.02 v 0.02 0.02 0.01 0.02 0.01 0.01 l 0.01,0.01 v 0.01 0.01 0.01 0.01 0 0.01 0 c 0,0.77 -0.63,1.11 -1.19,1.11 -0.8,0 -1.45,-0.65 -1.59,-1.33 -0.6,0.96 -1.78,1.99 -3.6,1.99 v -0.97 c 2.44,0 3.11,-2.61 3.11,-2.97 0,-0.06 0,-0.12 -0.11,-0.51 l -1.56,-6.27 c -0.14,-0.53 -0.14,-0.59 -0.74,-1.3 -1.21,-1.47 -2.88,-2.37 -4.21,-2.37 -1.79,0 -2.61,1.5 -2.61,3.31 0,1.53 0.94,5.44 1.84,6.97 1.47,2.44 3.1,3.14 4.28,3.14 v 0.97 c -4.36,0 -8.92,-4.66 -8.92,-9.64 0,-3.6 2.44,-5.72 5.3,-5.72 1.61,0 3.14,0.8 4.36,1.87 l -0.77,-3.12 c -0.39,-1.47 -0.62,-2.41 -1.95,-3.59 -1.53,-1.29 -3.03,-1.29 -3.91,-1.29 -1.59,0 -2.04,0.1 -2.67,0.24 0.86,0.42 1.11,1.25 1.11,1.75 0,0.83 -0.66,1.28 -1.36,1.28 -0.97,0 -1.99,-0.8 -1.99,-2.13 0,-2.09 3,-2.12 4.96,-2.12 5.47,0 7.79,2.78 8.28,4.78 z"
           id="path54104"
           inkscape:connector-curvature="0"
           style="fill:#000000;stroke-width:0" /><path
           d="m 581.93,426.39 -0.02,-0.05 -0.01,-0.04 -0.02,-0.05 -0.01,-0.05 -0.01,-0.05 -0.02,-0.05 -0.01,-0.05 -0.02,-0.05 -0.03,-0.11 -0.02,-0.12 -0.03,-0.11 -0.03,-0.11 -0.01,-0.05 -0.01,-0.05 -0.02,-0.05 -0.01,-0.05 -0.01,-0.05 -0.01,-0.05 -0.01,-0.04 v -0.04 l -0.01,-0.04 -0.01,-0.03 v -0.03 l -0.01,-0.03 v -0.03 l -0.01,-0.02 v 0 -0.01 -0.01 -0.01 c 0,-0.76 0.63,-1.1 1.19,-1.1 0.63,0 1.17,0.45 1.36,0.76 0.17,0.31 0.45,1.42 0.62,2.16 0.18,0.65 0.55,2.26 0.77,3.14 0.2,0.76 0.42,1.53 0.59,2.33 0.38,1.43 0.46,1.7 1.46,3.14 0.98,1.39 2.62,3.2 5.23,3.2 2.02,0 2.05,-1.78 2.05,-2.44 0,-2.09 -1.49,-5.95 -2.05,-7.42 -0.39,-0.98 -0.53,-1.3 -0.53,-1.89 0,-1.84 1.55,-2.98 3.31,-2.98 3.49,0 5.02,4.79 5.02,5.32 0,0.46 -0.45,0.46 -0.55,0.46 -0.5,0 -0.53,-0.21 -0.67,-0.6 -0.8,-2.78 -2.3,-4.22 -3.69,-4.22 -0.73,0 -0.87,0.49 -0.87,1.22 0,0.8 0.17,1.25 0.79,2.83 0.42,1.08 1.86,4.77 1.86,6.72 0,3.39 -2.69,3.97 -4.53,3.97 -2.89,0 -4.84,-1.77 -5.89,-3.16 -0.25,2.39 -2.3,3.16 -3.73,3.16 -1.5,0 -2.3,-1.08 -2.75,-1.88 -0.77,-1.28 -1.25,-3.28 -1.25,-3.45 0,-0.45 0.48,-0.45 0.59,-0.45 0.49,0 0.52,0.11 0.77,1.04 0.51,2.07 1.18,3.77 2.54,3.77 0.91,0 1.14,-0.77 1.14,-1.7 0,-0.68 -0.31,-1.96 -0.56,-2.89 -0.23,-0.96 -0.58,-2.38 -0.77,-3.14 z"
           id="path54106"
           inkscape:connector-curvature="0"
           style="fill:#000000;stroke-width:0" /><path
           d="m 503.09,406.7 0.01,0.05 0.01,0.04 0.02,0.05 0.01,0.04 0.01,0.04 v 0.03 l 0.01,0.04 0.01,0.03 0.01,0.04 v 0.03 l 0.01,0.03 0.01,0.03 v 0.02 l 0.01,0.03 v 0.02 0.02 l 0.01,0.02 v 0.02 0.02 0.02 0.01 l 0.01,0.02 v 0.01 0.01 0.01 0.01 0.01 0.01 0.01 0 0.01 0 c 0,0.77 -0.62,1.11 -1.19,1.11 -0.79,0 -1.45,-0.65 -1.59,-1.33 -0.59,0.96 -1.78,1.99 -3.59,1.99 v -0.97 c 2.43,0 3.1,-2.61 3.1,-2.97 0,-0.06 0,-0.12 -0.1,-0.51 l -1.57,-6.27 c -0.14,-0.53 -0.14,-0.59 -0.73,-1.3 -1.22,-1.47 -2.89,-2.37 -4.22,-2.37 -1.78,0 -2.61,1.5 -2.61,3.31 0,1.53 0.94,5.44 1.84,6.97 1.47,2.44 3.1,3.14 4.29,3.14 v 0.97 c -4.36,0 -8.93,-4.66 -8.93,-9.64 0,-3.6 2.44,-5.72 5.3,-5.72 1.61,0 3.14,0.8 4.36,1.87 l -0.77,-3.12 c -0.39,-1.47 -0.62,-2.41 -1.95,-3.59 -1.53,-1.29 -3.03,-1.29 -3.91,-1.29 -1.59,0 -2.04,0.1 -2.67,0.24 0.86,0.42 1.11,1.25 1.11,1.75 0,0.83 -0.65,1.28 -1.36,1.28 -0.97,0 -1.98,-0.8 -1.98,-2.12 0,-2.1 3,-2.13 4.95,-2.13 5.47,0 7.8,2.78 8.28,4.78 z"
           id="path54108"
           inkscape:connector-curvature="0"
           style="fill:#000000;stroke-width:0" /></g>    </g>
    <g
       id="g54380"
       transform="matrix(0.343,0,0,0.343,-12.036955,786.79883)">
      <g
         word-spacing="normal"
         letter-spacing="normal"
         font-size-adjust="none"
         font-stretch="normal"
         font-weight="normal"
         font-variant="normal"
         font-style="normal"
         stroke-miterlimit="10.433"
         xml:space="preserve"
         transform="matrix(1.1973621,0,0,-1.1973621,-209.53837,755.06533)"
         id="g54378"
         style="font-style:normal;font-variant:normal;font-weight:normal;font-stretch:normal;letter-spacing:normal;word-spacing:normal;text-anchor:start;fill:none;fill-opacity:1;fill-rule:evenodd;stroke:#000000;stroke-linecap:butt;stroke-linejoin:miter;stroke-miterlimit:10.43299961;stroke-dasharray:none;stroke-dashoffset:0;stroke-opacity:1"><path
           id="path54364"
           d="m 473.3,420.75 0.19,-0.5 0.2,-0.51 0.39,-1.05 0.4,-1.08 0.39,-1.1 0.39,-1.1 0.39,-1.09 0.37,-1.07 0.19,-0.53 0.18,-0.51 0.17,-0.5 0.18,-0.49 0.16,-0.47 0.17,-0.45 0.16,-0.44 0.15,-0.42 0.15,-0.39 0.14,-0.37 0.13,-0.35 0.13,-0.32 0.12,-0.29 0.12,-0.26 0.1,-0.23 0.1,-0.2 0.09,-0.16 0.08,-0.12 c 0.79,-1.1 1.29,-1.1 2.64,-1.1 h 1.09 c 0.5,0.05 0.55,0.35 0.55,0.5 0,0.14 -0.1,0.25 -0.25,0.46 -0.49,0.54 -0.8,1.28 -1.14,2.28 l -10.16,28.34 c -1.05,2.89 -3.75,3.55 -6.08,3.55 -0.25,0 -0.9,0 -0.9,-0.55 0,-0.41 0.4,-0.5 0.45,-0.5 1.64,-0.3 1.98,-0.59 3.23,-3.98 l 4.83,-13.55 -13.75,-13.66 c -0.59,-0.59 -0.89,-0.9 -0.89,-1.54 0,-0.85 0.7,-1.44 1.5,-1.44 0.8,0 1.23,0.55 1.64,1.05 z"
           inkscape:connector-curvature="0"
           style="fill:#000000;stroke-width:0" /><path
           id="path54366"
           d="m 495.46,447.34 h 0.01 v 0.01 0 0.01 0 l 0.01,0.01 v 0 0.01 0.01 0 l 0.01,0.02 v 0.02 l 0.01,0.02 0.01,0.02 v 0.02 l 0.01,0.02 v 0.02 l 0.01,0.02 v 0.03 l 0.02,0.04 0.01,0.05 v 0.02 l 0.01,0.03 v 0.02 l 0.01,0.02 v 0.02 l 0.01,0.02 v 0.01 0.02 l 0.01,0.01 v 0 0.01 0.01 0 0.01 0 0.01 0 0 0.01 h 0.01 c 0,0.18 -0.15,0.5 -0.57,0.5 -0.68,0 -3.58,-0.28 -4.45,-0.36 -0.28,-0.03 -0.77,-0.07 -0.77,-0.8 0,-0.48 0.49,-0.48 0.91,-0.48 1.67,0 1.67,-0.25 1.67,-0.54 0,-0.23 -0.08,-0.45 -0.14,-0.76 l -4.92,-19.72 c -0.17,-0.62 -0.17,-0.69 -0.17,-0.77 0,-0.51 0.42,-1.1 1.19,-1.1 0.39,0 1.04,0.17 1.43,0.9 0.1,0.2 0.41,1.45 0.58,2.19 l 0.81,3.11 c 0.1,0.51 0.46,1.84 0.55,2.36 0.36,1.33 0.36,1.36 1.05,2.48 1.12,1.71 2.86,3.69 5.58,3.69 1.95,0 2.06,-1.61 2.06,-2.44 0,-2.09 -1.5,-5.95 -2.06,-7.42 -0.38,-0.98 -0.52,-1.3 -0.52,-1.89 0,-1.84 1.53,-2.98 3.3,-2.98 3.5,0 5.03,4.79 5.03,5.32 0,0.46 -0.46,0.46 -0.56,0.46 -0.49,0 -0.54,-0.21 -0.66,-0.6 -0.81,-2.78 -2.34,-4.22 -3.7,-4.22 -0.74,0 -0.88,0.49 -0.88,1.22 0,0.8 0.19,1.25 0.81,2.83 0.41,1.08 1.85,4.77 1.85,6.72 0,0.56 0,2.03 -1.3,3.03 -0.59,0.45 -1.59,0.94 -3.23,0.94 -2.55,0 -4.39,-1.39 -5.68,-2.89 z"
           inkscape:connector-curvature="0"
           style="fill:#000000;stroke-width:0" /><path
           id="path54368"
           d="m 519.13,445.98 v 0.05 0.06 l -0.01,0.05 -0.01,0.05 -0.01,0.06 -0.01,0.06 -0.02,0.05 -0.02,0.06 -0.02,0.05 -0.02,0.06 -0.03,0.06 -0.03,0.05 -0.04,0.05 -0.03,0.06 -0.04,0.05 -0.04,0.05 -0.05,0.05 -0.04,0.05 -0.05,0.04 -0.06,0.04 -0.05,0.04 -0.06,0.04 -0.06,0.04 -0.07,0.03 -0.07,0.03 -0.07,0.02 -0.07,0.03 -0.08,0.01 -0.08,0.02 -0.09,0.01 -0.08,0.01 h -0.09 c -0.94,0 -1.96,-0.91 -1.96,-1.92 0,-0.6 0.46,-1.33 1.41,-1.33 1,0 1.95,0.98 1.95,1.92 z"
           inkscape:connector-curvature="0"
           style="fill:#000000;stroke-width:0" /><path
           id="path54370"
           d="m 512.02,428.28 -0.05,-0.17 -0.05,-0.17 -0.03,-0.08 -0.03,-0.09 -0.02,-0.09 -0.03,-0.08 -0.02,-0.09 -0.02,-0.1 -0.01,-0.09 -0.02,-0.1 -0.01,-0.09 -0.01,-0.05 v -0.06 -0.05 l -0.01,-0.05 v -0.06 -0.05 c 0,-1.64 1.39,-2.95 3.3,-2.95 3.48,0 5.03,4.79 5.03,5.32 0,0.46 -0.45,0.46 -0.56,0.46 -0.49,0 -0.53,-0.21 -0.68,-0.6 -0.79,-2.78 -2.32,-4.22 -3.68,-4.22 -0.71,0 -0.88,0.46 -0.88,1.22 0,0.8 0.25,1.47 0.56,2.24 0.35,0.93 0.74,1.87 1.11,2.78 0.32,0.84 1.58,4.01 1.72,4.44 0.1,0.34 0.21,0.76 0.21,1.11 0,1.64 -1.39,2.95 -3.32,2.95 -3.45,0 -5.04,-4.74 -5.04,-5.33 0,-0.45 0.48,-0.45 0.59,-0.45 0.48,0 0.52,0.17 0.63,0.56 0.9,3 2.43,4.25 3.71,4.25 0.57,0 0.88,-0.28 0.88,-1.22 0,-0.8 -0.2,-1.33 -1.08,-3.48 z"
           inkscape:connector-curvature="0"
           style="fill:#000000;stroke-width:0" /><path
           id="path54372"
           d="m 540.41,437.06 0.01,0.05 0.01,0.04 0.01,0.04 0.01,0.05 0.01,0.04 0.01,0.03 0.01,0.04 0.01,0.03 v 0.04 l 0.01,0.03 0.01,0.03 v 0.03 l 0.01,0.02 v 0.03 l 0.01,0.02 v 0.02 0.02 l 0.01,0.02 v 0.02 0.02 0.01 0.02 0.01 0.01 l 0.01,0.01 v 0.01 0.01 0.01 0.01 0 0.01 0 c 0,0.77 -0.63,1.11 -1.19,1.11 -0.8,0 -1.45,-0.65 -1.59,-1.33 -0.6,0.96 -1.79,1.99 -3.6,1.99 v -0.97 c 2.44,0 3.11,-2.61 3.11,-2.97 0,-0.06 0,-0.12 -0.11,-0.51 l -1.56,-6.27 c -0.14,-0.53 -0.14,-0.59 -0.73,-1.3 -1.22,-1.47 -2.9,-2.37 -4.22,-2.37 -1.78,0 -2.61,1.5 -2.61,3.31 0,1.53 0.93,5.44 1.84,6.97 1.47,2.44 3.09,3.14 4.28,3.14 v 0.97 c -4.36,0 -8.92,-4.66 -8.92,-9.64 0,-3.6 2.44,-5.72 5.3,-5.72 1.61,0 3.14,0.8 4.36,1.87 l -0.77,-3.12 c -0.39,-1.47 -0.62,-2.41 -1.95,-3.59 -1.53,-1.29 -3.03,-1.29 -3.91,-1.29 -1.59,0 -2.05,0.1 -2.67,0.24 0.86,0.42 1.11,1.25 1.11,1.75 0,0.83 -0.66,1.28 -1.36,1.28 -0.97,0 -1.98,-0.8 -1.98,-2.13 0,-2.09 3,-2.12 4.95,-2.12 5.47,0 7.79,2.78 8.28,4.78 z"
           inkscape:connector-curvature="0"
           style="fill:#000000;stroke-width:0" /><path
           id="path54374"
           d="m 553.42,447.34 v 0 l 0.01,0.01 v 0 0.01 0 0.01 0 l 0.01,0.01 v 0.01 0 l 0.01,0.02 v 0.02 l 0.01,0.02 v 0.02 l 0.01,0.02 v 0.02 l 0.01,0.02 0.01,0.02 v 0.03 l 0.01,0.04 0.02,0.05 v 0.02 l 0.01,0.03 v 0.02 l 0.01,0.02 v 0.02 l 0.01,0.02 v 0.01 0.02 0.01 h 0.01 v 0.01 0.01 0 0.01 0 0.01 0 0 0.01 0 c 0,0.18 -0.14,0.5 -0.56,0.5 -0.69,0 -3.58,-0.28 -4.45,-0.36 -0.28,-0.03 -0.77,-0.07 -0.77,-0.8 0,-0.48 0.49,-0.48 0.91,-0.48 1.67,0 1.67,-0.25 1.67,-0.54 0,-0.23 -0.08,-0.45 -0.14,-0.76 l -4.92,-19.72 c -0.18,-0.62 -0.18,-0.69 -0.18,-0.77 0,-0.51 0.43,-1.1 1.19,-1.1 0.39,0 1.05,0.17 1.44,0.9 0.09,0.2 0.41,1.45 0.58,2.19 l 0.81,3.11 c 0.09,0.51 0.45,1.84 0.55,2.36 0.36,1.33 0.36,1.36 1.04,2.48 1.13,1.71 2.86,3.69 5.58,3.69 1.96,0 2.07,-1.61 2.07,-2.44 0,-2.09 -1.5,-5.95 -2.07,-7.42 -0.37,-0.98 -0.51,-1.3 -0.51,-1.89 0,-1.84 1.53,-2.98 3.29,-2.98 3.5,0 5.03,4.79 5.03,5.32 0,0.46 -0.45,0.46 -0.56,0.46 -0.48,0 -0.53,-0.21 -0.65,-0.6 -0.82,-2.78 -2.35,-4.22 -3.71,-4.22 -0.73,0 -0.87,0.49 -0.87,1.22 0,0.8 0.19,1.25 0.81,2.83 0.41,1.08 1.84,4.77 1.84,6.72 0,0.56 0,2.03 -1.29,3.03 -0.6,0.45 -1.6,0.94 -3.24,0.94 -2.54,0 -4.39,-1.39 -5.67,-2.89 z"
           inkscape:connector-curvature="0"
           style="fill:#000000;stroke-width:0" /><path
           id="path54376"
           d="m 503.09,406.7 0.01,0.05 0.01,0.04 0.02,0.05 0.01,0.04 0.01,0.04 v 0.03 l 0.01,0.04 0.01,0.03 0.01,0.04 v 0.03 l 0.01,0.03 0.01,0.03 v 0.02 l 0.01,0.03 v 0.02 0.02 l 0.01,0.02 v 0.02 0.02 0.02 0.01 l 0.01,0.02 v 0.01 0.01 0.01 0.01 0.01 0.01 0.01 0 0.01 0 c 0,0.77 -0.62,1.11 -1.19,1.11 -0.79,0 -1.45,-0.65 -1.59,-1.33 -0.59,0.96 -1.78,1.99 -3.59,1.99 v -0.97 c 2.43,0 3.1,-2.61 3.1,-2.97 0,-0.06 0,-0.12 -0.1,-0.51 l -1.57,-6.27 c -0.14,-0.53 -0.14,-0.59 -0.73,-1.3 -1.22,-1.47 -2.89,-2.37 -4.22,-2.37 -1.78,0 -2.61,1.5 -2.61,3.31 0,1.53 0.94,5.44 1.84,6.97 1.47,2.44 3.1,3.14 4.29,3.14 v 0.97 c -4.36,0 -8.93,-4.66 -8.93,-9.64 0,-3.6 2.44,-5.72 5.3,-5.72 1.61,0 3.14,0.8 4.36,1.87 l -0.77,-3.12 c -0.39,-1.47 -0.62,-2.41 -1.95,-3.59 -1.53,-1.29 -3.03,-1.29 -3.91,-1.29 -1.59,0 -2.04,0.1 -2.67,0.24 0.86,0.42 1.11,1.25 1.11,1.75 0,0.83 -0.65,1.28 -1.36,1.28 -0.97,0 -1.98,-0.8 -1.98,-2.12 0,-2.1 3,-2.13 4.95,-2.13 5.47,0 7.8,2.78 8.28,4.78 z"
           inkscape:connector-curvature="0"
           style="fill:#000000;stroke-width:0" /></g>    </g>
    <path
       sodipodi:nodetypes="cc"
       style="fill:none;fill-rule:evenodd;stroke:#000000;stroke-width:1.96875;stroke-linecap:butt;stroke-linejoin:miter;stroke-miterlimit:4;stroke-dasharray:1.96874999, 1.96874999;stroke-dashoffset:0;stroke-opacity:1;marker-start:url(#marker54775);marker-end:url(#marker54775)"
       d="M -18.605039,777.73658 H 101.99949"
       id="path62940"
       inkscape:connector-curvature="0" />
    <g
       transform="matrix(0.7,0,0,0.7,-210.44733,600.97046)"
       id="g63626">
      <g
         style="font-style:normal;font-variant:normal;font-weight:normal;font-stretch:normal;letter-spacing:normal;word-spacing:normal;text-anchor:start;fill:none;fill-opacity:1;fill-rule:evenodd;stroke:#000000;stroke-linecap:butt;stroke-linejoin:miter;stroke-miterlimit:10.43299961;stroke-dasharray:none;stroke-dashoffset:0;stroke-opacity:1"
         id="g63624"
         transform="matrix(1.2324232,0,0,-1.2324232,-215.67405,738.64474)"
         xml:space="preserve"
         stroke-miterlimit="10.433"
         font-style="normal"
         font-variant="normal"
         font-weight="normal"
         font-stretch="normal"
         font-size-adjust="none"
         letter-spacing="normal"
         word-spacing="normal"><path
           style="fill:#000000;stroke-width:0"
           inkscape:connector-curvature="0"
           d="m 475,424.84 -0.13,-0.01 -0.12,-0.01 -0.13,-0.02 -0.12,-0.03 -0.12,-0.03 -0.12,-0.04 -0.11,-0.04 -0.11,-0.04 -0.11,-0.05 -0.1,-0.06 -0.1,-0.06 -0.1,-0.06 -0.09,-0.07 -0.09,-0.07 -0.09,-0.07 -0.08,-0.08 -0.08,-0.08 -0.07,-0.08 -0.07,-0.09 -0.06,-0.08 -0.06,-0.09 -0.06,-0.1 -0.05,-0.09 -0.04,-0.1 -0.04,-0.09 -0.04,-0.1 -0.03,-0.1 -0.02,-0.1 -0.02,-0.1 -0.02,-0.11 v -0.1 l -0.01,-0.1 c 0,-0.7 0.44,-1.44 1.55,-1.44 1.09,0 2.28,0.85 2.28,2.78 0,2.25 -2.14,4.28 -5.92,4.28 -6.58,0 -8.42,-5.07 -8.42,-7.26 0,-3.89 3.69,-4.64 5.12,-4.94 2.6,-0.5 5.19,-1.05 5.19,-3.78 0,-1.3 -1.14,-5.48 -7.12,-5.48 -0.71,0 -4.54,0 -5.69,2.64 1.9,-0.25 3.14,1.25 3.14,2.64 0,1.14 -0.8,1.75 -1.85,1.75 -1.29,0 -2.78,-1.05 -2.78,-3.3 0,-2.84 2.85,-4.83 7.13,-4.83 8.06,0 10.01,6.03 10.01,8.27 0,1.79 -0.95,3.04 -1.54,3.64 -1.35,1.39 -2.8,1.64 -4.99,2.09 -1.79,0.39 -3.78,0.75 -3.78,2.99 0,1.45 1.19,4.48 5.58,4.48 1.23,0 3.73,-0.34 4.48,-2.28 z"
           id="path63622" /></g>    </g>
    <g
       id="g16683"
       transform="matrix(0.35,0,0,0.35,285.23491,451.48152)">
      <g
         word-spacing="normal"
         letter-spacing="normal"
         font-size-adjust="none"
         font-stretch="normal"
         font-weight="normal"
         font-variant="normal"
         font-style="normal"
         stroke-miterlimit="10.433"
         xml:space="preserve"
         transform="matrix(1.2324232,0,0,-1.2324232,-215.67405,738.64474)"
         id="g16681"
         style="font-style:normal;font-variant:normal;font-weight:normal;font-stretch:normal;letter-spacing:normal;word-spacing:normal;text-anchor:start;fill:none;fill-opacity:1;fill-rule:evenodd;stroke:#000000;stroke-linecap:butt;stroke-linejoin:miter;stroke-miterlimit:10.43299961;stroke-dasharray:none;stroke-dashoffset:0;stroke-opacity:1"><path
           id="path16667"
           d="m 477.19,423.14 0.45,0.12 0.44,0.12 0.44,0.14 0.43,0.15 0.42,0.16 0.42,0.17 0.4,0.18 0.4,0.19 0.39,0.19 0.37,0.21 0.37,0.22 0.35,0.22 0.34,0.23 0.33,0.24 0.32,0.25 0.3,0.26 0.29,0.27 0.27,0.27 0.26,0.28 0.24,0.29 0.23,0.29 0.21,0.31 0.19,0.3 0.18,0.32 0.15,0.32 0.14,0.33 0.12,0.33 0.09,0.35 0.08,0.34 0.06,0.35 0.03,0.36 0.01,0.36 c 0,4.78 -5.67,8.97 -13,8.97 h -15.64 v -1.55 h 1.19 c 3.84,0 3.93,-0.54 3.93,-2.34 v -26.25 c 0,-1.8 -0.09,-2.34 -3.93,-2.34 h -1.19 v -1.55 c 1.78,0.16 5.33,0.16 7.27,0.16 1.93,0 5.48,0 7.28,-0.16 v 1.55 h -1.21 c -3.82,0 -3.93,0.54 -3.93,2.34 v 12.59 1.11 12.89 c 0,1.16 0,1.75 1.09,1.91 0.5,0.09 1.95,0.09 2.95,0.09 4.47,0 10.07,-0.2 10.07,-7.42 0,-3.44 -1.21,-7.47 -8.58,-7.47 h -5.53 v -1.11 h 5.73 c 0.8,0 2.89,0 4.63,-1.68 1.9,-1.8 1.9,-3.35 1.9,-6.68 0,-3.25 0,-5.23 2.03,-7.12 2.05,-1.8 4.78,-2.09 6.28,-2.09 3.89,0 4.74,4.07 4.74,5.48 0,0.3 0,0.84 -0.64,0.84 -0.55,0 -0.55,-0.45 -0.61,-0.79 -0.3,-3.55 -2.03,-4.44 -3.28,-4.44 -2.44,0 -2.85,2.55 -3.55,7.17 l -0.64,3.99 c -0.89,3.18 -3.34,4.84 -6.08,5.78 z"
           inkscape:connector-curvature="0"
           style="fill:#000000;stroke-width:0" /><path
           id="path16669"
           d="m 500.96,427.67 v 5.78 c 0,4.39 2.39,6.78 4.58,6.78 0.15,0 0.9,0 1.65,-0.36 -0.61,-0.19 -1.5,-0.84 -1.5,-2.08 0,-1.15 0.8,-2.15 2.14,-2.15 1.44,0 2.19,1 2.19,2.2 0,1.84 -1.84,3.48 -4.48,3.48 -3.49,0 -7.72,-2.64 -7.72,-7.92 v -5.73 h -3.94 v -1.55 h 3.94 v -16.14 c 0,-2.23 -0.55,-2.23 -3.89,-2.23 v -1.55 c 1.95,0.05 4.29,0.16 5.68,0.16 1.99,0 4.33,0 6.33,-0.16 v 1.55 h -1.05 c -3.68,0 -3.78,0.54 -3.78,2.34 v 16.03 h 5.68 v 1.55 z"
           inkscape:connector-curvature="0"
           style="fill:#000000;stroke-width:0" /><path
           id="path16671"
           d="m 553.03,417.71 -0.01,-0.65 -0.04,-0.64 -0.07,-0.61 -0.09,-0.6 -0.12,-0.58 -0.14,-0.56 -0.17,-0.55 -0.19,-0.52 -0.2,-0.5 -0.23,-0.49 -0.25,-0.46 -0.27,-0.45 -0.28,-0.42 -0.3,-0.4 -0.32,-0.39 -0.33,-0.36 -0.34,-0.34 -0.36,-0.32 -0.37,-0.3 -0.38,-0.28 -0.39,-0.26 -0.4,-0.24 -0.41,-0.21 -0.41,-0.19 -0.42,-0.18 -0.43,-0.14 -0.44,-0.13 -0.43,-0.1 -0.44,-0.08 -0.44,-0.06 -0.44,-0.04 -0.45,-0.01 c -2.34,0 -8.23,1.24 -8.23,10.71 v 18.98 c 0,1.8 0.11,2.34 3.94,2.34 h 1.2 v 1.55 c -1.75,-0.16 -5.44,-0.16 -7.33,-0.16 -1.89,0 -5.62,0 -7.37,0.16 v -1.55 h 1.2 c 3.83,0 3.94,-0.54 3.94,-2.34 v -18.78 c 0,-7.03 5.78,-12.45 12.54,-12.45 5.74,0 10.22,4.62 11.07,10.31 0.15,1 0.15,1.44 0.15,3.44 v 15.93 c 0,1.64 0,3.89 5.13,3.89 v 1.55 c -1.8,-0.05 -4.19,-0.16 -5.88,-0.16 -1.75,0 -4.14,0.11 -5.93,0.16 v -1.55 c 5.13,0 5.13,-2.34 5.13,-3.68 z"
           inkscape:connector-curvature="0"
           style="fill:#000000;stroke-width:0" /><path
           id="path16673"
           d="m 566.84,423.34 v -13.36 c 0,-2.23 -0.55,-2.23 -3.89,-2.23 v -1.55 c 1.75,0.05 4.28,0.16 5.62,0.16 1.3,0 3.89,-0.11 5.58,-0.16 v 1.55 c -3.33,0 -3.88,0 -3.88,2.23 v 9.17 c 0,5.19 3.53,7.97 6.72,7.97 3.14,0 3.69,-2.69 3.69,-5.53 v -11.61 c 0,-2.23 -0.55,-2.23 -3.89,-2.23 v -1.55 c 1.75,0.05 4.3,0.16 5.64,0.16 1.3,0 3.87,-0.11 5.58,-0.16 v 1.55 c -2.6,0 -3.85,0 -3.89,1.5 v 9.51 c 0,4.28 0,5.83 -1.55,7.61 -0.69,0.86 -2.34,1.84 -5.22,1.84 -3.64,0 -5.98,-2.14 -7.37,-5.21 v 5.21 l -7.03,-0.54 v -1.55 c 3.48,0 3.89,-0.34 3.89,-2.78 z"
           inkscape:connector-curvature="0"
           style="fill:#000000;stroke-width:0" /><path
           id="path16675"
           d="m 597.88,428.21 -6.97,-0.54 v -1.55 c 3.24,0 3.69,-0.3 3.69,-2.73 v -13.41 c 0,-2.23 -0.55,-2.23 -3.89,-2.23 v -1.55 c 1.59,0.05 4.28,0.16 5.49,0.16 1.75,0 3.48,-0.11 5.18,-0.16 v 1.55 c -3.29,0 -3.5,0.25 -3.5,2.18 z"
           inkscape:connector-curvature="0"
           style="fill:#000000;stroke-width:0" /><path
           id="path16677"
           d="m 598.09,436.89 -0.01,0.14 -0.01,0.15 -0.02,0.14 -0.02,0.14 -0.03,0.13 -0.04,0.13 -0.04,0.13 -0.05,0.12 -0.06,0.12 -0.06,0.12 -0.06,0.11 -0.07,0.1 -0.08,0.1 -0.08,0.1 -0.08,0.1 -0.09,0.08 -0.1,0.09 -0.09,0.08 -0.1,0.07 -0.11,0.07 -0.11,0.07 -0.11,0.06 -0.11,0.05 -0.12,0.05 -0.11,0.04 -0.12,0.04 -0.13,0.03 -0.12,0.03 -0.13,0.02 -0.13,0.01 -0.13,0.01 -0.12,0.01 c -1.55,0 -2.65,-1.35 -2.65,-2.64 0,-1.35 1.1,-2.64 2.65,-2.64 1.39,0 2.64,1.04 2.64,2.64 z"
           inkscape:connector-curvature="0"
           style="fill:#000000;stroke-width:0" /><path
           id="path16679"
           d="m 611.49,426.12 h 7.13 v 1.55 h -7.13 v 9.17 h -1.25 c -0.04,-4.08 -1.54,-9.42 -6.42,-9.61 v -1.11 h 4.23 v -13.75 c 0,-6.12 4.63,-6.72 6.43,-6.72 3.53,0 4.93,3.53 4.93,6.72 v 2.84 h -1.25 v -2.73 c 0,-3.69 -1.5,-5.58 -3.34,-5.58 -3.33,0 -3.33,4.53 -3.33,5.38 z"
           inkscape:connector-curvature="0"
           style="fill:#000000;stroke-width:0" /></g>    </g>
    <g
       id="g16949"
       transform="matrix(0.06341067,0.23665183,-0.23665183,0.06341067,146.15058,359.89657)">
      <g
         id="g16947"
         transform="matrix(1.2324232,0,0,-1.2324232,-215.67405,738.64474)"
         xml:space="preserve"
         stroke-miterlimit="10.433"
         font-style="normal"
         font-variant="normal"
         font-weight="normal"
         font-stretch="normal"
         font-size-adjust="none"
         letter-spacing="normal"
         word-spacing="normal"
         style="font-style:normal;font-variant:normal;font-weight:normal;font-stretch:normal;letter-spacing:normal;word-spacing:normal;text-anchor:start;fill:none;fill-opacity:1;fill-rule:evenodd;stroke:#000000;stroke-linecap:butt;stroke-linejoin:miter;stroke-miterlimit:10.43299961;stroke-dasharray:none;stroke-dashoffset:0;stroke-opacity:1"><path
           d="m 478.33,423.98 0.45,0.1 0.44,0.1 0.44,0.13 0.42,0.13 0.41,0.14 0.4,0.16 0.4,0.17 0.38,0.18 0.37,0.19 0.36,0.2 0.35,0.21 0.33,0.21 0.32,0.23 0.31,0.24 0.3,0.25 0.28,0.25 0.27,0.26 0.25,0.27 0.24,0.28 0.22,0.28 0.21,0.29 0.19,0.3 0.17,0.3 0.16,0.31 0.14,0.32 0.12,0.32 0.11,0.32 0.09,0.33 0.06,0.34 0.05,0.33 0.03,0.34 0.01,0.35 c 0,4.33 -4.59,8.42 -11.06,8.42 l -0.36,-1.55 c 4.85,0 6.58,-4.23 6.58,-6.87 0,-3.19 -2.44,-7.38 -7.97,-7.38 h -7.22 v -1.09 h 9.36 c 4.94,0 7.03,-4.64 7.03,-7.97 0,-3.55 -2.59,-7.62 -7.72,-7.62 v 0 h -6.23 c -2.34,0 -2.44,0.34 -2.44,1.98 v 13.61 1.09 12.25 c 0,1.66 0.1,2 2.44,2 h 6.17 l 0.36,1.55 h -18.23 v -1.55 h 1.18 c 3.85,0 3.94,-0.54 3.94,-2.34 v -26.25 c 0,-1.8 -0.09,-2.34 -3.94,-2.34 h -1.18 v -1.55 h 19.53 c 6.62,0 11.11,4.44 11.11,9.12 0,4.33 -4.1,8.07 -9.63,8.66 z"
           id="path16929"
           inkscape:connector-curvature="0"
           style="fill:#000000;stroke-width:0" /><path
           d="m 496.33,417.71 0.05,1.05 c 0.29,7.42 4.48,8.66 6.18,8.66 5.13,0 5.63,-6.72 5.63,-8.66 h -11.81 l -0.05,-1.05 h 13.9 c 1.1,0 1.24,0 1.24,1.05 0,4.92 -2.69,9.75 -8.91,9.75 -5.78,0 -10.37,-5.12 -10.37,-11.36 0,-6.67 5.23,-11.5 10.97,-11.5 6.07,0 8.31,5.53 8.31,6.47 0,0.5 -0.39,0.61 -0.64,0.61 -0.45,0 -0.55,-0.3 -0.66,-0.7 -1.73,-5.13 -6.22,-5.13 -6.72,-5.13 -2.5,0 -4.48,1.49 -5.62,3.33 -1.5,2.39 -1.5,5.69 -1.5,7.48 z"
           id="path16931"
           inkscape:connector-curvature="0"
           style="fill:#000000;stroke-width:0" /><path
           d="m 529.47,409.98 0.02,-0.19 0.03,-0.18 0.04,-0.19 0.04,-0.18 0.05,-0.19 0.05,-0.18 0.06,-0.18 0.07,-0.18 0.08,-0.18 0.08,-0.17 0.09,-0.18 0.09,-0.16 0.1,-0.16 0.11,-0.16 0.11,-0.16 0.12,-0.14 0.13,-0.14 0.13,-0.14 0.14,-0.13 0.14,-0.12 0.15,-0.12 0.16,-0.1 0.16,-0.1 0.17,-0.09 0.18,-0.08 0.18,-0.07 0.18,-0.06 0.2,-0.05 0.2,-0.04 0.2,-0.03 0.21,-0.02 0.22,-0.01 c 1.03,0 4.08,0.71 4.08,4.74 v 2.78 h -1.25 v -2.78 c 0,-2.89 -1.24,-3.19 -1.8,-3.19 -1.64,0 -1.84,2.23 -1.84,2.48 v 9.97 c 0,2.1 0,4.03 -1.78,5.88 -1.96,1.93 -4.44,2.73 -6.83,2.73 -4.1,0 -7.53,-2.33 -7.53,-5.62 0,-1.49 1,-2.35 2.29,-2.35 1.39,0 2.3,1 2.3,2.3 0,0.59 -0.25,2.23 -2.55,2.3 1.35,1.73 3.78,2.28 5.38,2.28 2.45,0 5.28,-1.94 5.28,-6.38 v -1.84 -1.05 -4.98 c 0,-4.74 -3.58,-6.42 -5.83,-6.42 -2.44,0 -4.48,1.75 -4.48,4.23 0,2.73 2.09,6.88 10.31,7.17 v 0 1.05 c -2.53,-0.14 -6.02,-0.3 -9.16,-1.8 -3.73,-1.69 -4.98,-4.28 -4.98,-6.47 0,-4.03 4.83,-5.28 7.97,-5.28 3.29,0 5.58,1.99 6.53,4.33 z"
           id="path16933"
           inkscape:connector-curvature="0"
           style="fill:#000000;stroke-width:0" /><path
           d="m 543.32,423.34 v -13.36 c 0,-2.23 -0.55,-2.23 -3.89,-2.23 v -1.55 c 1.75,0.05 4.28,0.16 5.62,0.16 1.3,0 3.89,-0.11 5.58,-0.16 v 1.55 c -3.33,0 -3.88,0 -3.88,2.23 v 9.17 c 0,5.19 3.53,7.97 6.72,7.97 3.14,0 3.69,-2.69 3.69,-5.53 v -11.61 c 0,-2.23 -0.55,-2.23 -3.89,-2.23 v -1.55 c 1.75,0.05 4.3,0.16 5.64,0.16 1.3,0 3.87,-0.11 5.58,-0.16 v 1.55 c -3.34,0 -3.89,0 -3.89,2.23 v 9.17 c 0,5.19 3.55,7.97 6.73,7.97 3.14,0 3.69,-2.69 3.69,-5.53 v -11.61 c 0,-2.23 -0.55,-2.23 -3.89,-2.23 v -1.55 c 1.73,0.05 4.28,0.16 5.62,0.16 1.3,0 3.9,-0.11 5.58,-0.16 v 1.55 c -2.58,0 -3.83,0 -3.87,1.5 v 9.51 c 0,4.28 0,5.83 -1.55,7.61 -0.7,0.86 -2.34,1.84 -5.23,1.84 -4.19,0 -6.38,-2.98 -7.22,-4.87 -0.71,4.33 -4.39,4.87 -6.63,4.87 -3.64,0 -5.98,-2.14 -7.37,-5.21 v 5.21 l -7.03,-0.54 v -1.55 c 3.48,0 3.89,-0.34 3.89,-2.78 z"
           id="path16935"
           inkscape:connector-curvature="0"
           style="fill:#000000;stroke-width:0" /><path
           d="m 612.62,409.98 0.03,-0.19 0.03,-0.18 0.03,-0.19 0.04,-0.18 0.05,-0.19 0.06,-0.18 0.06,-0.18 0.07,-0.18 0.07,-0.18 0.09,-0.17 0.08,-0.18 0.1,-0.16 0.1,-0.16 0.1,-0.16 0.12,-0.16 0.12,-0.14 0.12,-0.14 0.14,-0.14 0.13,-0.13 0.15,-0.12 0.15,-0.12 0.16,-0.1 0.16,-0.1 0.17,-0.09 0.17,-0.08 0.18,-0.07 0.19,-0.06 0.19,-0.05 0.2,-0.04 0.21,-0.03 0.21,-0.02 0.22,-0.01 c 1.03,0 4.07,0.71 4.07,4.74 v 2.78 h -1.25 v -2.78 c 0,-2.89 -1.23,-3.19 -1.79,-3.19 -1.64,0 -1.85,2.23 -1.85,2.48 v 9.97 c 0,2.1 0,4.03 -1.78,5.88 -1.95,1.93 -4.44,2.73 -6.83,2.73 -4.09,0 -7.53,-2.33 -7.53,-5.62 0,-1.49 1,-2.35 2.3,-2.35 1.39,0 2.3,1 2.3,2.3 0,0.59 -0.25,2.23 -2.55,2.3 1.34,1.73 3.78,2.28 5.37,2.28 2.46,0 5.29,-1.94 5.29,-6.38 v -1.84 -1.05 -4.98 c 0,-4.74 -3.58,-6.42 -5.83,-6.42 -2.44,0 -4.49,1.75 -4.49,4.23 0,2.73 2.1,6.88 10.32,7.17 v 0 1.05 c -2.54,-0.14 -6.02,-0.3 -9.16,-1.8 -3.73,-1.69 -4.99,-4.28 -4.99,-6.47 0,-4.03 4.83,-5.28 7.97,-5.28 3.3,0 5.58,1.99 6.53,4.33 z"
           id="path16937"
           inkscape:connector-curvature="0"
           style="fill:#000000;stroke-width:0" /><path
           d="m 635.28,417.9 0.29,0.36 0.29,0.37 0.3,0.38 0.31,0.39 0.61,0.78 0.31,0.38 0.3,0.39 0.3,0.37 0.3,0.37 0.29,0.35 0.28,0.34 0.13,0.16 0.14,0.16 0.13,0.16 0.13,0.15 0.12,0.14 0.12,0.14 0.12,0.13 0.11,0.12 c 1.55,1.78 3.6,2.53 5.94,2.58 v 1.55 c -1.3,-0.1 -2.8,-0.14 -4.09,-0.14 -1.49,0 -4.13,0.09 -4.78,0.14 v -1.55 c 1.04,-0.09 1.45,-0.73 1.45,-1.53 0,-0.8 -0.5,-1.45 -0.75,-1.75 l -3.1,-3.89 -3.87,5.03 c -0.45,0.5 -0.45,0.61 -0.45,0.91 0,0.75 0.75,1.18 1.73,1.23 v 1.55 c -1.28,-0.05 -4.58,-0.14 -5.37,-0.14 -1.05,0 -3.39,0.04 -4.74,0.14 v -1.55 c 3.49,0 3.55,-0.05 5.88,-3.03 l 4.94,-6.42 -4.69,-5.94 c -2.39,-2.89 -5.33,-2.98 -6.38,-2.98 v -1.55 c 1.3,0.09 2.85,0.16 4.14,0.16 1.44,0 3.53,-0.11 4.74,-0.16 v 1.55 c -1.1,0.14 -1.46,0.79 -1.46,1.54 0,1.1 1.46,2.74 4.49,6.33 l 3.79,-4.98 c 0.4,-0.55 1.05,-1.35 1.05,-1.64 0,-0.46 -0.45,-1.21 -1.8,-1.25 v -1.55 c 1.49,0.05 4.29,0.16 5.38,0.16 1.34,0 3.3,-0.07 4.78,-0.16 v 1.55 c -2.69,0 -3.58,0.09 -4.73,1.54 z"
           id="path16939"
           inkscape:connector-curvature="0"
           style="fill:#000000;stroke-width:0" /><path
           d="m 656.08,428.21 -6.97,-0.54 v -1.55 c 3.23,0 3.69,-0.3 3.69,-2.73 v -13.41 c 0,-2.23 -0.55,-2.23 -3.89,-2.23 v -1.55 c 1.59,0.05 4.28,0.16 5.48,0.16 1.75,0 3.49,-0.11 5.19,-0.16 v 1.55 c -3.3,0 -3.5,0.25 -3.5,2.18 z"
           id="path16941"
           inkscape:connector-curvature="0"
           style="fill:#000000;stroke-width:0" /><path
           d="m 656.28,436.89 v 0.14 l -0.01,0.15 -0.02,0.14 -0.03,0.14 -0.03,0.13 -0.03,0.13 -0.05,0.13 -0.05,0.12 -0.05,0.12 -0.06,0.12 -0.07,0.11 -0.07,0.1 -0.07,0.1 -0.08,0.1 -0.09,0.1 -0.09,0.08 -0.09,0.09 -0.1,0.08 -0.1,0.07 -0.1,0.07 -0.11,0.07 -0.11,0.06 -0.11,0.05 -0.12,0.05 -0.12,0.04 -0.12,0.04 -0.12,0.03 -0.13,0.03 -0.12,0.02 -0.13,0.01 -0.13,0.01 -0.13,0.01 c -1.55,0 -2.64,-1.35 -2.64,-2.64 0,-1.35 1.09,-2.64 2.64,-2.64 1.39,0 2.64,1.04 2.64,2.64 z"
           id="path16943"
           inkscape:connector-curvature="0"
           style="fill:#000000;stroke-width:0" /><path
           d="m 671.42,415.87 0.11,-0.02 0.13,-0.02 0.14,-0.03 0.16,-0.04 0.17,-0.04 0.18,-0.04 0.19,-0.05 0.19,-0.06 0.21,-0.06 0.21,-0.07 0.22,-0.08 0.21,-0.08 0.22,-0.1 0.23,-0.1 0.22,-0.11 0.22,-0.12 0.21,-0.14 0.21,-0.14 0.21,-0.15 0.2,-0.16 0.19,-0.18 0.18,-0.19 0.17,-0.2 0.15,-0.21 0.15,-0.22 0.06,-0.12 0.06,-0.12 0.06,-0.13 0.06,-0.12 0.05,-0.14 0.04,-0.13 0.04,-0.14 0.04,-0.14 0.03,-0.15 0.02,-0.15 0.02,-0.16 0.02,-0.15 0.01,-0.17 v -0.16 c 0,-2.53 -1.75,-4.53 -5.63,-4.53 -4.18,0 -5.98,2.84 -6.93,7.07 -0.14,0.64 -0.19,0.85 -0.69,0.85 -0.66,0 -0.66,-0.35 -0.66,-1.25 v -6.58 c 0,-0.84 0,-1.19 0.55,-1.19 0.25,0 0.3,0.05 1.25,1 0.09,0.1 0.09,0.19 1,1.14 2.19,-2.09 4.44,-2.14 5.48,-2.14 5.72,0 8.02,3.35 8.02,6.92 0,2.64 -1.5,4.14 -2.09,4.74 -1.64,1.59 -3.6,2 -5.69,2.39 -2.78,0.55 -6.13,1.2 -6.13,4.09 0,1.74 1.3,3.78 5.58,3.78 5.49,0 5.74,-4.48 5.83,-6.03 0.06,-0.45 0.5,-0.45 0.61,-0.45 0.64,0 0.64,0.25 0.64,1.2 v 5.03 c 0,0.85 0,1.19 -0.55,1.19 -0.25,0 -0.34,0 -1,-0.59 -0.14,-0.21 -0.64,-0.64 -0.84,-0.8 -1.89,1.39 -3.94,1.39 -4.69,1.39 -6.08,0 -7.97,-3.33 -7.97,-6.12 0,-1.74 0.8,-3.14 2.14,-4.24 1.6,-1.29 3,-1.59 6.58,-2.28 z"
           id="path16945"
           inkscape:connector-curvature="0"
           style="fill:#000000;stroke-width:0" /></g>    </g>
    <g
       id="g17974"
       transform="matrix(0.35,0,0,0.35,326.83802,733.1936)">
      <g
         word-spacing="normal"
         letter-spacing="normal"
         font-size-adjust="none"
         font-stretch="normal"
         font-weight="normal"
         font-variant="normal"
         font-style="normal"
         stroke-miterlimit="10.433"
         xml:space="preserve"
         transform="matrix(1.2324232,0,0,-1.2324232,-215.67405,738.64474)"
         id="g17972"
         style="font-style:normal;font-variant:normal;font-weight:normal;font-stretch:normal;letter-spacing:normal;word-spacing:normal;text-anchor:start;fill:none;fill-opacity:1;fill-rule:evenodd;stroke:#000000;stroke-linecap:butt;stroke-linejoin:miter;stroke-miterlimit:10.43299961;stroke-dasharray:none;stroke-dashoffset:0;stroke-opacity:1"><path
           id="path17964"
           d="m 477.19,423.14 0.45,0.12 0.44,0.12 0.44,0.14 0.43,0.15 0.42,0.16 0.42,0.17 0.4,0.18 0.4,0.19 0.39,0.19 0.37,0.21 0.37,0.22 0.35,0.22 0.34,0.23 0.33,0.24 0.32,0.25 0.3,0.26 0.29,0.27 0.27,0.27 0.26,0.28 0.24,0.29 0.23,0.29 0.21,0.31 0.19,0.3 0.18,0.32 0.15,0.32 0.14,0.33 0.12,0.33 0.09,0.35 0.08,0.34 0.06,0.35 0.03,0.36 0.01,0.36 c 0,4.78 -5.67,8.97 -13,8.97 h -15.64 v -1.55 h 1.19 c 3.84,0 3.93,-0.54 3.93,-2.34 v -26.25 c 0,-1.8 -0.09,-2.34 -3.93,-2.34 h -1.19 v -1.55 c 1.78,0.16 5.33,0.16 7.27,0.16 1.93,0 5.48,0 7.28,-0.16 v 1.55 h -1.21 c -3.82,0 -3.93,0.54 -3.93,2.34 v 12.59 1.11 12.89 c 0,1.16 0,1.75 1.09,1.91 0.5,0.09 1.95,0.09 2.95,0.09 4.47,0 10.07,-0.2 10.07,-7.42 0,-3.44 -1.21,-7.47 -8.58,-7.47 h -5.53 v -1.11 h 5.73 c 0.8,0 2.89,0 4.63,-1.68 1.9,-1.8 1.9,-3.35 1.9,-6.68 0,-3.25 0,-5.23 2.03,-7.12 2.05,-1.8 4.78,-2.09 6.28,-2.09 3.89,0 4.74,4.07 4.74,5.48 0,0.3 0,0.84 -0.64,0.84 -0.55,0 -0.55,-0.45 -0.61,-0.79 -0.3,-3.55 -2.03,-4.44 -3.28,-4.44 -2.44,0 -2.85,2.55 -3.55,7.17 l -0.64,3.99 c -0.89,3.18 -3.34,4.84 -6.08,5.78 z"
           inkscape:connector-curvature="0"
           style="fill:#000000;stroke-width:0" /><path
           id="path17966"
           d="m 500.96,427.67 v 5.78 c 0,4.39 2.39,6.78 4.58,6.78 0.15,0 0.9,0 1.65,-0.36 -0.61,-0.19 -1.5,-0.84 -1.5,-2.08 0,-1.15 0.8,-2.15 2.14,-2.15 1.44,0 2.19,1 2.19,2.2 0,1.84 -1.84,3.48 -4.48,3.48 -3.49,0 -7.72,-2.64 -7.72,-7.92 v -5.73 h -3.94 v -1.55 h 3.94 v -16.14 c 0,-2.23 -0.55,-2.23 -3.89,-2.23 v -1.55 c 1.95,0.05 4.29,0.16 5.68,0.16 1.99,0 4.33,0 6.33,-0.16 v 1.55 h -1.05 c -3.68,0 -3.78,0.54 -3.78,2.34 v 16.03 h 5.68 v 1.55 z"
           inkscape:connector-curvature="0"
           style="fill:#000000;stroke-width:0" /><path
           id="path17968"
           d="m 535.24,436.34 v 0.16 0.16 l 0.01,0.15 v 0.15 l 0.01,0.13 0.02,0.13 0.02,0.13 0.02,0.11 0.04,0.12 0.03,0.1 0.05,0.1 0.06,0.09 0.06,0.09 0.07,0.08 0.08,0.08 0.1,0.07 0.1,0.06 0.12,0.06 0.07,0.03 0.06,0.03 0.07,0.02 0.08,0.03 0.07,0.02 0.08,0.02 0.09,0.02 0.09,0.02 0.09,0.02 0.1,0.02 0.1,0.02 0.1,0.01 0.11,0.01 0.11,0.02 0.12,0.01 0.12,0.01 0.13,0.01 0.13,0.01 0.14,0.01 0.14,0.01 h 0.14 l 0.15,0.01 h 0.16 l 0.16,0.01 h 0.16 0.17 0.18 0.18 1.3 v 1.55 c -1.75,-0.16 -5.69,-0.16 -7.58,-0.16 -1.94,0 -5.87,0 -7.62,0.16 v -1.55 h 1.29 c 3.94,0 4.1,-0.54 4.1,-2.34 v -26.25 c 0,-1.8 -0.16,-2.34 -4.1,-2.34 h -1.29 v -1.55 c 1.75,0.16 5.68,0.16 7.57,0.16 1.94,0 5.88,0 7.63,-0.16 v 1.55 h -1.3 c -3.93,0 -4.09,0.54 -4.09,2.34 z"
           inkscape:connector-curvature="0"
           style="fill:#000000;stroke-width:0" /><path
           id="path17970"
           d="m 547.52,423.34 v -13.36 c 0,-2.23 -0.55,-2.23 -3.89,-2.23 v -1.55 c 1.75,0.05 4.28,0.16 5.62,0.16 1.3,0 3.9,-0.11 5.58,-0.16 v 1.55 c -3.33,0 -3.87,0 -3.87,2.23 v 9.17 c 0,5.19 3.53,7.97 6.72,7.97 3.14,0 3.68,-2.69 3.68,-5.53 v -11.61 c 0,-2.23 -0.54,-2.23 -3.89,-2.23 v -1.55 c 1.75,0.05 4.3,0.16 5.64,0.16 1.3,0 3.88,-0.11 5.58,-0.16 v 1.55 c -2.59,0 -3.84,0 -3.89,1.5 v 9.51 c 0,4.28 0,5.83 -1.55,7.61 -0.68,0.86 -2.34,1.84 -5.22,1.84 -3.63,0 -5.98,-2.14 -7.37,-5.21 v 5.21 l -7.03,-0.54 v -1.55 c 3.48,0 3.89,-0.34 3.89,-2.78 z"
           inkscape:connector-curvature="0"
           style="fill:#000000;stroke-width:0" /></g>    </g>
    <g
       transform="matrix(0.7,0,0,0.7,677.2798,335.71583)"
       id="g14364">
      <path
         style="color:#000000;clip-rule:nonzero;display:inline;overflow:visible;visibility:visible;opacity:1;isolation:auto;mix-blend-mode:normal;color-interpolation:sRGB;color-interpolation-filters:linearRGB;solid-color:#000000;solid-opacity:1;fill:#d3d3d3;fill-opacity:1;fill-rule:nonzero;stroke:#000000;stroke-width:3;stroke-linecap:butt;stroke-linejoin:miter;stroke-miterlimit:4;stroke-dasharray:none;stroke-dashoffset:0;stroke-opacity:1;color-rendering:auto;image-rendering:auto;shape-rendering:auto;text-rendering:auto;enable-background:accumulate"
         d="m -978.93199,656.63744 h 70.73989 42.96456 27.77549 m 30.37861,0 h 70.73956 42.96455 27.77557 m 30.37828,0 h 70.73981 70.73978 m 30.37835,0 h 27.77553 42.96456 42.96455 v 76.38142 h -687.4329 v -76.38142 h 27.7751"
         id="rect11664"
         inkscape:connector-curvature="0"
         sodipodi:nodetypes="ccccccccccccccccccc" />
      <path
         inkscape:connector-curvature="0"
         id="path12121"
         title="sin(4 * x)"
         d="m -1037.0858,694.82815 c 2.3146,-3.23177 4.6292,-6.46322 6.9438,-9.59152 2.3146,-3.12829 4.6292,-6.15239 6.9438,-8.97668 2.3146,-2.82428 4.6291,-5.44718 6.9437,-7.78641 2.3146,-2.33923 4.6292,-4.39278 6.9438,-6.09701 2.3146,-1.70422 4.6292,-3.0568 6.9438,-4.01677 2.3146,-0.95998 4.62915,-1.52488 6.94374,-1.67906 2.31459,-0.15419 4.62918,0.1048 6.94376,0.76629 2.31459,0.66149 4.62918,1.72777 6.94377,3.16252 2.31459,1.43476 4.62918,3.23997 6.94377,5.35603 2.31459,2.11605 4.62917,4.54449 6.94376,7.20619 2.31459,2.66171 4.62918,5.55769 6.94377,8.59443 2.31459,3.03673 4.62918,6.21463 6.94377,9.43173 2.31458,3.21711 4.62917,6.4732 6.94376,9.66445 2.31459,3.19124 4.62918,6.31681 6.94377,9.27763 2.31459,2.96083 4.62918,5.75551 6.94376,8.29611 2.31459,2.5406 4.62918,4.82526 6.94377,6.78278 2.31459,1.95752 4.62918,3.5857 6.94377,4.83466 2.31459,1.24896 4.62917,2.11628 6.94376,2.57662 2.31459,0.46033 4.62918,0.51121 6.94377,0.15341 2.31459,-0.3578 4.62918,-1.12663 6.94377,-2.27963 2.31458,-1.15299 4.62917,-2.69225 6.94376,-4.56653 2.31459,-1.87428 4.62918,-4.0853 6.94377,-6.56072 2.31459,-2.47542 4.62918,-5.21646 6.94376,-8.13434 2.31459,-2.91788 4.62918,-6.01324 6.94377,-9.18654 2.31459,-3.17329 4.62918,-6.42455 6.94377,-9.64984 2.31459,-3.2253 4.62917,-6.42403 6.94376,-9.49458 2.31459,-3.07054 4.62918,-6.01171 6.94377,-8.73068 2.31459,-2.71896 4.62918,-5.21403 6.94377,-7.40712 2.31458,-2.19309 4.62917,-4.08211 6.94376,-5.60875 2.31459,-1.52664 4.62918,-2.68853 6.94377,-3.45084 2.31459,-0.76232 4.62918,-1.1226 6.94376,-1.07173 2.31459,0.0509 4.62918,0.5153 6.94377,1.37608 2.31459,0.86079 4.62918,2.12016 6.94377,3.7357 2.31459,1.61553 4.62917,3.58911 6.94376,5.85582 2.31459,2.26672 4.62918,4.828 6.94377,7.6006 2.31459,2.7726 4.62918,5.75738 6.94377,8.85814 2.31458,3.10075 4.62917,6.31771 6.94376,9.54785 2.31459,3.23013 4.62918,6.47307 6.94377,9.62553 2.31459,3.15246 4.62918,6.21347 6.94376,9.08618 2.31459,2.8727 4.62918,5.55558 6.94377,7.96438 2.31459,2.40881 4.62918,4.54157 6.94377,6.33206 2.31459,1.79048 4.62917,3.23642 6.94376,4.29382 2.31459,1.05739 4.62918,1.72381 6.94377,1.98034 2.31459,0.25652 4.62918,0.1007 6.94377,-0.46009 2.31458,-0.56079 4.62917,-1.52886 6.94376,-2.87101 2.31459,-1.34216 4.62918,-3.06043 6.94377,-5.09791 2.31459,-2.03749 4.62918,-4.3958 6.94376,-6.99801 2.31459,-2.60221 4.62918,-5.4494 6.94377,-8.44952 2.31459,-3.00013 4.62918,-6.15368 6.94377,-9.3594 2.31459,-3.20573 4.62917,-6.46349 6.94376,-9.66931 2.31459,-3.20583 4.62918,-6.35897 6.94377,-9.3594 2.31459,-3.00043 4.62918,-5.84683 6.94377,-8.44952 2.31458,-2.6027 4.62917,-4.95989 6.94376,-6.99801 2.31459,-2.03813 4.62918,-3.75501 6.94377,-5.09791 2.31459,-1.3429 4.62918,-2.30942 6.94376,-2.87102 2.31459,-0.56159 4.62918,-0.71579 6.94377,-0.46008 2.31459,0.25571 4.62918,0.92372 6.94377,1.98034 2.31459,1.05662 4.62917,2.50401 6.94376,4.29382 2.31459,1.7898 4.62918,3.9238 6.94377,6.33205 2.31459,2.40825 4.62918,5.09206 6.94377,7.96438 2.31458,2.87233 4.62917,5.93391 6.94376,9.08619 2.31459,3.15228 4.62918,6.39536 6.94377,9.62552 2.31459,3.23017 4.62918,6.44688 6.94376,9.54786 2.31459,3.10098 4.62918,6.08512 6.94377,8.85814 2.31459,2.77302 4.62918,5.33329 6.94377,7.60059 2.31459,2.2673 4.62917,4.23959 6.94376,5.85583 2.31459,1.61624 4.62918,2.87411 6.94377,3.73569 2.31459,0.86158 4.62918,1.3244 6.94377,1.37609 2.31458,0.0517 4.62917,-0.31021 6.94376,-1.07173 2.31459,-0.76152 4.62918,-1.92493 6.94377,-3.45085 2.31459,-1.52591 4.62918,-3.41626 6.94376,-5.60875 2.31459,-2.19249 4.62918,-4.6886 6.94377,-7.40712 2.31459,-2.71852 4.62918,-5.66039 6.94377,-8.73068 2.31459,-3.07029 4.62917,-6.26933 6.94376,-9.49457 2.31459,-3.22525 4.62918,-6.4764 6.94377,-9.64985 2.31459,-3.17345 4.62918,-6.2683 6.94377,-9.18653 2.31458,-2.91823 4.62917,-5.6584 6.94376,-8.13434 2.31459,-2.47595 4.62918,-4.68578 6.94377,-6.56072 2.31459,-1.87495 4.62918,-3.41278 6.94376,-4.56654 2.31459,-1.15376 4.62918,-1.92101 6.94377,-2.27963 2.31459,-0.35861 4.62918,-0.30611 6.94377,0.15342 2.31459,0.45952 4.62917,1.32841 6.94376,2.57661 2.31459,1.24821 4.62918,2.87779 6.94377,4.83466 2.31459,1.95687 4.62918,4.24269 6.94377,6.78278 2.31458,2.54009 4.62917,5.33562 6.94376,8.29611 2.31459,2.96049 4.62918,6.08652 6.94377,9.27764 2.31459,3.19111 4.62918,6.44726 6.94376,9.66444 2.31459,3.21718 4.62918,6.39472 6.94377,9.43173 2.31459,3.03702 4.62918,5.93226 6.94377,8.59443 2.31459,2.66217 4.62917,5.08952 6.94376,7.2062 2.31459,2.11667 4.62918,3.92053 6.94377,5.35602 2.31459,1.43549 4.62918,2.50023 6.94377,3.16252 2.31458,0.66229 4.62917,0.91966 6.94376,0.7663 2.31459,-0.15337 4.62918,-0.71987 6.94377,-1.67906 2.31459,-0.95919 4.62918,-2.31325 6.94376,-4.01678 2.31459,-1.70352 4.62918,-3.75835 6.94377,-6.09701 2.31459,-2.33866 4.62918,-4.96252 6.94377,-7.78641 2.31459,-2.82388 4.62917,-5.84859 6.94376,-8.97668 2.31459,-3.12809 4.62918,-6.35974 6.94377,-9.59152"
         style="color:#000000;clip-rule:nonzero;display:inline;overflow:visible;visibility:visible;opacity:1;isolation:auto;mix-blend-mode:normal;color-interpolation:sRGB;color-interpolation-filters:linearRGB;solid-color:#000000;solid-opacity:1;fill:none;fill-opacity:1;fill-rule:nonzero;stroke:#ff00ff;stroke-width:2.5;stroke-linecap:butt;stroke-linejoin:miter;stroke-miterlimit:4;stroke-dasharray:2.50000002, 2.50000002;stroke-dashoffset:0;stroke-opacity:1;color-rendering:auto;image-rendering:auto;shape-rendering:auto;text-rendering:auto;enable-background:accumulate" />
      <path
         inkscape:connector-curvature="0"
         style="color:#000000;clip-rule:nonzero;display:inline;overflow:visible;visibility:visible;opacity:1;isolation:auto;mix-blend-mode:normal;color-interpolation:sRGB;color-interpolation-filters:linearRGB;solid-color:#000000;solid-opacity:1;fill:none;fill-opacity:1;fill-rule:nonzero;stroke:#ff0000;stroke-width:2.5;stroke-linecap:butt;stroke-linejoin:miter;stroke-miterlimit:4;stroke-dasharray:2.50000002, 2.50000002;stroke-dashoffset:0;stroke-opacity:1;color-rendering:auto;image-rendering:auto;shape-rendering:auto;text-rendering:auto;enable-background:accumulate"
         d="m -1037.0858,694.82816 c 2.3146,4.03972 4.6292,8.07856 6.9438,11.91678 2.3146,3.83822 4.6291,7.47335 6.9437,10.7268 2.3146,3.25344 4.6292,6.12187 6.9438,8.46566 2.3146,2.34379 4.6292,4.15907 6.9438,5.35916 2.3146,1.20009 4.6291,1.78096 6.9437,1.71751 2.3146,-0.0635 4.62921,-0.775 6.9438,-2.09565 2.31459,-1.32066 4.62918,-3.25356 6.94376,-5.69955 2.31459,-2.44598 4.62918,-5.40723 6.94377,-8.73429 2.31459,-3.32706 4.62918,-7.02095 6.94377,-10.89685 2.31459,-3.8759 4.62917,-7.93357 6.94376,-11.97128 2.31459,-4.03771 4.62918,-8.05397 6.94377,-11.85028 2.31459,-3.79631 4.62918,-7.37011 6.94377,-10.54594 2.31458,-3.17583 4.62917,-5.95029 6.94376,-8.1885 2.31459,-2.23822 4.62918,-3.93629 6.94377,-5.01339 2.31459,-1.07709 4.62918,-1.52921 6.94376,-1.33763 2.31459,0.19157 4.62918,1.03056 6.94377,2.47168 2.31459,1.44112 4.62918,3.48743 6.94377,6.03419 2.31459,2.54675 4.62917,5.59604 6.94376,8.99412 2.31459,3.39809 4.62918,7.14586 6.94377,11.05594 2.31459,3.91008 4.62918,7.9821 6.94377,12.01373 2.31458,4.03162 4.62917,8.02126 6.94376,11.77185 2.31459,3.75058 4.62918,7.25944 6.94377,10.35446 2.31459,3.09501 4.62918,5.77271 6.94376,7.9031 2.31459,2.13039 4.62918,3.70953 6.94377,4.66256 2.31459,0.95302 4.62918,1.27592 6.94377,0.95642 2.31459,-0.31951 4.62917,-1.2851 6.94376,-2.84523 2.31459,-1.56014 4.62918,-3.71778 6.94377,-6.36275 2.31459,-2.64497 4.62918,-5.77923 6.94377,-9.24491 2.31458,-3.46569 4.62917,-7.26357 6.94376,-11.20389 2.31459,-3.94032 4.62918,-8.02259 6.94377,-12.04408 2.31459,-4.02148 4.62918,-7.98048 6.94376,-11.68156 2.31459,-3.70108 4.62918,-7.14147 6.94377,-10.15256 2.31459,-3.01109 4.62918,-5.58933 6.94377,-7.60974 2.31459,-2.02042 4.62917,-3.47905 6.94376,-4.30704 2.31459,-0.82799 4.62918,-1.02135 6.94377,-0.57424 2.31459,0.44712 4.62918,1.53833 6.94377,3.21591 2.31458,1.67758 4.62917,3.9444 6.94376,6.68491 2.31459,2.74052 4.62918,5.95659 6.94377,9.48638 2.31459,3.5298 4.62918,7.37397 6.94376,11.34056 2.31459,3.9666 4.62918,8.055 6.94377,12.0623 2.31459,4.0073 4.62918,7.93167 6.94377,11.57952 2.31459,3.64784 4.62917,7.01631 6.94376,9.94043 2.31459,2.92413 4.62918,5.40032 6.94377,7.30872 2.31459,1.90841 4.62918,3.24506 6.94377,3.94718 2.31458,0.70212 4.62917,0.76576 6.94376,0.19148 2.31459,-0.57428 4.62918,-1.79002 6.94377,-3.58335 2.31459,-1.79333 4.62918,-4.16704 6.94376,-7.00034 2.31459,-2.8333 4.62918,-6.12795 6.94377,-9.7183 2.31459,-3.59035 4.62918,-7.47694 6.94377,-11.46581 2.31459,-3.98888 4.62917,-8.0793 6.94376,-12.06837 2.31459,-3.98908 4.62918,-7.87488 6.94377,-11.46582 2.31459,-3.59093 4.62918,-6.88408 6.94377,-9.7183 2.31458,-2.83421 4.62917,-5.20586 6.94376,-7.00034 2.31459,-1.79448 4.62918,-3.0078 6.94377,-3.58334 2.31459,-0.57555 4.62918,-0.50939 6.94376,0.19147 2.31459,0.70086 4.62918,2.0399 6.94377,3.94718 2.31459,1.90728 4.62918,4.38548 6.94377,7.30872 2.31459,2.92324 4.62917,6.29314 6.94376,9.94044 2.31459,3.64729 4.62918,7.57238 6.94377,11.57952 2.31459,4.00713 4.62918,8.09545 6.94377,12.06229 2.31458,3.96684 4.62917,7.81014 6.94376,11.34056 2.31459,3.53042 4.62918,6.74492 6.94377,9.48638 2.31459,2.74146 4.62918,5.00617 6.94376,6.68492 2.31459,1.67874 4.62918,2.76751 6.94377,3.2159 2.31459,0.44839 4.62918,0.2525 6.94377,-0.57424 2.31459,-0.82673 4.62917,-2.28773 6.94376,-4.30703 2.31459,-2.01931 4.62918,-4.59951 6.94377,-7.60975 2.31459,-3.01023 4.62918,-6.45199 6.94377,-10.15256 2.31458,-3.70056 4.62917,-7.66019 6.94376,-11.68156 2.31459,-4.02137 4.62918,-8.10347 6.94377,-12.04407 2.31459,-3.94061 4.62918,-7.73755 6.94376,-11.20389 2.31459,-3.46634 4.62918,-6.59897 6.94377,-9.24491 2.31459,-2.64594 4.62918,-4.80144 6.94377,-6.36276 2.31459,-1.56131 4.62917,-2.52444 6.94376,-2.84522 2.31459,-0.32079 4.62918,0.005 6.94377,0.95642 2.31459,0.95177 4.62918,2.53325 6.94377,4.66255 2.31458,2.1293 4.62917,4.80891 6.94376,7.90311 2.31459,3.09419 4.62918,6.60435 6.94377,10.35446 2.31459,3.75011 4.62918,7.7403 6.94376,11.77185 2.31459,4.03154 4.62918,8.10332 6.94377,12.01372 2.31459,3.9104 4.62918,7.65717 6.94377,11.05594 2.31459,3.39877 4.62917,6.44637 6.94376,8.99413 2.31459,2.54775 4.62918,4.59187 6.94377,6.03418 2.31459,1.44232 4.62918,2.27883 6.94377,2.47169 2.31458,0.19285 4.62917,-0.26178 6.94376,-1.33764 2.31459,-1.07586 4.62918,-2.77623 6.94377,-5.01338 2.31459,-2.23715 4.62918,-5.01347 6.94376,-8.18851 2.31459,-3.17503 4.62918,-6.75006 6.94377,-10.54594 2.31459,-3.79587 4.62918,-7.81261 6.94377,-11.85028 2.31459,-4.03766 4.62917,-8.09501 6.94376,-11.97127 2.31459,-3.87627 4.62918,-7.56907 6.94377,-10.89686 2.31459,-3.32778 4.62918,-6.28729 6.94377,-8.73429 2.31458,-2.447 4.62917,-4.37767 6.94376,-5.69954 2.31459,-1.32187 4.62918,-2.03092 6.94377,-2.09565 2.31459,-0.0647 4.62918,0.51864 6.94376,1.71751 2.31459,1.19886 4.62918,3.01641 6.94377,5.35916 2.31459,2.34274 4.62918,5.21297 6.94377,8.46566 2.31459,3.25268 4.62917,6.88897 6.94376,10.72679 2.31459,3.83782 4.62918,7.87706 6.94377,11.91678"
         title="sin(5 * x)"
         id="path12798" />
      <path
         inkscape:connector-curvature="0"
         id="path13310"
         title="sin(3.1* x)"
         d="m -1037.0858,683.02658 c 2.3146,2.38212 4.6292,4.84044 6.9438,7.32779 2.3146,2.48735 4.6291,5.00364 6.9437,7.5004 2.3146,2.49677 4.6292,4.97378 6.9438,7.38363 2.3146,2.40985 4.6292,4.75201 6.9438,6.98195 2.3146,2.22995 4.6291,4.34689 6.9437,6.31089 2.3146,1.964 4.62921,3.77404 6.9438,5.39632 2.31459,1.62227 4.62918,3.05558 6.94376,4.27353 2.31459,1.21796 4.62918,2.21922 6.94377,2.98586 2.31459,0.76665 4.62918,1.29724 6.94377,1.58299 2.31459,0.28575 4.62917,0.32519 6.94376,0.11902 2.31459,-0.20617 4.62918,-0.6594 6.94377,-1.34953 2.31459,-0.69013 4.62918,-1.61854 6.94377,-2.76601 2.31458,-1.14747 4.62917,-2.51524 6.94376,-4.07577 2.31459,-1.56052 4.62918,-3.31488 6.94377,-5.22826 2.31459,-1.91337 4.62918,-3.98663 6.94376,-6.17902 2.31459,-2.1924 4.62918,-4.50455 6.94377,-6.89139 2.31459,-2.38683 4.62918,-4.84866 6.94377,-7.33783 2.31459,-2.48916 4.62917,-5.0057 6.94376,-7.50116 2.31459,-2.49546 4.62918,-4.96959 6.94377,-7.37506 2.31459,-2.40547 4.62918,-4.74174 6.94377,-6.9644 2.31458,-2.22266 4.62917,-4.33092 6.94376,-6.28501 2.31459,-1.9541 4.62918,-3.75301 6.94377,-5.36314 2.31459,-1.61013 4.62918,-3.03028 6.94376,-4.23432 2.31459,-1.20404 4.62918,-2.19063 6.94377,-2.94213 2.31459,-0.75149 4.62918,-1.26646 6.94377,-1.53641 2.31459,-0.26995 4.62917,-0.29342 6.94376,-0.0714 2.31459,0.222 4.62918,0.69093 6.94377,1.39633 2.31459,0.7054 4.62918,1.64864 6.94377,2.81021 2.31458,1.16158 4.62917,2.54273 6.94376,4.11566 2.31459,1.57293 4.62918,3.3387 6.94377,5.2623 2.31459,1.92359 4.62918,4.00586 6.94376,6.2059 2.31459,2.20004 4.62918,4.51845 6.94377,6.91005 2.31459,2.3916 4.62918,4.85671 6.94377,7.34759 2.31459,2.49088 4.62917,5.00756 6.94376,7.50161 2.31459,2.49405 4.62918,4.96521 6.94377,7.3662 2.31459,2.40099 4.62918,4.73127 6.94377,6.94656 2.31458,2.21529 4.62917,4.31479 6.94376,6.2589 2.31459,1.94411 4.62918,3.73181 6.94377,5.32974 2.31459,1.59792 4.62918,3.00485 6.94376,4.19493 2.31459,1.19008 4.62918,2.16195 6.94377,2.89827 2.31459,0.73632 4.62918,1.23563 6.94377,1.48978 2.31459,0.25414 4.62917,0.26164 6.94376,0.0238 2.31459,-0.23783 4.62918,-0.72245 6.94377,-1.44308 2.31459,-0.72064 4.62918,-1.67867 6.94377,-2.8543 2.31458,-1.17563 4.62917,-2.57011 6.94376,-4.15538 2.31459,-1.58527 4.62918,-3.36239 6.94377,-5.29612 2.31459,-1.93374 4.62918,-4.02493 6.94376,-6.23253 2.31459,-2.20759 4.62918,-4.53217 6.94377,-6.92845 2.31459,-2.39627 4.62918,-4.86454 6.94377,-7.35704 2.31459,-2.49249 4.62917,-5.00922 6.94376,-7.50176 2.31459,-2.49254 4.62918,-4.96062 6.94377,-7.35704 2.31459,-2.39642 4.62918,-4.72062 6.94377,-6.92845 2.31458,-2.20782 4.62917,-4.29847 6.94376,-6.23252 2.31459,-1.93405 4.62918,-3.71048 6.94377,-5.29613 2.31459,-1.58565 4.62918,-2.97931 6.94376,-4.15538 2.31459,-1.17606 4.62918,-2.13318 6.94377,-2.85429 2.31459,-0.72111 4.62918,-1.20476 6.94377,-1.44309 2.31459,-0.23832 4.62917,-0.22985 6.94376,0.0238 2.31459,0.25365 4.62918,0.75393 6.94377,1.48977 2.31459,0.73585 4.62918,1.70863 6.94377,2.89828 2.31458,1.18964 4.62917,2.59739 6.94376,4.19493 2.31459,1.59754 4.62918,3.38594 6.94377,5.32974 2.31459,1.9438 4.62918,4.04384 6.94376,6.25889 2.31459,2.21506 4.62918,4.54572 6.94377,6.94657 2.31459,2.40085 4.62918,4.87219 6.94377,7.36619 2.31459,2.49401 4.62917,5.01069 6.94376,7.50162 2.31459,2.49093 4.62918,4.95584 6.94377,7.34758 2.31459,2.39175 4.62918,4.70978 6.94377,6.91006 2.31458,2.20027 4.62917,4.28199 6.94376,6.2059 2.31459,1.92391 4.62918,3.68898 6.94377,5.2623 2.31459,1.57331 4.62918,2.95364 6.94376,4.11565 2.31459,1.16201 4.62918,2.10434 6.94377,2.81021 2.31459,0.70587 4.62918,1.17384 6.94377,1.39634 2.31459,0.22249 4.62917,0.19804 6.94376,-0.0714 2.31459,-0.26946 4.62918,-0.78538 6.94377,-1.53641 2.31459,-0.75102 4.62918,-1.73852 6.94377,-2.94213 2.31458,-1.2036 4.62917,-2.62456 6.94376,-4.23432 2.31459,-1.60975 4.62918,-3.40934 6.94377,-5.36313 2.31459,-1.95379 4.62918,-4.06259 6.94376,-6.28502 2.31459,-2.22243 4.62918,-4.55907 6.94377,-6.9644 2.31459,-2.40533 4.62918,-4.87964 6.94377,-7.37506 2.31459,-2.49541 4.62917,-5.01194 6.94376,-7.50116 2.31459,-2.48922 4.62918,-4.95085 6.94377,-7.33783 2.31459,-2.38698 4.62918,-4.69874 6.94377,-6.89138 2.31458,-2.19264 4.62917,-4.26533 6.94376,-6.17903 2.31459,-1.91369 4.62918,-3.66735 6.94377,-5.22826 2.31459,-1.56091 4.62918,-2.92786 6.94376,-4.07577 2.31459,-1.1479 4.62918,-2.0754 6.94377,-2.76601 2.31459,-0.6906 4.62918,-1.14287 6.94377,-1.34953 2.31459,-0.20665 4.62917,-0.16623 6.94376,0.11903 2.31459,0.28526 4.62918,0.8168 6.94377,1.58298 2.31459,0.76617 4.62918,1.76834 6.94377,2.98586 2.31458,1.21753 4.62917,2.65164 6.94376,4.27354 2.31459,1.6219 4.62918,3.43262 6.94377,5.39632 2.31459,1.96369 4.62918,4.08116 6.94376,6.31088 2.31459,2.22972 4.62918,4.57224 6.94377,6.98195 2.31459,2.40972 4.62918,4.8869 6.94377,7.38363 2.31459,2.49673 4.62917,5.01299 6.94376,7.5004 2.31459,2.48742 4.62918,4.94567 6.94377,7.32779"
         style="color:#000000;clip-rule:nonzero;display:inline;overflow:visible;visibility:visible;opacity:1;isolation:auto;mix-blend-mode:normal;color-interpolation:sRGB;color-interpolation-filters:linearRGB;solid-color:#000000;solid-opacity:1;fill:none;fill-opacity:1;fill-rule:nonzero;stroke:#000080;stroke-width:2.50031257;stroke-linecap:butt;stroke-linejoin:miter;stroke-miterlimit:4;stroke-dasharray:2.5003125, 2.5003125;stroke-dashoffset:0;stroke-opacity:1;color-rendering:auto;image-rendering:auto;shape-rendering:auto;text-rendering:auto;enable-background:accumulate" />
    </g>
  </g>
</svg>
