<?xml version="1.0" encoding="UTF-8" standalone="no"?>
<!-- Created with Inkscape (http://www.inkscape.org/) -->

<svg
   xmlns:dc="http://purl.org/dc/elements/1.1/"
   xmlns:cc="http://creativecommons.org/ns#"
   xmlns:rdf="http://www.w3.org/1999/02/22-rdf-syntax-ns#"
   xmlns:svg="http://www.w3.org/2000/svg"
   xmlns="http://www.w3.org/2000/svg"
   xmlns:sodipodi="http://sodipodi.sourceforge.net/DTD/sodipodi-0.dtd"
   xmlns:inkscape="http://www.inkscape.org/namespaces/inkscape"
   width="68.069mm"
   height="66.513268mm"
   viewBox="0 0 241.18937 235.67693"
   id="svg29477"
   version="1.1"
   inkscape:version="0.92.3 (unknown)"
   sodipodi:docname="azimuth_grid.svg">
  <sodipodi:namedview
     id="base"
     pagecolor="#ffffff"
     bordercolor="#666666"
     borderopacity="1.0"
     inkscape:pageopacity="0.0"
     inkscape:pageshadow="2"
     inkscape:zoom="3.0844443"
     inkscape:cx="75.408496"
     inkscape:cy="106.3961"
     inkscape:document-units="px"
     inkscape:current-layer="layer1"
     showgrid="false"
     inkscape:window-width="1855"
     inkscape:window-height="1056"
     inkscape:window-x="65"
     inkscape:window-y="24"
     inkscape:window-maximized="1"
     fit-margin-top="0"
     fit-margin-left="0"
     fit-margin-right="0"
     fit-margin-bottom="0"
     showguides="true"
     inkscape:guide-bbox="true"
     inkscape:snap-global="true"
     inkscape:snap-bbox="true"
     inkscape:bbox-paths="true"
     inkscape:bbox-nodes="true"
     inkscape:snap-bbox-edge-midpoints="true"
     inkscape:snap-bbox-midpoints="true"
     inkscape:object-paths="true"
     inkscape:snap-intersection-paths="true"
     inkscape:object-nodes="true"
     inkscape:snap-smooth-nodes="true"
     inkscape:snap-midpoints="true"
     inkscape:snap-object-midpoints="true"
     inkscape:snap-center="true"
     inkscape:snap-to-guides="true">
    <sodipodi:guide
       inkscape:locked="false"
       id="guide7383"
       orientation="0,258.19887"
       position="-0.8720762,40.312838" />
    <sodipodi:guide
       inkscape:locked="false"
       id="guide7385"
       orientation="-216.38838,0"
       position="149.25969,28.98226" />
    <sodipodi:guide
       inkscape:locked="false"
       id="guide7387"
       orientation="0,-258.19887"
       position="241.18935,243.17694" />
    <sodipodi:guide
       inkscape:locked="false"
       id="guide7389"
       orientation="216.38838,0"
       position="86.47848,25.097497" />
  </sodipodi:namedview>
  <defs
     id="defs29479">
    <marker
       inkscape:isstock="true"
       style="overflow:visible"
       id="TriangleOutL"
       refX="0"
       refY="0"
       orient="auto"
       inkscape:stockid="TriangleOutL">
      <path
         transform="scale(0.8)"
         style="fill:#000000;fill-opacity:1;fill-rule:evenodd;stroke:#000000;stroke-width:1.00000003pt;stroke-opacity:1"
         d="M 5.77,0 -2.88,5 V -5 Z"
         id="path1083"
         inkscape:connector-curvature="0" />
    </marker>
    <marker
       inkscape:stockid="StopL"
       orient="auto"
       refY="0"
       refX="0"
       id="marker30634"
       style="overflow:visible"
       inkscape:isstock="true">
      <path
         inkscape:connector-curvature="0"
         id="path30636"
         d="M 0,5.65 V -5.65"
         style="fill:none;fill-opacity:0.75;fill-rule:evenodd;stroke:#000000;stroke-width:1.00000003pt;stroke-opacity:1"
         transform="scale(0.8)" />
    </marker>
    <marker
       inkscape:stockid="StopL"
       orient="auto"
       refY="0"
       refX="0"
       id="StopL"
       style="overflow:visible"
       inkscape:isstock="true">
      <path
         inkscape:connector-curvature="0"
         id="path8595"
         d="M 0,5.65 V -5.65"
         style="fill:none;fill-opacity:0.75;fill-rule:evenodd;stroke:#000000;stroke-width:1.00000003pt;stroke-opacity:1"
         transform="scale(0.8)" />
    </marker>
    <inkscape:path-effect
       bendpath-nodetypes="cc"
       vertical="false"
       scale_y_rel="false"
       prop_scale="1"
       bendpath="m 229.18975,240.5951 c 102.59546,-73.77089 260.61264,-100.75464 400,0"
       is_visible="true"
       id="path-effect8568"
       effect="bend_path" />
    <marker
       inkscape:stockid="StopL"
       orient="auto"
       refY="0"
       refX="0"
       id="StopL-4"
       style="overflow:visible"
       inkscape:isstock="true">
      <path
         inkscape:connector-curvature="0"
         id="path8595-1"
         d="M 0,5.65 V -5.65"
         style="fill:none;fill-opacity:0.75;fill-rule:evenodd;stroke:#000000;stroke-width:1.00000003pt;stroke-opacity:1"
         transform="scale(0.8)" />
    </marker>
    <marker
       inkscape:stockid="StopL"
       orient="auto"
       refY="0"
       refX="0"
       id="marker30634-7"
       style="overflow:visible"
       inkscape:isstock="true">
      <path
         inkscape:connector-curvature="0"
         id="path30636-8"
         d="M 0,5.65 V -5.65"
         style="fill:none;fill-opacity:0.75;fill-rule:evenodd;stroke:#000000;stroke-width:1.00000003pt;stroke-opacity:1"
         transform="scale(0.8)" />
    </marker>
    <marker
       inkscape:stockid="StopL"
       orient="auto"
       refY="0"
       refX="0"
       id="StopL-4-3"
       style="overflow:visible"
       inkscape:isstock="true">
      <path
         inkscape:connector-curvature="0"
         id="path8595-1-6"
         d="M 0,5.65 V -5.65"
         style="fill:none;fill-opacity:0.75;fill-rule:evenodd;stroke:#000000;stroke-width:1.00000003pt;stroke-opacity:1"
         transform="scale(0.8)" />
    </marker>
    <marker
       inkscape:stockid="StopL"
       orient="auto"
       refY="0"
       refX="0"
       id="marker30634-7-7"
       style="overflow:visible"
       inkscape:isstock="true">
      <path
         inkscape:connector-curvature="0"
         id="path30636-8-5"
         d="M 0,5.65 V -5.65"
         style="fill:none;fill-opacity:0.75;fill-rule:evenodd;stroke:#000000;stroke-width:1.00000003pt;stroke-opacity:1"
         transform="scale(0.8)" />
    </marker>
    <marker
       inkscape:stockid="StopL"
       orient="auto"
       refY="0"
       refX="0"
       id="StopL-4-5"
       style="overflow:visible"
       inkscape:isstock="true">
      <path
         inkscape:connector-curvature="0"
         id="path8595-1-62"
         d="M 0,5.65 V -5.65"
         style="fill:none;fill-opacity:0.75;fill-rule:evenodd;stroke:#000000;stroke-width:1.00000003pt;stroke-opacity:1"
         transform="scale(0.8)" />
    </marker>
    <marker
       inkscape:stockid="StopL"
       orient="auto"
       refY="0"
       refX="0"
       id="marker30634-7-9"
       style="overflow:visible"
       inkscape:isstock="true">
      <path
         inkscape:connector-curvature="0"
         id="path30636-8-1"
         d="M 0,5.65 V -5.65"
         style="fill:none;fill-opacity:0.75;fill-rule:evenodd;stroke:#000000;stroke-width:1.00000003pt;stroke-opacity:1"
         transform="scale(0.8)" />
    </marker>
  </defs>
  <metadata
     id="metadata29482">
    <rdf:RDF>
      <cc:Work
         rdf:about="">
        <dc:format>image/svg+xml</dc:format>
        <dc:type
           rdf:resource="http://purl.org/dc/dcmitype/StillImage" />
        <dc:title></dc:title>
      </cc:Work>
    </rdf:RDF>
  </metadata>
  <g
     transform="translate(-237.30872,-280.54866)"
     id="layer1"
     inkscape:groupmode="layer"
     inkscape:label="Layer 1">
    <g
       transform="matrix(0.33738986,0,0,0.33738986,210.14657,324.5109)"
       inkscape:label="Grid_Polar:X4:Y5"
       id="g8558"
       style="stroke:#808080;stroke-width:3.7049129;stroke-miterlimit:4;stroke-dasharray:none">
      <g
         inkscape:label="MajorXGridlines"
         id="g8560"
         style="stroke:#808080;stroke-width:3.7049129;stroke-miterlimit:4;stroke-dasharray:none" />
      <g
         inkscape:label="MajorYGridlines"
         id="g8562"
         style="stroke:#808080;stroke-width:3.7049129;stroke-miterlimit:4;stroke-dasharray:none" />
      <g
         inkscape:label="SubMinorXGridlines"
         id="g8564"
         style="stroke:#808080;stroke-width:3.7049129;stroke-miterlimit:4;stroke-dasharray:none" />
      <path
         inkscape:original-d="m 229.18975,-9.4048974 h 400 V 490.5951 h -400 z m 0,399.9999974 h 400 m -400,-100 h 400 m -400,-100 h 400 m -400,-99.999997 h 400 m -100,-100.0000004 V 490.5951 m -100,-499.9999974 V 490.5951 m -100,-499.9999974 V 490.5951"
         inkscape:path-effect="#path-effect8568"
         inkscape:connector-curvature="0"
         id="path8566"
         style="fill:#ffffff;stroke:#c0c0c0;stroke-width:3.7049129;stroke-miterlimit:4;stroke-dasharray:none"
         d="M 83.091477,37.727549 C 176.36589,-29.492988 286.48588,-68.399836 403.31778,-74.56019 c 63.61975,-3.073424 127.23606,4.382314 188.8776,22.241066 l 4e-5,1e-5 c 68.12017,20.322541 129.74776,51.0748435 183.3055,90.19882 L 482.7051,443.18513 c -11.14238,-7.6159 -21.7595,-13.44713 -30.27413,-15.43561 l 0,0 c -7.58658,-2.29592 -16.56475,-3.3024 -24.96317,-2.89328 l 0,0 c -16.46923,0.28562 -37.29829,8.00702 -52.35353,18.73139 z M 316.70971,362.41561 c 30.69907,-22.0236 69.38632,-35.98209 105.92808,-37.44265 19.44269,-0.94199 39.34848,1.35434 57.74606,6.76283 l 1e-5,10e-6 c 20.43573,5.65529 41.25495,16.47073 60.8804,30.38825 M 258.30515,281.2436 c 46.34291,-33.32284 102.88834,-53.51842 159.50264,-56.15393 30.48695,-1.47484 61.32037,2.11134 90.52894,10.63239 l 2e-5,1e-5 c 32.35684,9.3221 63.37816,25.12176 91.48668,45.34089 M 199.90059,200.07158 c 61.98674,-44.62207 136.39036,-71.05474 213.0772,-74.8652 41.53121,-2.0077 83.29227,2.86833 123.31183,14.50195 l 2e-5,1e-5 c 44.27795,12.98892 85.50136,33.77279 122.09295,60.29354 M 141.49604,118.89957 C 219.12661,62.978262 311.38842,30.308504 408.14778,25.323097 460.72326,22.782534 513.41195,28.948419 564.2425,43.694606 l 3e-5,9e-6 c 56.19906,16.655728 107.62456,42.423816 152.69923,75.246175 M 613.66705,-45.49726 455.21165,428.5102 m -27.46323,-503.73335 2.9694,499.9916 M 245.57477,-45.125856 402.66112,429.64018" />
    </g>
    <path
       sodipodi:nodetypes="cc"
       inkscape:connector-curvature="0"
       id="path29982"
       d="M 373.01646,474.04396 471.84117,337.32653"
       style="fill:none;fill-rule:evenodd;stroke:#000000;stroke-width:2;stroke-linecap:butt;stroke-linejoin:miter;stroke-miterlimit:4;stroke-dasharray:none;stroke-opacity:1;marker-end:url(#TriangleOutL)" />
    <g
       id="g30570"
       transform="matrix(3.8082438,0,0,3.8082438,144.67793,-396.22129)">
      <g
         word-spacing="normal"
         letter-spacing="normal"
         font-size-adjust="none"
         font-stretch="normal"
         font-weight="normal"
         font-variant="normal"
         font-style="normal"
         stroke-miterlimit="10.433"
         xml:space="preserve"
         transform="matrix(0.26086362,0,0,-0.26086362,-45.651133,328.52768)"
         id="content"
         style="font-style:normal;font-variant:normal;font-weight:normal;font-stretch:normal;letter-spacing:normal;word-spacing:normal;text-anchor:start;fill:none;fill-opacity:1;fill-rule:evenodd;stroke:#000000;stroke-linecap:butt;stroke-linejoin:miter;stroke-miterlimit:10.43299961;stroke-dasharray:none;stroke-dashoffset:0;stroke-opacity:1"><path
           id="path30573"
           d="m 459.91,409.14 -0.02,-0.07 -0.01,-0.08 -0.02,-0.07 -0.01,-0.08 -0.04,-0.16 -0.04,-0.16 -0.03,-0.16 -0.04,-0.16 -0.04,-0.16 -0.04,-0.16 -0.01,-0.08 -0.02,-0.07 -0.02,-0.07 -0.01,-0.07 -0.02,-0.07 -0.01,-0.07 -0.01,-0.06 -0.01,-0.06 -0.01,-0.06 -0.01,-0.05 -0.01,-0.05 -0.01,-0.04 -0.01,-0.04 v -0.04 -0.03 -0.02 c 0,-0.89 0.7,-1.35 1.43,-1.35 0.61,0 1.5,0.39 1.85,1.39 0.11,0.21 1.8,6.99 2,7.88 0.39,1.64 1.3,5.12 1.59,6.48 0.21,0.64 1.6,2.99 2.78,4.08 0.41,0.34 1.85,1.64 4,1.64 1.28,0 2.03,-0.59 2.08,-0.59 -1.48,-0.25 -2.58,-1.46 -2.58,-2.74 0,-0.79 0.55,-1.75 1.89,-1.75 1.35,0 2.74,1.14 2.74,2.94 0,1.75 -1.6,3.23 -4.13,3.23 -3.25,0 -5.43,-2.43 -6.39,-3.82 -0.39,2.23 -2.18,3.82 -4.53,3.82 -2.28,0 -3.23,-1.93 -3.69,-2.82 -0.89,-1.71 -1.54,-4.69 -1.54,-4.85 0,-0.5 0.5,-0.5 0.61,-0.5 0.5,0 0.54,0.07 0.84,1.16 0.84,3.53 1.84,5.92 3.64,5.92 0.84,0 1.55,-0.39 1.55,-2.28 0,-1.05 -0.16,-1.61 -0.8,-4.19 z"
           inkscape:connector-curvature="0"
           style="fill:#000000;stroke-width:0" /></g>    </g>
    <path
       style="fill:none;fill-rule:evenodd;stroke:#000000;stroke-width:1.25;stroke-linecap:butt;stroke-linejoin:miter;stroke-miterlimit:4;stroke-dasharray:none;stroke-opacity:1;marker-start:url(#StopL);marker-end:url(#marker30634)"
       d="m 298.50725,324.51649 56.07292,-9.44386"
       id="path30592"
       inkscape:connector-curvature="0" />
    <path
       sodipodi:nodetypes="cc"
       style="fill:none;fill-rule:evenodd;stroke:#000000;stroke-width:1.25;stroke-linecap:butt;stroke-linejoin:miter;stroke-miterlimit:4;stroke-dasharray:none;stroke-opacity:1;marker-start:url(#StopL-4);marker-end:url(#marker30634-7)"
       d="m 329.73227,421.31607 25.38037,-2.9512"
       id="path30592-8"
       inkscape:connector-curvature="0" />
    <path
       sodipodi:nodetypes="cc"
       style="fill:none;fill-rule:evenodd;stroke:#000000;stroke-width:1.25;stroke-linecap:butt;stroke-linejoin:miter;stroke-miterlimit:4;stroke-dasharray:none;stroke-opacity:1;marker-start:url(#StopL-4-3);marker-end:url(#marker30634-7-7)"
       d="m 297.29611,419.39964 19.7051,27.38661"
       id="path30592-8-3"
       inkscape:connector-curvature="0" />
    <g
       id="g6935"
       transform="matrix(2.21542,0,0,2.21542,75.192294,261.40618)">
      <g
         word-spacing="normal"
         letter-spacing="normal"
         font-size-adjust="none"
         font-stretch="normal"
         font-weight="normal"
         font-variant="normal"
         font-style="normal"
         stroke-miterlimit="10.433"
         xml:space="preserve"
         transform="matrix(0.29715153,0,0,-0.29715153,-52.001517,210.06121)"
         id="g6933"
         style="font-style:normal;font-variant:normal;font-weight:normal;font-stretch:normal;letter-spacing:normal;word-spacing:normal;text-anchor:start;fill:none;fill-opacity:1;fill-rule:evenodd;stroke:#000000;stroke-linecap:butt;stroke-linejoin:miter;stroke-miterlimit:10.43299961;stroke-dasharray:none;stroke-dashoffset:0;stroke-opacity:1"><path
           id="path6929"
           d="m 469.15,427.77 -0.58,-0.15 -0.57,-0.19 -0.56,-0.21 -0.55,-0.23 -0.54,-0.27 -0.53,-0.28 -0.52,-0.31 -0.5,-0.33 -0.49,-0.35 -0.48,-0.38 -0.46,-0.39 -0.45,-0.41 -0.44,-0.43 -0.41,-0.44 -0.4,-0.46 -0.38,-0.47 -0.36,-0.49 -0.35,-0.5 -0.32,-0.51 -0.31,-0.52 -0.28,-0.53 -0.27,-0.53 -0.24,-0.55 -0.21,-0.55 -0.2,-0.56 -0.17,-0.56 -0.15,-0.56 -0.12,-0.57 -0.09,-0.57 -0.07,-0.57 -0.04,-0.56 -0.02,-0.57 c 0,-4.78 3.19,-8.37 7.87,-8.37 v 1.1 c -2.74,0 -4.78,2.09 -4.78,5.88 0,3.14 1.84,12.5 8.57,14.29 v 0 c 1.24,-2.29 2.74,-4.98 2.74,-8.56 0,-3.29 -1.9,-11.61 -6.53,-11.61 v -1.1 c 5.83,0 9.97,7.82 9.97,14.7 0,4.53 -2,7.02 -3.69,9.26 -1.79,2.25 -4.73,5.98 -4.73,8.17 0,1.1 0.99,2.29 2.74,2.29 1.49,0 2.49,-0.64 3.54,-1.34 0.99,-0.6 1.99,-1.25 2.73,-1.25 1.25,0 2,1.2 2,2 0,1.09 -0.8,1.24 -2.59,1.64 -2.59,0.55 -3.29,0.55 -4.09,0.55 -3.88,0 -5.68,-2.15 -5.68,-5.13 0,-2.69 1.45,-5.48 2.99,-8.52 z"
           inkscape:connector-curvature="0"
           style="fill:#000000;stroke-width:0" /><path
           id="path6931"
           d="m 498.71,410.86 0.39,0.09 0.38,0.11 0.38,0.11 0.38,0.12 0.37,0.13 0.37,0.14 0.36,0.15 0.35,0.15 0.34,0.16 0.34,0.17 0.33,0.18 0.32,0.18 0.31,0.19 0.3,0.2 0.29,0.2 0.27,0.21 0.27,0.22 0.25,0.22 0.24,0.23 0.22,0.23 0.21,0.24 0.2,0.25 0.17,0.25 0.17,0.25 0.14,0.26 0.13,0.27 0.11,0.27 0.09,0.27 0.07,0.28 0.06,0.28 0.03,0.29 0.01,0.29 c 0,3 -3.56,5.37 -8.61,5.37 h -10.71 c -0.66,0 -1.12,0 -1.12,-0.77 0,-0.49 0.42,-0.49 1.12,-0.49 0.03,0 0.7,0 1.33,-0.07 0.73,-0.07 0.8,-0.14 0.8,-0.49 0,-0.07 0,-0.24 -0.14,-0.77 l -4.64,-18.51 c -0.28,-1.18 -0.35,-1.47 -3.07,-1.47 -0.59,0 -1.04,0 -1.04,-0.73 0,-0.34 0.24,-0.52 0.56,-0.52 0.66,0 1.46,0.11 2.16,0.11 h 4.53 c 0.73,0 1.6,-0.11 2.34,-0.11 0.17,0 0.73,0 0.73,0.73 0,0.52 -0.35,0.52 -1.16,0.52 -0.55,0 -0.69,0 -1.32,0.07 -0.77,0.11 -0.77,0.18 -0.77,0.53 0,0.03 0,0.24 0.15,0.76 l 2.19,8.83 h 4.74 l 0.04,0.97 h -4.5 l 2.23,8.97 c 0.24,0.97 0.31,1.08 1.08,1.18 h 2.23 c 3.25,0 7.25,0 7.25,-3.59 0,-1.43 -0.66,-3.63 -2.3,-4.88 -1.43,-1.12 -3.59,-1.68 -5.99,-1.68 l -0.04,-0.97 c 3,0 4.29,-1.5 4.29,-3.14 0,-0.46 -0.31,-1.64 -0.49,-2.44 -0.41,-1.61 -0.55,-2.13 -0.55,-2.72 0,-2.76 2.54,-3.84 5.12,-3.84 3.21,0 4.61,3.42 4.61,4.05 0,0.1 -0.07,0.49 -0.6,0.49 -0.45,0 -0.52,-0.25 -0.63,-0.6 -0.49,-1.53 -1.77,-2.96 -3.24,-2.96 -0.91,0 -1.57,0.38 -1.57,2.27 0,0.87 0.21,2.68 0.35,3.62 0.14,0.94 0.14,1.29 0.14,1.64 0,0.42 0,1.53 -0.98,2.58 -0.66,0.73 -1.6,1.19 -2.37,1.47 z"
           inkscape:connector-curvature="0"
           style="fill:#000000;stroke-width:0" /></g>    </g>
    <g
       id="g7045"
       transform="matrix(1.9287081,0,0,1.9287081,125.10973,128.3879)">
      <g
         id="g7043"
         transform="matrix(0.29715153,0,0,-0.29715153,-52.001517,210.06121)"
         xml:space="preserve"
         stroke-miterlimit="10.433"
         font-style="normal"
         font-variant="normal"
         font-weight="normal"
         font-stretch="normal"
         font-size-adjust="none"
         letter-spacing="normal"
         word-spacing="normal"
         style="font-style:normal;font-variant:normal;font-weight:normal;font-stretch:normal;letter-spacing:normal;word-spacing:normal;text-anchor:start;fill:none;fill-opacity:1;fill-rule:evenodd;stroke:#000000;stroke-linecap:butt;stroke-linejoin:miter;stroke-miterlimit:10.43299961;stroke-dasharray:none;stroke-dashoffset:0;stroke-opacity:1"><path
           d="m 469.15,427.77 -0.58,-0.15 -0.57,-0.19 -0.56,-0.21 -0.55,-0.23 -0.54,-0.27 -0.53,-0.28 -0.52,-0.31 -0.5,-0.33 -0.49,-0.35 -0.48,-0.38 -0.46,-0.39 -0.45,-0.41 -0.44,-0.43 -0.41,-0.44 -0.4,-0.46 -0.38,-0.47 -0.36,-0.49 -0.35,-0.5 -0.32,-0.51 -0.31,-0.52 -0.28,-0.53 -0.27,-0.53 -0.24,-0.55 -0.21,-0.55 -0.2,-0.56 -0.17,-0.56 -0.15,-0.56 -0.12,-0.57 -0.09,-0.57 -0.07,-0.57 -0.04,-0.56 -0.02,-0.57 c 0,-4.78 3.19,-8.37 7.87,-8.37 v 1.1 c -2.74,0 -4.78,2.09 -4.78,5.88 0,3.14 1.84,12.5 8.57,14.29 v 0 c 1.24,-2.29 2.74,-4.98 2.74,-8.56 0,-3.29 -1.9,-11.61 -6.53,-11.61 v -1.1 c 5.83,0 9.97,7.82 9.97,14.7 0,4.53 -2,7.02 -3.69,9.26 -1.79,2.25 -4.73,5.98 -4.73,8.17 0,1.1 0.99,2.29 2.74,2.29 1.49,0 2.49,-0.64 3.54,-1.34 0.99,-0.6 1.99,-1.25 2.73,-1.25 1.25,0 2,1.2 2,2 0,1.09 -0.8,1.24 -2.59,1.64 -2.59,0.55 -3.29,0.55 -4.09,0.55 -3.88,0 -5.68,-2.15 -5.68,-5.13 0,-2.69 1.45,-5.48 2.99,-8.52 z"
           id="path7029"
           inkscape:connector-curvature="0"
           style="fill:#000000;stroke-width:0" /><path
           d="m 492.71,412.32 -0.06,0.11 -0.08,0.1 -0.07,0.11 -0.08,0.1 -0.08,0.1 -0.08,0.1 -0.09,0.09 -0.09,0.1 -0.09,0.09 -0.09,0.09 -0.1,0.08 -0.1,0.09 -0.1,0.08 -0.11,0.07 -0.11,0.08 -0.11,0.07 -0.11,0.07 -0.12,0.06 -0.12,0.06 -0.12,0.06 -0.12,0.05 -0.13,0.05 -0.13,0.05 -0.13,0.04 -0.14,0.04 -0.14,0.03 -0.14,0.02 -0.14,0.03 -0.15,0.02 -0.15,0.01 -0.15,0.01 h -0.16 v -0.98 c 2.44,0 3.11,-2.65 3.11,-3.03 0,-0.14 -0.07,-0.39 -0.11,-0.49 l -1.64,-6.52 c -0.24,-0.98 -1.01,-1.68 -1.78,-2.34 -0.31,-0.28 -1.7,-1.39 -3.2,-1.39 -1.29,0 -2.55,0.91 -2.55,3.38 0,1.85 1.01,5.69 1.82,7.08 1.6,2.79 3.38,3.31 4.35,3.31 v 0.98 c -4.46,0 -8.99,-4.92 -8.99,-9.94 0,-3.38 2.26,-5.79 5.26,-5.79 1.88,0 3.56,1.08 4.95,2.44 0.67,-2.09 2.69,-2.44 3.59,-2.44 1.26,0 2.13,0.77 2.76,1.85 0.77,1.36 1.22,3.35 1.22,3.48 0,0.46 -0.45,0.46 -0.56,0.46 -0.49,0 -0.52,-0.14 -0.76,-1.08 -0.42,-1.68 -1.09,-3.73 -2.55,-3.73 -0.91,0 -1.15,0.76 -1.15,1.71 0,0.59 0.28,1.84 0.52,2.75 0.25,0.94 0.59,2.37 0.77,3.14 l 0.7,2.65 c 0.21,0.91 0.62,2.55 0.62,2.72 0,0.77 -0.62,1.11 -1.18,1.11 -0.59,0 -1.39,-0.41 -1.61,-1.39 z"
           id="path7031"
           inkscape:connector-curvature="0"
           style="fill:#000000;stroke-width:0" /><path
           d="m 504.86,402.07 0.17,0.17 0.16,0.16 0.17,0.17 0.17,0.16 0.18,0.18 0.09,0.09 0.1,0.09 0.1,0.09 0.11,0.1 0.11,0.1 0.12,0.11 0.12,0.11 0.13,0.11 0.13,0.12 0.15,0.13 0.15,0.13 0.16,0.14 0.17,0.14 0.18,0.15 0.19,0.16 0.2,0.16 0.21,0.17 0.22,0.19 0.23,0.18 0.25,0.2 0.25,0.21 0.28,0.22 c 0.73,0.59 3.34,2.69 4.36,3.66 2.12,2.09 3.45,3.87 3.45,4.29 0,0.42 -0.45,0.42 -0.6,0.42 -0.31,0 -0.41,-0.07 -0.59,-0.35 -1.08,-1.6 -1.81,-2.13 -2.65,-2.13 -0.42,0 -0.94,0.04 -1.99,1.05 -1.18,1.18 -1.95,1.43 -2.75,1.43 -2.79,0 -4.67,-3.04 -4.67,-4.08 0,-0.32 0.35,-0.42 0.59,-0.42 0.42,0 0.49,0.1 0.63,0.49 0.52,1.22 2.47,1.29 3.03,1.29 0.8,0 1.71,-0.21 2.2,-0.32 1.91,-0.41 2.16,-0.41 3.03,-0.41 -0.9,-0.95 -1.53,-1.57 -4.85,-4.22 -2.71,-2.17 -3.66,-3.04 -4.32,-3.73 -2.09,-2.06 -3.1,-3.6 -3.1,-3.91 0,-0.42 0.45,-0.42 0.59,-0.42 0.35,0 0.42,0.07 0.59,0.35 0.94,1.32 2.03,2.13 3.21,2.13 0.42,0 0.94,-0.04 1.88,-0.91 1.08,-1.04 1.78,-1.57 2.9,-1.57 3.73,0 6.06,4.22 6.06,5.4 0,0.42 -0.38,0.46 -0.59,0.46 -0.42,0 -0.49,-0.17 -0.62,-0.56 -0.67,-1.74 -2.72,-2.58 -4.44,-2.58 -0.8,0 -1.67,0.18 -2.54,0.38 -1.6,0.35 -1.88,0.35 -2.51,0.35 -0.07,0 -0.59,0 -0.8,-0.03 z"
           id="path7033"
           inkscape:connector-curvature="0"
           style="fill:#000000;stroke-width:0" /><path
           d="m 527.35,399.56 v -0.36 l -0.01,-0.37 -0.03,-0.38 -0.05,-0.38 -0.02,-0.2 -0.04,-0.19 -0.04,-0.2 -0.04,-0.19 -0.05,-0.2 -0.05,-0.2 -0.07,-0.2 -0.06,-0.2 -0.08,-0.21 -0.08,-0.2 -0.09,-0.2 -0.1,-0.21 -0.11,-0.2 -0.11,-0.21 -0.13,-0.21 -0.13,-0.2 -0.14,-0.21 -0.15,-0.21 -0.16,-0.21 -0.18,-0.21 -0.18,-0.21 -0.19,-0.21 -0.21,-0.2 -0.21,-0.21 c -0.14,-0.14 -0.24,-0.25 -0.24,-0.42 0,-0.24 0.27,-0.49 0.48,-0.49 0.49,0 3.45,2.79 3.45,6.94 0,2.16 -0.83,3.8 -2.43,3.8 -1.16,0 -1.99,-0.91 -1.99,-1.99 0,-1.11 0.8,-2.02 2.02,-2.02 0.84,0 1.39,0.56 1.42,0.56 z"
           id="path7035"
           inkscape:connector-curvature="0"
           style="fill:#000000;stroke-width:0" /><path
           d="m 546.19,412.77 h 3.42 c 0.69,0 1.15,0 1.15,0.77 0,0.49 -0.46,0.49 -1.08,0.49 h -3.24 c 0.8,4.43 1.08,6.03 1.36,7.04 0.17,0.77 0.94,1.5 1.77,1.5 0.04,0 0.98,0 1.65,-0.42 -1.44,-0.45 -1.54,-1.7 -1.54,-1.92 0,-0.76 0.59,-1.28 1.39,-1.28 0.95,0 1.99,0.8 1.99,2.12 0,1.61 -1.71,2.48 -3.49,2.48 -1.53,0 -3.24,-0.87 -4.18,-2.62 -0.7,-1.29 -0.98,-2.86 -1.71,-6.9 h -2.75 c -0.7,0 -1.15,0 -1.15,-0.77 0,-0.49 0.45,-0.49 1.07,-0.49 h 2.59 c -0.04,-0.21 -2.23,-12.76 -3.07,-16.49 -0.17,-0.77 -0.77,-3.42 -2.44,-3.42 -0.03,0 -0.88,0 -1.53,0.42 1.42,0.45 1.53,1.71 1.53,1.92 0,0.76 -0.59,1.29 -1.4,1.29 -0.94,0 -1.98,-0.8 -1.98,-2.13 0,-1.57 1.63,-2.47 3.38,-2.47 2.23,0 3.77,2.3 4.18,3.07 1.26,2.33 2.06,6.62 2.13,7.04 z"
           id="path7037"
           inkscape:connector-curvature="0"
           style="fill:#000000;stroke-width:0" /><path
           d="m 569.72,412.32 -0.07,0.11 -0.08,0.1 -0.07,0.11 -0.08,0.1 -0.08,0.1 -0.08,0.1 -0.09,0.09 -0.09,0.1 -0.09,0.09 -0.09,0.09 -0.1,0.08 -0.1,0.09 -0.1,0.08 -0.11,0.07 -0.11,0.08 -0.11,0.07 -0.11,0.07 -0.12,0.06 -0.12,0.06 -0.12,0.06 -0.12,0.05 -0.13,0.05 -0.13,0.05 -0.13,0.04 -0.14,0.04 -0.14,0.03 -0.14,0.02 -0.14,0.03 -0.15,0.02 -0.15,0.01 -0.15,0.01 h -0.16 v -0.98 c 2.44,0 3.11,-2.65 3.11,-3.03 0,-0.14 -0.07,-0.39 -0.11,-0.49 l -1.64,-6.52 c -0.24,-0.98 -1.01,-1.68 -1.78,-2.34 -0.31,-0.28 -1.7,-1.39 -3.2,-1.39 -1.29,0 -2.55,0.91 -2.55,3.38 0,1.85 1.01,5.69 1.82,7.08 1.6,2.79 3.38,3.31 4.35,3.31 v 0.98 c -4.46,0 -8.99,-4.92 -8.99,-9.94 0,-3.38 2.27,-5.79 5.26,-5.79 1.88,0 3.56,1.08 4.95,2.44 0.67,-2.09 2.69,-2.44 3.59,-2.44 1.26,0 2.13,0.77 2.76,1.85 0.77,1.36 1.22,3.35 1.22,3.48 0,0.46 -0.45,0.46 -0.56,0.46 -0.49,0 -0.52,-0.14 -0.76,-1.08 -0.42,-1.68 -1.09,-3.73 -2.55,-3.73 -0.91,0 -1.15,0.76 -1.15,1.71 0,0.59 0.28,1.84 0.52,2.75 0.25,0.94 0.59,2.37 0.77,3.14 l 0.7,2.65 c 0.21,0.91 0.62,2.55 0.62,2.72 0,0.77 -0.62,1.11 -1.18,1.11 -0.59,0 -1.39,-0.41 -1.6,-1.39 z"
           id="path7039"
           inkscape:connector-curvature="0"
           style="fill:#000000;stroke-width:0" /><path
           d="m 585.2,406.04 v 0.02 0.01 0.02 l 0.01,0.03 0.01,0.02 v 0.03 l 0.01,0.04 0.01,0.04 0.01,0.04 0.01,0.04 0.01,0.05 0.02,0.05 0.01,0.05 0.01,0.06 0.03,0.12 0.03,0.12 0.04,0.14 0.03,0.14 0.04,0.14 0.04,0.15 0.04,0.16 0.07,0.31 0.08,0.31 0.04,0.15 0.04,0.15 0.04,0.14 0.04,0.14 0.03,0.14 0.04,0.12 0.03,0.12 0.01,0.05 0.01,0.05 0.02,0.05 0.01,0.05 0.01,0.04 0.01,0.04 0.01,0.04 0.01,0.03 0.01,0.03 0.01,0.03 0.01,0.02 v 0.02 l 0.01,0.02 v 0.01 c 0.07,0.27 1.08,2.02 2.2,2.86 0.38,0.27 1.32,0.97 2.82,0.97 0.35,0 1.22,-0.03 1.92,-0.49 -1.11,-0.31 -1.54,-1.29 -1.54,-1.91 0,-0.77 0.6,-1.3 1.4,-1.3 0.8,0 1.95,0.67 1.95,2.13 0,1.81 -1.92,2.55 -3.69,2.55 -1.82,0 -3.39,-0.74 -4.92,-2.48 -0.63,2.13 -2.76,2.48 -3.59,2.48 -1.29,0 -2.16,-0.81 -2.72,-1.78 -0.8,-1.36 -1.29,-3.39 -1.29,-3.56 0,-0.45 0.49,-0.45 0.59,-0.45 0.49,0 0.52,0.11 0.77,1.05 0.52,2.12 1.18,3.76 2.54,3.76 0.91,0 1.16,-0.77 1.16,-1.71 0,-0.66 -0.32,-1.95 -0.56,-2.89 -0.24,-0.94 -0.6,-2.37 -0.77,-3.14 l -1.12,-4.46 c -0.14,-0.46 -0.34,-1.33 -0.34,-1.43 0,-0.77 0.62,-1.12 1.18,-1.12 0.52,0 1.22,0.31 1.5,1.01 0.07,0.21 0.45,1.75 0.66,2.62 z"
           id="path7041"
           inkscape:connector-curvature="0"
           style="fill:#000000;stroke-width:0" /></g>    </g>
    <g
       id="g7175"
       transform="matrix(1.9287081,0,0,1.9287081,147.8202,226.2752)">
      <g
         word-spacing="normal"
         letter-spacing="normal"
         font-size-adjust="none"
         font-stretch="normal"
         font-weight="normal"
         font-variant="normal"
         font-style="normal"
         stroke-miterlimit="10.433"
         xml:space="preserve"
         transform="matrix(0.29715153,0,0,-0.29715153,-52.001517,210.06121)"
         id="g7173"
         style="font-style:normal;font-variant:normal;font-weight:normal;font-stretch:normal;letter-spacing:normal;word-spacing:normal;text-anchor:start;fill:none;fill-opacity:1;fill-rule:evenodd;stroke:#000000;stroke-linecap:butt;stroke-linejoin:miter;stroke-miterlimit:10.43299961;stroke-dasharray:none;stroke-dashoffset:0;stroke-opacity:1"><path
           id="path7157"
           d="m 469.15,427.77 -0.58,-0.15 -0.57,-0.19 -0.56,-0.21 -0.55,-0.23 -0.54,-0.27 -0.53,-0.28 -0.52,-0.31 -0.5,-0.33 -0.49,-0.35 -0.48,-0.38 -0.46,-0.39 -0.45,-0.41 -0.44,-0.43 -0.41,-0.44 -0.4,-0.46 -0.38,-0.47 -0.36,-0.49 -0.35,-0.5 -0.32,-0.51 -0.31,-0.52 -0.28,-0.53 -0.27,-0.53 -0.24,-0.55 -0.21,-0.55 -0.2,-0.56 -0.17,-0.56 -0.15,-0.56 -0.12,-0.57 -0.09,-0.57 -0.07,-0.57 -0.04,-0.56 -0.02,-0.57 c 0,-4.78 3.19,-8.37 7.87,-8.37 v 1.1 c -2.74,0 -4.78,2.09 -4.78,5.88 0,3.14 1.84,12.5 8.57,14.29 v 0 c 1.24,-2.29 2.74,-4.98 2.74,-8.56 0,-3.29 -1.9,-11.61 -6.53,-11.61 v -1.1 c 5.83,0 9.97,7.82 9.97,14.7 0,4.53 -2,7.02 -3.69,9.26 -1.79,2.25 -4.73,5.98 -4.73,8.17 0,1.1 0.99,2.29 2.74,2.29 1.49,0 2.49,-0.64 3.54,-1.34 0.99,-0.6 1.99,-1.25 2.73,-1.25 1.25,0 2,1.2 2,2 0,1.09 -0.8,1.24 -2.59,1.64 -2.59,0.55 -3.29,0.55 -4.09,0.55 -3.88,0 -5.68,-2.15 -5.68,-5.13 0,-2.69 1.45,-5.48 2.99,-8.52 z"
           inkscape:connector-curvature="0"
           style="fill:#000000;stroke-width:0" /><path
           id="path7159"
           d="m 492.71,412.32 -0.06,0.11 -0.08,0.1 -0.07,0.11 -0.08,0.1 -0.08,0.1 -0.08,0.1 -0.09,0.09 -0.09,0.1 -0.09,0.09 -0.09,0.09 -0.1,0.08 -0.1,0.09 -0.1,0.08 -0.11,0.07 -0.11,0.08 -0.11,0.07 -0.11,0.07 -0.12,0.06 -0.12,0.06 -0.12,0.06 -0.12,0.05 -0.13,0.05 -0.13,0.05 -0.13,0.04 -0.14,0.04 -0.14,0.03 -0.14,0.02 -0.14,0.03 -0.15,0.02 -0.15,0.01 -0.15,0.01 h -0.16 v -0.98 c 2.44,0 3.11,-2.65 3.11,-3.03 0,-0.14 -0.07,-0.39 -0.11,-0.49 l -1.64,-6.52 c -0.24,-0.98 -1.01,-1.68 -1.78,-2.34 -0.31,-0.28 -1.7,-1.39 -3.2,-1.39 -1.29,0 -2.55,0.91 -2.55,3.38 0,1.85 1.01,5.69 1.82,7.08 1.6,2.79 3.38,3.31 4.35,3.31 v 0.98 c -4.46,0 -8.99,-4.92 -8.99,-9.94 0,-3.38 2.26,-5.79 5.26,-5.79 1.88,0 3.56,1.08 4.95,2.44 0.67,-2.09 2.69,-2.44 3.59,-2.44 1.26,0 2.13,0.77 2.76,1.85 0.77,1.36 1.22,3.35 1.22,3.48 0,0.46 -0.45,0.46 -0.56,0.46 -0.49,0 -0.52,-0.14 -0.76,-1.08 -0.42,-1.68 -1.09,-3.73 -2.55,-3.73 -0.91,0 -1.15,0.76 -1.15,1.71 0,0.59 0.28,1.84 0.52,2.75 0.25,0.94 0.59,2.37 0.77,3.14 l 0.7,2.65 c 0.21,0.91 0.62,2.55 0.62,2.72 0,0.77 -0.62,1.11 -1.18,1.11 -0.59,0 -1.39,-0.41 -1.61,-1.39 z"
           inkscape:connector-curvature="0"
           style="fill:#000000;stroke-width:0" /><path
           id="path7161"
           d="m 504.86,402.07 0.17,0.17 0.16,0.16 0.17,0.17 0.17,0.16 0.18,0.18 0.09,0.09 0.1,0.09 0.1,0.09 0.11,0.1 0.11,0.1 0.12,0.11 0.12,0.11 0.13,0.11 0.13,0.12 0.15,0.13 0.15,0.13 0.16,0.14 0.17,0.14 0.18,0.15 0.19,0.16 0.2,0.16 0.21,0.17 0.22,0.19 0.23,0.18 0.25,0.2 0.25,0.21 0.28,0.22 c 0.73,0.59 3.34,2.69 4.36,3.66 2.12,2.09 3.45,3.87 3.45,4.29 0,0.42 -0.45,0.42 -0.6,0.42 -0.31,0 -0.41,-0.07 -0.59,-0.35 -1.08,-1.6 -1.81,-2.13 -2.65,-2.13 -0.42,0 -0.94,0.04 -1.99,1.05 -1.18,1.18 -1.95,1.43 -2.75,1.43 -2.79,0 -4.67,-3.04 -4.67,-4.08 0,-0.32 0.35,-0.42 0.59,-0.42 0.42,0 0.49,0.1 0.63,0.49 0.52,1.22 2.47,1.29 3.03,1.29 0.8,0 1.71,-0.21 2.2,-0.32 1.91,-0.41 2.16,-0.41 3.03,-0.41 -0.9,-0.95 -1.53,-1.57 -4.85,-4.22 -2.71,-2.17 -3.66,-3.04 -4.32,-3.73 -2.09,-2.06 -3.1,-3.6 -3.1,-3.91 0,-0.42 0.45,-0.42 0.59,-0.42 0.35,0 0.42,0.07 0.59,0.35 0.94,1.32 2.03,2.13 3.21,2.13 0.42,0 0.94,-0.04 1.88,-0.91 1.08,-1.04 1.78,-1.57 2.9,-1.57 3.73,0 6.06,4.22 6.06,5.4 0,0.42 -0.38,0.46 -0.59,0.46 -0.42,0 -0.49,-0.17 -0.62,-0.56 -0.67,-1.74 -2.72,-2.58 -4.44,-2.58 -0.8,0 -1.67,0.18 -2.54,0.38 -1.6,0.35 -1.88,0.35 -2.51,0.35 -0.07,0 -0.59,0 -0.8,-0.03 z"
           inkscape:connector-curvature="0"
           style="fill:#000000;stroke-width:0" /><path
           id="path7163"
           d="m 527.35,399.56 v -0.36 l -0.01,-0.37 -0.03,-0.38 -0.05,-0.38 -0.02,-0.2 -0.04,-0.19 -0.04,-0.2 -0.04,-0.19 -0.05,-0.2 -0.05,-0.2 -0.07,-0.2 -0.06,-0.2 -0.08,-0.21 -0.08,-0.2 -0.09,-0.2 -0.1,-0.21 -0.11,-0.2 -0.11,-0.21 -0.13,-0.21 -0.13,-0.2 -0.14,-0.21 -0.15,-0.21 -0.16,-0.21 -0.18,-0.21 -0.18,-0.21 -0.19,-0.21 -0.21,-0.2 -0.21,-0.21 c -0.14,-0.14 -0.24,-0.25 -0.24,-0.42 0,-0.24 0.27,-0.49 0.48,-0.49 0.49,0 3.45,2.79 3.45,6.94 0,2.16 -0.83,3.8 -2.43,3.8 -1.16,0 -1.99,-0.91 -1.99,-1.99 0,-1.11 0.8,-2.02 2.02,-2.02 0.84,0 1.39,0.56 1.42,0.56 z"
           inkscape:connector-curvature="0"
           style="fill:#000000;stroke-width:0" /><path
           id="path7165"
           d="m 536.25,401.2 -0.01,-0.05 -0.01,-0.04 -0.02,-0.05 -0.01,-0.05 -0.02,-0.05 -0.01,-0.06 -0.02,-0.05 -0.01,-0.05 -0.03,-0.12 -0.03,-0.11 -0.03,-0.11 -0.02,-0.11 -0.02,-0.05 -0.01,-0.06 -0.01,-0.05 -0.01,-0.05 -0.01,-0.04 -0.01,-0.05 -0.01,-0.04 -0.01,-0.04 -0.01,-0.04 v -0.03 l -0.01,-0.03 v -0.03 l -0.01,-0.03 v -0.02 0 -0.01 -0.01 0 c 0,-0.77 0.62,-1.12 1.18,-1.12 0.63,0 1.19,0.46 1.36,0.77 0.17,0.31 0.45,1.43 0.63,2.16 0.17,0.66 0.56,2.27 0.76,3.14 0.21,0.76 0.43,1.53 0.6,2.33 0.38,1.43 0.45,1.71 1.46,3.14 0.98,1.4 2.62,3.21 5.23,3.21 2.03,0 2.06,-1.78 2.06,-2.44 0,-2.09 -1.5,-5.96 -2.06,-7.43 -0.38,-0.97 -0.52,-1.29 -0.52,-1.88 0,-1.85 1.54,-3 3.31,-3 3.49,0 5.03,4.81 5.03,5.33 0,0.46 -0.46,0.46 -0.56,0.46 -0.49,0 -0.53,-0.21 -0.67,-0.59 -0.8,-2.79 -2.3,-4.22 -3.69,-4.22 -0.73,0 -0.87,0.49 -0.87,1.22 0,0.8 0.17,1.25 0.8,2.82 0.42,1.08 1.84,4.78 1.84,6.73 0,3.39 -2.68,3.98 -4.53,3.98 -2.89,0 -4.84,-1.78 -5.89,-3.18 -0.24,2.41 -2.3,3.18 -3.73,3.18 -1.5,0 -2.3,-1.08 -2.75,-1.88 -0.77,-1.3 -1.26,-3.29 -1.26,-3.46 0,-0.45 0.49,-0.45 0.59,-0.45 0.49,0 0.52,0.11 0.77,1.05 0.52,2.05 1.18,3.76 2.54,3.76 0.91,0 1.16,-0.77 1.16,-1.71 0,-0.66 -0.32,-1.95 -0.56,-2.89 -0.24,-0.94 -0.6,-2.37 -0.77,-3.14 z"
           inkscape:connector-curvature="0"
           style="fill:#000000;stroke-width:0" /><path
           id="path7167"
           d="m 563.81,406.95 h 0.1 0.11 0.11 0.13 l 0.13,0.01 h 0.14 0.15 l 0.16,0.01 0.16,0.01 0.17,0.01 0.17,0.01 0.18,0.01 0.18,0.01 0.19,0.01 0.39,0.04 0.39,0.04 0.41,0.05 0.41,0.06 0.4,0.07 0.4,0.08 0.2,0.04 0.19,0.05 0.2,0.05 0.18,0.06 0.19,0.05 0.18,0.06 c 2.57,0.91 3.06,2.58 3.06,3.63 0,1.92 -1.92,3.07 -4.32,3.07 v -0.98 c 1.53,0 2.82,-0.77 2.82,-2.09 0,-3.38 -5.89,-3.38 -7.39,-3.38 h -1.7 c 1.42,5.05 5.29,5.47 6.27,5.47 v 0.98 c -4.19,0 -9.83,-3.21 -9.83,-9.17 0,-3.53 2.19,-6.56 6.27,-6.56 5.89,0 8.65,3.45 8.65,3.94 0,0.21 -0.31,0.59 -0.59,0.59 -0.21,0 -0.28,-0.07 -0.56,-0.34 -2.72,-3.21 -6.8,-3.21 -7.43,-3.21 -2.09,0 -3.48,1.39 -3.48,4.22 0,0.49 0,1.18 0.41,3.1 z"
           inkscape:connector-curvature="0"
           style="fill:#000000;stroke-width:0" /><path
           id="path7169"
           d="m 589.72,412.32 -0.07,0.11 -0.08,0.1 -0.07,0.11 -0.08,0.1 -0.08,0.1 -0.08,0.1 -0.09,0.09 -0.09,0.1 -0.09,0.09 -0.09,0.09 -0.1,0.08 -0.1,0.09 -0.1,0.08 -0.11,0.07 -0.11,0.08 -0.11,0.07 -0.11,0.07 -0.12,0.06 -0.12,0.06 -0.12,0.06 -0.12,0.05 -0.13,0.05 -0.13,0.05 -0.13,0.04 -0.14,0.04 -0.14,0.03 -0.14,0.02 -0.14,0.03 -0.15,0.02 -0.15,0.01 -0.15,0.01 h -0.16 v -0.98 c 2.44,0 3.11,-2.65 3.11,-3.03 0,-0.14 -0.07,-0.39 -0.11,-0.49 l -1.64,-6.52 c -0.24,-0.98 -1.01,-1.68 -1.78,-2.34 -0.31,-0.28 -1.7,-1.39 -3.2,-1.39 -1.29,0 -2.55,0.91 -2.55,3.38 0,1.85 1.01,5.69 1.82,7.08 1.6,2.79 3.38,3.31 4.35,3.31 v 0.98 c -4.46,0 -8.99,-4.92 -8.99,-9.94 0,-3.38 2.27,-5.79 5.26,-5.79 1.88,0 3.56,1.08 4.95,2.44 0.67,-2.09 2.69,-2.44 3.59,-2.44 1.26,0 2.13,0.77 2.76,1.85 0.77,1.36 1.22,3.35 1.22,3.48 0,0.46 -0.45,0.46 -0.56,0.46 -0.49,0 -0.52,-0.14 -0.76,-1.08 -0.42,-1.68 -1.09,-3.73 -2.55,-3.73 -0.91,0 -1.15,0.76 -1.15,1.71 0,0.59 0.28,1.84 0.52,2.75 0.25,0.94 0.59,2.37 0.77,3.14 l 0.7,2.65 c 0.21,0.91 0.62,2.55 0.62,2.72 0,0.77 -0.62,1.11 -1.18,1.11 -0.59,0 -1.39,-0.41 -1.6,-1.39 z"
           inkscape:connector-curvature="0"
           style="fill:#000000;stroke-width:0" /><path
           id="path7171"
           d="m 605.2,406.04 v 0.02 0.01 0.02 l 0.01,0.03 0.01,0.02 v 0.03 l 0.01,0.04 0.01,0.04 0.01,0.04 0.01,0.04 0.01,0.05 0.02,0.05 0.01,0.05 0.01,0.06 0.03,0.12 0.03,0.12 0.04,0.14 0.03,0.14 0.04,0.14 0.04,0.15 0.04,0.16 0.07,0.31 0.08,0.31 0.04,0.15 0.04,0.15 0.04,0.14 0.04,0.14 0.03,0.14 0.04,0.12 0.03,0.12 0.01,0.05 0.01,0.05 0.02,0.05 0.01,0.05 0.01,0.04 0.01,0.04 0.01,0.04 0.01,0.03 0.01,0.03 0.01,0.03 0.01,0.02 v 0.02 l 0.01,0.02 v 0.01 c 0.07,0.27 1.08,2.02 2.2,2.86 0.38,0.27 1.32,0.97 2.82,0.97 0.35,0 1.22,-0.03 1.92,-0.49 -1.11,-0.31 -1.54,-1.29 -1.54,-1.91 0,-0.77 0.6,-1.3 1.4,-1.3 0.8,0 1.95,0.67 1.95,2.13 0,1.81 -1.92,2.55 -3.69,2.55 -1.82,0 -3.39,-0.74 -4.92,-2.48 -0.63,2.13 -2.76,2.48 -3.59,2.48 -1.29,0 -2.16,-0.81 -2.72,-1.78 -0.8,-1.36 -1.29,-3.39 -1.29,-3.56 0,-0.45 0.49,-0.45 0.59,-0.45 0.49,0 0.52,0.11 0.77,1.05 0.52,2.12 1.18,3.76 2.54,3.76 0.91,0 1.16,-0.77 1.16,-1.71 0,-0.66 -0.32,-1.95 -0.56,-2.89 -0.24,-0.94 -0.6,-2.37 -0.77,-3.14 l -1.12,-4.46 c -0.14,-0.46 -0.34,-1.33 -0.34,-1.43 0,-0.77 0.62,-1.12 1.18,-1.12 0.52,0 1.22,0.31 1.5,1.01 0.07,0.21 0.45,1.75 0.66,2.62 z"
           inkscape:connector-curvature="0"
           style="fill:#000000;stroke-width:0" /></g>    </g>
    <g
       transform="matrix(2.1470278,0,0,2.1470278,177.60357,215.82858)"
       id="g7313">
      <g
         style="font-style:normal;font-variant:normal;font-weight:normal;font-stretch:normal;letter-spacing:normal;word-spacing:normal;text-anchor:start;fill:none;fill-opacity:1;fill-rule:evenodd;stroke:#000000;stroke-linecap:butt;stroke-linejoin:miter;stroke-miterlimit:10.43299961;stroke-dasharray:none;stroke-dashoffset:0;stroke-opacity:1"
         id="g7311"
         transform="matrix(0.30912625,0,0,-0.30912625,-54.097094,193.64915)"
         xml:space="preserve"
         stroke-miterlimit="10.433"
         font-style="normal"
         font-variant="normal"
         font-weight="normal"
         font-stretch="normal"
         font-size-adjust="none"
         letter-spacing="normal"
         word-spacing="normal"><path
           style="fill:#000000;stroke-width:0"
           inkscape:connector-curvature="0"
           d="m 469.15,427.77 -0.58,-0.15 -0.57,-0.19 -0.56,-0.21 -0.55,-0.23 -0.54,-0.27 -0.53,-0.28 -0.52,-0.31 -0.5,-0.33 -0.49,-0.35 -0.48,-0.38 -0.46,-0.39 -0.45,-0.41 -0.44,-0.43 -0.41,-0.44 -0.4,-0.46 -0.38,-0.47 -0.36,-0.49 -0.35,-0.5 -0.32,-0.51 -0.31,-0.52 -0.28,-0.53 -0.27,-0.53 -0.24,-0.55 -0.21,-0.55 -0.2,-0.56 -0.17,-0.56 -0.15,-0.56 -0.12,-0.57 -0.09,-0.57 -0.07,-0.57 -0.04,-0.56 -0.02,-0.57 c 0,-4.78 3.19,-8.37 7.87,-8.37 v 1.1 c -2.74,0 -4.78,2.09 -4.78,5.88 0,3.14 1.84,12.5 8.57,14.29 v 0 c 1.24,-2.29 2.74,-4.98 2.74,-8.56 0,-3.29 -1.9,-11.61 -6.53,-11.61 v -1.1 c 5.83,0 9.97,7.82 9.97,14.7 0,4.53 -2,7.02 -3.69,9.26 -1.79,2.25 -4.73,5.98 -4.73,8.17 0,1.1 0.99,2.29 2.74,2.29 1.49,0 2.49,-0.64 3.54,-1.34 0.99,-0.6 1.99,-1.25 2.73,-1.25 1.25,0 2,1.2 2,2 0,1.09 -0.8,1.24 -2.59,1.64 -2.59,0.55 -3.29,0.55 -4.09,0.55 -3.88,0 -5.68,-2.15 -5.68,-5.13 0,-2.69 1.45,-5.48 2.99,-8.52 z"
           id="path7307" /><path
           style="fill:#000000;stroke-width:0"
           inkscape:connector-curvature="0"
           d="m 495.82,415.98 -0.01,0.34 -0.01,0.35 -0.02,0.34 -0.03,0.35 -0.04,0.34 -0.05,0.34 -0.05,0.33 -0.07,0.34 -0.07,0.32 -0.08,0.33 -0.09,0.31 -0.11,0.31 -0.11,0.3 -0.12,0.3 -0.13,0.28 -0.14,0.28 -0.15,0.26 -0.16,0.25 -0.17,0.24 -0.18,0.23 -0.19,0.21 -0.2,0.2 -0.22,0.18 -0.22,0.17 -0.23,0.15 -0.25,0.13 -0.26,0.12 -0.27,0.09 -0.27,0.08 -0.3,0.05 -0.3,0.04 -0.31,0.01 -0.04,-0.98 c 2.23,0 2.23,-3.87 2.23,-4.53 0,-1.36 -0.27,-3.38 -1.01,-6.31 h -8.05 c 1.77,7.53 4.77,10.84 6.83,10.84 l 0.04,0.98 c -5.23,0 -10.81,-9.35 -10.81,-17.33 0,-4.15 1.6,-7.57 4.81,-7.57 l 0.03,0.98 c -1.92,0 -2.23,2.65 -2.23,4.53 0,2.3 0.66,5.02 1.01,6.31 h 8.06 c -0.98,-3.8 -1.78,-5.68 -2.83,-7.39 -1.08,-1.81 -2.47,-3.45 -4.01,-3.45 l -0.03,-0.98 c 5.3,0 10.81,9.52 10.81,17.33 z"
           id="path7309" /></g>    </g>
    <path
       inkscape:connector-curvature="0"
       id="path7379"
       d="m 406.38859,341.46037 c -16.23397,-6.16606 -33.78857,-7.92951 -51.79161,-8.40328"
       style="fill:none;fill-rule:evenodd;stroke:#000000;stroke-width:0.9375px;stroke-linecap:butt;stroke-linejoin:miter;stroke-opacity:1" />
    <rect
       y="483.35858"
       x="323.7872"
       height="7.7695255"
       width="62.156204"
       id="rect7381"
       style="color:#000000;overflow:visible;opacity:1;vector-effect:none;fill:#000000;fill-opacity:1;fill-rule:evenodd;stroke:#000000;stroke-width:1.25;stroke-linecap:butt;stroke-linejoin:miter;stroke-miterlimit:4;stroke-dasharray:none;stroke-dashoffset:0;stroke-opacity:1;paint-order:stroke markers fill" />
    <path
       sodipodi:nodetypes="cc"
       style="fill:none;fill-rule:evenodd;stroke:#000000;stroke-width:1.25;stroke-linecap:butt;stroke-linejoin:miter;stroke-miterlimit:4;stroke-dasharray:none;stroke-opacity:1;marker-start:url(#StopL-4-5);marker-end:url(#marker30634-7-9)"
       d="m 323.7872,499.22623 62.78121,-0.68509"
       id="path30592-8-2"
       inkscape:connector-curvature="0" />
    <g
       id="g22444"
       transform="translate(255.31472,445.91783)">
      <g
         word-spacing="normal"
         letter-spacing="normal"
         font-size-adjust="none"
         font-stretch="normal"
         font-weight="normal"
         font-variant="normal"
         font-style="normal"
         stroke-miterlimit="10.433"
         xml:space="preserve"
         transform="matrix(0.30912625,0,0,-0.30912625,-54.097094,193.64915)"
         id="g22442"
         style="font-style:normal;font-variant:normal;font-weight:normal;font-stretch:normal;letter-spacing:normal;word-spacing:normal;text-anchor:start;fill:none;fill-opacity:1;fill-rule:evenodd;stroke:#000000;stroke-linecap:butt;stroke-linejoin:miter;stroke-miterlimit:10.43299961;stroke-dasharray:none;stroke-dashoffset:0;stroke-opacity:1"><path
           id="path22438"
           d="m 474.63,436.14 0.04,0.16 0.04,0.16 0.04,0.15 0.04,0.14 0.05,0.14 0.04,0.13 0.05,0.12 0.06,0.12 0.05,0.11 0.07,0.1 0.07,0.1 0.08,0.1 0.09,0.08 0.1,0.08 0.11,0.08 0.12,0.07 0.14,0.06 0.14,0.06 0.16,0.06 0.18,0.05 0.09,0.02 0.1,0.02 0.1,0.03 0.11,0.02 0.11,0.01 0.12,0.02 0.12,0.02 0.12,0.01 0.13,0.02 0.14,0.01 0.14,0.01 0.14,0.01 0.15,0.01 0.16,0.01 0.16,0.01 0.17,0.01 0.17,0.01 h 0.18 l 0.18,0.01 h 0.19 0.2 l 0.2,0.01 h 0.21 0.22 c 1.5,0 1.89,0 1.89,0.95 0,0.59 -0.55,0.59 -0.79,0.59 h -14 c -0.35,0 -0.95,0 -0.95,-0.99 0,-0.55 0.45,-0.55 1.4,-0.55 0.1,0 1.04,0 1.89,-0.1 0.9,-0.1 1.35,-0.15 1.35,-0.8 0,-0.2 -0.06,-0.35 -0.2,-0.94 l -6.68,-26.75 c -0.5,-1.95 -0.6,-2.35 -4.53,-2.35 -0.85,0 -1.35,0 -1.35,-0.99 0,-0.55 0.45,-0.55 1.35,-0.55 h 23.06 c 1.2,0 1.25,0 1.54,0.85 l 3.94,10.76 c 0.2,0.55 0.2,0.64 0.2,0.69 0,0.2 -0.15,0.55 -0.6,0.55 -0.45,0 -0.5,-0.25 -0.84,-1.05 -1.7,-4.58 -3.89,-10.26 -12.51,-10.26 h -4.68 c -0.7,0 -0.8,0 -1.1,0.05 -0.5,0.05 -0.64,0.11 -0.64,0.5 0,0.15 0,0.25 0.25,1.15 z"
           inkscape:connector-curvature="0"
           style="fill:#000000;stroke-width:0" /><path
           id="path22440"
           d="m 496.18,403.18 -0.11,-0.17 -0.11,-0.17 -0.12,-0.16 -0.11,-0.16 -0.12,-0.15 -0.11,-0.14 -0.11,-0.14 -0.12,-0.14 -0.12,-0.13 -0.11,-0.12 -0.12,-0.12 -0.12,-0.11 -0.12,-0.11 -0.13,-0.1 -0.12,-0.1 -0.13,-0.09 -0.13,-0.09 -0.13,-0.08 -0.14,-0.08 -0.14,-0.07 -0.14,-0.07 -0.15,-0.06 -0.14,-0.06 -0.16,-0.05 -0.15,-0.05 -0.17,-0.04 -0.16,-0.04 -0.17,-0.04 -0.18,-0.03 -0.18,-0.02 -0.18,-0.02 -0.19,-0.02 c -0.35,-0.03 -0.8,-0.03 -0.8,-0.73 0,-0.38 0.31,-0.52 0.49,-0.52 h 6.59 c 0.17,0 0.69,0 0.69,0.77 0,0.45 -0.45,0.48 -0.59,0.48 -0.28,0.04 -1.53,0.11 -1.53,1.05 0,0.42 0.34,1.01 0.52,1.32 l 2.79,4.33 h 9.97 l -0.17,1.26 h -8.96 l 7.32,11.4 1.64,-11.4 0.17,-1.26 0.84,-5.79 c -0.14,-0.35 -0.35,-0.91 -2.41,-0.91 -0.42,0 -0.9,0 -0.9,-0.76 0,-0.14 0.1,-0.49 0.55,-0.49 1.02,0 3.49,0.14 4.5,0.14 0.63,0 1.43,-0.03 2.06,-0.03 0.63,-0.04 1.36,-0.11 1.99,-0.11 0.45,0 0.69,0.28 0.69,0.73 0,0.52 -0.42,0.52 -0.97,0.52 -2.02,0 -2.09,0.29 -2.2,1.12 L 511,422.89 c -0.1,0.73 -0.17,0.97 -0.84,0.97 -0.66,0 -0.87,-0.31 -1.18,-0.8 z"
           inkscape:connector-curvature="0"
           style="fill:#000000;stroke-width:0" /></g>    </g>
  </g>
</svg>
