<?xml version="1.0" encoding="UTF-8" standalone="no"?>
<svg
   xmlns:dc="http://purl.org/dc/elements/1.1/"
   xmlns:cc="http://creativecommons.org/ns#"
   xmlns:rdf="http://www.w3.org/1999/02/22-rdf-syntax-ns#"
   xmlns:svg="http://www.w3.org/2000/svg"
   xmlns="http://www.w3.org/2000/svg"
   version="1.1"
   id="svg14086"
   viewBox="0 0 5270.0002 2311.2501"
   height="652.28613mm"
   width="1487.3112mm">
  <defs
     id="defs14088" />
  <metadata
     id="metadata14091">
    <rdf:RDF>
      <cc:Work
         rdf:about="">
        <dc:format>image/svg+xml</dc:format>
        <dc:type
           rdf:resource="http://purl.org/dc/dcmitype/StillImage" />
        <dc:title></dc:title>
      </cc:Work>
    </rdf:RDF>
  </metadata>
  <g
     transform="translate(1746.4286,223.2628)"
     id="layer1">
    <path
       id="path13157"
       d="m 428.2929,739.49868 c -5.9094,-19.57575 4.3392,-40.25115 -6.5214,-51.1117 -2.4209,-2.42095 6.8105,-37.17065 -16.3357,-60.31685 -18.0181,-18.01815 -59.0759,-11.0257 -76.826,6.7244 -5.9367,5.93675 -36.8702,21.08415 -46.0609,30.27485 -13.8177,13.8177 -3.32,48.715 -25.6845,48.715 -8.2318,0 -26.6716,-58.44675 -33.4489,-65.22405 -3.4523,-3.4523 -54.7368,-7.9173 -68.3981,5.744 -19.0477,19.04765 -56.2483,11.861 -75.2959,30.90865 -12.0297,12.02965 -71.0159,2.4444 -85.7143,17.14285 -12.8571,12.85715 -51.1537,8.35605 -64.0108,21.2132 -7.8076,7.8076 -28.3118,-6.9275 -38.8463,-6.9275 -20.7092,0 6.4288,-21.26875 13.5584,-41.4593 7.1296,-20.1906 -5.7493,-39.303 -13.5584,-47.1121 -12.0496,-12.04955 -17.3554,-31.64115 -28.5715,-42.85715 -13.1359,-13.13595 -57.6647,0.1111 -60,-20 l -2.6541,-22.85715 c -0.7767,-6.6894 -11.3041,-6.4795 -6.8977,-11.57215 29.0753,-33.6032 -51.801,-10.3706 -70.4482,-20.34665 -12.887,-6.8944 -48.6871,-13.1004 -52.6961,-9.09135 14.5498,-25.79385 18.1653,-37.1196 33.5791,-72.48485 9.2642,-9.26421 13.679,-25.09447 6.3814,-32.04569 -7.2976,-6.95121 -34.717,-7.32684 -38.8142,-7.95431 0,0 10.7301,-31.30733 5.0158,-37.02161 8.058,-19.5508 -40.85299,-34.75508 -27.7219,-51.33039 4.5773,-4.57729 -4.9879,-13.73243 -0.1332,-25.73734 6.8112,-16.84282 63.2427,-77.84782 34.3891,-106.70138 -4.2857,-4.28572 1.4286,-18.57143 -2.8571,-22.85714 -6.1905,-6.19048 6.1905,-30.95239 0,-37.14286 -4.5058,-4.5058 -11.4286,-30.15895 -11.4286,-42.85714 0,-8.7118 21.064,-50.36464 11.4286,-59.99999 -4.3133,-4.31335 -15.4915,-6.9201 -20,-11.4286 -12.381,-12.38095 -16.1905,-33.3333 -28.57144,-45.71425 -18.79735,-18.7974 -16.3651,59.22225 -17.14285,60 -18.86151,18.8615 -40.48431,145.22998 -60.00001,125.71426 -13.29675,-13.29673 -0.67485,-89.24627 -5.7143,-94.28571 -5.2381,-5.2381 -3.33335,-17.61905 -8.57145,-22.85715 -8.20005,-8.20005 -22.15235,-10.7238 -31.42855,-20 -1.7254,-1.7254 -14.43335,0 -17.14285,0 -38.67195,0 -38.6901,4.40435 -62.85715,28.57145 -17.07715,17.07713 -52.31195,-7.68805 -65.7143,5.71425 -14.1515,14.15152 -44.7557,19.04146 -54.2857,28.57145 -19.0476,19.04762 -29.5238,46.66667 -48.57145,65.71429 -3.3333,3.33333 3.33335,16.66666 0,20 -5.71425,5.71428 0,22.85714 -5.71425,28.57142 -18.41325,18.41323 1.34575,67.06004 11.42855,77.14286 8.48575,8.48576 22.17305,43.09291 27.49375,53.73434 17.64815,35.2963 16.53045,85.09862 -18.9223,120.55138 -1.4563,1.45627 -35.80825,5.1966 -37.16795,2.85714 8.7317,-0.21496 27.9799,-58.15851 15.73935,-67.99499 -10.67005,-8.57446 -31.29315,-25.5538 -35.80815,-47.21168 -4.51505,-21.65788 -6.8183,-41.10402 -7.6505,-41.93619 -15.9052,-15.90514 -25.971,-39.42966 -43.6842,-57.14286 -7.66855,-7.66856 -5.5782,-25.5782 -14.2857,-34.28571 -19.7485,-19.74851 -100.3169,-31.28499 -100.3169,-31.28499 -10.7475,-10.7475 -38.2955,-8.2248 -59.33655,-8.2248 -36.1992,0 -11.5407,50.70391 -34.6323,73.7955 -5.6267,5.62666 -15.0745,9.36019 -20,14.28572 -16.1052,16.10523 -95.531,10.19307 -105.8578,20.51994 -7.6191,7.61905 -26.5231,9.00387 -34.1422,16.62292 -6.1905,6.19047 -9.0756,8.61518 -15.2661,14.80566 -6.7058,6.70581 18.0608,51.29865 4.3872,69.40826 -22.2635,29.48615 -1.9088,20.00238 -31.9782,50.07179 -21.9047,21.90476 -35.2381,52.38095 -57.1428,74.2857 -10.9911,10.99105 -5.9078,28.76485 -14.2858,37.1429 -0.9523,0.95235 -2.8571,4.204 -2.8571,2.8571 0,-11.10655 20.7179,9.28935 28.5714,17.1429 13.1765,13.1765 15.8525,35.8524 25.7143,45.71425 11.4285,11.4286 5.7143,40 17.1428,51.4286 26.4054,26.40535 45.2064,65.2063 71.4286,91.42855 40.8931,40.89315 160.9218,32.35035 182.85715,54.28575 21.9354,21.9354 18.57145,-1.4286 22.85715,2.8571 8.54275,8.5428 67.009,-12.991 85.7143,5.7143 4.2517,4.25175 8.0208,45.16365 14.2857,51.4286 12.38095,12.38095 27.61905,21.90475 40,34.2857 14.76925,14.76925 7.9263,50.5506 24.24365,66.868 9.10525,9.10525 3.2953,26.3852 12.8992,35.98915 12.42755,12.4275 28.01215,30.86932 40,42.85712 17.8466,17.8466 30.7283,60 68.57145,60 93.3752,0 119.3216,-25.0362 168.5714,-74.28572 9.39085,-9.3908 84.77425,-4.77425 94.28575,-14.2857 20.47626,-20.4761 39.52381,-42.38095 60.00001,-62.85715 28.25054,-28.2505 0.5772,-72.0058 8.57144,-80 1.7254,-1.7254 14.4333,0 17.1428,0 60.7175,0 48.6792,65.82205 77.1429,94.2857 19.9728,19.9728 96.6233,14.28605 128.918,19.30675 9.3239,1.44955 29.6717,9.2647 36.7963,9.2647 3.0043,0 17.6896,3.2604 22.8571,8.42785 4.856,4.85605 14.9707,1.52175 19.8267,6.3778 5.7143,5.71425 -2.5403,21.35677 3.174,27.07107 7.5863,7.5863 78.8934,-29.48507 79.8565,-30.44817 11.1817,-11.1817 66.1747,-6.2342 66.1747,-6.2342 0,0 129.7959,1.6108 137.0588,-14.77595 16.5288,-37.2931 3.2021,-52.69955 18.4402,-67.93765 11.6674,-11.66745 38.4087,2.053 65.3344,23.6703 13.4628,10.80865 -15.2021,23.33895 -2.7506,29.0911 12.4514,5.7521 63.1304,3.57435 63.1304,3.57435 4.5662,-1.1713 17.8502,4.51685 21.1835,1.1835 4.2617,-4.26175 7.2586,-24.9771 -1.8767,-34.1124 -26.7309,-26.73085 -20.0647,-60.31955 -7.253,-94.028 11.2992,-29.72895 7.5251,-62.4859 37.7011,-77.5739 z"
       style="opacity:1;fill:#00ffff;fill-opacity:0.2201258;fill-rule:evenodd;stroke:#000000;stroke-width:5.6500001;stroke-linecap:butt;stroke-linejoin:miter;stroke-miterlimit:4;stroke-dasharray:2.825, 2.825;stroke-dashoffset:7.90999985;stroke-opacity:1" />
  </g>
</svg>
