<?xml version="1.0" encoding="UTF-8" standalone="no"?>
<!-- Created with Inkscape (http://www.inkscape.org/) -->

<svg
   xmlns:dc="http://purl.org/dc/elements/1.1/"
   xmlns:cc="http://creativecommons.org/ns#"
   xmlns:rdf="http://www.w3.org/1999/02/22-rdf-syntax-ns#"
   xmlns:svg="http://www.w3.org/2000/svg"
   xmlns="http://www.w3.org/2000/svg"
   xmlns:sodipodi="http://sodipodi.sourceforge.net/DTD/sodipodi-0.dtd"
   xmlns:inkscape="http://www.inkscape.org/namespaces/inkscape"
   width="279.10159mm"
   height="164.85561mm"
   viewBox="0 0 988.94265 584.13404"
   id="svg2"
   version="1.1"
   inkscape:version="0.91+devel r"
   sodipodi:docname="bistatic_geometry.svg">
  <sodipodi:namedview
     id="base"
     pagecolor="#ffffff"
     bordercolor="#666666"
     borderopacity="1.0"
     inkscape:pageopacity="0.0"
     inkscape:pageshadow="2"
     inkscape:zoom="1.0111854"
     inkscape:cx="337.53902"
     inkscape:cy="294.83281"
     inkscape:document-units="px"
     inkscape:current-layer="layer1"
     showgrid="false"
     inkscape:window-width="1855"
     inkscape:window-height="1056"
     inkscape:window-x="65"
     inkscape:window-y="24"
     inkscape:window-maximized="1"
     showguides="true"
     inkscape:guide-bbox="true"
     inkscape:snap-bbox="true"
     inkscape:snap-object-midpoints="true"
     inkscape:snap-center="true"
     inkscape:object-paths="true"
     inkscape:snap-bbox-midpoints="true"
     inkscape:object-nodes="true"
     inkscape:snap-smooth-nodes="true"
     inkscape:snap-intersection-paths="true"
     inkscape:snap-global="true"
     inkscape:snap-perpendicular="true"
     inkscape:snap-tangential="true"
     inkscape:snap-bbox-edge-midpoints="true"
     inkscape:bbox-nodes="true"
     inkscape:bbox-paths="true"
     inkscape:snap-midpoints="true"
     inkscape:locked="false"
     inkscape:snap-nodes="true"
     fit-margin-top="0"
     fit-margin-left="0"
     fit-margin-right="0"
     fit-margin-bottom="0">
    <inkscape:grid
       type="xygrid"
       id="grid9796"
       units="pt"
       originx="-44.052083"
       originy="-84.407472" />
    <sodipodi:guide
       position="-692.88399,1262.1141"
       orientation="0,1"
       id="guide9798"
       inkscape:locked="false" />
    <sodipodi:guide
       position="208.05429,568.33305"
       orientation="1,0"
       id="guide9800"
       inkscape:locked="false" />
    <sodipodi:guide
       inkscape:locked="false"
       id="guide9551"
       orientation="0,1"
       position="42.647965,762.10062" />
    <sodipodi:guide
       inkscape:locked="false"
       id="guide9553"
       orientation="0.00011694086,-0.99999999"
       position="64.922181,668.27967" />
    <sodipodi:guide
       inkscape:locked="false"
       id="guide9555"
       orientation="0,1"
       position="65.554281,580.69809" />
    <sodipodi:guide
       inkscape:locked="false"
       id="guide9557"
       orientation="0,1"
       position="65.554281,541.06994" />
    <sodipodi:guide
       inkscape:locked="false"
       id="guide9559"
       orientation="0,1"
       position="65.554281,501.44168" />
    <sodipodi:guide
       inkscape:locked="false"
       id="guide9561"
       orientation="0,1"
       position="65.554281,461.81352" />
    <sodipodi:guide
       inkscape:locked="false"
       id="guide9563"
       orientation="1,0"
       position="22.24484,700.46358" />
  </sodipodi:namedview>
  <defs
     id="defs4">
    <marker
       inkscape:isstock="true"
       inkscape:stockid="DistanceEnd"
       orient="auto"
       refY="0"
       refX="0"
       id="marker10484"
       style="overflow:visible">
      <g
         style="fill:#000000;fill-opacity:1;stroke:#000000;stroke-opacity:1"
         id="g10482">
        <path
           id="path10476"
           d="M 0,0 H -2"
           style="fill:#000000;fill-opacity:1;stroke:#000000;stroke-width:1.14999998;stroke-linecap:square;stroke-opacity:1"
           inkscape:connector-curvature="0" />
        <path
           id="path10478"
           d="m 0,0 -13,4 4,-4 -4,-4 z"
           style="fill:#000000;fill-opacity:1;fill-rule:evenodd;stroke:#000000;stroke-opacity:1"
           inkscape:connector-curvature="0" />
        <path
           id="path10480"
           d="M 0,-4 V 40"
           style="fill:#000000;fill-opacity:1;stroke:#000000;stroke-width:1;stroke-linecap:square;stroke-opacity:1"
           inkscape:connector-curvature="0" />
      </g>
    </marker>
    <marker
       inkscape:isstock="true"
       inkscape:stockid="DistanceStart"
       orient="auto"
       refY="0"
       refX="0"
       id="DistanceStart"
       style="overflow:visible">
      <g
         style="fill:#000000;fill-opacity:1;stroke:#000000;stroke-opacity:1"
         id="g2300">
        <path
           id="path2306"
           d="M 0,0 H 2"
           style="fill:#000000;fill-opacity:1;stroke:#000000;stroke-width:1.14999998;stroke-linecap:square;stroke-opacity:1"
           inkscape:connector-curvature="0" />
        <path
           id="path2302"
           d="M 0,0 13,4 9,0 13,-4 Z"
           style="fill:#000000;fill-opacity:1;fill-rule:evenodd;stroke:#000000;stroke-opacity:1"
           inkscape:connector-curvature="0" />
        <path
           id="path2304"
           d="M 0,-4 V 40"
           style="fill:#000000;fill-opacity:1;stroke:#000000;stroke-width:1;stroke-linecap:square;stroke-opacity:1"
           inkscape:connector-curvature="0" />
      </g>
    </marker>
    <marker
       style="overflow:visible"
       id="DistanceEnd"
       refX="0"
       refY="0"
       orient="auto"
       inkscape:stockid="DistanceEnd"
       inkscape:isstock="true">
      <g
         id="g2301"
         style="fill:#000000;fill-opacity:1;stroke:#000000;stroke-opacity:1">
        <path
           style="fill:#000000;fill-opacity:1;stroke:#000000;stroke-width:1.14999998;stroke-linecap:square;stroke-opacity:1"
           d="M 0,0 H -2"
           id="path2316"
           inkscape:connector-curvature="0" />
        <path
           style="fill:#000000;fill-opacity:1;fill-rule:evenodd;stroke:#000000;stroke-opacity:1"
           d="m 0,0 -13,4 4,-4 -4,-4 z"
           id="path2312"
           inkscape:connector-curvature="0" />
        <path
           style="fill:#000000;fill-opacity:1;stroke:#000000;stroke-width:1;stroke-linecap:square;stroke-opacity:1"
           d="M 0,-4 V 40"
           id="path2314"
           inkscape:connector-curvature="0" />
      </g>
    </marker>
    <marker
       inkscape:stockid="StopL"
       orient="auto"
       refY="0"
       refX="0"
       id="marker10134"
       style="overflow:visible"
       inkscape:isstock="true">
      <path
         id="path10132"
         d="M 0,5.65 V -5.65"
         style="fill:none;fill-opacity:0.75;fill-rule:evenodd;stroke:#000000;stroke-width:1.00000003pt;stroke-opacity:1"
         transform="scale(0.8)"
         inkscape:connector-curvature="0" />
    </marker>
    <marker
       inkscape:stockid="StopM"
       orient="auto"
       refY="0"
       refX="0"
       id="StopM"
       style="overflow:visible"
       inkscape:isstock="true">
      <path
         id="path9918"
         d="M 0,5.65 V -5.65"
         style="fill:none;fill-opacity:0.75;fill-rule:evenodd;stroke:#000000;stroke-width:1.00000003pt;stroke-opacity:1"
         transform="scale(0.4)"
         inkscape:connector-curvature="0" />
    </marker>
    <marker
       inkscape:stockid="StopL"
       orient="auto"
       refY="0"
       refX="0"
       id="marker10030"
       style="overflow:visible"
       inkscape:isstock="true">
      <path
         id="path10028"
         d="M 0,5.65 V -5.65"
         style="fill:none;fill-opacity:0.75;fill-rule:evenodd;stroke:#000000;stroke-width:1.00000003pt;stroke-opacity:1"
         transform="scale(0.8)"
         inkscape:connector-curvature="0" />
    </marker>
    <marker
       inkscape:stockid="StopL"
       orient="auto"
       refY="0"
       refX="0"
       id="StopL"
       style="overflow:visible"
       inkscape:isstock="true">
      <path
         id="path9915"
         d="M 0,5.65 V -5.65"
         style="fill:none;fill-opacity:0.75;fill-rule:evenodd;stroke:#000000;stroke-width:1.00000003pt;stroke-opacity:1"
         transform="scale(0.8)"
         inkscape:connector-curvature="0" />
    </marker>
    <inkscape:path-effect
       effect="circle_with_radius"
       id="path-effect8592"
       is_visible="true" />
    <inkscape:path-effect
       effect="circle_3pts"
       id="path-effect8588"
       is_visible="true" />
    <inkscape:path-effect
       effect="circle_with_radius"
       id="path-effect8584"
       is_visible="true" />
    <inkscape:path-effect
       effect="circle_with_radius"
       id="path-effect8580"
       is_visible="true" />
    <marker
       inkscape:stockid="TriangleOutM"
       orient="auto"
       refY="0"
       refX="0"
       id="TriangleOutM"
       style="overflow:visible"
       inkscape:isstock="true">
      <path
         id="path8883"
         d="M 5.77,0 -2.88,5 V -5 Z"
         style="fill:#000000;fill-opacity:1;fill-rule:evenodd;stroke:#000000;stroke-width:1.00000003pt;stroke-opacity:1"
         transform="scale(0.4)"
         inkscape:connector-curvature="0" />
    </marker>
    <marker
       inkscape:stockid="Arrow2Mend"
       orient="auto"
       refY="0"
       refX="0"
       id="marker9078"
       style="overflow:visible"
       inkscape:isstock="true">
      <path
         id="path9080"
         style="fill:#000000;fill-opacity:1;fill-rule:evenodd;stroke:#000000;stroke-width:0.625;stroke-linejoin:round;stroke-opacity:1"
         d="M 8.7185878,4.0337352 -2.2072895,0.01601326 8.7185884,-4.0017078 c -1.7454984,2.3720609 -1.7354408,5.6174519 -6e-7,8.035443 z"
         transform="scale(-0.6)"
         inkscape:connector-curvature="0" />
    </marker>
    <marker
       inkscape:stockid="Arrow2Mend"
       orient="auto"
       refY="0"
       refX="0"
       id="Arrow2Mend"
       style="overflow:visible"
       inkscape:isstock="true">
      <path
         id="path8765"
         style="fill:#000000;fill-opacity:1;fill-rule:evenodd;stroke:#000000;stroke-width:0.625;stroke-linejoin:round;stroke-opacity:1"
         d="M 8.7185878,4.0337352 -2.2072895,0.01601326 8.7185884,-4.0017078 c -1.7454984,2.3720609 -1.7354408,5.6174519 -6e-7,8.035443 z"
         transform="scale(-0.6)"
         inkscape:connector-curvature="0" />
    </marker>
    <marker
       inkscape:stockid="TriangleInM"
       orient="auto"
       refY="0"
       refX="0"
       id="TriangleInM"
       style="overflow:visible"
       inkscape:isstock="true">
      <path
         id="path8874"
         d="M 5.77,0 -2.88,5 V -5 Z"
         style="fill:#000000;fill-opacity:1;fill-rule:evenodd;stroke:#000000;stroke-width:1.00000003pt;stroke-opacity:1"
         transform="scale(-0.4)"
         inkscape:connector-curvature="0" />
    </marker>
    <marker
       inkscape:stockid="Arrow2Lstart"
       orient="auto"
       refY="0"
       refX="0"
       id="Arrow2Lstart"
       style="overflow:visible"
       inkscape:isstock="true">
      <path
         id="path8756"
         style="fill:#000000;fill-opacity:1;fill-rule:evenodd;stroke:#000000;stroke-width:0.625;stroke-linejoin:round;stroke-opacity:1"
         d="M 8.7185878,4.0337352 -2.2072895,0.01601326 8.7185884,-4.0017078 c -1.7454984,2.3720609 -1.7354408,5.6174519 -6e-7,8.035443 z"
         transform="matrix(1.1,0,0,1.1,1.1,0)"
         inkscape:connector-curvature="0" />
    </marker>
  </defs>
  <metadata
     id="metadata7">
    <rdf:RDF>
      <cc:Work
         rdf:about="">
        <dc:format>image/svg+xml</dc:format>
        <dc:type
           rdf:resource="http://purl.org/dc/dcmitype/StillImage" />
        <dc:title></dc:title>
      </cc:Work>
    </rdf:RDF>
  </metadata>
  <g
     inkscape:label="Layer 1"
     inkscape:groupmode="layer"
     id="layer1"
     transform="translate(-44.052093,-383.82068)">
    <path
       style="fill:#c0c0c0;fill-rule:evenodd;stroke:#000000;stroke-width:2.5;stroke-linecap:butt;stroke-linejoin:miter;stroke-miterlimit:4;stroke-dasharray:none;stroke-opacity:1"
       d="m 68.571429,929.50506 c 70.066601,-27.68453 166.671651,-23.74814 219.814061,-41.16145 53.14241,-17.41331 61.58198,-43.25986 98.16683,-54.95577 33.9294,-14.83845 62.85077,-38.20399 95.94568,-56.0906 32.71716,-17.68245 73.15539,-19.16447 110.45389,-9.5551 108.34974,11.40445 206.5287,-69.43378 310.54926,-36.83217 40.32019,12.63695 90.47733,182.83691 129.02055,198.59509 z"
       id="path9744"
       inkscape:connector-curvature="0"
       sodipodi:nodetypes="czcscscc" />
    <circle
       style="color:#000000;clip-rule:nonzero;display:inline;overflow:visible;visibility:visible;opacity:1;isolation:auto;mix-blend-mode:normal;color-interpolation:sRGB;color-interpolation-filters:linearRGB;solid-color:#000000;solid-opacity:1;fill:#000000;fill-opacity:1;fill-rule:evenodd;stroke:#000000;stroke-width:0.94414032;stroke-linecap:butt;stroke-linejoin:miter;stroke-miterlimit:4;stroke-dasharray:none;stroke-dashoffset:0;stroke-opacity:1;color-rendering:auto;image-rendering:auto;shape-rendering:auto;text-rendering:auto;enable-background:accumulate"
       id="path9779-8"
       cx="831.65759"
       cy="723.98486"
       r="5.1394711" />
    <circle
       style="color:#000000;clip-rule:nonzero;display:inline;overflow:visible;visibility:visible;opacity:1;isolation:auto;mix-blend-mode:normal;color-interpolation:sRGB;color-interpolation-filters:linearRGB;solid-color:#000000;solid-opacity:1;fill:#000000;fill-opacity:1;fill-rule:evenodd;stroke:#000000;stroke-width:0.94414032;stroke-linecap:butt;stroke-linejoin:miter;stroke-miterlimit:4;stroke-dasharray:none;stroke-dashoffset:0;stroke-opacity:1;color-rendering:auto;image-rendering:auto;shape-rendering:auto;text-rendering:auto;enable-background:accumulate"
       id="path9779-4"
       cx="109.60637"
       cy="396.12524"
       r="5.1394711" />
    <circle
       style="color:#000000;clip-rule:nonzero;display:inline;overflow:visible;visibility:visible;opacity:1;isolation:auto;mix-blend-mode:normal;color-interpolation:sRGB;color-interpolation-filters:linearRGB;solid-color:#000000;solid-opacity:1;fill:#000000;fill-opacity:1;fill-rule:evenodd;stroke:#000000;stroke-width:0.94414032;stroke-linecap:butt;stroke-linejoin:miter;stroke-miterlimit:4;stroke-dasharray:none;stroke-dashoffset:0;stroke-opacity:1;color-rendering:auto;image-rendering:auto;shape-rendering:auto;text-rendering:auto;enable-background:accumulate"
       id="path9779-4-4"
       cx="108.93178"
       cy="434.67508"
       r="5.1394711" />
    <circle
       r="5.1394711"
       cy="522.25665"
       cx="108.93178"
       id="circle8034"
       style="color:#000000;clip-rule:nonzero;display:inline;overflow:visible;visibility:visible;opacity:1;isolation:auto;mix-blend-mode:normal;color-interpolation:sRGB;color-interpolation-filters:linearRGB;solid-color:#000000;solid-opacity:1;fill:#000000;fill-opacity:1;fill-rule:evenodd;stroke:#000000;stroke-width:0.94414032;stroke-linecap:butt;stroke-linejoin:miter;stroke-miterlimit:4;stroke-dasharray:none;stroke-dashoffset:0;stroke-opacity:1;color-rendering:auto;image-rendering:auto;shape-rendering:auto;text-rendering:auto;enable-background:accumulate" />
    <circle
       r="5.1394711"
       cy="561.88483"
       cx="109.60637"
       id="circle8036"
       style="color:#000000;clip-rule:nonzero;display:inline;overflow:visible;visibility:visible;opacity:1;isolation:auto;mix-blend-mode:normal;color-interpolation:sRGB;color-interpolation-filters:linearRGB;solid-color:#000000;solid-opacity:1;fill:#000000;fill-opacity:1;fill-rule:evenodd;stroke:#000000;stroke-width:0.94414032;stroke-linecap:butt;stroke-linejoin:miter;stroke-miterlimit:4;stroke-dasharray:none;stroke-dashoffset:0;stroke-opacity:1;color-rendering:auto;image-rendering:auto;shape-rendering:auto;text-rendering:auto;enable-background:accumulate" />
    <circle
       r="5.1394711"
       cy="601.51306"
       cx="108.93178"
       id="circle8034-9"
       style="color:#000000;clip-rule:nonzero;display:inline;overflow:visible;visibility:visible;opacity:1;isolation:auto;mix-blend-mode:normal;color-interpolation:sRGB;color-interpolation-filters:linearRGB;solid-color:#000000;solid-opacity:1;fill:#000000;fill-opacity:1;fill-rule:evenodd;stroke:#000000;stroke-width:0.94414037;stroke-linecap:butt;stroke-linejoin:miter;stroke-miterlimit:4;stroke-dasharray:none;stroke-dashoffset:0;stroke-opacity:1;color-rendering:auto;image-rendering:auto;shape-rendering:auto;text-rendering:auto;enable-background:accumulate" />
    <circle
       r="5.1394711"
       cy="641.14124"
       cx="108.93178"
       id="circle8036-7"
       style="color:#000000;clip-rule:nonzero;display:inline;overflow:visible;visibility:visible;opacity:1;isolation:auto;mix-blend-mode:normal;color-interpolation:sRGB;color-interpolation-filters:linearRGB;solid-color:#000000;solid-opacity:1;fill:#000000;fill-opacity:1;fill-rule:evenodd;stroke:#000000;stroke-width:0.94414037;stroke-linecap:butt;stroke-linejoin:miter;stroke-miterlimit:4;stroke-dasharray:none;stroke-dashoffset:0;stroke-opacity:1;color-rendering:auto;image-rendering:auto;shape-rendering:auto;text-rendering:auto;enable-background:accumulate" />
    <path
       inkscape:connector-curvature="0"
       id="path9565"
       d="m 109.60637,396.12524 -0.67459,564.7273"
       style="fill:none;fill-rule:evenodd;stroke:#000000;stroke-width:2.5;stroke-linecap:square;stroke-linejoin:miter;stroke-miterlimit:0;stroke-dasharray:none;stroke-opacity:1;marker-start:url(#StopL);marker-end:url(#TriangleOutM);paint-order:stroke fill markers"
       sodipodi:nodetypes="cc" />
    <g
       id="g9663"
       transform="translate(517.75106,377.23199)">
      <g
         word-spacing="normal"
         letter-spacing="normal"
         font-size-adjust="none"
         font-stretch="normal"
         font-weight="normal"
         font-variant="normal"
         font-style="normal"
         stroke-miterlimit="10.433"
         xml:space="preserve"
         transform="matrix(1.1338583,0,0,-1.1338583,-198.4252,841.88976)"
         id="g9661"
         style="font-style:normal;font-variant:normal;font-weight:normal;font-stretch:normal;letter-spacing:normal;word-spacing:normal;text-anchor:start;fill:none;fill-opacity:1;fill-rule:evenodd;stroke:#000000;stroke-linecap:butt;stroke-linejoin:miter;stroke-miterlimit:10.43299961;stroke-dasharray:none;stroke-dashoffset:0;stroke-opacity:1"><path
           id="path9659"
           d="m 466.47,408.14 0.21,-0.16 0.2,-0.15 0.2,-0.15 0.2,-0.14 0.21,-0.13 0.2,-0.12 0.2,-0.12 0.2,-0.11 0.21,-0.11 0.2,-0.1 0.2,-0.09 0.2,-0.09 0.2,-0.09 0.21,-0.07 0.2,-0.07 0.2,-0.07 0.2,-0.06 0.2,-0.06 0.4,-0.1 0.4,-0.08 0.39,-0.06 0.4,-0.05 0.39,-0.03 0.39,-0.02 0.38,-0.01 -0.54,1.8 c -0.71,0 -3.05,0 -5.28,2.69 -0.57,0.64 -0.57,0.68 -0.57,1.64 v 10.56 c 0,0.95 0.07,1 0.75,1.69 2,2.04 4.6,2.34 5.69,2.34 3.33,0 6.13,-3.03 6.13,-9.31 0,-7.03 -3.49,-9.61 -6.72,-9.61 l 0.54,-1.8 c 7.47,0 12.55,4.49 12.55,11.41 0,6.62 -4.53,11.31 -11.7,11.31 -3.74,0 -6.38,-1.55 -7.53,-2.44 v 2.44 l -8.82,-0.41 v -2.34 c 3.1,0 3.44,0 3.44,-1.89 v -25.11 h -3.44 v -2.34 c 1.39,0.06 4.39,0.15 6.28,0.15 1.94,0 4.88,-0.09 6.27,-0.15 v 2.34 h -3.44 z"
           inkscape:connector-curvature="0"
           style="fill:#000000;stroke-width:0" /></g>    </g>
    <g
       transform="translate(-252.38429,457.11174)"
       id="g10318">
      <g
         style="font-style:normal;font-variant:normal;font-weight:normal;font-stretch:normal;letter-spacing:normal;word-spacing:normal;text-anchor:start;fill:none;fill-opacity:1;fill-rule:evenodd;stroke:#000000;stroke-linecap:butt;stroke-linejoin:miter;stroke-miterlimit:10.43299961;stroke-dasharray:none;stroke-dashoffset:0;stroke-opacity:1"
         id="g10316"
         transform="matrix(1.1338583,0,0,-1.1338583,-198.4252,841.88976)"
         xml:space="preserve"
         stroke-miterlimit="10.433"
         font-style="normal"
         font-variant="normal"
         font-weight="normal"
         font-stretch="normal"
         font-size-adjust="none"
         letter-spacing="normal"
         word-spacing="normal"><path
           style="fill:#000000;stroke-width:0"
           inkscape:connector-curvature="0"
           d="m 462.14,410.34 0.25,0.27 0.24,0.25 0.24,0.25 0.23,0.24 0.22,0.23 0.22,0.22 0.21,0.22 0.2,0.21 0.2,0.2 0.2,0.19 0.19,0.19 0.19,0.19 0.18,0.17 0.19,0.18 0.35,0.33 0.34,0.32 0.33,0.3 0.33,0.29 0.32,0.29 0.65,0.56 0.33,0.29 0.33,0.28 c 0,0.05 3.08,2.69 4.88,4.49 4.73,4.64 5.83,7.03 5.83,7.21 0,0.5 -0.46,0.5 -0.55,0.5 -0.35,0 -0.5,-0.09 -0.75,-0.54 -1.49,-2.39 -2.53,-3.19 -3.74,-3.19 -1.2,0 -1.79,0.75 -2.54,1.59 -0.94,1.16 -1.78,2.14 -3.44,2.14 -3.73,0 -6.02,-4.62 -6.02,-5.67 0,-0.25 0.14,-0.54 0.6,-0.54 0.45,0 0.54,0.25 0.64,0.54 0.95,2.3 3.84,2.35 4.23,2.35 1.05,0 2,-0.36 3.14,-0.75 2,-0.75 2.55,-0.75 3.85,-0.75 -1.8,-2.14 -5.99,-5.74 -6.92,-6.53 l -4.49,-4.18 c -3.39,-3.34 -5.14,-6.18 -5.14,-6.53 0,-0.5 0.5,-0.5 0.59,-0.5 0.41,0 0.5,0.1 0.8,0.64 1.16,1.75 2.64,3.1 4.24,3.1 1.15,0 1.65,-0.46 2.89,-1.89 0.86,-1.05 1.75,-1.85 3.18,-1.85 4.94,0 7.83,6.33 7.83,7.67 0,0.25 -0.2,0.5 -0.59,0.5 -0.46,0 -0.55,-0.29 -0.71,-0.65 -1.14,-3.24 -4.32,-4.17 -5.98,-4.17 -0.98,0 -1.89,0.29 -2.94,0.64 -1.68,0.64 -2.43,0.84 -3.48,0.84 -0.1,0 -0.89,0 -1.35,-0.14 z"
           id="path10314" /></g>    </g>
    <g
       id="g19412"
       transform="matrix(0.5,0,0,0.5,-104.85901,232.87077)">
      <g
         id="content"
         transform="matrix(1.0932465,0,0,-1.0932465,-191.31814,782.85175)"
         xml:space="preserve"
         stroke-miterlimit="10.433"
         font-style="normal"
         font-variant="normal"
         font-weight="normal"
         font-stretch="normal"
         font-size-adjust="none"
         letter-spacing="normal"
         word-spacing="normal"
         style="font-style:normal;font-variant:normal;font-weight:normal;font-stretch:normal;letter-spacing:normal;word-spacing:normal;text-anchor:start;fill:none;fill-opacity:1;fill-rule:evenodd;stroke:#000000;stroke-linecap:butt;stroke-linejoin:miter;stroke-miterlimit:10.43299961;stroke-dasharray:none;stroke-dashoffset:0;stroke-opacity:1"><path
           d="m 488.71,439.93 h -30.46 l -0.93,-11.22 h 1.25 c 0.68,8.04 1.43,9.68 8.95,9.68 0.91,0 2.2,0 2.7,-0.11 1.05,-0.19 1.05,-0.74 1.05,-1.89 v -26.25 c 0,-1.71 0,-2.39 -5.23,-2.39 h -2 v -1.55 c 2.04,0.16 7.12,0.16 9.42,0.16 2.29,0 7.42,0 9.47,-0.16 v 1.55 h -2 c -5.24,0 -5.24,0.68 -5.24,2.39 v 26.25 c 0,1 0,1.7 0.91,1.89 0.54,0.11 1.89,0.11 2.84,0.11 7.52,0 8.27,-1.64 8.95,-9.68 h 1.25 z"
           id="path19407"
           inkscape:connector-curvature="0"
           style="fill:#000000;stroke-width:0" /><path
           d="m 515.32,419.73 v 0.11 0.1 0.1 0.1 l 0.01,0.09 0.01,0.09 0.01,0.08 0.02,0.08 0.02,0.07 0.03,0.07 0.03,0.07 0.03,0.06 0.04,0.06 0.05,0.06 0.06,0.05 0.06,0.04 0.07,0.05 0.08,0.04 0.04,0.02 0.05,0.02 0.04,0.02 0.05,0.01 0.05,0.02 0.06,0.01 0.06,0.02 0.05,0.01 0.07,0.01 0.06,0.02 0.07,0.01 0.07,0.01 0.07,0.01 0.08,0.01 0.08,0.01 0.08,0.01 h 0.09 l 0.08,0.01 h 0.1 l 0.09,0.01 h 0.1 l 0.1,0.01 h 0.11 0.1 l 0.12,0.01 h 0.11 0.12 0.13 0.84 v 1.25 c -1.75,-0.06 -3.97,-0.14 -5.23,-0.14 -1.28,0 -3.52,0.08 -5.25,0.14 v -1.25 h 0.82 c 2.69,0 2.75,-0.35 2.75,-1.58 v -7.97 h -11.64 v 7.97 c 0,1.19 0.08,1.58 2.77,1.58 h 0.83 v 1.25 c -1.74,-0.06 -3.97,-0.14 -5.22,-0.14 -1.3,0 -3.53,0.08 -5.27,0.14 v -1.25 h 0.83 c 2.69,0 2.77,-0.35 2.77,-1.58 v -18.14 c 0,-1.19 -0.08,-1.58 -2.77,-1.58 h -0.83 v -1.25 c 1.74,0.06 3.97,0.14 5.22,0.14 1.3,0 3.53,-0.08 5.27,-0.14 v 1.25 h -0.83 c -2.69,0 -2.77,0.36 -2.77,1.58 v 8.92 H 512 v -8.92 c 0,-1.19 -0.06,-1.58 -2.75,-1.58 h -0.82 v -1.25 c 1.73,0.06 3.97,0.14 5.22,0.14 1.29,0 3.51,-0.08 5.26,-0.14 v 1.25 h -0.84 c -2.67,0 -2.75,0.36 -2.75,1.58 z"
           id="path19409"
           inkscape:connector-curvature="0"
           style="fill:#000000;stroke-width:0" /></g>    </g>
    <g
       id="g19976"
       transform="matrix(0.5,0,0,0.5,-105.09679,272.28657)">
      <g
         word-spacing="normal"
         letter-spacing="normal"
         font-size-adjust="none"
         font-stretch="normal"
         font-weight="normal"
         font-variant="normal"
         font-style="normal"
         stroke-miterlimit="10.433"
         xml:space="preserve"
         transform="matrix(1.0932465,0,0,-1.0932465,-191.31814,782.85175)"
         id="g19974"
         style="font-style:normal;font-variant:normal;font-weight:normal;font-stretch:normal;letter-spacing:normal;word-spacing:normal;text-anchor:start;fill:none;fill-opacity:1;fill-rule:evenodd;stroke:#000000;stroke-linecap:butt;stroke-linejoin:miter;stroke-miterlimit:10.43299961;stroke-dasharray:none;stroke-dashoffset:0;stroke-opacity:1"><path
           id="path19970"
           d="m 488.71,439.93 h -30.46 l -0.93,-11.22 h 1.25 c 0.68,8.04 1.43,9.68 8.95,9.68 0.91,0 2.2,0 2.7,-0.11 1.05,-0.19 1.05,-0.74 1.05,-1.89 v -26.25 c 0,-1.71 0,-2.39 -5.23,-2.39 h -2 v -1.55 c 2.04,0.16 7.12,0.16 9.42,0.16 2.29,0 7.42,0 9.47,-0.16 v 1.55 h -2 c -5.24,0 -5.24,0.68 -5.24,2.39 v 26.25 c 0,1 0,1.7 0.91,1.89 0.54,0.11 1.89,0.11 2.84,0.11 7.52,0 8.27,-1.64 8.95,-9.68 h 1.25 z"
           inkscape:connector-curvature="0"
           style="fill:#000000;stroke-width:0" /><path
           id="path19972"
           d="m 515.85,419.01 0.09,0.21 0.1,0.2 0.05,0.1 0.06,0.1 0.06,0.1 0.07,0.1 0.07,0.1 0.08,0.1 0.08,0.09 0.08,0.09 0.09,0.1 0.1,0.08 0.1,0.09 0.11,0.08 0.12,0.08 0.12,0.08 0.13,0.07 0.13,0.07 0.15,0.07 0.15,0.06 0.16,0.06 0.16,0.05 0.18,0.05 0.18,0.04 0.2,0.03 0.2,0.04 0.21,0.02 0.23,0.02 0.23,0.01 0.24,0.01 v 1.25 c -1.01,-0.11 -2.37,-0.14 -3.38,-0.14 -1.4,0 -3.97,0.14 -4.18,0.14 v -1.25 c 1.28,0 2.41,-0.56 2.41,-1.64 0,-0.25 -0.08,-0.49 -0.19,-0.74 l -7.2,-16.82 -7.53,17.67 c -0.21,0.4 -0.21,0.48 -0.21,0.59 0,0.94 1.82,0.94 2.75,0.94 v 1.25 c -1.75,-0.06 -3.96,-0.14 -5.18,-0.14 -1.75,0 -4.36,0.14 -4.47,0.14 v -1.25 h 0.59 c 1.88,0 2.47,-0.17 2.92,-1.25 l 9.07,-21.19 c 0.25,-0.56 0.34,-0.81 1.01,-0.81 0.35,0 0.69,0 1.02,0.73 z"
           inkscape:connector-curvature="0"
           style="fill:#000000;stroke-width:0" /></g>    </g>
    <g
       id="g20182"
       transform="matrix(0.5,0,0,0.5,-107.8627,474.15339)">
      <g
         id="g20180"
         transform="matrix(1.0932465,0,0,-1.0932465,-191.31814,782.85175)"
         xml:space="preserve"
         stroke-miterlimit="10.433"
         font-style="normal"
         font-variant="normal"
         font-weight="normal"
         font-stretch="normal"
         font-size-adjust="none"
         letter-spacing="normal"
         word-spacing="normal"
         style="font-style:normal;font-variant:normal;font-weight:normal;font-stretch:normal;letter-spacing:normal;word-spacing:normal;text-anchor:start;fill:none;fill-opacity:1;fill-rule:evenodd;stroke:#000000;stroke-linecap:butt;stroke-linejoin:miter;stroke-miterlimit:10.43299961;stroke-dasharray:none;stroke-dashoffset:0;stroke-opacity:1"><path
           d="m 477.19,423.14 0.45,0.12 0.44,0.12 0.44,0.14 0.43,0.15 0.42,0.16 0.42,0.17 0.4,0.18 0.4,0.19 0.39,0.19 0.37,0.21 0.37,0.22 0.35,0.22 0.34,0.23 0.33,0.24 0.32,0.25 0.3,0.26 0.29,0.27 0.27,0.27 0.26,0.28 0.24,0.29 0.23,0.29 0.21,0.31 0.19,0.3 0.18,0.32 0.15,0.32 0.14,0.33 0.12,0.33 0.09,0.35 0.08,0.34 0.06,0.35 0.03,0.36 0.01,0.36 c 0,4.78 -5.67,8.97 -13,8.97 h -15.64 v -1.55 h 1.19 c 3.84,0 3.93,-0.54 3.93,-2.34 v -26.25 c 0,-1.8 -0.09,-2.34 -3.93,-2.34 h -1.19 v -1.55 c 1.78,0.16 5.33,0.16 7.27,0.16 1.93,0 5.48,0 7.28,-0.16 v 1.55 h -1.21 c -3.82,0 -3.93,0.54 -3.93,2.34 v 12.59 1.11 12.89 c 0,1.16 0,1.75 1.09,1.91 0.5,0.09 1.95,0.09 2.95,0.09 4.47,0 10.07,-0.2 10.07,-7.42 0,-3.44 -1.21,-7.47 -8.58,-7.47 h -5.53 v -1.11 h 5.73 c 0.8,0 2.89,0 4.63,-1.68 1.9,-1.8 1.9,-3.35 1.9,-6.68 0,-3.25 0,-5.23 2.03,-7.12 2.05,-1.8 4.78,-2.09 6.28,-2.09 3.89,0 4.74,4.07 4.74,5.48 0,0.3 0,0.84 -0.64,0.84 -0.55,0 -0.55,-0.45 -0.61,-0.79 -0.3,-3.55 -2.03,-4.44 -3.28,-4.44 -2.44,0 -2.85,2.55 -3.55,7.17 l -0.64,3.99 c -0.89,3.18 -3.34,4.84 -6.08,5.78 z"
           id="path20174"
           inkscape:connector-curvature="0"
           style="fill:#000000;stroke-width:0" /><path
           d="m 516.57,419.01 0.09,0.21 0.1,0.2 0.05,0.1 0.06,0.1 0.06,0.1 0.07,0.1 0.07,0.1 0.08,0.1 0.08,0.09 0.08,0.09 0.09,0.1 0.1,0.08 0.1,0.09 0.11,0.08 0.11,0.08 0.13,0.08 0.12,0.07 0.14,0.07 0.14,0.07 0.16,0.06 0.15,0.06 0.17,0.05 0.18,0.05 0.18,0.04 0.2,0.03 0.2,0.04 0.21,0.02 0.23,0.02 0.23,0.01 0.24,0.01 v 1.25 c -1.01,-0.11 -2.37,-0.14 -3.39,-0.14 -1.39,0 -3.96,0.14 -4.17,0.14 v -1.25 c 1.28,0 2.41,-0.56 2.41,-1.64 0,-0.25 -0.08,-0.49 -0.19,-0.74 l -7.2,-16.82 -7.53,17.67 c -0.21,0.4 -0.21,0.48 -0.21,0.59 0,0.94 1.82,0.94 2.75,0.94 v 1.25 c -1.75,-0.06 -3.97,-0.14 -5.18,-0.14 -1.75,0 -4.36,0.14 -4.47,0.14 v -1.25 h 0.59 c 1.88,0 2.47,-0.17 2.92,-1.25 l 9.06,-21.19 c 0.25,-0.56 0.35,-0.81 1.02,-0.81 0.34,0 0.69,0 1.02,0.73 z"
           id="path20176"
           inkscape:connector-curvature="0"
           style="fill:#000000;stroke-width:0" /><path
           d="m 527.89,410.64 -4.19,-0.26 v -1.1 c 1.85,0 2.08,-0.17 2.08,-1.4 v -12.43 c 0,-0.78 0,-1 -1.62,-1 h -0.46 v -1.09 c 1.05,0.08 2.08,0.09 3.13,0.09 1.05,0 2.09,-0.01 3.12,-0.09 v 1.09 h -0.43 c -1.63,0 -1.63,0.22 -1.63,1 z"
           id="path20178"
           inkscape:connector-curvature="0"
           style="fill:#000000;stroke-width:0" /></g>    </g>
    <g
       id="g20398"
       transform="matrix(0.5,0,0,0.5,-110.24325,400.75678)">
      <g
         word-spacing="normal"
         letter-spacing="normal"
         font-size-adjust="none"
         font-stretch="normal"
         font-weight="normal"
         font-variant="normal"
         font-style="normal"
         stroke-miterlimit="10.433"
         xml:space="preserve"
         transform="matrix(1.0932465,0,0,-1.0932465,-191.31814,782.85175)"
         id="g20396"
         style="font-style:normal;font-variant:normal;font-weight:normal;font-stretch:normal;letter-spacing:normal;word-spacing:normal;text-anchor:start;fill:none;fill-opacity:1;fill-rule:evenodd;stroke:#000000;stroke-linecap:butt;stroke-linejoin:miter;stroke-miterlimit:10.43299961;stroke-dasharray:none;stroke-dashoffset:0;stroke-opacity:1"><path
           id="path20390"
           d="m 477.19,423.14 0.45,0.12 0.44,0.12 0.44,0.14 0.43,0.15 0.42,0.16 0.42,0.17 0.4,0.18 0.4,0.19 0.39,0.19 0.37,0.21 0.37,0.22 0.35,0.22 0.34,0.23 0.33,0.24 0.32,0.25 0.3,0.26 0.29,0.27 0.27,0.27 0.26,0.28 0.24,0.29 0.23,0.29 0.21,0.31 0.19,0.3 0.18,0.32 0.15,0.32 0.14,0.33 0.12,0.33 0.09,0.35 0.08,0.34 0.06,0.35 0.03,0.36 0.01,0.36 c 0,4.78 -5.67,8.97 -13,8.97 h -15.64 v -1.55 h 1.19 c 3.84,0 3.93,-0.54 3.93,-2.34 v -26.25 c 0,-1.8 -0.09,-2.34 -3.93,-2.34 h -1.19 v -1.55 c 1.78,0.16 5.33,0.16 7.27,0.16 1.93,0 5.48,0 7.28,-0.16 v 1.55 h -1.21 c -3.82,0 -3.93,0.54 -3.93,2.34 v 12.59 1.11 12.89 c 0,1.16 0,1.75 1.09,1.91 0.5,0.09 1.95,0.09 2.95,0.09 4.47,0 10.07,-0.2 10.07,-7.42 0,-3.44 -1.21,-7.47 -8.58,-7.47 h -5.53 v -1.11 h 5.73 c 0.8,0 2.89,0 4.63,-1.68 1.9,-1.8 1.9,-3.35 1.9,-6.68 0,-3.25 0,-5.23 2.03,-7.12 2.05,-1.8 4.78,-2.09 6.28,-2.09 3.89,0 4.74,4.07 4.74,5.48 0,0.3 0,0.84 -0.64,0.84 -0.55,0 -0.55,-0.45 -0.61,-0.79 -0.3,-3.55 -2.03,-4.44 -3.28,-4.44 -2.44,0 -2.85,2.55 -3.55,7.17 l -0.64,3.99 c -0.89,3.18 -3.34,4.84 -6.08,5.78 z"
           inkscape:connector-curvature="0"
           style="fill:#000000;stroke-width:0" /><path
           id="path20392"
           d="m 516.57,419.01 0.09,0.21 0.1,0.2 0.05,0.1 0.06,0.1 0.06,0.1 0.07,0.1 0.07,0.1 0.08,0.1 0.08,0.09 0.08,0.09 0.09,0.1 0.1,0.08 0.1,0.09 0.11,0.08 0.11,0.08 0.13,0.08 0.12,0.07 0.14,0.07 0.14,0.07 0.16,0.06 0.15,0.06 0.17,0.05 0.18,0.05 0.18,0.04 0.2,0.03 0.2,0.04 0.21,0.02 0.23,0.02 0.23,0.01 0.24,0.01 v 1.25 c -1.01,-0.11 -2.37,-0.14 -3.39,-0.14 -1.39,0 -3.96,0.14 -4.17,0.14 v -1.25 c 1.28,0 2.41,-0.56 2.41,-1.64 0,-0.25 -0.08,-0.49 -0.19,-0.74 l -7.2,-16.82 -7.53,17.67 c -0.21,0.4 -0.21,0.48 -0.21,0.59 0,0.94 1.82,0.94 2.75,0.94 v 1.25 c -1.75,-0.06 -3.97,-0.14 -5.18,-0.14 -1.75,0 -4.36,0.14 -4.47,0.14 v -1.25 h 0.59 c 1.88,0 2.47,-0.17 2.92,-1.25 l 9.06,-21.19 c 0.25,-0.56 0.35,-0.81 1.02,-0.81 0.34,0 0.69,0 1.02,0.73 z"
           inkscape:connector-curvature="0"
           style="fill:#000000;stroke-width:0" /><path
           id="path20394"
           d="m 532.3,404.45 v -1.09 c 1.84,0 2.08,-0.17 2.08,-1.39 v -4.06 c 0,-2.3 -1.72,-3.64 -3.77,-3.64 -2.55,0 -2.64,1.01 -2.64,2.29 v 8.17 l -4.28,-0.28 v -1.09 c 1.9,0 2.06,-0.2 2.06,-1.47 v -5.44 c 0.22,-2.78 3.05,-3.01 4.66,-3.01 2.09,0 3.31,0.95 4.06,2.12 v -2.12 l 4.19,0.28 v 1.09 c -1.85,0 -2.07,0.17 -2.07,1.39 v 8.53 z"
           inkscape:connector-curvature="0"
           style="fill:#000000;stroke-width:0" /></g>    </g>
    <g
       id="g20624"
       transform="matrix(0.5,0,0,0.5,-110.24325,358.68246)">
      <g
         id="g20622"
         transform="matrix(1.0932465,0,0,-1.0932465,-191.31814,782.85175)"
         xml:space="preserve"
         stroke-miterlimit="10.433"
         font-style="normal"
         font-variant="normal"
         font-weight="normal"
         font-stretch="normal"
         font-size-adjust="none"
         letter-spacing="normal"
         word-spacing="normal"
         style="font-style:normal;font-variant:normal;font-weight:normal;font-stretch:normal;letter-spacing:normal;word-spacing:normal;text-anchor:start;fill:none;fill-opacity:1;fill-rule:evenodd;stroke:#000000;stroke-linecap:butt;stroke-linejoin:miter;stroke-miterlimit:10.43299961;stroke-dasharray:none;stroke-dashoffset:0;stroke-opacity:1"><path
           d="m 477.19,423.14 0.45,0.12 0.44,0.12 0.44,0.14 0.43,0.15 0.42,0.16 0.42,0.17 0.4,0.18 0.4,0.19 0.39,0.19 0.37,0.21 0.37,0.22 0.35,0.22 0.34,0.23 0.33,0.24 0.32,0.25 0.3,0.26 0.29,0.27 0.27,0.27 0.26,0.28 0.24,0.29 0.23,0.29 0.21,0.31 0.19,0.3 0.18,0.32 0.15,0.32 0.14,0.33 0.12,0.33 0.09,0.35 0.08,0.34 0.06,0.35 0.03,0.36 0.01,0.36 c 0,4.78 -5.67,8.97 -13,8.97 h -15.64 v -1.55 h 1.19 c 3.84,0 3.93,-0.54 3.93,-2.34 v -26.25 c 0,-1.8 -0.09,-2.34 -3.93,-2.34 h -1.19 v -1.55 c 1.78,0.16 5.33,0.16 7.27,0.16 1.93,0 5.48,0 7.28,-0.16 v 1.55 h -1.21 c -3.82,0 -3.93,0.54 -3.93,2.34 v 12.59 1.11 12.89 c 0,1.16 0,1.75 1.09,1.91 0.5,0.09 1.95,0.09 2.95,0.09 4.47,0 10.07,-0.2 10.07,-7.42 0,-3.44 -1.21,-7.47 -8.58,-7.47 h -5.53 v -1.11 h 5.73 c 0.8,0 2.89,0 4.63,-1.68 1.9,-1.8 1.9,-3.35 1.9,-6.68 0,-3.25 0,-5.23 2.03,-7.12 2.05,-1.8 4.78,-2.09 6.28,-2.09 3.89,0 4.74,4.07 4.74,5.48 0,0.3 0,0.84 -0.64,0.84 -0.55,0 -0.55,-0.45 -0.61,-0.79 -0.3,-3.55 -2.03,-4.44 -3.28,-4.44 -2.44,0 -2.85,2.55 -3.55,7.17 l -0.64,3.99 c -0.89,3.18 -3.34,4.84 -6.08,5.78 z"
           id="path20616"
           inkscape:connector-curvature="0"
           style="fill:#000000;stroke-width:0" /><path
           d="m 516.03,419.73 0.01,0.11 v 0.1 0.1 0.1 l 0.01,0.09 0.01,0.09 0.01,0.08 0.02,0.08 0.02,0.07 0.02,0.07 0.03,0.07 0.04,0.06 0.04,0.06 0.05,0.06 0.06,0.05 0.06,0.04 0.07,0.05 0.08,0.04 0.04,0.02 0.04,0.02 0.05,0.02 0.05,0.01 0.05,0.02 0.06,0.01 0.05,0.02 0.06,0.01 0.07,0.01 0.06,0.02 0.07,0.01 0.07,0.01 0.07,0.01 0.08,0.01 0.08,0.01 0.08,0.01 h 0.08 l 0.09,0.01 h 0.09 l 0.1,0.01 h 0.1 l 0.1,0.01 h 0.11 0.1 l 0.12,0.01 h 0.11 0.12 0.12 0.85 v 1.25 c -1.75,-0.06 -3.97,-0.14 -5.23,-0.14 -1.29,0 -3.52,0.08 -5.26,0.14 v -1.25 h 0.83 c 2.69,0 2.75,-0.35 2.75,-1.58 v -7.97 h -11.64 v 7.97 c 0,1.19 0.08,1.58 2.77,1.58 h 0.83 v 1.25 c -1.74,-0.06 -3.97,-0.14 -5.22,-0.14 -1.3,0 -3.53,0.08 -5.27,0.14 v -1.25 h 0.83 c 2.69,0 2.77,-0.35 2.77,-1.58 v -18.14 c 0,-1.19 -0.08,-1.58 -2.77,-1.58 h -0.83 v -1.25 c 1.74,0.06 3.97,0.14 5.22,0.14 1.3,0 3.53,-0.08 5.27,-0.14 v 1.25 h -0.83 c -2.69,0 -2.77,0.36 -2.77,1.58 v 8.92 h 11.64 v -8.92 c 0,-1.19 -0.06,-1.58 -2.75,-1.58 h -0.83 v -1.25 c 1.74,0.06 3.97,0.14 5.22,0.14 1.3,0 3.52,-0.08 5.27,-0.14 v 1.25 h -0.85 c -2.67,0 -2.75,0.36 -2.75,1.58 z"
           id="path20618"
           inkscape:connector-curvature="0"
           style="fill:#000000;stroke-width:0" /><path
           d="m 532.3,404.45 v -1.09 c 1.84,0 2.08,-0.17 2.08,-1.39 v -4.06 c 0,-2.3 -1.72,-3.64 -3.77,-3.64 -2.55,0 -2.64,1.01 -2.64,2.29 v 8.17 l -4.28,-0.28 v -1.09 c 1.9,0 2.06,-0.2 2.06,-1.47 v -5.44 c 0.22,-2.78 3.05,-3.01 4.66,-3.01 2.09,0 3.31,0.95 4.06,2.12 v -2.12 l 4.19,0.28 v 1.09 c -1.85,0 -2.07,0.17 -2.07,1.39 v 8.53 z"
           id="path20620"
           inkscape:connector-curvature="0"
           style="fill:#000000;stroke-width:0" /></g>    </g>
    <g
       id="g20860"
       transform="matrix(0.5,0,0,0.5,-107.8627,437.917)">
      <g
         word-spacing="normal"
         letter-spacing="normal"
         font-size-adjust="none"
         font-stretch="normal"
         font-weight="normal"
         font-variant="normal"
         font-style="normal"
         stroke-miterlimit="10.433"
         xml:space="preserve"
         transform="matrix(1.0932465,0,0,-1.0932465,-191.31814,782.85175)"
         id="g20858"
         style="font-style:normal;font-variant:normal;font-weight:normal;font-stretch:normal;letter-spacing:normal;word-spacing:normal;text-anchor:start;fill:none;fill-opacity:1;fill-rule:evenodd;stroke:#000000;stroke-linecap:butt;stroke-linejoin:miter;stroke-miterlimit:10.43299961;stroke-dasharray:none;stroke-dashoffset:0;stroke-opacity:1"><path
           id="path20852"
           d="m 477.19,423.14 0.45,0.12 0.44,0.12 0.44,0.14 0.43,0.15 0.42,0.16 0.42,0.17 0.4,0.18 0.4,0.19 0.39,0.19 0.37,0.21 0.37,0.22 0.35,0.22 0.34,0.23 0.33,0.24 0.32,0.25 0.3,0.26 0.29,0.27 0.27,0.27 0.26,0.28 0.24,0.29 0.23,0.29 0.21,0.31 0.19,0.3 0.18,0.32 0.15,0.32 0.14,0.33 0.12,0.33 0.09,0.35 0.08,0.34 0.06,0.35 0.03,0.36 0.01,0.36 c 0,4.78 -5.67,8.97 -13,8.97 h -15.64 v -1.55 h 1.19 c 3.84,0 3.93,-0.54 3.93,-2.34 v -26.25 c 0,-1.8 -0.09,-2.34 -3.93,-2.34 h -1.19 v -1.55 c 1.78,0.16 5.33,0.16 7.27,0.16 1.93,0 5.48,0 7.28,-0.16 v 1.55 h -1.21 c -3.82,0 -3.93,0.54 -3.93,2.34 v 12.59 1.11 12.89 c 0,1.16 0,1.75 1.09,1.91 0.5,0.09 1.95,0.09 2.95,0.09 4.47,0 10.07,-0.2 10.07,-7.42 0,-3.44 -1.21,-7.47 -8.58,-7.47 h -5.53 v -1.11 h 5.73 c 0.8,0 2.89,0 4.63,-1.68 1.9,-1.8 1.9,-3.35 1.9,-6.68 0,-3.25 0,-5.23 2.03,-7.12 2.05,-1.8 4.78,-2.09 6.28,-2.09 3.89,0 4.74,4.07 4.74,5.48 0,0.3 0,0.84 -0.64,0.84 -0.55,0 -0.55,-0.45 -0.61,-0.79 -0.3,-3.55 -2.03,-4.44 -3.28,-4.44 -2.44,0 -2.85,2.55 -3.55,7.17 l -0.64,3.99 c -0.89,3.18 -3.34,4.84 -6.08,5.78 z"
           inkscape:connector-curvature="0"
           style="fill:#000000;stroke-width:0" /><path
           id="path20854"
           d="m 516.03,419.73 0.01,0.11 v 0.1 0.1 0.1 l 0.01,0.09 0.01,0.09 0.01,0.08 0.02,0.08 0.02,0.07 0.02,0.07 0.03,0.07 0.04,0.06 0.04,0.06 0.05,0.06 0.06,0.05 0.06,0.04 0.07,0.05 0.08,0.04 0.04,0.02 0.04,0.02 0.05,0.02 0.05,0.01 0.05,0.02 0.06,0.01 0.05,0.02 0.06,0.01 0.07,0.01 0.06,0.02 0.07,0.01 0.07,0.01 0.07,0.01 0.08,0.01 0.08,0.01 0.08,0.01 h 0.08 l 0.09,0.01 h 0.09 l 0.1,0.01 h 0.1 l 0.1,0.01 h 0.11 0.1 l 0.12,0.01 h 0.11 0.12 0.12 0.85 v 1.25 c -1.75,-0.06 -3.97,-0.14 -5.23,-0.14 -1.29,0 -3.52,0.08 -5.26,0.14 v -1.25 h 0.83 c 2.69,0 2.75,-0.35 2.75,-1.58 v -7.97 h -11.64 v 7.97 c 0,1.19 0.08,1.58 2.77,1.58 h 0.83 v 1.25 c -1.74,-0.06 -3.97,-0.14 -5.22,-0.14 -1.3,0 -3.53,0.08 -5.27,0.14 v -1.25 h 0.83 c 2.69,0 2.77,-0.35 2.77,-1.58 v -18.14 c 0,-1.19 -0.08,-1.58 -2.77,-1.58 h -0.83 v -1.25 c 1.74,0.06 3.97,0.14 5.22,0.14 1.3,0 3.53,-0.08 5.27,-0.14 v 1.25 h -0.83 c -2.69,0 -2.77,0.36 -2.77,1.58 v 8.92 h 11.64 v -8.92 c 0,-1.19 -0.06,-1.58 -2.75,-1.58 h -0.83 v -1.25 c 1.74,0.06 3.97,0.14 5.22,0.14 1.3,0 3.52,-0.08 5.27,-0.14 v 1.25 h -0.85 c -2.67,0 -2.75,0.36 -2.75,1.58 z"
           inkscape:connector-curvature="0"
           style="fill:#000000;stroke-width:0" /><path
           id="path20856"
           d="m 527.89,410.64 -4.19,-0.26 v -1.1 c 1.85,0 2.08,-0.17 2.08,-1.4 v -12.43 c 0,-0.78 0,-1 -1.62,-1 h -0.46 v -1.09 c 1.05,0.08 2.08,0.09 3.13,0.09 1.05,0 2.09,-0.01 3.12,-0.09 v 1.09 h -0.43 c -1.63,0 -1.63,0.22 -1.63,1 z"
           inkscape:connector-curvature="0"
           style="fill:#000000;stroke-width:0" /></g>    </g>
    <path
       style="fill:none;fill-rule:evenodd;stroke:#000080;stroke-width:2.5;stroke-linecap:butt;stroke-linejoin:miter;stroke-miterlimit:4;stroke-dasharray:none;stroke-opacity:1"
       d="M 109.60637,396.12524 831.65759,723.98486 109.60637,522.25661"
       id="path20981"
       inkscape:connector-curvature="0"
       sodipodi:nodetypes="ccc" />
    <path
       style="fill:none;fill-rule:evenodd;stroke:#ff0000;stroke-width:2.5;stroke-linecap:butt;stroke-linejoin:miter;stroke-miterlimit:4;stroke-dasharray:none;stroke-opacity:1"
       d="M 108.93178,434.67508 831.65759,723.98486 109.60637,561.88483"
       id="path20983"
       inkscape:connector-curvature="0"
       sodipodi:nodetypes="ccc" />
    <path
       style="fill:none;fill-rule:evenodd;stroke:#000000;stroke-width:0.9375px;stroke-linecap:butt;stroke-linejoin:miter;stroke-opacity:1"
       d="M 109.60637,396.12524 V 522.25661"
       id="path26500"
       inkscape:connector-curvature="0" />
  </g>
</svg>
