<?xml version="1.0" encoding="UTF-8" standalone="no"?>
<!-- Created with Inkscape (http://www.inkscape.org/) -->

<svg
   xmlns:dc="http://purl.org/dc/elements/1.1/"
   xmlns:cc="http://creativecommons.org/ns#"
   xmlns:rdf="http://www.w3.org/1999/02/22-rdf-syntax-ns#"
   xmlns:svg="http://www.w3.org/2000/svg"
   xmlns="http://www.w3.org/2000/svg"
   xmlns:sodipodi="http://sodipodi.sourceforge.net/DTD/sodipodi-0.dtd"
   xmlns:inkscape="http://www.inkscape.org/namespaces/inkscape"
   sodipodi:docname="bistatic_geometry_full.svg"
   width="407.93405mm"
   height="191.59363mm"
   viewBox="0 0 1445.4357 678.87501"
   id="svg2"
   version="1.1"
   inkscape:version="0.91 r">
  <sodipodi:namedview
     inkscape:snap-global="false"
     inkscape:object-paths="true"
     inkscape:object-nodes="true"
     inkscape:snap-intersection-paths="true"
     fit-margin-bottom="0"
     fit-margin-right="0"
     fit-margin-left="0"
     fit-margin-top="0"
     inkscape:snap-object-midpoints="true"
     inkscape:guide-bbox="true"
     showguides="true"
     id="base"
     pagecolor="#ffffff"
     bordercolor="#666666"
     borderopacity="1.0"
     inkscape:pageopacity="0.0"
     inkscape:pageshadow="2"
     inkscape:zoom="0.6744373"
     inkscape:cx="438.58835"
     inkscape:cy="84.582177"
     inkscape:document-units="px"
     inkscape:current-layer="layer1"
     showgrid="false"
     inkscape:window-width="1855"
     inkscape:window-height="1056"
     inkscape:window-x="65"
     inkscape:window-y="24"
     inkscape:window-maximized="1">
    <sodipodi:guide
       id="guide8872"
       orientation="1,0"
       position="-116.33885,-137.42247" />
    <sodipodi:guide
       id="guide9068"
       orientation="1,0"
       position="-229.91521,402.68007" />
    <sodipodi:guide
       id="guide9538"
       orientation="0,1"
       position="-116.33893,186.82957" />
    <sodipodi:guide
       id="guide9554"
       orientation="0,1"
       position="229.44188,171.2359" />
    <sodipodi:guide
       id="guide9564"
       orientation="0,1"
       position="300.47321,313.54854" />
    <sodipodi:guide
       id="guide9568"
       orientation="0,1"
       position="300.47321,313.54854" />
    <sodipodi:guide
       id="guide9572"
       orientation="0,1"
       position="-80.066748,210.54587" />
    <sodipodi:guide
       id="guide9896"
       orientation="1,0"
       position="31.826573,302.48616" />
    <sodipodi:guide
       id="guide9908"
       orientation="1,0"
       position="1160.7363,420.34094" />
    <sodipodi:guide
       id="guide9910"
       orientation="0,1"
       position="1180.4207,-408.08115" />
    <sodipodi:guide
       position="-116.33893,915.32491"
       orientation="0,1"
       id="guide11799" />
  </sodipodi:namedview>
  <defs
     id="defs4">
    <marker
       inkscape:isstock="true"
       inkscape:stockid="DistanceEnd"
       orient="auto"
       refY="0"
       refX="0"
       id="marker11351"
       style="overflow:visible">
      <g
         style="fill:#000000;fill-opacity:1;stroke:#000000;stroke-opacity:1"
         id="g11353">
        <path
           id="path11355"
           d="M 0,0 -2,0"
           style="fill:#000000;fill-opacity:1;stroke:#000000;stroke-width:1.14999998;stroke-linecap:square;stroke-opacity:1"
           inkscape:connector-curvature="0" />
        <path
           id="path11357"
           d="M 0,0 -13,4 -9,0 -13,-4 0,0 Z"
           style="fill:#000000;fill-opacity:1;fill-rule:evenodd;stroke:#000000;stroke-opacity:1"
           inkscape:connector-curvature="0" />
        <path
           id="path11359"
           d="M 0,-4 0,40"
           style="fill:#000000;fill-opacity:1;stroke:#000000;stroke-width:1;stroke-linecap:square;stroke-opacity:1"
           inkscape:connector-curvature="0" />
      </g>
    </marker>
    <marker
       inkscape:isstock="true"
       inkscape:stockid="DistanceStart"
       orient="auto"
       refY="0"
       refX="0"
       id="marker11288"
       style="overflow:visible">
      <g
         style="fill:#000000;fill-opacity:1;stroke:#000000;stroke-opacity:1"
         id="g11290">
        <path
           id="path11292"
           d="M 0,0 2,0"
           style="fill:#000000;fill-opacity:1;stroke:#000000;stroke-width:1.14999998;stroke-linecap:square;stroke-opacity:1"
           inkscape:connector-curvature="0" />
        <path
           id="path11294"
           d="M 0,0 13,4 9,0 13,-4 0,0 Z"
           style="fill:#000000;fill-opacity:1;fill-rule:evenodd;stroke:#000000;stroke-opacity:1"
           inkscape:connector-curvature="0" />
        <path
           id="path11296"
           d="M 0,-4 0,40"
           style="fill:#000000;fill-opacity:1;stroke:#000000;stroke-width:1;stroke-linecap:square;stroke-opacity:1"
           inkscape:connector-curvature="0" />
      </g>
    </marker>
    <marker
       style="overflow:visible"
       id="DistanceEnd"
       refX="0"
       refY="0"
       orient="auto"
       inkscape:stockid="DistanceEnd"
       inkscape:isstock="true">
      <g
         id="g2301"
         style="fill:#000000;fill-opacity:1;stroke:#000000;stroke-opacity:1">
        <path
           inkscape:connector-curvature="0"
           style="fill:#000000;fill-opacity:1;stroke:#000000;stroke-width:1.14999998;stroke-linecap:square;stroke-opacity:1"
           d="M 0,0 -2,0"
           id="path2316" />
        <path
           inkscape:connector-curvature="0"
           style="fill:#000000;fill-opacity:1;fill-rule:evenodd;stroke:#000000;stroke-opacity:1"
           d="M 0,0 -13,4 -9,0 -13,-4 0,0 Z"
           id="path2312" />
        <path
           inkscape:connector-curvature="0"
           style="fill:#000000;fill-opacity:1;stroke:#000000;stroke-width:1;stroke-linecap:square;stroke-opacity:1"
           d="M 0,-4 0,40"
           id="path2314" />
      </g>
    </marker>
    <marker
       style="overflow:visible"
       id="DistanceStart"
       refX="0"
       refY="0"
       orient="auto"
       inkscape:stockid="DistanceStart"
       inkscape:isstock="true">
      <g
         id="g2300"
         style="fill:#000000;fill-opacity:1;stroke:#000000;stroke-opacity:1">
        <path
           inkscape:connector-curvature="0"
           style="fill:#000000;fill-opacity:1;stroke:#000000;stroke-width:1.14999998;stroke-linecap:square;stroke-opacity:1"
           d="M 0,0 2,0"
           id="path2306" />
        <path
           inkscape:connector-curvature="0"
           style="fill:#000000;fill-opacity:1;fill-rule:evenodd;stroke:#000000;stroke-opacity:1"
           d="M 0,0 13,4 9,0 13,-4 0,0 Z"
           id="path2302" />
        <path
           inkscape:connector-curvature="0"
           style="fill:#000000;fill-opacity:1;stroke:#000000;stroke-width:1;stroke-linecap:square;stroke-opacity:1"
           d="M 0,-4 0,40"
           id="path2304" />
      </g>
    </marker>
    <marker
       inkscape:isstock="true"
       style="overflow:visible"
       id="TriangleOutM"
       refX="0"
       refY="0"
       orient="auto"
       inkscape:stockid="TriangleOutM">
      <path
         inkscape:connector-curvature="0"
         transform="scale(0.4,0.4)"
         style="fill:#000000;fill-opacity:1;fill-rule:evenodd;stroke:#000000;stroke-width:1pt;stroke-opacity:1"
         d="m 5.77,0 -8.65,5 0,-10 8.65,5 z"
         id="path10063" />
    </marker>
    <marker
       inkscape:isstock="true"
       style="overflow:visible"
       id="TriangleInM"
       refX="0"
       refY="0"
       orient="auto"
       inkscape:stockid="TriangleInM">
      <path
         inkscape:connector-curvature="0"
         transform="scale(-0.4,-0.4)"
         style="fill:#000000;fill-opacity:1;fill-rule:evenodd;stroke:#000000;stroke-width:1pt;stroke-opacity:1"
         d="m 5.77,0 -8.65,5 0,-10 8.65,5 z"
         id="path10054" />
    </marker>
    <marker
       inkscape:isstock="true"
       style="overflow:visible"
       id="Arrow2Mend"
       refX="0"
       refY="0"
       orient="auto"
       inkscape:stockid="Arrow2Mend">
      <path
         inkscape:connector-curvature="0"
         transform="scale(-0.6,-0.6)"
         d="M 8.7185878,4.0337352 -2.2072895,0.01601326 8.7185884,-4.0017078 c -1.7454984,2.3720609 -1.7354408,5.6174519 -6e-7,8.035443 z"
         style="fill:#000000;fill-opacity:1;fill-rule:evenodd;stroke:#000000;stroke-width:0.625;stroke-linejoin:round;stroke-opacity:1"
         id="path9945" />
    </marker>
    <marker
       inkscape:isstock="true"
       style="overflow:visible"
       id="Arrow2Mstart"
       refX="0"
       refY="0"
       orient="auto"
       inkscape:stockid="Arrow2Mstart">
      <path
         inkscape:connector-curvature="0"
         transform="scale(0.6,0.6)"
         d="M 8.7185878,4.0337352 -2.2072895,0.01601326 8.7185884,-4.0017078 c -1.7454984,2.3720609 -1.7354408,5.6174519 -6e-7,8.035443 z"
         style="fill:#000000;fill-opacity:1;fill-rule:evenodd;stroke:#000000;stroke-width:0.625;stroke-linejoin:round;stroke-opacity:1"
         id="path9942" />
    </marker>
    <inkscape:path-effect
       linkedpath=""
       is_visible="true"
       id="path-effect8089"
       effect="clone_original" />
    <inkscape:path-effect
       nr_y="1"
       nr_x="14"
       is_visible="true"
       id="path-effect8087"
       effect="construct_grid" />
  </defs>
  <metadata
     id="metadata7">
    <rdf:RDF>
      <cc:Work
         rdf:about="">
        <dc:format>image/svg+xml</dc:format>
        <dc:type
           rdf:resource="http://purl.org/dc/dcmitype/StillImage" />
        <dc:title></dc:title>
      </cc:Work>
    </rdf:RDF>
  </metadata>
  <g
     transform="translate(-226.30136,-296.35805)"
     id="layer1"
     inkscape:groupmode="layer"
     inkscape:label="Layer 1">
    <circle
       r="12.398998"
       cy="375.89557"
       cx="485.85767"
       id="path8070"
       style="color:#000000;clip-rule:nonzero;display:inline;overflow:visible;visibility:visible;opacity:1;isolation:auto;mix-blend-mode:normal;color-interpolation:sRGB;color-interpolation-filters:linearRGB;solid-color:#000000;solid-opacity:1;fill:none;fill-opacity:1;fill-rule:evenodd;stroke:#000000;stroke-width:6.25;stroke-linecap:butt;stroke-linejoin:miter;stroke-miterlimit:4;stroke-dasharray:none;stroke-dashoffset:0;stroke-opacity:1;color-rendering:auto;image-rendering:auto;shape-rendering:auto;text-rendering:auto;enable-background:accumulate" />
    <circle
       r="12.398998"
       cy="531.60742"
       cx="489.88803"
       id="path8070-3-4-6"
       style="color:#000000;clip-rule:nonzero;display:inline;overflow:visible;visibility:visible;opacity:1;isolation:auto;mix-blend-mode:normal;color-interpolation:sRGB;color-interpolation-filters:linearRGB;solid-color:#000000;solid-opacity:1;fill:none;fill-opacity:1;fill-rule:evenodd;stroke:#000000;stroke-width:6.25;stroke-linecap:butt;stroke-linejoin:miter;stroke-miterlimit:4;stroke-dasharray:none;stroke-dashoffset:0;stroke-opacity:1;color-rendering:auto;image-rendering:auto;shape-rendering:auto;text-rendering:auto;enable-background:accumulate" />
    <g
       transform="translate(-379.21028,204.55215)"
       id="g9900"
       style="stroke:#000000;stroke-width:6.25;stroke-miterlimit:4;stroke-dasharray:none;stroke-opacity:1">
      <path
         style="fill:none;fill-rule:evenodd;stroke:#000000;stroke-width:6.25;stroke-linecap:butt;stroke-linejoin:miter;stroke-miterlimit:4;stroke-dasharray:none;stroke-opacity:1"
         d="m 1519.6952,531.79523 c 8.2994,-14.26152 29.3027,-47.35662 42.6134,-56.81677 2.6196,-1.86176 6.1471,-2.46704 8.0049,-5.00888 3.7995,-5.19836 4.2915,-11.81464 7.5157,-16.22599 3.2243,-4.41136 48.6868,13.01705 63.1639,2.72804 2.8313,-2.0123 21.2493,-8.77802 26.0839,-17.85794 4.8346,-9.07991 35.8639,-42.73293 44.4101,-53.33171 8.546,-10.59876 11.3981,-8.48106 16.4729,-15.10894 5.0748,-6.62787 17.2976,9.02113 30.0582,-8.43744 12.7604,-17.45855 43.7275,-60.85842 55.5754,-86.43742 11.848,-25.579 9.8628,-61.03899 14.5989,-67.51897 4.7363,-6.47998 44.2286,34.57801 50.4746,26.03231 6.2461,-8.54571 26.7004,-25.09883 36.431,-32.0145 9.7306,-6.91568 3.9758,-15.07064 14.1049,-22.26958 10.1293,-7.19895 37.4796,-43.84953 43.3754,-51.91605 5.8959,-8.06653 43.7374,0.47478 48.2712,3.78857 4.5339,3.31377 16.5849,12.70291 28.2873,4.38581"
         id="path8957"
         inkscape:connector-curvature="0"
         sodipodi:nodetypes="csszszzzzzzzzzzzc" />
      <circle
         style="color:#000000;clip-rule:nonzero;display:inline;overflow:visible;visibility:visible;opacity:1;isolation:auto;mix-blend-mode:normal;color-interpolation:sRGB;color-interpolation-filters:linearRGB;solid-color:#000000;solid-opacity:1;fill:none;fill-opacity:1;fill-rule:evenodd;stroke:#000000;stroke-width:6.25;stroke-linecap:butt;stroke-linejoin:miter;stroke-miterlimit:4;stroke-dasharray:none;stroke-dashoffset:0;stroke-opacity:1;color-rendering:auto;image-rendering:auto;shape-rendering:auto;text-rendering:auto;enable-background:accumulate"
         id="path9898"
         cx="1691.4623"
         cy="617.51544"
         r="12.347263"
         transform="matrix(0.98812973,-0.15362173,0.15362173,0.98812973,0,0)" />
    </g>
    <path
       style="font-style:normal;font-variant:normal;font-weight:normal;font-stretch:normal;letter-spacing:normal;word-spacing:normal;text-anchor:start;fill:#000000;fill-opacity:1;fill-rule:evenodd;stroke:#696969;stroke-width:0;stroke-linecap:butt;stroke-linejoin:miter;stroke-miterlimit:10.43299961;stroke-dasharray:none;stroke-dashoffset:0;stroke-opacity:1"
       inkscape:connector-curvature="0"
       d="m 918.18639,441.12672 -0.0241,0.12054 -0.0322,0.12053 -0.0241,0.1125 -0.0241,0.10446 -0.0322,0.10446 -0.0241,0.0884 -0.0322,0.0964 -0.0241,0.0804 -0.0322,0.0804 -0.0322,0.0723 -0.0322,0.0723 -0.0402,0.0643 -0.0402,0.0562 -0.0402,0.0562 -0.0482,0.0563 -0.0482,0.0482 -0.0562,0.0402 -0.0562,0.0402 -0.0643,0.0321 -0.0723,0.0322 -0.0723,0.0322 -0.0803,0.0241 -0.0884,0.0241 -0.0964,0.0161 -0.10446,0.0161 -0.0482,0.008 -0.0562,0.008 -0.0563,0.008 -0.0643,0.008 -0.0562,0 -0.0643,0.008 -0.0643,0 -0.0723,0.008 -0.0643,0 -0.0723,0 -0.0804,0 -0.0723,0 -0.0804,0.008 -0.0803,0 c -0.48214,0 -0.91606,0 -0.91606,0.74731 0,0.32946 0.20089,0.49017 0.51428,0.49017 1.09284,0 2.24192,-0.12053 3.35887,-0.12053 1.31783,0 2.69191,0.12053 3.96957,0.12053 0.20089,0 0.71516,0 0.71516,-0.80356 0,-0.43392 -0.40177,-0.43392 -0.95623,-0.43392 -2.00889,0 -2.00889,-0.28928 -2.00889,-0.64284 0,-0.49017 1.68747,-7.00702 1.97675,-8.01147 0.51428,1.15713 1.63122,2.56335 3.68029,2.56335 l -0.0402,-0.88391 c -2.65174,0 -3.16601,-3.32673 -3.16601,-3.55976 0,-0.0804 0,-0.16875 0.1125,-0.64284 l 1.97675,-7.85076 c 0.27321,-1.07676 1.34997,-2.19371 2.06514,-2.79637 1.40622,-1.24552 2.57942,-1.51873 3.2544,-1.51873 1.59105,0 2.56335,1.39016 2.56335,3.76868 0,2.35443 -1.31783,6.95077 -2.04907,8.48557 -1.35801,2.79638 -3.27851,4.11421 -4.75706,4.11421 l 0.0402,0.88391 c 4.64456,0 9.64268,-5.84186 9.64268,-11.73193 0,-3.76065 -2.27406,-6.39631 -5.32758,-6.39631 -1.99282,0 -3.91332,1.43033 -5.23115,2.99726 -0.40178,-2.16157 -2.12943,-2.99726 -3.60798,-2.99726 -1.84818,0 -2.61156,1.55086 -2.96512,2.26603 -0.7232,1.37408 -1.23748,3.76868 -1.23748,3.89725 0,0.40178 0.40178,0.40178 0.4741,0.40178 0.40178,0 0.44196,-0.0563 0.67499,-0.93213 0.69106,-2.83656 1.48658,-4.75706 2.92495,-4.75706 0.68302,0 1.24551,0.31339 1.24551,1.83211 0,0.93213 -0.12054,1.36605 -0.27321,2.04907 z"
       id="path13270" />
    <path
       inkscape:connector-curvature="0"
       id="path30185"
       d="m 485.85765,375.89555 4.03053,155.71185"
       style="font-style:normal;font-variant:normal;font-weight:normal;font-stretch:normal;letter-spacing:normal;word-spacing:normal;text-anchor:start;fill:#696969;fill-opacity:1;fill-rule:evenodd;stroke:#696969;stroke-width:3.75000048;stroke-linecap:butt;stroke-linejoin:miter;stroke-miterlimit:10.43299961;stroke-dasharray:11.25000101, 3.75000034;stroke-dashoffset:0;stroke-opacity:1" />
    <path
       inkscape:connector-curvature="0"
       id="path30187"
       d="M 485.85767,375.89555 297.3544,803.99725"
       style="font-style:normal;font-variant:normal;font-weight:normal;font-stretch:normal;letter-spacing:normal;word-spacing:normal;text-anchor:start;fill:#696969;fill-opacity:1;fill-rule:evenodd;stroke:#696969;stroke-width:3.75000048;stroke-linecap:butt;stroke-linejoin:miter;stroke-miterlimit:10.43299961;stroke-dasharray:7.50000067, 3.75000034;stroke-dashoffset:0;stroke-opacity:1" />
    <path
       inkscape:connector-curvature="0"
       id="path30189"
       d="M 485.85765,375.89555 301.38476,959.70903"
       style="font-style:normal;font-variant:normal;font-weight:normal;font-stretch:normal;letter-spacing:normal;word-spacing:normal;text-anchor:start;fill:#696969;fill-opacity:1;fill-rule:evenodd;stroke:#696969;stroke-width:3.75000048;stroke-linecap:butt;stroke-linejoin:miter;stroke-miterlimit:10.43299961;stroke-dasharray:7.50000067, 3.75000034;stroke-dashoffset:0;stroke-opacity:1" />
    <ellipse
       cy="803.99725"
       cx="297.3544"
       id="path8070-9"
       style="color:#000000;clip-rule:nonzero;display:inline;overflow:visible;visibility:visible;opacity:1;isolation:auto;mix-blend-mode:normal;color-interpolation:sRGB;color-interpolation-filters:linearRGB;solid-color:#000000;solid-opacity:1;fill:none;fill-opacity:1;fill-rule:evenodd;stroke:#000000;stroke-width:6.25;stroke-linecap:butt;stroke-linejoin:miter;stroke-miterlimit:4;stroke-dasharray:none;stroke-dashoffset:0;stroke-opacity:1;color-rendering:auto;image-rendering:auto;shape-rendering:auto;text-rendering:auto;enable-background:accumulate"
       rx="12.398999"
       ry="12.399" />
    <ellipse
       cy="959.70911"
       cx="301.38477"
       id="path8070-3-4-6-3"
       style="color:#000000;clip-rule:nonzero;display:inline;overflow:visible;visibility:visible;opacity:1;isolation:auto;mix-blend-mode:normal;color-interpolation:sRGB;color-interpolation-filters:linearRGB;solid-color:#000000;solid-opacity:1;fill:none;fill-opacity:1;fill-rule:evenodd;stroke:#000000;stroke-width:6.25;stroke-linecap:butt;stroke-linejoin:miter;stroke-miterlimit:4;stroke-dasharray:none;stroke-dashoffset:0;stroke-opacity:1;color-rendering:auto;image-rendering:auto;shape-rendering:auto;text-rendering:auto;enable-background:accumulate"
       rx="12.398999"
       ry="12.399" />
    <path
       inkscape:connector-curvature="0"
       id="path29557"
       d="M 485.85765,375.89556 1387.0376,554.89214 489.88801,531.6074"
       style="fill:none;fill-rule:evenodd;stroke:#0000ff;stroke-width:3.75000024;stroke-linecap:butt;stroke-linejoin:miter;stroke-miterlimit:4;stroke-dasharray:none;stroke-opacity:1" />
    <path
       inkscape:connector-curvature="0"
       id="path29559"
       d="M 297.35439,803.9972 1387.0376,554.89214 301.38476,959.70903"
       style="fill:none;fill-rule:evenodd;stroke:#000000;stroke-width:3.75000024;stroke-linecap:butt;stroke-linejoin:miter;stroke-miterlimit:4;stroke-dasharray:none;stroke-opacity:1" />
    <g
       transform="translate(909.07819,-34.998816)"
       id="g31227">
      <g
         style="font-style:normal;font-variant:normal;font-weight:normal;font-stretch:normal;letter-spacing:normal;word-spacing:normal;text-anchor:start;fill:none;fill-opacity:1;fill-rule:evenodd;stroke:#000000;stroke-linecap:butt;stroke-linejoin:miter;stroke-miterlimit:10.43299961;stroke-dasharray:none;stroke-dashoffset:0;stroke-opacity:1"
         id="g31229"
         transform="matrix(1.6071141,0,0,-1.6071141,-281.24497,1182.7368)"
         xml:space="preserve"
         stroke-miterlimit="10.433"
         font-style="normal"
         font-variant="normal"
         font-weight="normal"
         font-stretch="normal"
         font-size-adjust="none"
         letter-spacing="normal"
         word-spacing="normal"><path
           style="fill:#000000;stroke-width:0"
           inkscape:connector-curvature="0"
           d="m 466.47,408.14 0.21,-0.16 0.2,-0.15 0.2,-0.15 0.2,-0.14 0.21,-0.13 0.2,-0.12 0.2,-0.12 0.2,-0.11 0.21,-0.11 0.2,-0.1 0.2,-0.09 0.2,-0.09 0.2,-0.09 0.21,-0.07 0.2,-0.07 0.2,-0.07 0.2,-0.06 0.2,-0.06 0.4,-0.1 0.4,-0.08 0.39,-0.06 0.4,-0.05 0.39,-0.03 0.39,-0.02 0.38,-0.01 -0.54,1.8 c -0.71,0 -3.05,0 -5.28,2.69 -0.57,0.64 -0.57,0.68 -0.57,1.64 l 0,10.56 c 0,0.95 0.07,1 0.75,1.69 2,2.04 4.6,2.34 5.69,2.34 3.33,0 6.13,-3.03 6.13,-9.31 0,-7.03 -3.49,-9.61 -6.72,-9.61 l 0.54,-1.8 c 7.47,0 12.55,4.49 12.55,11.41 0,6.62 -4.53,11.31 -11.7,11.31 -3.74,0 -6.38,-1.55 -7.53,-2.44 l 0,2.44 -8.82,-0.41 0,-2.34 c 3.1,0 3.44,0 3.44,-1.89 l 0,-25.11 -3.44,0 0,-2.34 c 1.39,0.06 4.39,0.15 6.28,0.15 1.94,0 4.88,-0.09 6.27,-0.15 l 0,2.34 -3.44,0 z"
           id="path31231" /></g>    </g>
    <g
       id="g34200"
       transform="matrix(2,0,0,2,-74.517569,-782.79624)">
      <g
         word-spacing="normal"
         letter-spacing="normal"
         font-size-adjust="none"
         font-stretch="normal"
         font-weight="normal"
         font-variant="normal"
         font-style="normal"
         stroke-miterlimit="10.433"
         xml:space="preserve"
         transform="matrix(0.96982152,0,0,-0.96982152,-169.71877,1084.0767)"
         id="g34202"
         style="font-style:normal;font-variant:normal;font-weight:normal;font-stretch:normal;letter-spacing:normal;word-spacing:normal;text-anchor:start;fill:none;fill-opacity:1;fill-rule:evenodd;stroke:#000000;stroke-linecap:butt;stroke-linejoin:miter;stroke-miterlimit:10.43299961;stroke-dasharray:none;stroke-dashoffset:0;stroke-opacity:1"><path
           id="path34204"
           d="m 465.63,423 0,5.62 -8.27,-0.41 0,-2.34 c 3.1,0 3.44,0 3.44,-1.94 l 0,-15.39 -3.44,0 0,-2.34 c 1.75,0.05 3.99,0.16 6.28,0.16 1.9,0 5.08,0 6.88,-0.16 l 0,2.34 -4.34,0 0,8.72 c 0,3.49 1.25,9.56 6.23,9.56 -0.05,-0.04 -0.95,-0.84 -0.95,-2.29 0,-2.03 1.59,-3.03 3.04,-3.03 1.44,0 3.04,1.04 3.04,3.03 0,2.64 -2.69,4.09 -5.29,4.09 -3.48,0 -5.46,-2.5 -6.62,-5.62 z"
           inkscape:connector-curvature="0"
           style="fill:#000000;stroke-width:0" /><path
           id="path34206"
           d="m 488.29,420.12 -0.01,0.16 -0.01,0.15 -0.02,0.15 -0.03,0.14 -0.03,0.15 -0.04,0.14 -0.05,0.13 -0.05,0.13 -0.06,0.13 -0.06,0.12 -0.08,0.12 -0.07,0.12 -0.08,0.11 -0.09,0.11 -0.09,0.1 -0.1,0.1 -0.1,0.09 -0.1,0.09 -0.11,0.08 -0.11,0.08 -0.11,0.07 -0.12,0.06 -0.12,0.06 -0.12,0.06 -0.13,0.05 -0.13,0.04 -0.13,0.04 -0.13,0.03 -0.13,0.02 -0.14,0.02 -0.13,0.01 -0.14,0 c -1.67,0 -2.86,-1.36 -2.86,-2.83 0,-1.67 1.36,-2.86 2.82,-2.86 1.67,0 2.86,1.36 2.86,2.83 z"
           inkscape:connector-curvature="0"
           style="fill:#000000;stroke-width:0" /><path
           id="path34208"
           d="m 481.6,414.17 0,-1.96 c 1.98,0 2.23,0 2.23,-1.35 l 0,-10.15 -2.34,0 0,-1.95 c 0.08,0 2.83,0.14 4.39,0.14 1.44,0 2.83,-0.03 4.25,-0.14 l 0,1.95 -2.13,0 0,13.74 z"
           inkscape:connector-curvature="0"
           style="fill:#000000;stroke-width:0" /></g>    </g>
    <g
       id="g34411"
       transform="matrix(2,0,0,2,-318.55933,-469.75158)">
      <g
         id="g34413"
         transform="matrix(0.96982152,0,0,-0.96982152,-169.71877,1084.0767)"
         xml:space="preserve"
         stroke-miterlimit="10.433"
         font-style="normal"
         font-variant="normal"
         font-weight="normal"
         font-stretch="normal"
         font-size-adjust="none"
         letter-spacing="normal"
         word-spacing="normal"
         style="font-style:normal;font-variant:normal;font-weight:normal;font-stretch:normal;letter-spacing:normal;word-spacing:normal;text-anchor:start;fill:none;fill-opacity:1;fill-rule:evenodd;stroke:#000000;stroke-linecap:butt;stroke-linejoin:miter;stroke-miterlimit:10.43299961;stroke-dasharray:none;stroke-dashoffset:0;stroke-opacity:1"><path
           d="m 465.63,423 0,5.62 -8.27,-0.41 0,-2.34 c 3.1,0 3.44,0 3.44,-1.94 l 0,-15.39 -3.44,0 0,-2.34 c 1.75,0.05 3.99,0.16 6.28,0.16 1.9,0 5.08,0 6.88,-0.16 l 0,2.34 -4.34,0 0,8.72 c 0,3.49 1.25,9.56 6.23,9.56 -0.05,-0.04 -0.95,-0.84 -0.95,-2.29 0,-2.03 1.59,-3.03 3.04,-3.03 1.44,0 3.04,1.04 3.04,3.03 0,2.64 -2.69,4.09 -5.29,4.09 -3.48,0 -5.46,-2.5 -6.62,-5.62 z"
           id="path34415"
           inkscape:connector-curvature="0"
           style="fill:#000000;stroke-width:0" /><path
           d="m 489.75,420.12 0,0.16 -0.01,0.15 -0.02,0.15 -0.03,0.14 -0.03,0.15 -0.04,0.14 -0.05,0.13 -0.05,0.13 -0.06,0.13 -0.07,0.12 -0.07,0.12 -0.07,0.12 -0.09,0.11 -0.08,0.11 -0.09,0.1 -0.1,0.1 -0.1,0.09 -0.1,0.09 -0.11,0.08 -0.11,0.08 -0.12,0.07 -0.12,0.06 -0.12,0.06 -0.12,0.06 -0.13,0.05 -0.13,0.04 -0.13,0.04 -0.13,0.03 -0.13,0.02 -0.14,0.02 -0.14,0.01 -0.13,0 c -1.68,0 -2.86,-1.36 -2.86,-2.83 0,-1.67 1.36,-2.86 2.82,-2.86 1.68,0 2.86,1.36 2.86,2.83 z"
           id="path34417"
           inkscape:connector-curvature="0"
           style="fill:#000000;stroke-width:0" /><path
           d="m 482.99,414.17 0,-1.96 c 2.3,0 2.58,0 2.58,-1.39 l 0,-13.31 c 0,-2.34 -1,-4.11 -2.86,-4.11 -0.13,0 -1.17,0.06 -1.17,0.17 0,0.07 0.06,0.18 0.14,0.29 0.09,0.09 0.4,0.62 0.4,1.39 0,1.42 -1.08,2.4 -2.4,2.4 -1.46,0 -2.44,-1.08 -2.44,-2.4 0,-2.41 2.55,-3.46 5.51,-3.46 3.13,0 7,1.67 7,5.64 l 0,17.02 z"
           id="path34419"
           inkscape:connector-curvature="0"
           style="fill:#000000;stroke-width:0" /></g>    </g>
    <g
       id="g34617"
       transform="matrix(2,0,0,2,-84.470164,-1022.7698)">
      <g
         word-spacing="normal"
         letter-spacing="normal"
         font-size-adjust="none"
         font-stretch="normal"
         font-weight="normal"
         font-variant="normal"
         font-style="normal"
         stroke-miterlimit="10.433"
         xml:space="preserve"
         transform="matrix(0.96982152,0,0,-0.96982152,-169.71877,1084.0767)"
         id="g34619"
         style="font-style:normal;font-variant:normal;font-weight:normal;font-stretch:normal;letter-spacing:normal;word-spacing:normal;text-anchor:start;fill:none;fill-opacity:1;fill-rule:evenodd;stroke:#000000;stroke-linecap:butt;stroke-linejoin:miter;stroke-miterlimit:10.43299961;stroke-dasharray:none;stroke-dashoffset:0;stroke-opacity:1"><path
           id="path34621"
           d="m 460.64,425.98 0,-13.66 c 0,-5.32 4.35,-6.42 7.88,-6.42 3.8,0 6.03,2.85 6.03,6.47 l 0,2.64 -2.34,0 0,-2.53 c 0,-3.39 -1.6,-4.59 -2.99,-4.59 -2.89,0 -2.89,3.18 -2.89,4.34 l 0,13.75 7.27,0 0,2.34 -7.27,0 0,9.52 -2.34,0 c -0.05,-4.98 -2.49,-9.92 -7.42,-10.06 l 0,-1.8 z"
           inkscape:connector-curvature="0"
           style="fill:#000000;stroke-width:0" /><path
           id="path34623"
           d="m 486.96,420.12 0,0.16 -0.01,0.15 -0.02,0.15 -0.03,0.14 -0.03,0.15 -0.04,0.14 -0.05,0.13 -0.05,0.13 -0.06,0.13 -0.06,0.12 -0.08,0.12 -0.07,0.12 -0.08,0.11 -0.09,0.11 -0.09,0.1 -0.1,0.1 -0.1,0.09 -0.1,0.09 -0.11,0.08 -0.11,0.08 -0.11,0.07 -0.12,0.06 -0.12,0.06 -0.13,0.06 -0.12,0.05 -0.13,0.04 -0.13,0.04 -0.13,0.03 -0.13,0.02 -0.14,0.02 -0.13,0.01 -0.14,0 c -1.67,0 -2.86,-1.36 -2.86,-2.83 0,-1.67 1.36,-2.86 2.82,-2.86 1.67,0 2.85,1.36 2.85,2.83 z"
           inkscape:connector-curvature="0"
           style="fill:#000000;stroke-width:0" /><path
           id="path34625"
           d="m 480.28,414.17 0,-1.96 c 1.98,0 2.23,0 2.23,-1.35 l 0,-10.15 -2.34,0 0,-1.95 c 0.08,0 2.83,0.14 4.39,0.14 1.44,0 2.83,-0.03 4.25,-0.14 l 0,1.95 -2.13,0 0,13.74 z"
           inkscape:connector-curvature="0"
           style="fill:#000000;stroke-width:0" /></g>    </g>
    <g
       id="g34833"
       transform="matrix(2,0,0,2,-314.11117,-633.74678)">
      <g
         id="g34835"
         transform="matrix(0.96982152,0,0,-0.96982152,-169.71877,1084.0767)"
         xml:space="preserve"
         stroke-miterlimit="10.433"
         font-style="normal"
         font-variant="normal"
         font-weight="normal"
         font-stretch="normal"
         font-size-adjust="none"
         letter-spacing="normal"
         word-spacing="normal"
         style="font-style:normal;font-variant:normal;font-weight:normal;font-stretch:normal;letter-spacing:normal;word-spacing:normal;text-anchor:start;fill:none;fill-opacity:1;fill-rule:evenodd;stroke:#000000;stroke-linecap:butt;stroke-linejoin:miter;stroke-miterlimit:10.43299961;stroke-dasharray:none;stroke-dashoffset:0;stroke-opacity:1"><path
           d="m 460.64,425.98 0,-13.66 c 0,-5.32 4.35,-6.42 7.88,-6.42 3.8,0 6.03,2.85 6.03,6.47 l 0,2.64 -2.34,0 0,-2.53 c 0,-3.39 -1.6,-4.59 -2.99,-4.59 -2.89,0 -2.89,3.18 -2.89,4.34 l 0,13.75 7.27,0 0,2.34 -7.27,0 0,9.52 -2.34,0 c -0.05,-4.98 -2.49,-9.92 -7.42,-10.06 l 0,-1.8 z"
           id="path34837"
           inkscape:connector-curvature="0"
           style="fill:#000000;stroke-width:0" /><path
           d="m 488.43,420.12 0,0.16 -0.01,0.15 -0.02,0.15 -0.03,0.14 -0.03,0.15 -0.04,0.14 -0.05,0.13 -0.05,0.13 -0.06,0.13 -0.07,0.12 -0.07,0.12 -0.07,0.12 -0.09,0.11 -0.08,0.11 -0.09,0.1 -0.1,0.1 -0.1,0.09 -0.1,0.09 -0.11,0.08 -0.11,0.08 -0.12,0.07 -0.12,0.06 -0.12,0.06 -0.12,0.06 -0.13,0.05 -0.13,0.04 -0.13,0.04 -0.13,0.03 -0.14,0.02 -0.13,0.02 -0.14,0.01 -0.13,0 c -1.68,0 -2.86,-1.36 -2.86,-2.83 0,-1.67 1.36,-2.86 2.82,-2.86 1.68,0 2.86,1.36 2.86,2.83 z"
           id="path34839"
           inkscape:connector-curvature="0"
           style="fill:#000000;stroke-width:0" /><path
           d="m 481.67,414.17 0,-1.96 c 2.29,0 2.58,0 2.58,-1.39 l 0,-13.31 c 0,-2.34 -1,-4.11 -2.86,-4.11 -0.13,0 -1.18,0.06 -1.18,0.17 0,0.07 0.07,0.18 0.15,0.29 0.09,0.09 0.4,0.62 0.4,1.39 0,1.42 -1.08,2.4 -2.4,2.4 -1.46,0 -2.44,-1.08 -2.44,-2.4 0,-2.41 2.54,-3.46 5.51,-3.46 3.13,0 7,1.67 7,5.64 l 0,17.02 z"
           id="path34841"
           inkscape:connector-curvature="0"
           style="fill:#000000;stroke-width:0" /></g>    </g>
    <g
       id="g35059"
       transform="translate(229.82122,-222.40763)">
      <g
         word-spacing="normal"
         letter-spacing="normal"
         font-size-adjust="none"
         font-stretch="normal"
         font-weight="normal"
         font-variant="normal"
         font-style="normal"
         stroke-miterlimit="10.433"
         xml:space="preserve"
         transform="matrix(0.96982152,0,0,-0.96982152,-169.71877,1084.0767)"
         id="g35061"
         style="font-style:normal;font-variant:normal;font-weight:normal;font-stretch:normal;letter-spacing:normal;word-spacing:normal;text-anchor:start;fill:none;fill-opacity:1;fill-rule:evenodd;stroke:#000000;stroke-linecap:butt;stroke-linejoin:miter;stroke-miterlimit:10.43299961;stroke-dasharray:none;stroke-dashoffset:0;stroke-opacity:1"><path
           id="path35063"
           d="m 466.18,426.18 0,14.6 -8.82,-0.41 0,-2.34 c 3.1,0 3.44,0 3.44,-1.94 l 0,-29.89 2.34,0 2.44,2.8 c 0.41,-0.41 2.85,-3.1 7.28,-3.1 l -0.45,1.8 c -3.48,0 -5.44,2.69 -5.94,3.44 l 0,0 0,12.5 c 1.36,1.75 3.75,3.18 6.49,3.18 6.08,0 6.08,-6.03 6.08,-9.51 0,-2.35 0,-5.08 -1.3,-7.03 -1.44,-2.03 -3.74,-2.58 -5.33,-2.58 l 0.45,-1.8 c 7.43,0 12.55,4.49 12.55,11.41 0,6.62 -4.69,11.31 -11.91,11.31 -3.64,0 -6.12,-1.45 -7.32,-2.44 z"
           inkscape:connector-curvature="0"
           style="fill:#000000;stroke-width:0" /><path
           id="path35065"
           d="m 495.76,406.07 0,0.3 0.01,0.3 0.03,0.29 0.03,0.3 0.03,0.3 0.05,0.29 0.06,0.29 0.06,0.29 0.07,0.29 0.08,0.28 0.09,0.28 0.1,0.27 0.11,0.27 0.12,0.25 0.13,0.26 0.13,0.24 0.15,0.24 0.15,0.22 0.16,0.22 0.18,0.2 0.18,0.2 0.19,0.18 0.2,0.17 0.21,0.15 0.22,0.14 0.23,0.13 0.24,0.11 0.25,0.1 0.26,0.08 0.27,0.06 0.28,0.04 0.29,0.03 c -0.03,-0.03 -0.48,-0.63 -0.48,-1.5 0,-1.36 0.96,-2.38 2.36,-2.38 1.39,0 2.37,1.02 2.37,2.38 0,1.92 -1.95,3.11 -4.11,3.11 -2.51,0 -4.19,-1.69 -5.12,-3.84 l -0.04,0 0,3.84 -6.06,-0.28 0,-1.96 c 2.05,0 2.33,0 2.33,-1.35 l 0,-10.15 -2.33,0 0,-1.95 c 0.14,0 2.81,0.14 4.46,0.14 1.35,0 4.73,-0.14 4.98,-0.14 l 0,1.95 -2.92,0 z"
           inkscape:connector-curvature="0"
           style="fill:#000000;stroke-width:0" /><path
           id="path35067"
           d="m 513.56,408.53 0,0.11 -0.01,0.12 -0.01,0.11 -0.02,0.1 -0.03,0.11 -0.03,0.1 -0.03,0.1 -0.04,0.1 -0.04,0.1 -0.05,0.09 -0.05,0.09 -0.06,0.08 -0.06,0.09 -0.06,0.08 -0.07,0.08 -0.07,0.07 -0.08,0.07 -0.08,0.06 -0.08,0.07 -0.08,0.06 -0.09,0.05 -0.09,0.05 -0.09,0.05 -0.1,0.04 -0.09,0.04 -0.1,0.03 -0.1,0.03 -0.1,0.02 -0.11,0.02 -0.1,0.01 -0.11,0.01 -0.11,0 c -1.17,0 -2.14,-0.97 -2.14,-2.14 0,-1.17 0.95,-2.14 2.14,-2.14 1.16,0 2.14,0.92 2.14,2.14 z"
           inkscape:connector-curvature="0"
           style="fill:#000000;stroke-width:0" /><path
           id="path35069"
           d="m 508.52,404.42 0,-1.67 c 1.54,0 1.71,0 1.71,-0.97 l 0,-6.75 -1.79,0 0,-1.67 c 1.09,0.08 2.22,0.09 3.31,0.09 1.08,0 2.14,-0.01 3.22,-0.09 l 0,1.67 -1.63,0 0,9.59 z"
           inkscape:connector-curvature="0"
           style="fill:#000000;stroke-width:0" /></g>    </g>
    <g
       id="g35299"
       transform="translate(128.17396,13.344458)">
      <g
         id="g35301"
         transform="matrix(0.96982152,0,0,-0.96982152,-169.71877,1084.0767)"
         xml:space="preserve"
         stroke-miterlimit="10.433"
         font-style="normal"
         font-variant="normal"
         font-weight="normal"
         font-stretch="normal"
         font-size-adjust="none"
         letter-spacing="normal"
         word-spacing="normal"
         style="font-style:normal;font-variant:normal;font-weight:normal;font-stretch:normal;letter-spacing:normal;word-spacing:normal;text-anchor:start;fill:none;fill-opacity:1;fill-rule:evenodd;stroke:#000000;stroke-linecap:butt;stroke-linejoin:miter;stroke-miterlimit:10.43299961;stroke-dasharray:none;stroke-dashoffset:0;stroke-opacity:1"><path
           d="m 466.18,426.18 0,14.6 -8.82,-0.41 0,-2.34 c 3.1,0 3.44,0 3.44,-1.94 l 0,-29.89 2.34,0 2.44,2.8 c 0.41,-0.41 2.85,-3.1 7.28,-3.1 l -0.45,1.8 c -3.48,0 -5.44,2.69 -5.94,3.44 l 0,0 0,12.5 c 1.36,1.75 3.75,3.18 6.49,3.18 6.08,0 6.08,-6.03 6.08,-9.51 0,-2.35 0,-5.08 -1.3,-7.03 -1.44,-2.03 -3.74,-2.58 -5.33,-2.58 l 0.45,-1.8 c 7.43,0 12.55,4.49 12.55,11.41 0,6.62 -4.69,11.31 -11.91,11.31 -3.64,0 -6.12,-1.45 -7.32,-2.44 z"
           id="path35303"
           inkscape:connector-curvature="0"
           style="fill:#000000;stroke-width:0" /><path
           d="m 495.76,406.07 0,0.3 0.01,0.3 0.03,0.29 0.03,0.3 0.03,0.3 0.05,0.29 0.06,0.29 0.06,0.29 0.07,0.29 0.08,0.28 0.09,0.28 0.1,0.27 0.11,0.27 0.12,0.25 0.13,0.26 0.13,0.24 0.15,0.24 0.15,0.22 0.16,0.22 0.18,0.2 0.18,0.2 0.19,0.18 0.2,0.17 0.21,0.15 0.22,0.14 0.23,0.13 0.24,0.11 0.25,0.1 0.26,0.08 0.27,0.06 0.28,0.04 0.29,0.03 c -0.03,-0.03 -0.48,-0.63 -0.48,-1.5 0,-1.36 0.96,-2.38 2.36,-2.38 1.39,0 2.37,1.02 2.37,2.38 0,1.92 -1.95,3.11 -4.11,3.11 -2.51,0 -4.19,-1.69 -5.12,-3.84 l -0.04,0 0,3.84 -6.06,-0.28 0,-1.96 c 2.05,0 2.33,0 2.33,-1.35 l 0,-10.15 -2.33,0 0,-1.95 c 0.14,0 2.81,0.14 4.46,0.14 1.35,0 4.73,-0.14 4.98,-0.14 l 0,1.95 -2.92,0 z"
           id="path35305"
           inkscape:connector-curvature="0"
           style="fill:#000000;stroke-width:0" /><path
           d="m 514.73,408.53 0,0.11 -0.01,0.11 -0.01,0.1 -0.02,0.11 -0.02,0.1 -0.03,0.1 -0.04,0.1 -0.04,0.1 -0.04,0.09 -0.05,0.1 -0.05,0.09 -0.05,0.08 -0.06,0.09 -0.07,0.08 -0.07,0.08 -0.07,0.07 -0.07,0.07 -0.08,0.07 -0.08,0.06 -0.08,0.06 -0.09,0.06 -0.09,0.05 -0.09,0.05 -0.1,0.04 -0.09,0.04 -0.1,0.03 -0.1,0.03 -0.11,0.03 -0.1,0.02 -0.11,0.01 -0.11,0.01 -0.11,0 c -1.17,0 -2.14,-0.97 -2.14,-2.14 0,-1.17 0.97,-2.14 2.14,-2.14 1.18,0 2.14,0.97 2.14,2.14 z"
           id="path35307"
           inkscape:connector-curvature="0"
           style="fill:#000000;stroke-width:0" /><path
           d="m 509.66,404.42 0,-1.67 c 0.45,0 1.04,0 1.42,-0.08 0.54,-0.09 0.54,-0.39 0.54,-0.92 l 0,-9.19 c 0,-1.94 -1.17,-2.84 -2.31,-2.84 -0.12,0 -0.95,0.05 -0.95,0.16 0,0.01 0.03,0.04 0.03,0.07 0.2,0.35 0.27,0.64 0.27,1.02 0,1.09 -0.8,1.87 -1.86,1.87 -1.1,0 -1.88,-0.79 -1.88,-1.87 0,-1.77 1.83,-2.64 4.27,-2.64 2.61,0 5.54,1.22 5.54,4.15 l 0,12.14 z"
           id="path35309"
           inkscape:connector-curvature="0"
           style="fill:#000000;stroke-width:0" /></g>    </g>
    <g
       id="g35551"
       transform="translate(49.909396,-115.65197)">
      <g
         word-spacing="normal"
         letter-spacing="normal"
         font-size-adjust="none"
         font-stretch="normal"
         font-weight="normal"
         font-variant="normal"
         font-style="normal"
         stroke-miterlimit="10.433"
         xml:space="preserve"
         transform="matrix(0.96982152,0,0,-0.96982152,-169.71877,1084.0767)"
         id="g35553"
         style="font-style:normal;font-variant:normal;font-weight:normal;font-stretch:normal;letter-spacing:normal;word-spacing:normal;text-anchor:start;fill:none;fill-opacity:1;fill-rule:evenodd;stroke:#000000;stroke-linecap:butt;stroke-linejoin:miter;stroke-miterlimit:10.43299961;stroke-dasharray:none;stroke-dashoffset:0;stroke-opacity:1"><path
           id="path35555"
           d="m 466.18,426.18 0,14.6 -8.82,-0.41 0,-2.34 c 3.1,0 3.44,0 3.44,-1.94 l 0,-29.89 2.34,0 2.44,2.8 c 0.41,-0.41 2.85,-3.1 7.28,-3.1 l -0.45,1.8 c -3.48,0 -5.44,2.69 -5.94,3.44 l 0,0 0,12.5 c 1.36,1.75 3.75,3.18 6.49,3.18 6.08,0 6.08,-6.03 6.08,-9.51 0,-2.35 0,-5.08 -1.3,-7.03 -1.44,-2.03 -3.74,-2.58 -5.33,-2.58 l 0.45,-1.8 c 7.43,0 12.55,4.49 12.55,11.41 0,6.62 -4.69,11.31 -11.91,11.31 -3.64,0 -6.12,-1.45 -7.32,-2.44 z"
           inkscape:connector-curvature="0"
           style="fill:#000000;stroke-width:0" /><path
           id="path35557"
           d="m 495.85,412.28 5.69,0 0,1.95 -5.69,0 0,6.66 -2.19,0 c -0.03,-3.24 -1.67,-6.89 -5.37,-7 l 0,-1.61 3.14,0 0,-9.3 c 0,-3.45 2.83,-4.42 5.86,-4.42 2.75,0 4.98,1.59 4.98,4.42 l 0,1.81 -2.2,0 0,-1.67 c 0,-2.41 -1.45,-2.8 -2.16,-2.8 -2.01,0 -2.06,1.72 -2.06,2.66 z"
           inkscape:connector-curvature="0"
           style="fill:#000000;stroke-width:0" /><path
           id="path35559"
           d="m 513.77,408.53 0,0.11 -0.01,0.11 -0.01,0.1 -0.02,0.11 -0.02,0.1 -0.03,0.1 -0.04,0.1 -0.04,0.1 -0.04,0.09 -0.05,0.1 -0.05,0.09 -0.06,0.08 -0.06,0.09 -0.06,0.08 -0.07,0.08 -0.07,0.07 -0.07,0.07 -0.08,0.07 -0.08,0.06 -0.08,0.06 -0.09,0.06 -0.09,0.05 -0.09,0.05 -0.1,0.04 -0.1,0.04 -0.09,0.03 -0.11,0.03 -0.1,0.03 -0.1,0.02 -0.11,0.01 -0.11,0.01 -0.11,0 c -1.17,0 -2.14,-0.97 -2.14,-2.14 0,-1.17 0.97,-2.14 2.14,-2.14 1.17,0 2.14,0.97 2.14,2.14 z"
           inkscape:connector-curvature="0"
           style="fill:#000000;stroke-width:0" /><path
           id="path35561"
           d="m 508.7,404.42 0,-1.67 c 0.45,0 1.04,0 1.42,-0.08 0.54,-0.09 0.54,-0.39 0.54,-0.92 l 0,-9.19 c 0,-1.94 -1.17,-2.84 -2.31,-2.84 -0.12,0 -0.95,0.05 -0.95,0.16 0,0.01 0.03,0.04 0.03,0.07 0.2,0.35 0.27,0.64 0.27,1.02 0,1.09 -0.8,1.87 -1.86,1.87 -1.1,0 -1.88,-0.79 -1.88,-1.87 0,-1.77 1.83,-2.64 4.27,-2.64 2.61,0 5.54,1.22 5.54,4.15 l 0,12.14 z"
           inkscape:connector-curvature="0"
           style="fill:#000000;stroke-width:0" /></g>    </g>
  </g>
</svg>
