<?xml version="1.0" encoding="UTF-8" standalone="no"?>
<!-- Created with Inkscape (http://www.inkscape.org/) -->

<svg
   xmlns:dc="http://purl.org/dc/elements/1.1/"
   xmlns:cc="http://creativecommons.org/ns#"
   xmlns:rdf="http://www.w3.org/1999/02/22-rdf-syntax-ns#"
   xmlns:svg="http://www.w3.org/2000/svg"
   xmlns="http://www.w3.org/2000/svg"
   xmlns:xlink="http://www.w3.org/1999/xlink"
   xmlns:sodipodi="http://sodipodi.sourceforge.net/DTD/sodipodi-0.dtd"
   xmlns:inkscape="http://www.inkscape.org/namespaces/inkscape"
   viewBox="0 0 868.98444 780.04223"
   inkscape:export-ydpi="90"
   inkscape:export-xdpi="90"
   inkscape:export-filename="/home/baffelli/PhD_work/Presentation_workshop/Drawings/fmcw.png"
   sodipodi:docname="fmcw.svg"
   inkscape:version="0.91+devel r"
   version="1.1"
   id="svg2"
   height="780.04224"
   width="868.98444">
  <sodipodi:namedview
     inkscape:snap-bbox-midpoints="true"
     inkscape:snap-bbox="true"
     inkscape:snap-center="true"
     inkscape:snap-global="false"
     inkscape:snap-object-midpoints="true"
     inkscape:locked="false"
     inkscape:guide-bbox="true"
     showguides="true"
     fit-margin-bottom="0"
     fit-margin-right="0"
     fit-margin-left="0"
     fit-margin-top="0"
     inkscape:window-maximized="1"
     inkscape:window-y="24"
     inkscape:window-x="1920"
     inkscape:window-height="1056"
     inkscape:window-width="1920"
     inkscape:snap-midpoints="true"
     inkscape:snap-smooth-nodes="true"
     inkscape:object-nodes="true"
     inkscape:snap-intersection-paths="true"
     inkscape:object-paths="true"
     showgrid="false"
     inkscape:current-layer="layer1"
     inkscape:document-units="px"
     inkscape:cy="390.93549"
     inkscape:cx="190.89918"
     inkscape:zoom="0.96435166"
     inkscape:pageshadow="2"
     inkscape:pageopacity="0.0"
     borderopacity="1.0"
     bordercolor="#666666"
     pagecolor="#ffffff"
     id="base">
    <sodipodi:guide
       position="603.16475,615.32319"
       orientation="0,1"
       id="guide5415"
       inkscape:locked="false" />
    <sodipodi:guide
       position="603.16475,465.37618"
       orientation="0,1"
       id="guide5417"
       inkscape:locked="false" />
    <sodipodi:guide
       position="411.08553,50.398047"
       orientation="0,1"
       id="guide6420"
       inkscape:locked="false" />
    <sodipodi:guide
       position="-888.3478,842.32733"
       orientation="-0.70710678,0.70710678"
       id="guide6422"
       inkscape:locked="false" />
    <sodipodi:guide
       position="73.532142,302.13776"
       orientation="1,0"
       id="guide6424"
       inkscape:locked="false" />
  </sodipodi:namedview>
  <defs
     id="defs4">
    <marker
       inkscape:stockid="TriangleOutM"
       orient="auto"
       refY="0"
       refX="0"
       id="TriangleOutM"
       style="overflow:visible"
       inkscape:isstock="true">
      <path
         inkscape:connector-curvature="0"
         id="path4982"
         d="m 5.77,0 -8.65,5 0,-10 z"
         style="fill:#000000;fill-opacity:1;fill-rule:evenodd;stroke:#000000;stroke-width:1pt;stroke-opacity:1"
         transform="scale(0.4,0.4)" />
    </marker>
    <marker
       inkscape:stockid="TriangleInM"
       orient="auto"
       refY="0"
       refX="0"
       id="TriangleInM"
       style="overflow:visible"
       inkscape:isstock="true">
      <path
         inkscape:connector-curvature="0"
         id="path4973"
         d="m 5.77,0 -8.65,5 0,-10 z"
         style="fill:#000000;fill-opacity:1;fill-rule:evenodd;stroke:#000000;stroke-width:1pt;stroke-opacity:1"
         transform="scale(-0.4,-0.4)" />
    </marker>
    <marker
       inkscape:stockid="StopL"
       orient="auto"
       refY="0"
       refX="0"
       id="StopL"
       style="overflow:visible">
      <path
         id="path12941"
         d="M 0,5.65 0,-5.65"
         style="fill:none;stroke:#000000;stroke-width:1pt"
         transform="scale(0.8,0.8)"
         inkscape:connector-curvature="0" />
    </marker>
  </defs>
  <metadata
     id="metadata7">
    <rdf:RDF>
      <cc:Work
         rdf:about="">
        <dc:format>image/svg+xml</dc:format>
        <dc:type
           rdf:resource="http://purl.org/dc/dcmitype/StillImage" />
        <dc:title></dc:title>
      </cc:Work>
    </rdf:RDF>
  </metadata>
  <g
     id="layer1"
     inkscape:groupmode="layer"
     inkscape:label="Layer 1"
     transform="translate(-16.359368,-285.09352)">
    <path
       inkscape:connector-curvature="0"
       id="path2985"
       d="m 26.092446,310.56288 c 0,296.98277 0,318.89133 0,318.89133 l 848.021114,0"
       style="fill:none;stroke:#000000;stroke-width:4;stroke-linecap:butt;stroke-linejoin:miter;stroke-miterlimit:4;stroke-dasharray:none;stroke-opacity:1;marker-start:url(#TriangleInM);marker-end:url(#TriangleOutM)" />
    <path
       inkscape:connector-curvature="0"
       d="m 285.80828,599.75957 259.71583,-149.94701 0,149.94701 m -519.431664,0 259.715834,-149.94701 0,149.94701"
       style="fill:none;stroke:#800080;stroke-width:3;stroke-linecap:butt;stroke-linejoin:miter;stroke-miterlimit:4;stroke-dasharray:none;stroke-opacity:1"
       id="path4408" />
    <path
       id="path4440"
       style="fill:none;stroke:#0000ff;stroke-width:3.00094488;stroke-linecap:butt;stroke-linejoin:miter;stroke-miterlimit:4;stroke-dasharray:none;stroke-opacity:1"
       d="m 359.80828,599.75957 259.71583,-149.94701 0,149.94701 m -519.43166,0 259.71583,-149.94701 0,149.94701"
       inkscape:connector-curvature="0" />
    <path
       style="opacity:1;fill:none;fill-opacity:1;stroke:#000000;stroke-width:2;stroke-linecap:butt;stroke-linejoin:miter;stroke-miterlimit:4;stroke-dasharray:none;stroke-dashoffset:0;stroke-opacity:1;marker-start:url(#StopL);marker-end:url(#StopL)"
       d="m 174.67435,512.61844 0,44.08125"
       id="path12766"
       inkscape:connector-curvature="0" />
    <g
       transform="translate(-102.81931,171.31992)"
       id="g13856">
      <g
         style="font-style:normal;font-variant:normal;font-weight:normal;font-stretch:normal;letter-spacing:normal;word-spacing:normal;text-anchor:start;fill:none;stroke:#000000;stroke-linecap:butt;stroke-linejoin:miter;stroke-miterlimit:10.43299961;stroke-dasharray:none;stroke-dashoffset:0;stroke-opacity:1"
         id="content"
         transform="matrix(1.0629921,0,0,-1.0629921,-195.89472,857.35952)"
         xml:space="preserve"
         stroke-miterlimit="10.433"
         font-style="normal"
         font-variant="normal"
         font-weight="normal"
         font-stretch="normal"
         font-size-adjust="none"
         letter-spacing="normal"
         word-spacing="normal"><path
           style="fill:#000000;stroke-width:0"
           inkscape:connector-curvature="0"
           d="m 477.54,440.98 -0.04,0.06 -0.03,0.06 -0.03,0.05 -0.02,0.05 -0.03,0.05 -0.03,0.05 -0.03,0.05 -0.02,0.04 -0.03,0.04 -0.03,0.04 -0.02,0.04 -0.03,0.03 -0.03,0.04 -0.03,0.03 -0.03,0.03 -0.03,0.03 -0.03,0.02 -0.04,0.03 -0.04,0.02 -0.03,0.02 -0.05,0.02 -0.04,0.01 -0.05,0.02 -0.04,0.01 -0.06,0.01 -0.05,0.01 -0.06,0.01 -0.06,0.01 -0.07,0 -0.07,0.01 -0.07,0 -0.04,0 -0.04,0 c -0.85,0 -0.94,-0.25 -1.28,-0.89 l -0.32,-4.09 13.41,-26.91 -26.86,0 13.45,26.91 0.32,4.09 -16.85,-33.78 c -0.25,-0.45 -0.25,-0.55 -0.25,-0.59 0,-0.41 0.3,-0.41 1.1,-0.41 l 34.58,0 c 0.79,0 1.09,0 1.09,0.41 0,0.04 0,0.14 -0.25,0.59 z"
           id="path13859" /><path
           style="fill:#000000;stroke-width:0"
           inkscape:connector-curvature="0"
           d="m 515.32,426.12 4.28,0 c 1,0 1.5,0 1.5,1 0,0.55 -0.5,0.55 -1.34,0.55 l -4.14,0 1.04,5.69 c 0.21,1.04 0.91,4.57 1.21,5.17 0.45,0.95 1.29,1.7 2.34,1.7 0.19,0 1.49,0 2.44,-0.91 -2.19,-0.18 -2.69,-1.93 -2.69,-2.68 0,-1.14 0.89,-1.74 1.84,-1.74 1.3,0 2.74,1.1 2.74,2.99 0,2.29 -2.3,3.43 -4.33,3.43 -1.7,0 -4.84,-0.89 -6.33,-5.82 -0.29,-1.05 -0.45,-1.55 -1.64,-7.83 l -3.44,0 c -0.95,0 -1.5,0 -1.5,-0.94 0,-0.61 0.46,-0.61 1.4,-0.61 l 3.29,0 -3.75,-19.67 c -0.89,-4.83 -1.73,-9.38 -4.33,-9.38 -0.2,0 -1.43,0 -2.39,0.91 2.3,0.14 2.74,1.94 2.74,2.69 0,1.14 -0.89,1.75 -1.85,1.75 -1.29,0 -2.73,-1.1 -2.73,-3 0,-2.24 2.19,-3.44 4.23,-3.44 2.74,0 4.74,2.94 5.63,4.84 1.59,3.14 2.75,9.16 2.8,9.52 z"
           id="path13861" /></g>    </g>
    <path
       inkscape:connector-curvature="0"
       id="path13906"
       d="m 468.39115,537.06922 -74,0"
       style="opacity:1;fill:none;fill-opacity:1;stroke:#000000;stroke-width:2;stroke-linecap:butt;stroke-linejoin:miter;stroke-miterlimit:4;stroke-dasharray:none;stroke-dashoffset:0;stroke-opacity:1;marker-start:url(#StopL);marker-end:url(#StopL)" />
    <g
       id="g14346"
       transform="translate(67.133923,158.71716)">
      <g
         word-spacing="normal"
         letter-spacing="normal"
         font-size-adjust="none"
         font-stretch="normal"
         font-weight="normal"
         font-variant="normal"
         font-style="normal"
         stroke-miterlimit="10.433"
         xml:space="preserve"
         transform="matrix(1.0629921,0,0,-1.0629921,-186.02362,789.27165)"
         id="g14348"
         style="font-style:normal;font-variant:normal;font-weight:normal;font-stretch:normal;letter-spacing:normal;word-spacing:normal;text-anchor:start;fill:none;stroke:#000000;stroke-linecap:butt;stroke-linejoin:miter;stroke-miterlimit:10.43299961;stroke-dasharray:none;stroke-dashoffset:0;stroke-opacity:1"><path
           id="path14350"
           d="m 477.54,440.98 -0.04,0.06 -0.03,0.06 -0.03,0.05 -0.02,0.05 -0.03,0.05 -0.03,0.05 -0.03,0.05 -0.02,0.04 -0.03,0.04 -0.03,0.04 -0.02,0.04 -0.03,0.03 -0.03,0.04 -0.03,0.03 -0.03,0.03 -0.03,0.03 -0.03,0.02 -0.04,0.03 -0.04,0.02 -0.03,0.02 -0.05,0.02 -0.04,0.01 -0.05,0.02 -0.04,0.01 -0.06,0.01 -0.05,0.01 -0.06,0.01 -0.06,0.01 -0.07,0 -0.07,0.01 -0.07,0 -0.04,0 -0.04,0 c -0.85,0 -0.94,-0.25 -1.28,-0.89 l -0.32,-4.09 13.41,-26.91 -26.86,0 13.45,26.91 0.32,4.09 -16.85,-33.78 c -0.25,-0.45 -0.25,-0.55 -0.25,-0.59 0,-0.41 0.3,-0.41 1.1,-0.41 l 34.58,0 c 0.79,0 1.09,0 1.09,0.41 0,0.04 0,0.14 -0.25,0.59 z"
           inkscape:connector-curvature="0"
           style="fill:#000000;stroke-width:0" /><path
           id="path14352"
           d="m 507.3,426.12 4.69,0 c 0.99,0 1.49,0 1.49,1 0,0.55 -0.5,0.55 -1.39,0.55 l -4.39,0 c 1.79,7.08 2.04,8.08 2.04,8.37 0,0.85 -0.59,1.35 -1.44,1.35 -0.15,0 -1.54,-0.05 -2,-1.8 l -1.93,-7.92 -4.69,0 c -1,0 -1.5,0 -1.5,-0.94 0,-0.61 0.41,-0.61 1.41,-0.61 l 4.37,0 c -3.58,-14.14 -3.78,-14.98 -3.78,-15.89 0,-2.69 1.89,-4.58 4.58,-4.58 5.08,0 7.92,7.27 7.92,7.67 0,0.5 -0.39,0.5 -0.59,0.5 -0.46,0 -0.5,-0.15 -0.75,-0.7 -2.14,-5.17 -4.79,-6.37 -6.47,-6.37 -1.05,0 -1.55,0.65 -1.55,2.29 0,1.19 0.09,1.55 0.3,2.39 z"
           inkscape:connector-curvature="0"
           style="fill:#000000;stroke-width:0" /></g>    </g>
    <path
       style="fill:none;fill-rule:evenodd;stroke:#000000;stroke-width:2;stroke-linecap:butt;stroke-linejoin:miter;stroke-miterlimit:4;stroke-dasharray:none;stroke-opacity:1;marker-start:url(#StopL);marker-end:url(#StopL)"
       d="m 639.9824,449.81256 0,149.94701"
       id="path5419"
       inkscape:connector-curvature="0" />
    <g
       transform="translate(-243.3615,95.205748)"
       id="g5754">
      <g
         style="font-style:normal;font-variant:normal;font-weight:normal;font-stretch:normal;letter-spacing:normal;word-spacing:normal;text-anchor:start;fill:none;fill-opacity:1;fill-rule:evenodd;stroke:#000000;stroke-linecap:butt;stroke-linejoin:miter;stroke-miterlimit:10.43299961;stroke-dasharray:none;stroke-dashoffset:0;stroke-opacity:1"
         id="g5752"
         transform="matrix(1.0641353,0,0,-1.0641353,-186.22368,659.51197)"
         xml:space="preserve"
         stroke-miterlimit="10.433"
         font-style="normal"
         font-variant="normal"
         font-weight="normal"
         font-stretch="normal"
         font-size-adjust="none"
         letter-spacing="normal"
         word-spacing="normal"><path
           style="fill:#000000;stroke-width:0"
           inkscape:connector-curvature="0"
           d="m 473.8,426.12 4.28,0 c 1,0 1.5,0 1.5,1 0,0.55 -0.5,0.55 -1.34,0.55 l -4.14,0 1.04,5.69 c 0.21,1.04 0.91,4.57 1.21,5.17 0.45,0.95 1.29,1.7 2.34,1.7 0.19,0 1.49,0 2.44,-0.91 -2.19,-0.18 -2.69,-1.93 -2.69,-2.68 0,-1.14 0.89,-1.74 1.85,-1.74 1.29,0 2.73,1.1 2.73,2.99 0,2.29 -2.3,3.43 -4.33,3.43 -1.7,0 -4.84,-0.89 -6.33,-5.82 -0.29,-1.05 -0.45,-1.55 -1.64,-7.83 l -3.43,0 c -0.96,0 -1.5,0 -1.5,-0.94 0,-0.61 0.45,-0.61 1.39,-0.61 l 3.29,0 -3.75,-19.67 c -0.89,-4.83 -1.73,-9.38 -4.33,-9.38 -0.2,0 -1.43,0 -2.39,0.91 2.3,0.14 2.74,1.94 2.74,2.69 0,1.14 -0.89,1.75 -1.85,1.75 -1.29,0 -2.73,-1.1 -2.73,-3 0,-2.24 2.19,-3.44 4.23,-3.44 2.74,0 4.74,2.94 5.63,4.84 1.59,3.14 2.75,9.16 2.8,9.52 z"
           id="path5750" /></g>    </g>
    <g
       id="g5890"
       transform="translate(550.61762,460.94048)">
      <g
         word-spacing="normal"
         letter-spacing="normal"
         font-size-adjust="none"
         font-stretch="normal"
         font-weight="normal"
         font-variant="normal"
         font-style="normal"
         stroke-miterlimit="10.433"
         xml:space="preserve"
         transform="matrix(1.0641353,0,0,-1.0641353,-186.22368,659.51197)"
         id="g5888"
         style="font-style:normal;font-variant:normal;font-weight:normal;font-stretch:normal;letter-spacing:normal;word-spacing:normal;text-anchor:start;fill:none;fill-opacity:1;fill-rule:evenodd;stroke:#000000;stroke-linecap:butt;stroke-linejoin:miter;stroke-miterlimit:10.43299961;stroke-dasharray:none;stroke-dashoffset:0;stroke-opacity:1"><path
           id="path5886"
           d="m 465.79,426.12 4.68,0 c 0.99,0 1.49,0 1.49,1 0,0.55 -0.5,0.55 -1.39,0.55 l -4.39,0 c 1.79,7.08 2.04,8.08 2.04,8.37 0,0.85 -0.59,1.35 -1.43,1.35 -0.16,0 -1.55,-0.05 -2,-1.8 l -1.94,-7.92 -4.69,0 c -1,0 -1.5,0 -1.5,-0.94 0,-0.61 0.41,-0.61 1.41,-0.61 l 4.37,0 c -3.58,-14.14 -3.78,-14.98 -3.78,-15.89 0,-2.69 1.89,-4.58 4.58,-4.58 5.08,0 7.92,7.27 7.92,7.67 0,0.5 -0.39,0.5 -0.59,0.5 -0.46,0 -0.5,-0.15 -0.75,-0.7 -2.14,-5.17 -4.78,-6.37 -6.47,-6.37 -1.05,0 -1.55,0.65 -1.55,2.29 0,1.19 0.09,1.55 0.3,2.39 z"
           inkscape:connector-curvature="0"
           style="fill:#000000;stroke-width:0" /></g>    </g>
    <g
       transform="translate(354.16012,320.14738)"
       id="g6022">
      <g
         style="font-style:normal;font-variant:normal;font-weight:normal;font-stretch:normal;letter-spacing:normal;word-spacing:normal;text-anchor:start;fill:none;fill-opacity:1;fill-rule:evenodd;stroke:#000000;stroke-linecap:butt;stroke-linejoin:miter;stroke-miterlimit:10.43299961;stroke-dasharray:none;stroke-dashoffset:0;stroke-opacity:1"
         id="g6020"
         transform="matrix(1.0641353,0,0,-1.0641353,-186.22368,659.51197)"
         xml:space="preserve"
         stroke-miterlimit="10.433"
         font-style="normal"
         font-variant="normal"
         font-weight="normal"
         font-stretch="normal"
         font-size-adjust="none"
         letter-spacing="normal"
         word-spacing="normal"><path
           style="fill:#000000;stroke-width:0"
           inkscape:connector-curvature="0"
           d="m 463.49,410.09 -0.05,-0.18 -0.04,-0.17 -0.05,-0.16 -0.04,-0.15 -0.04,-0.15 -0.05,-0.13 -0.05,-0.13 -0.05,-0.12 -0.05,-0.11 -0.06,-0.11 -0.07,-0.1 -0.07,-0.09 -0.07,-0.09 -0.09,-0.07 -0.09,-0.08 -0.11,-0.06 -0.11,-0.07 -0.13,-0.05 -0.13,-0.05 -0.15,-0.05 -0.16,-0.04 -0.09,-0.02 -0.09,-0.01 -0.09,-0.02 -0.1,-0.02 -0.1,-0.01 -0.1,-0.01 -0.11,-0.01 -0.12,-0.02 -0.11,-0.01 -0.13,-0.01 -0.12,0 -0.13,-0.01 -0.14,-0.01 -0.14,0 -0.14,-0.01 -0.15,0 -0.16,-0.01 -0.16,0 -0.16,0 -0.17,0 -0.18,0 -0.18,0 c -0.85,0 -1.35,0 -1.35,-1 0,-0.55 0.46,-0.55 1.35,-0.55 l 17.78,0 c 7.87,0 13.75,5.87 13.75,10.76 0,3.58 -2.89,6.47 -7.72,7.02 5.19,0.95 10.42,4.64 10.42,9.38 0,3.68 -3.3,6.87 -9.28,6.87 l -0.69,-1.55 c 4.38,0 5.42,-2.93 5.42,-5.12 0,-4.39 -4.28,-9.13 -10.35,-9.13 l -7.27,0 -0.3,-1.09 9.41,0 c 4.78,0 5.73,-3.69 5.73,-5.83 0,-4.94 -4.43,-9.76 -10.31,-9.76 l -6.78,0 c -0.69,0 -0.8,0 -1.09,0.04 -0.5,0.05 -0.64,0.1 -0.64,0.5 0,0.14 0,0.25 0.25,1.14 l 3.43,13.91 0.3,1.09 3.08,12.36 c 0.45,1.74 0.54,1.89 2.7,1.89 l 6.42,0 0.69,1.55 -16.73,0 c -0.94,0 -1.44,0 -1.44,-1 0,-0.55 0.44,-0.55 1.39,-0.55 0.09,0 1.05,0 1.89,-0.09 0.89,-0.11 1.34,-0.16 1.34,-0.8 0,-0.2 -0.04,-0.36 -0.2,-0.95 z"
           id="path6018" /></g>    </g>
    <g
       id="g6297"
       transform="translate(-65.0711,511.54816)">
      <g
         word-spacing="normal"
         letter-spacing="normal"
         font-size-adjust="none"
         font-stretch="normal"
         font-weight="normal"
         font-variant="normal"
         font-style="normal"
         stroke-miterlimit="10.433"
         xml:space="preserve"
         transform="matrix(1.0933383,0,0,-1.0933383,-191.3342,656.14078)"
         id="g6295"
         style="font-style:normal;font-variant:normal;font-weight:normal;font-stretch:normal;letter-spacing:normal;word-spacing:normal;text-anchor:start;fill:none;fill-opacity:1;fill-rule:evenodd;stroke:#000000;stroke-linecap:butt;stroke-linejoin:miter;stroke-miterlimit:10.43299961;stroke-dasharray:none;stroke-dashoffset:0;stroke-opacity:1"><path
           id="path6293"
           d="m 467.96703,117.316 0.47,0.11 0.48,0.12 0.48,0.14 0.48,0.15 0.49,0.16 0.48,0.18 0.48,0.19 0.47,0.2 0.47,0.22 0.47,0.23 0.46,0.24 0.45,0.25 0.43,0.27 0.43,0.28 0.42,0.29 0.4,0.3 0.39,0.31 0.37,0.32 0.36,0.34 0.33,0.35 0.32,0.35 0.29,0.37 0.28,0.38 0.25,0.39 0.22,0.4 0.2,0.41 0.17,0.42 0.15,0.43 0.11,0.44 0.08,0.45 0.05,0.46 0.02,0.47 c 0,4.28 -4.48,7.47 -11,7.47 l -14.2,0 c -1,0 -1.45,0 -1.45,-1 0,-0.55 0.45,-0.55 1.4,-0.55 0.1,0 1.05,0 1.89,-0.09 0.89,-0.11 1.35,-0.16 1.35,-0.8 0,-0.2 -0.05,-0.36 -0.21,-0.95 l -6.67,-26.75 c -0.5,-1.95 -0.59,-2.34 -4.53,-2.34 -0.91,0 -1.34,0 -1.34,-1 0,-0.55 0.59,-0.55 0.68,-0.55 1.41,0 4.89,0.16 6.29,0.16 1.39,0 4.93,-0.16 6.32,-0.16 0.41,0 1,0 1,1 0,0.55 -0.45,0.55 -1.39,0.55 -1.84,0 -3.25,0 -3.25,0.89 0,0.29 0.11,0.54 0.16,0.84 l 3.28,13.2 5.94,0 -0.05,1.11 -5.59,0 3.25,13 c 0.29,1.19 0.43,1.69 1.39,1.85 0.45,0.04 2.04,0.04 3.03,0.04 3.55,0 9.08,0 9.08,-4.93 0,-1.69 -0.8,-5.13 -2.75,-7.07 -1.28,-1.29 -3.92,-2.89 -8.41,-2.89 l 0.05,-1.11 c 4.53,0 5.42,-2.78 5.42,-4.53 0,-0.75 -0.39,-2.28 -0.69,-3.44 -0.36,-1.39 -0.79,-3.23 -0.79,-4.23 0,-5.369998 5.96,-5.369998 6.62,-5.369998 4.23,0 5.97,5.029998 5.97,5.729998 0,0.59 -0.55,0.59 -0.59,0.59 -0.46,0 -0.55,-0.36 -0.65,-0.7 -1.25,-3.69 -3.39,-4.53 -4.54,-4.53 -1.64,0 -1.99,1.09 -1.99,3.05 0,1.53 0.3,4.07 0.5,5.67 0.1,0.7 0.21,1.64 0.21,2.34 0,3.83 -3.35,5.38 -4.69,5.88 z"
           inkscape:connector-curvature="0"
           style="fill:#000000;stroke-width:0" /></g>    </g>
    <path
       style="fill:#a9a9a9;fill-rule:evenodd;stroke:none;stroke-width:1px;stroke-linecap:butt;stroke-linejoin:miter;stroke-opacity:1"
       d="m 427.4449,1014.7377 c 102.57793,-44.86955 72.35332,-178.31565 129.38563,-246.50192 5.96705,-7.13403 22.99484,-57.57202 33.46181,-68.03899 5.10661,-5.1066 45.77027,-72.46143 65.80822,-52.42349 82.12646,82.12647 160.06188,241.33127 206.34777,366.9644 z"
       id="path6418"
       inkscape:connector-curvature="0"
       sodipodi:nodetypes="cssscc" />
    <path
       style="opacity:1;fill:none;fill-opacity:1;fill-rule:evenodd;stroke:#000000;stroke-width:4;stroke-linecap:butt;stroke-linejoin:miter;stroke-miterlimit:4;stroke-dasharray:none;stroke-dashoffset:0;stroke-opacity:1;marker-start:url(#StopL);marker-end:url(#StopL)"
       d="m 89.89151,1014.7377 440.41129,0"
       id="path6376"
       inkscape:connector-curvature="0"
       sodipodi:nodetypes="cc" />
    <g
       id="g6554">
      <circle
         transform="matrix(-0.15968221,0.98716847,-0.98716847,-0.15968221,0,0)"
         style="color:#000000;clip-rule:nonzero;display:inline;overflow:visible;visibility:visible;opacity:1;isolation:auto;mix-blend-mode:normal;color-interpolation:sRGB;color-interpolation-filters:linearRGB;solid-color:#000000;solid-opacity:1;fill:#000000;fill-opacity:1;fill-rule:evenodd;stroke:#000000;stroke-width:2.16575456;stroke-linecap:butt;stroke-linejoin:miter;stroke-miterlimit:4;stroke-dasharray:none;stroke-dashoffset:0;stroke-opacity:1;color-rendering:auto;image-rendering:auto;shape-rendering:auto;text-rendering:auto;enable-background:accumulate"
         id="path6124"
         cx="736.21906"
         cy="-226.8616"
         r="4.3995509" />
      <path
         sodipodi:open="true"
         d="m 89.891511,814.0365 a 51.038509,51.038509 0 0 1 -44.200646,-25.51926 51.038509,51.038509 0 0 1 -1e-6,-51.03851 51.038509,51.038509 0 0 1 44.200647,-25.51925"
         sodipodi:end="4.712389"
         sodipodi:start="1.5707963"
         sodipodi:ry="51.038509"
         sodipodi:rx="51.038509"
         sodipodi:cy="762.99799"
         sodipodi:cx="89.89151"
         sodipodi:type="arc"
         id="path6428"
         style="color:#000000;clip-rule:nonzero;display:inline;overflow:visible;visibility:visible;opacity:1;isolation:auto;mix-blend-mode:normal;color-interpolation:sRGB;color-interpolation-filters:linearRGB;solid-color:#000000;solid-opacity:1;fill:#b0e0e6;fill-opacity:1;fill-rule:evenodd;stroke:#000000;stroke-width:4;stroke-linecap:butt;stroke-linejoin:miter;stroke-miterlimit:4;stroke-dasharray:none;stroke-dashoffset:0;stroke-opacity:1;color-rendering:auto;image-rendering:auto;shape-rendering:auto;text-rendering:auto;enable-background:accumulate" />
      <path
         inkscape:connector-curvature="0"
         id="path6535"
         d="m 38.853001,762.99799 c 67.536539,0 67.536539,0 67.536539,0"
         style="opacity:1;fill:#b0e0e6;fill-opacity:1;fill-rule:evenodd;stroke:#000000;stroke-width:4;stroke-linecap:butt;stroke-linejoin:miter;stroke-miterlimit:4;stroke-dasharray:none;stroke-dashoffset:0;stroke-opacity:1" />
    </g>
    <use
       x="0"
       y="0"
       xlink:href="#g6554"
       id="use6564"
       transform="translate(9.459265e-8,125.38503)"
       width="100%"
       height="100%" />
    <path
       id="path10899"
       title="sin(0.5*x**2)"
       d="m 110.484,763.70154 c 1.48234,-8e-5 2.96467,-0.0749 4.44701,-0.2246 1.48234,-0.14965 2.96468,-0.3744 4.44702,-0.67373 1.48233,-0.29932 2.96467,-0.67369 4.44701,-1.12233 1.48234,-0.44865 2.96468,-0.97205 4.44701,-1.5689 1.48234,-0.59686 2.96468,-1.26765 4.44702,-2.01015 1.48234,-0.7425 2.96467,-1.55719 4.44701,-2.4404 1.48234,-0.88321 2.96468,-1.8354 4.44702,-2.85087 1.48233,-1.01548 2.96467,-2.09467 4.44701,-3.22919 1.48234,-1.13451 2.96468,-2.32472 4.44701,-3.55883 1.48234,-1.23411 2.96468,-2.51243 4.44702,-3.81906 1.48234,-1.30663 2.96467,-2.64178 4.44701,-3.98486 1.48234,-1.34308 2.96468,-2.69415 4.44702,-4.02753 1.48233,-1.33338 2.96467,-2.64895 4.44701,-3.91578 1.48234,-1.26684 2.96468,-2.48461 4.44701,-3.61748 1.48234,-1.13286 2.96468,-2.18023 4.44702,-3.10223 1.48234,-0.92199 2.96467,-1.71773 4.44701,-2.34491 1.48234,-0.62718 2.96468,-1.08459 4.44702,-1.32995 1.48233,-0.24535 2.96467,-0.27713 4.44701,-0.0564 1.48234,0.22076 2.96468,0.69588 4.44701,1.45675 1.48234,0.76088 2.96468,1.80956 4.44702,3.16498 1.48234,1.35541 2.96467,3.01974 4.44701,4.99407 1.48234,1.97433 2.96468,4.26083 4.44702,6.83748 1.48233,2.57665 2.96467,5.44543 4.44701,8.55673 1.48234,3.11131 2.96468,6.46669 4.44701,9.9862 1.48234,3.51951 2.96468,7.204 4.44702,10.94312 1.48234,3.73911 2.96467,7.53277 4.44701,11.2438 1.48234,3.71103 2.96468,7.33822 4.44702,10.72577 1.48233,3.38756 2.96467,6.53299 4.44701,9.27508 1.48234,2.74208 2.96468,5.07705 4.44701,6.85615 1.48234,1.7791 2.96468,2.9975 4.44702,3.54047 1.48234,0.54296 2.96468,0.40497 4.44701,-0.47169 1.48234,-0.87667 2.96468,-2.49764 4.44702,-4.84252 1.48234,-2.34488 2.96467,-5.41864 4.44701,-9.10783 1.48234,-3.68919 2.96468,-7.99724 4.44702,-12.71345 1.48233,-4.71621 2.96467,-9.84166 4.44701,-15.07914 1.48234,-5.23749 2.96468,-10.58511 4.44701,-15.68764 1.48234,-5.10254 2.96468,-9.95487 4.44702,-14.18991 1.48234,-4.23504 2.96467,-7.84479 4.44701,-10.51036 1.48234,-2.66557 2.96468,-4.37704 4.44702,-4.92961 1.48233,-0.55257 2.96467,0.064 4.44701,1.88105 1.48234,1.81704 2.96468,4.84306 4.44701,8.89772 1.48234,4.05465 2.96468,9.14258 4.44702,14.8694 1.48234,5.72683 2.96467,12.09161 4.44701,18.52978 1.48234,6.43817 2.96468,12.94244 4.44702,18.87025 1.48233,5.92781 2.96467,11.26614 4.44701,15.42498 1.48234,4.15883 2.96468,7.12171 4.44701,8.49676 1.48234,1.37504 2.96468,1.14608 4.44702,-0.75433 1.48234,-1.90041 2.96467,-5.4837 4.44701,-10.425 1.48234,-4.94129 2.96468,-11.24322 4.44702,-18.21242 1.48233,-6.9692 2.96467,-14.59719 4.44701,-21.95291 1.48234,-7.35572 2.96468,-14.42021 4.44701,-20.24877 1.48234,-5.82856 2.96468,-10.39588 4.44702,-13.01383 1.48234,-2.61795 2.96467,-3.26198 4.44701,-1.74197 1.48234,1.52001 2.96468,5.21948 4.44702,10.66294 1.48233,5.44347 2.96467,12.6303 4.44701,20.55344 1.48234,7.92313 2.96468,16.56336 4.44701,24.59782 1.48234,8.03447 2.96468,15.42927 4.44702,20.95485 1.48234,5.52559 2.96467,9.14371 4.44701,10.16214 1.48234,1.01843 2.96468,-0.59122 4.44702,-4.66536 1.48233,-4.07413 2.96467,-10.6182 4.44701,-18.56849 1.48234,-7.95029 2.96468,-17.28321 4.44701,-26.3362 1.48234,-9.053 2.96468,-17.77866 4.44702,-24.50512 1.48234,-6.72647 2.96467,-11.3993 4.44701,-13.02067 1.48234,-1.62137 2.96468,-0.1531 4.44702,4.2307 1.48233,4.3838 2.96467,11.68479 4.44701,20.50033 1.48234,8.81554 2.96468,19.10413 4.44701,28.72441 1.48234,9.62028 2.96468,18.50086 4.44702,24.66397 1.48234,6.16312 2.96467,9.53832 4.44701,9.26206 1.48234,-0.27626 2.96468,-4.23733 4.44702,-11.09647 1.48233,-6.85913 2.96467,-16.58934 4.44701,-26.97416 1.48234,-10.38482 2.96468,-21.34215 4.44701,-30.21307 1.48234,-8.87092 2.96468,-15.55501 4.44702,-18.30174 1.48234,-2.74672 2.96467,-1.49117 4.44701,3.57647 1.48234,5.06763 2.96468,13.93402 4.44702,24.38424 1.48233,10.45022 2.96467,22.38906 4.44701,32.63671 1.48234,10.24766 2.96468,18.67267 4.44701,22.88445 1.48234,4.21177 2.96468,4.11869 4.44702,-0.38574 1.48234,-4.50444 2.96467,-13.40841 4.44701,-24.25997 1.48234,-10.85155 2.96468,-23.5285 4.44702,-34.31823 1.48234,-10.78973 2.96467,-19.52512 4.44701,-23.49043 1.48234,-3.9653 2.96468,-3.05524 4.44702,2.58759 1.48233,5.64283 2.96467,15.98077 4.44701,27.86064 1.48234,11.87987 2.96468,25.12843 4.44701,35.47966 1.48234,10.35123 2.96468,17.60313 4.44702,19.26374 1.48234,1.66061 2.96467,-2.356 4.44701,-10.84077 1.48234,-8.48476 2.96468,-21.32794 4.44702,-34.19844 1.48233,-12.87049 2.96467,-25.5219 4.44701,-33.47723 1.48234,-7.95533 2.96468,-11.00689 4.44701,-7.92846 1.48234,3.07843 2.96468,12.28526 4.44702,24.38689 1.48234,12.10164 2.96467,26.86255 4.44701,38.80829 1.48234,11.94575 2.96468,20.77364 4.44702,23.02882 1.48233,2.25519 2.96467,-2.18423 4.44701,-11.74684 1.48234,-9.56261 2.96468,-24.06274 4.44701,-37.85088 1.48234,-13.78815 2.96468,-26.4978 4.44702,-32.95397 1.48234,-6.45617 2.96467,-6.41852 4.44701,0.24621 1.48234,6.66472 2.96468,19.83689 4.44702,34.12605 1.48233,14.28917 2.96467,29.28564 4.44701,38.58626 1.48234,9.30063 2.96468,12.56032 4.44701,8.22661 1.48234,-4.3337 2.96468,-16.20177 4.44702,-30.50378"
       style="color:#000000;clip-rule:nonzero;display:inline;overflow:visible;visibility:visible;opacity:1;isolation:auto;mix-blend-mode:normal;color-interpolation:sRGB;color-interpolation-filters:linearRGB;solid-color:#000000;solid-opacity:1;fill:none;fill-opacity:1;fill-rule:nonzero;stroke:#800080;stroke-width:3;stroke-linecap:butt;stroke-linejoin:miter;stroke-miterlimit:4;stroke-dasharray:none;stroke-dashoffset:0;stroke-opacity:1;color-rendering:auto;image-rendering:auto;shape-rendering:auto;text-rendering:auto;enable-background:accumulate"
       inkscape:connector-curvature="0" />
    <path
       id="path10899-8"
       title="sin(0.5*x**2)"
       d="m 110.73263,887.08556 c 1.48234,-8e-5 2.96467,-0.0749 4.44701,-0.2246 1.48234,-0.14965 2.96468,-0.3744 4.44702,-0.67373 1.48233,-0.29932 2.96467,-0.67369 4.44701,-1.12233 1.48234,-0.44865 2.96468,-0.97205 4.44701,-1.5689 1.48234,-0.59686 2.96468,-1.26765 4.44702,-2.01015 1.48234,-0.7425 2.96467,-1.55719 4.44701,-2.4404 1.48234,-0.88321 2.96468,-1.8354 4.44702,-2.85087 1.48233,-1.01548 2.96467,-2.09467 4.44701,-3.22919 1.48234,-1.13451 2.96468,-2.32472 4.44701,-3.55883 1.48234,-1.23411 2.96468,-2.51243 4.44702,-3.81906 1.48234,-1.30663 2.96467,-2.64178 4.44701,-3.98486 1.48234,-1.34308 2.96468,-2.69415 4.44702,-4.02753 1.48233,-1.33338 2.96467,-2.64895 4.44701,-3.91578 1.48234,-1.26684 2.96468,-2.48461 4.44701,-3.61748 1.48234,-1.13286 2.96468,-2.18023 4.44702,-3.10223 1.48234,-0.92199 2.96467,-1.71773 4.44701,-2.34491 1.48234,-0.62718 2.96468,-1.08459 4.44702,-1.32995 1.48233,-0.24535 2.96467,-0.27713 4.44701,-0.0564 1.48234,0.22076 2.96468,0.69588 4.44701,1.45675 1.48234,0.76088 2.96468,1.80956 4.44702,3.16498 1.48234,1.35541 2.96467,3.01974 4.44701,4.99407 1.48234,1.97433 2.96468,4.26083 4.44702,6.83748 1.48233,2.57665 2.96467,5.44543 4.44701,8.55673 1.48234,3.11131 2.96468,6.46669 4.44701,9.9862 1.48234,3.51951 2.96468,7.204 4.44702,10.94312 1.48234,3.73911 2.96467,7.53277 4.44701,11.2438 1.48234,3.71103 2.96468,7.33822 4.44702,10.72577 1.48233,3.38756 2.96467,6.53299 4.44701,9.27508 1.48234,2.74208 2.96468,5.07705 4.44701,6.85615 1.48234,1.7791 2.96468,2.9975 4.44702,3.54047 1.48234,0.54296 2.96468,0.40497 4.44701,-0.47169 1.48234,-0.87667 2.96468,-2.49764 4.44702,-4.84252 1.48234,-2.34488 2.96467,-5.41864 4.44701,-9.10783 1.48234,-3.68919 2.96468,-7.99724 4.44702,-12.71345 1.48233,-4.71621 2.96467,-9.84166 4.44701,-15.07914 1.48234,-5.23749 2.96468,-10.58511 4.44701,-15.68764 1.48234,-5.10254 2.96468,-9.95487 4.44702,-14.18991 1.48234,-4.23504 2.96467,-7.84479 4.44701,-10.51036 1.48234,-2.66557 2.96468,-4.37704 4.44702,-4.92961 1.48233,-0.55257 2.96467,0.064 4.44701,1.88105 1.48234,1.81704 2.96468,4.84306 4.44701,8.89772 1.48234,4.05465 2.96468,9.14258 4.44702,14.8694 1.48234,5.72683 2.96467,12.09161 4.44701,18.52978 1.48234,6.43817 2.96468,12.94244 4.44702,18.87025 1.48233,5.92781 2.96467,11.26614 4.44701,15.42498 1.48234,4.15883 2.96468,7.12171 4.44701,8.49676 1.48234,1.37504 2.96468,1.14608 4.44702,-0.75433 1.48234,-1.90041 2.96467,-5.4837 4.44701,-10.425 1.48234,-4.94129 2.96468,-11.24322 4.44702,-18.21242 1.48233,-6.9692 2.96467,-14.59719 4.44701,-21.95291 1.48234,-7.35572 2.96468,-14.42021 4.44701,-20.24877 1.48234,-5.82856 2.96468,-10.39588 4.44702,-13.01383 1.48234,-2.61795 2.96467,-3.26198 4.44701,-1.74197 1.48234,1.52001 2.96468,5.21948 4.44702,10.66294 1.48233,5.44347 2.96467,12.6303 4.44701,20.55344 1.48234,7.92313 2.96468,16.56336 4.44701,24.59782 1.48234,8.03447 2.96468,15.42927 4.44702,20.95485 1.48234,5.52559 2.96467,9.14371 4.44701,10.16214 1.48234,1.01843 2.96468,-0.59122 4.44702,-4.66536 1.48233,-4.07413 2.96467,-10.6182 4.44701,-18.56849 1.48234,-7.95029 2.96468,-17.28321 4.44701,-26.3362 1.48234,-9.053 2.96468,-17.77866 4.44702,-24.50512 1.48234,-6.72647 2.96467,-11.3993 4.44701,-13.02067 1.48234,-1.62137 2.96468,-0.1531 4.44702,4.2307 1.48233,4.3838 2.96467,11.68479 4.44701,20.50033 1.48234,8.81554 2.96468,19.10413 4.44701,28.72441 1.48234,9.62028 2.96468,18.50086 4.44702,24.66397 1.48234,6.16312 2.96467,9.53832 4.44701,9.26206 1.48234,-0.27626 2.96468,-4.23733 4.44702,-11.09647 1.48233,-6.85913 2.96467,-16.58934 4.44701,-26.97416 1.48234,-10.38482 2.96468,-21.34215 4.44701,-30.21307 1.48234,-8.87092 2.96468,-15.55501 4.44702,-18.30174 1.48234,-2.74672 2.96467,-1.49117 4.44701,3.57647 1.48234,5.06763 2.96468,13.93402 4.44702,24.38424 1.48233,10.45022 2.96467,22.38906 4.44701,32.63671 1.48234,10.24766 2.96468,18.67267 4.44701,22.88445 1.48234,4.21177 2.96468,4.11869 4.44702,-0.38574 1.48234,-4.50444 2.96467,-13.40841 4.44701,-24.25997 1.48234,-10.85155 2.96468,-23.5285 4.44702,-34.31823 1.48234,-10.78973 2.96467,-19.52512 4.44701,-23.49043 1.48234,-3.9653 2.96468,-3.05524 4.44702,2.58759 1.48233,5.64283 2.96467,15.98077 4.44701,27.86064 1.48234,11.87987 2.96468,25.12843 4.44701,35.47966 1.48234,10.35123 2.96468,17.60313 4.44702,19.26374 1.48234,1.66061 2.96467,-2.356 4.44701,-10.84077 1.48234,-8.48476 2.96468,-21.32794 4.44702,-34.19844 1.48233,-12.87049 2.96467,-25.5219 4.44701,-33.47723 1.48234,-7.95533 2.96468,-11.00689 4.44701,-7.92846 1.48234,3.07843 2.96468,12.28526 4.44702,24.38689 1.48234,12.10164 2.96467,26.86255 4.44701,38.80829 1.48234,11.94575 2.96468,20.77364 4.44702,23.02882 1.48233,2.25519 2.96467,-2.18423 4.44701,-11.74684 1.48234,-9.56261 2.96468,-24.06274 4.44701,-37.85088 1.48234,-13.78815 2.96468,-26.4978 4.44702,-32.95397 1.48234,-6.45617 2.96467,-6.41852 4.44701,0.24621 1.48234,6.66472 2.96468,19.83689 4.44702,34.12605 1.48233,14.28917 2.96467,29.28564 4.44701,38.58626 1.48234,9.30063 2.96468,12.56032 4.44701,8.22661 1.48234,-4.3337 2.96468,-16.20177 4.44702,-30.50378"
       style="color:#000000;clip-rule:nonzero;display:inline;overflow:visible;visibility:visible;opacity:1;isolation:auto;mix-blend-mode:normal;color-interpolation:sRGB;color-interpolation-filters:linearRGB;solid-color:#000000;solid-opacity:1;fill:none;fill-opacity:1;fill-rule:nonzero;stroke:#0000ff;stroke-width:3;stroke-linecap:butt;stroke-linejoin:miter;stroke-miterlimit:4;stroke-dasharray:none;stroke-dashoffset:0;stroke-opacity:1;color-rendering:auto;image-rendering:auto;shape-rendering:auto;text-rendering:auto;enable-background:accumulate;filter-blend-mode:normal;filter-gaussianBlur-deviation:0"
       inkscape:connector-curvature="0" />
    <g
       id="g7393"
       transform="translate(-45.461238,192.24443)">
      <g
         word-spacing="normal"
         letter-spacing="normal"
         font-size-adjust="none"
         font-stretch="normal"
         font-weight="normal"
         font-variant="normal"
         font-style="normal"
         stroke-miterlimit="10.433"
         xml:space="preserve"
         transform="matrix(1.1143461,0,0,-1.1143461,-195.01056,651.73833)"
         id="g7395"
         style="font-style:normal;font-variant:normal;font-weight:normal;font-stretch:normal;letter-spacing:normal;word-spacing:normal;text-anchor:start;fill:none;fill-opacity:1;fill-rule:evenodd;stroke:#000000;stroke-linecap:butt;stroke-linejoin:miter;stroke-miterlimit:10.43299961;stroke-dasharray:none;stroke-dashoffset:0;stroke-opacity:1"><path
           id="path7397"
           d="m 477.54,440.98 -0.04,0.06 -0.03,0.06 -0.03,0.05 -0.02,0.05 -0.03,0.05 -0.03,0.05 -0.03,0.05 -0.02,0.04 -0.03,0.04 -0.03,0.04 -0.02,0.04 -0.03,0.03 -0.03,0.04 -0.03,0.03 -0.03,0.03 -0.03,0.03 -0.03,0.02 -0.04,0.03 -0.04,0.02 -0.03,0.02 -0.05,0.02 -0.04,0.01 -0.05,0.02 -0.04,0.01 -0.06,0.01 -0.05,0.01 -0.06,0.01 -0.06,0.01 -0.07,0 -0.07,0.01 -0.07,0 -0.04,0 -0.04,0 c -0.85,0 -0.94,-0.25 -1.28,-0.89 l -0.32,-4.09 13.41,-26.91 -26.86,0 13.45,26.91 0.32,4.09 -16.85,-33.78 c -0.25,-0.45 -0.25,-0.55 -0.25,-0.59 0,-0.41 0.3,-0.41 1.1,-0.41 l 34.58,0 c 0.79,0 1.09,0 1.09,0.41 0,0.04 0,0.14 -0.25,0.59 z"
           inkscape:connector-curvature="0"
           style="fill:#000000;stroke-width:0" /><path
           id="path7399"
           d="m 507.3,426.12 4.69,0 c 0.99,0 1.49,0 1.49,1 0,0.55 -0.5,0.55 -1.39,0.55 l -4.39,0 c 1.79,7.08 2.04,8.08 2.04,8.37 0,0.85 -0.59,1.35 -1.44,1.35 -0.15,0 -1.54,-0.05 -2,-1.8 l -1.93,-7.92 -4.69,0 c -1,0 -1.5,0 -1.5,-0.94 0,-0.61 0.41,-0.61 1.41,-0.61 l 4.37,0 c -3.58,-14.14 -3.78,-14.98 -3.78,-15.89 0,-2.69 1.89,-4.58 4.58,-4.58 5.08,0 7.92,7.27 7.92,7.67 0,0.5 -0.39,0.5 -0.59,0.5 -0.46,0 -0.5,-0.15 -0.75,-0.7 -2.14,-5.17 -4.79,-6.37 -6.47,-6.37 -1.05,0 -1.55,0.65 -1.55,2.29 0,1.19 0.09,1.55 0.3,2.39 z"
           inkscape:connector-curvature="0"
           style="fill:#000000;stroke-width:0" /><path
           id="path7401"
           d="m 563.07,422.5 0.14,0 0.15,0 0.14,0 0.08,0.01 0.07,0 0.07,0.01 0.07,0.01 0.07,0.01 0.07,0.01 0.07,0.01 0.07,0.02 0.06,0.02 0.06,0.02 0.06,0.02 0.06,0.03 0.06,0.03 0.05,0.04 0.05,0.03 0.05,0.05 0.04,0.04 0.04,0.05 0.02,0.03 0.02,0.03 0.01,0.02 0.02,0.03 0.01,0.03 0.02,0.04 0.01,0.03 0.01,0.04 0.01,0.03 0.01,0.04 0.01,0.04 0,0.04 0.01,0.04 0,0.04 0,0.04 0,0.05 c 0,1 -0.95,1 -1.64,1 l -29.84,0 c -0.71,0 -1.64,0 -1.64,-1 0,-0.98 0.93,-0.98 1.68,-0.98 z"
           inkscape:connector-curvature="0"
           style="fill:#000000;stroke-width:0" /><path
           id="path7403"
           d="m 563.12,412.82 0.07,0 0.06,0 0.14,0.01 0.14,0 0.07,0 0.07,0.01 0.07,0.01 0.07,0 0.06,0.01 0.07,0.02 0.07,0.01 0.06,0.02 0.07,0.02 0.06,0.02 0.06,0.02 0.06,0.03 0.05,0.03 0.05,0.04 0.05,0.04 0.05,0.04 0.04,0.05 0.02,0.02 0.02,0.03 0.02,0.02 0.02,0.03 0.01,0.03 0.02,0.03 0.01,0.03 0.02,0.03 0.01,0.04 0.01,0.03 0.01,0.04 0.01,0.04 0.01,0.04 0,0.04 0.01,0.04 0,0.04 0,0.05 0,0.04 c 0,1 -0.95,1 -1.69,1 l -29.75,0 c -0.75,0 -1.68,0 -1.68,-1 0,-1 0.93,-1 1.64,-1 z"
           inkscape:connector-curvature="0"
           style="fill:#000000;stroke-width:0" /><path
           id="path7405"
           d="m 604.99,432.11 -1.19,0 c -0.09,-0.77 -0.45,-2.83 -0.9,-3.18 -0.27,-0.2 -2.95,-0.2 -3.44,-0.2 l -6.42,0 c 3.66,3.23 4.87,4.2 6.97,5.84 2.58,2.07 4.98,4.22 4.98,7.54 0,4.21 -3.69,6.79 -8.15,6.79 -4.32,0 -7.25,-3.03 -7.25,-6.23 0,-1.78 1.5,-1.96 1.86,-1.96 0.82,0 1.84,0.6 1.84,1.85 0,0.62 -0.25,1.84 -2.06,1.84 1.07,2.47 3.45,3.24 5.09,3.24 3.48,0 5.3,-2.71 5.3,-5.53 0,-3.04 -2.16,-5.44 -3.28,-6.69 l -8.39,-8.3 c -0.36,-0.31 -0.36,-0.39 -0.36,-1.36 l 14.36,0 z"
           inkscape:connector-curvature="0"
           style="fill:#000000;stroke-width:0" /><path
           id="path7407"
           d="m 627.9,437.61 0.38,0.09 0.39,0.11 0.38,0.11 0.37,0.12 0.37,0.13 0.37,0.14 0.36,0.15 0.35,0.15 0.34,0.17 0.34,0.16 0.33,0.18 0.31,0.18 0.31,0.19 0.3,0.2 0.29,0.21 0.28,0.21 0.26,0.21 0.25,0.22 0.24,0.23 0.22,0.24 0.21,0.24 0.2,0.24 0.17,0.25 0.17,0.26 0.14,0.26 0.13,0.26 0.11,0.27 0.09,0.27 0.07,0.28 0.05,0.28 0.04,0.29 0.01,0.29 c 0,2.98 -3.55,5.36 -8.6,5.36 l -10.7,0 c -0.66,0 -1.11,0 -1.11,-0.77 0,-0.48 0.41,-0.48 1.11,-0.48 0.03,0 0.7,0 1.33,-0.08 0.73,-0.06 0.79,-0.14 0.79,-0.48 0,-0.07 0,-0.24 -0.14,-0.77 l -4.64,-18.5 c -0.26,-1.19 -0.34,-1.47 -3.06,-1.47 -0.59,0 -1.05,0 -1.05,-0.73 0,-0.35 0.25,-0.52 0.57,-0.52 0.65,0 1.47,0.11 2.15,0.11 0.67,0 1.67,0.03 2.3,0.03 0.7,0 1.5,-0.03 2.23,-0.03 0.74,0 1.61,-0.11 2.35,-0.11 0.17,0 0.72,0 0.72,0.74 0,0.51 -0.35,0.51 -1.14,0.51 -0.57,0 -0.71,0 -1.33,0.08 -0.77,0.09 -0.77,0.17 -0.77,0.52 0,0.03 0,0.25 0.14,0.76 l 2.19,8.81 4.75,0 0.03,0.99 -4.5,0 2.24,8.95 c 0.25,0.97 0.31,1.08 1.07,1.19 l 2.24,0 c 3.23,0 7.25,0 7.25,-3.6 0,-1.42 -0.67,-3.62 -2.3,-4.87 -1.44,-1.11 -3.59,-1.67 -6,-1.67 l -0.03,-0.99 c 3,0 4.28,-1.48 4.28,-3.12 0,-0.45 -0.31,-1.64 -0.48,-2.44 -0.42,-1.61 -0.57,-2.12 -0.57,-2.72 0,-2.75 2.55,-3.84 5.13,-3.84 3.2,0 4.59,3.42 4.59,4.05 0,0.1 -0.06,0.48 -0.59,0.48 -0.45,0 -0.52,-0.23 -0.63,-0.59 -0.48,-1.54 -1.76,-2.96 -3.23,-2.96 -0.91,0 -1.56,0.38 -1.56,2.27 0,0.87 0.2,2.69 0.34,3.62 0.14,0.94 0.14,1.28 0.14,1.64 0,0.41 0,1.54 -0.98,2.58 -0.66,0.72 -1.6,1.17 -2.36,1.46 z"
           inkscape:connector-curvature="0"
           style="fill:#000000;stroke-width:0" /><polyline
           id="polyline7409"
           points="587,418 637.16,418 637.16,420.04 587,420.04 "
           style="fill:#000000;fill-rule:nonzero;stroke-width:0" /><path
           id="path7411"
           d="m 618.87,402.38 -0.12,-0.02 -0.11,-0.02 -0.11,-0.03 -0.1,-0.04 -0.1,-0.04 -0.1,-0.04 -0.09,-0.04 -0.08,-0.05 -0.09,-0.05 -0.08,-0.06 -0.07,-0.05 -0.07,-0.06 -0.07,-0.06 -0.06,-0.07 -0.06,-0.06 -0.06,-0.07 -0.05,-0.07 -0.05,-0.07 -0.04,-0.08 -0.04,-0.07 -0.04,-0.07 -0.04,-0.08 -0.03,-0.07 -0.02,-0.08 -0.03,-0.08 -0.02,-0.07 -0.02,-0.08 -0.01,-0.07 -0.01,-0.08 -0.01,-0.07 0,-0.08 0,-0.07 c 0,-0.94 0.73,-1.28 1.36,-1.28 0.76,0 1.98,0.55 1.98,2.22 0,2.37 -2.72,3.03 -4.59,3.03 -5.24,0 -10.08,-4.8 -10.08,-9.64 0,-3 2.09,-6.06 6.45,-6.06 5.89,0 8.64,3.43 8.64,3.93 0,0.21 -0.31,0.6 -0.59,0.6 -0.21,0 -0.28,-0.08 -0.56,-0.36 -2.72,-3.21 -6.8,-3.21 -7.43,-3.21 -2.5,0 -3.62,1.71 -3.62,3.88 0,1 0.5,4.8 2.31,7.2 1.31,1.72 3.13,2.69 4.88,2.69 0.48,0 2.15,-0.06 3.03,-1.05 z"
           inkscape:connector-curvature="0"
           style="fill:#000000;stroke-width:0" /></g>    </g>
    <g
       id="g8400"
       transform="translate(-288.8315,501.6402)">
      <g
         id="g8398"
         transform="matrix(1.1143461,0,0,-1.1143461,-195.01056,651.73833)"
         xml:space="preserve"
         stroke-miterlimit="10.433"
         font-style="normal"
         font-variant="normal"
         font-weight="normal"
         font-stretch="normal"
         font-size-adjust="none"
         letter-spacing="normal"
         word-spacing="normal"
         style="font-style:normal;font-variant:normal;font-weight:normal;font-stretch:normal;letter-spacing:normal;word-spacing:normal;text-anchor:start;fill:none;fill-opacity:1;fill-rule:evenodd;stroke:#000000;stroke-linecap:butt;stroke-linejoin:miter;stroke-miterlimit:10.43299961;stroke-dasharray:none;stroke-dashoffset:0;stroke-opacity:1"><path
           d="m 488.71,439.93 h -30.46 l -0.93,-11.22 h 1.25 c 0.68,8.04 1.43,9.68 8.95,9.68 0.91,0 2.2,0 2.7,-0.11 1.05,-0.19 1.05,-0.74 1.05,-1.89 v -26.25 c 0,-1.71 0,-2.39 -5.23,-2.39 h -2 v -1.55 c 2.04,0.16 7.12,0.16 9.42,0.16 2.29,0 7.42,0 9.47,-0.16 v 1.55 h -2 c -5.24,0 -5.24,0.68 -5.24,2.39 v 26.25 c 0,1 0,1.7 0.91,1.89 0.54,0.11 1.89,0.11 2.84,0.11 7.52,0 8.27,-1.64 8.95,-9.68 h 1.25 z"
           id="path8394"
           inkscape:connector-curvature="0"
           style="fill:#000000;stroke-width:0" /><path
           d="m 505.82,417.9 0.28,0.36 0.29,0.37 0.3,0.38 0.31,0.39 0.61,0.78 0.31,0.38 0.3,0.39 0.3,0.37 0.3,0.37 0.29,0.35 0.28,0.34 0.14,0.16 0.13,0.16 0.13,0.16 0.13,0.15 0.12,0.14 0.12,0.14 0.12,0.13 0.11,0.12 c 1.55,1.78 3.6,2.53 5.94,2.58 v 1.55 c -1.3,-0.1 -2.8,-0.14 -4.09,-0.14 -1.49,0 -4.13,0.09 -4.78,0.14 v -1.55 c 1.04,-0.09 1.45,-0.73 1.45,-1.53 0,-0.8 -0.5,-1.45 -0.75,-1.75 l -3.09,-3.89 -3.88,5.03 c -0.45,0.5 -0.45,0.61 -0.45,0.91 0,0.75 0.75,1.18 1.73,1.23 v 1.55 c -1.28,-0.05 -4.58,-0.14 -5.37,-0.14 -1.05,0 -3.39,0.04 -4.74,0.14 v -1.55 c 3.49,0 3.55,-0.05 5.88,-3.03 l 4.94,-6.42 -4.69,-5.94 c -2.39,-2.89 -5.33,-2.98 -6.38,-2.98 v -1.55 c 1.3,0.09 2.85,0.16 4.14,0.16 1.44,0 3.54,-0.11 4.74,-0.16 v 1.55 c -1.1,0.14 -1.45,0.79 -1.45,1.54 0,1.1 1.45,2.74 4.48,6.33 l 3.8,-4.98 c 0.39,-0.55 1.04,-1.35 1.04,-1.64 0,-0.46 -0.45,-1.21 -1.79,-1.25 v -1.55 c 1.48,0.05 4.28,0.16 5.37,0.16 1.34,0 3.3,-0.07 4.78,-0.16 v 1.55 c -2.69,0 -3.57,0.09 -4.73,1.54 z"
           id="path8396"
           inkscape:connector-curvature="0"
           style="fill:#000000;stroke-width:0" /></g>    </g>
    <g
       id="g8544"
       transform="translate(-295.53535,784.98335)">
      <g
         word-spacing="normal"
         letter-spacing="normal"
         font-size-adjust="none"
         font-stretch="normal"
         font-weight="normal"
         font-variant="normal"
         font-style="normal"
         stroke-miterlimit="10.433"
         xml:space="preserve"
         transform="matrix(1.1143461,0,0,-1.1143461,-195.01056,651.73833)"
         id="g8542"
         style="font-style:normal;font-variant:normal;font-weight:normal;font-stretch:normal;letter-spacing:normal;word-spacing:normal;text-anchor:start;fill:none;fill-opacity:1;fill-rule:evenodd;stroke:#000000;stroke-linecap:butt;stroke-linejoin:miter;stroke-miterlimit:10.43299961;stroke-dasharray:none;stroke-dashoffset:0;stroke-opacity:1"><path
           id="path8538"
           d="m 477.19,423.14 0.45,0.12 0.44,0.12 0.44,0.14 0.43,0.15 0.42,0.16 0.42,0.17 0.4,0.18 0.4,0.19 0.39,0.19 0.37,0.21 0.37,0.22 0.35,0.22 0.34,0.23 0.33,0.24 0.32,0.25 0.3,0.26 0.29,0.27 0.27,0.27 0.26,0.28 0.24,0.29 0.23,0.29 0.21,0.31 0.19,0.3 0.18,0.32 0.15,0.32 0.14,0.33 0.12,0.33 0.09,0.35 0.08,0.34 0.06,0.35 0.03,0.36 0.01,0.36 c 0,4.78 -5.67,8.97 -13,8.97 h -15.64 v -1.55 h 1.19 c 3.84,0 3.93,-0.54 3.93,-2.34 v -26.25 c 0,-1.8 -0.09,-2.34 -3.93,-2.34 h -1.19 v -1.55 c 1.78,0.16 5.33,0.16 7.27,0.16 1.93,0 5.48,0 7.28,-0.16 v 1.55 h -1.21 c -3.82,0 -3.93,0.54 -3.93,2.34 v 12.59 1.11 12.89 c 0,1.16 0,1.75 1.09,1.91 0.5,0.09 1.95,0.09 2.95,0.09 4.47,0 10.07,-0.2 10.07,-7.42 0,-3.44 -1.21,-7.47 -8.58,-7.47 h -5.53 v -1.11 h 5.73 c 0.8,0 2.89,0 4.63,-1.68 1.9,-1.8 1.9,-3.35 1.9,-6.68 0,-3.25 0,-5.23 2.03,-7.12 2.05,-1.8 4.78,-2.09 6.28,-2.09 3.89,0 4.74,4.07 4.74,5.48 0,0.3 0,0.84 -0.64,0.84 -0.55,0 -0.55,-0.45 -0.61,-0.79 -0.3,-3.55 -2.03,-4.44 -3.28,-4.44 -2.44,0 -2.85,2.55 -3.55,7.17 l -0.64,3.99 c -0.89,3.18 -3.34,4.84 -6.08,5.78 z"
           inkscape:connector-curvature="0"
           style="fill:#000000;stroke-width:0" /><path
           id="path8540"
           d="m 506.54,417.9 0.28,0.36 0.29,0.37 0.3,0.38 0.31,0.39 0.61,0.78 0.31,0.38 0.3,0.39 0.3,0.37 0.3,0.37 0.29,0.35 0.28,0.34 0.13,0.16 0.14,0.16 0.13,0.16 0.13,0.15 0.12,0.14 0.12,0.14 0.12,0.13 0.11,0.12 c 1.55,1.78 3.6,2.53 5.94,2.58 v 1.55 c -1.3,-0.1 -2.8,-0.14 -4.09,-0.14 -1.49,0 -4.13,0.09 -4.78,0.14 v -1.55 c 1.04,-0.09 1.45,-0.73 1.45,-1.53 0,-0.8 -0.5,-1.45 -0.75,-1.75 l -3.09,-3.89 -3.88,5.03 c -0.45,0.5 -0.45,0.61 -0.45,0.91 0,0.75 0.75,1.18 1.73,1.23 v 1.55 c -1.28,-0.05 -4.58,-0.14 -5.37,-0.14 -1.05,0 -3.39,0.04 -4.74,0.14 v -1.55 c 3.49,0 3.55,-0.05 5.88,-3.03 l 4.93,-6.42 -4.68,-5.94 c -2.39,-2.89 -5.33,-2.98 -6.38,-2.98 v -1.55 c 1.3,0.09 2.85,0.16 4.14,0.16 1.44,0 3.53,-0.11 4.74,-0.16 v 1.55 c -1.1,0.14 -1.46,0.79 -1.46,1.54 0,1.1 1.46,2.74 4.49,6.33 l 3.8,-4.98 c 0.39,-0.55 1.04,-1.35 1.04,-1.64 0,-0.46 -0.45,-1.21 -1.79,-1.25 v -1.55 c 1.48,0.05 4.28,0.16 5.37,0.16 1.34,0 3.3,-0.07 4.78,-0.16 v 1.55 c -2.69,0 -3.58,0.09 -4.73,1.54 z"
           inkscape:connector-curvature="0"
           style="fill:#000000;stroke-width:0" /></g>    </g>
  </g>
</svg>
