<?xml version="1.0" encoding="UTF-8" standalone="no"?>
<!-- Created with Inkscape (http://www.inkscape.org/) -->

<svg
   xmlns:dc="http://purl.org/dc/elements/1.1/"
   xmlns:cc="http://creativecommons.org/ns#"
   xmlns:rdf="http://www.w3.org/1999/02/22-rdf-syntax-ns#"
   xmlns:svg="http://www.w3.org/2000/svg"
   xmlns="http://www.w3.org/2000/svg"
   xmlns:xlink="http://www.w3.org/1999/xlink"
   xmlns:sodipodi="http://sodipodi.sourceforge.net/DTD/sodipodi-0.dtd"
   xmlns:inkscape="http://www.inkscape.org/namespaces/inkscape"
   width="256.19305mm"
   height="213.18611mm"
   viewBox="0 0 907.77067 755.38385"
   id="svg14345"
   version="1.1"
   inkscape:version="0.91 r"
   sodipodi:docname="los_projection.svg">
  <sodipodi:namedview
     id="base"
     pagecolor="#ffffff"
     bordercolor="#666666"
     borderopacity="1.0"
     inkscape:pageopacity="0.0"
     inkscape:pageshadow="2"
     inkscape:zoom="0.72335583"
     inkscape:cx="300.35892"
     inkscape:cy="388.13973"
     inkscape:document-units="px"
     inkscape:current-layer="layer1"
     showgrid="false"
     inkscape:snap-bbox="true"
     inkscape:object-paths="true"
     inkscape:snap-intersection-paths="true"
     inkscape:object-nodes="true"
     inkscape:snap-smooth-nodes="true"
     inkscape:snap-midpoints="false"
     inkscape:bbox-nodes="true"
     inkscape:snap-bbox-edge-midpoints="true"
     inkscape:window-width="1920"
     inkscape:window-height="1056"
     inkscape:window-x="1920"
     inkscape:window-y="24"
     inkscape:window-maximized="1"
     showguides="false"
     inkscape:guide-bbox="true"
     inkscape:snap-object-midpoints="true"
     inkscape:snap-nodes="true"
     inkscape:bbox-paths="true"
     inkscape:snap-bbox-midpoints="true"
     inkscape:snap-center="true"
     inkscape:snap-perpendicular="true"
     inkscape:snap-tangential="true"
     inkscape:snap-global="true"
     fit-margin-top="0"
     fit-margin-left="0"
     fit-margin-right="0"
     fit-margin-bottom="0">
    <sodipodi:guide
       position="-41.469679,919.79523"
       orientation="0,1"
       id="guide19093" />
    <sodipodi:guide
       position="318.72828,463.66982"
       orientation="-0.78122489,-0.62424968"
       id="guide13354" />
    <sodipodi:guide
       position="318.72829,463.66984"
       orientation="0.99473102,0.10251926"
       id="guide15606" />
    <sodipodi:guide
       position="318.72829,463.66983"
       orientation="-0.47910764,0.87775616"
       id="guide15956" />
  </sodipodi:namedview>
  <defs
     id="defs14347">
    <marker
       inkscape:isstock="true"
       style="overflow:visible"
       id="marker15351"
       refX="0"
       refY="0"
       orient="auto"
       inkscape:stockid="TriangleOutM">
      <path
         inkscape:connector-curvature="0"
         transform="scale(0.4,0.4)"
         style="fill:#000000;fill-opacity:1;fill-rule:evenodd;stroke:#000000;stroke-width:1pt;stroke-opacity:1"
         d="m 5.77,0 -8.65,5 0,-10 8.65,5 z"
         id="path15353" />
    </marker>
    <linearGradient
       inkscape:collect="always"
       id="linearGradient13308">
      <stop
         style="stop-color:#e6e6e6;stop-opacity:1"
         offset="0"
         id="stop13310" />
      <stop
         style="stop-color:#b3b3b3;stop-opacity:1"
         offset="1"
         id="stop13312" />
    </linearGradient>
    <marker
       inkscape:collect="always"
       inkscape:stockid="TriangleOutM"
       orient="auto"
       refY="0"
       refX="0"
       id="marker27195"
       style="overflow:visible"
       inkscape:isstock="true">
      <path
         id="path27197"
         d="m 5.77,0 -8.65,5 0,-10 8.65,5 z"
         style="fill:#000000;fill-opacity:1;fill-rule:evenodd;stroke:#000000;stroke-width:1pt;stroke-opacity:1"
         transform="scale(0.4,0.4)"
         inkscape:connector-curvature="0" />
    </marker>
    <marker
       inkscape:stockid="TriangleOutM"
       orient="auto"
       refY="0"
       refX="0"
       id="TriangleOutM"
       style="overflow:visible"
       inkscape:isstock="true">
      <path
         id="path23826"
         d="m 5.77,0 -8.65,5 0,-10 8.65,5 z"
         style="fill:#000000;fill-opacity:1;fill-rule:evenodd;stroke:#000000;stroke-width:1pt;stroke-opacity:1"
         transform="scale(0.4,0.4)"
         inkscape:connector-curvature="0" />
    </marker>
    <marker
       inkscape:stockid="Arrow1Lstart"
       orient="auto"
       refY="0"
       refX="0"
       id="Arrow1Lstart"
       style="overflow:visible"
       inkscape:isstock="true">
      <path
         id="path23681"
         d="M 0,0 5,-5 -12.5,0 5,5 0,0 Z"
         style="fill:#000000;fill-opacity:1;fill-rule:evenodd;stroke:#000000;stroke-width:1pt;stroke-opacity:1"
         transform="matrix(0.8,0,0,0.8,10,0)"
         inkscape:connector-curvature="0" />
    </marker>
    <marker
       inkscape:stockid="TriangleOutL"
       orient="auto"
       refY="0"
       refX="0"
       id="TriangleOutL"
       style="overflow:visible"
       inkscape:isstock="true">
      <path
         id="path23823"
         d="m 5.77,0 -8.65,5 0,-10 8.65,5 z"
         style="fill:#000000;fill-opacity:1;fill-rule:evenodd;stroke:#000000;stroke-width:1pt;stroke-opacity:1"
         transform="scale(0.8,0.8)"
         inkscape:connector-curvature="0" />
    </marker>
    <marker
       inkscape:stockid="Arrow2Mend"
       orient="auto"
       refY="0"
       refX="0"
       id="marker26099"
       style="overflow:visible"
       inkscape:isstock="true">
      <path
         id="path26101"
         style="fill:#000000;fill-opacity:1;fill-rule:evenodd;stroke:#000000;stroke-width:0.625;stroke-linejoin:round;stroke-opacity:1"
         d="M 8.7185878,4.0337352 -2.2072895,0.01601326 8.7185884,-4.0017078 c -1.7454984,2.3720609 -1.7354408,5.6174519 -6e-7,8.035443 z"
         transform="scale(-0.6,-0.6)"
         inkscape:connector-curvature="0" />
    </marker>
    <marker
       inkscape:stockid="Arrow1Mend"
       orient="auto"
       refY="0"
       refX="0"
       id="marker25897"
       style="overflow:visible"
       inkscape:isstock="true">
      <path
         id="path25899"
         d="M 0,0 5,-5 -12.5,0 5,5 0,0 Z"
         style="fill:#000000;fill-opacity:1;fill-rule:evenodd;stroke:#000000;stroke-width:1pt;stroke-opacity:1"
         transform="matrix(-0.4,0,0,-0.4,-4,0)"
         inkscape:connector-curvature="0" />
    </marker>
    <marker
       inkscape:stockid="Arrow1Mend"
       orient="auto"
       refY="0"
       refX="0"
       id="Arrow1Mend"
       style="overflow:visible"
       inkscape:isstock="true">
      <path
         id="path23690"
         d="M 0,0 5,-5 -12.5,0 5,5 0,0 Z"
         style="fill:#000000;fill-opacity:1;fill-rule:evenodd;stroke:#000000;stroke-width:1pt;stroke-opacity:1"
         transform="matrix(-0.4,0,0,-0.4,-4,0)"
         inkscape:connector-curvature="0" />
    </marker>
    <marker
       inkscape:isstock="true"
       style="overflow:visible"
       id="marker25537"
       refX="0"
       refY="0"
       orient="auto"
       inkscape:stockid="TriangleInM">
      <path
         transform="scale(-0.4,-0.4)"
         style="fill:#000000;fill-opacity:1;fill-rule:evenodd;stroke:#000000;stroke-width:1pt;stroke-opacity:1"
         d="m 5.77,0 -8.65,5 0,-10 8.65,5 z"
         id="path25539"
         inkscape:connector-curvature="0" />
    </marker>
    <marker
       inkscape:stockid="Arrow2Mstart"
       orient="auto"
       refY="0"
       refX="0"
       id="Arrow2Mstart"
       style="overflow:visible"
       inkscape:isstock="true">
      <path
         id="path23705"
         style="fill:#000000;fill-opacity:1;fill-rule:evenodd;stroke:#000000;stroke-width:0.625;stroke-linejoin:round;stroke-opacity:1"
         d="M 8.7185878,4.0337352 -2.2072895,0.01601326 8.7185884,-4.0017078 c -1.7454984,2.3720609 -1.7354408,5.6174519 -6e-7,8.035443 z"
         transform="scale(0.6,0.6)"
         inkscape:connector-curvature="0" />
    </marker>
    <marker
       inkscape:isstock="true"
       style="overflow:visible"
       id="marker24677"
       refX="0"
       refY="0"
       orient="auto"
       inkscape:stockid="Arrow2Mend">
      <path
         transform="scale(-0.6,-0.6)"
         d="M 8.7185878,4.0337352 -2.2072895,0.01601326 8.7185884,-4.0017078 c -1.7454984,2.3720609 -1.7354408,5.6174519 -6e-7,8.035443 z"
         style="fill:#000000;fill-opacity:1;fill-rule:evenodd;stroke:#000000;stroke-width:0.625;stroke-linejoin:round;stroke-opacity:1"
         id="path24679"
         inkscape:connector-curvature="0" />
    </marker>
    <marker
       inkscape:stockid="Arrow1Send"
       orient="auto"
       refY="0"
       refX="0"
       id="Arrow1Send"
       style="overflow:visible"
       inkscape:isstock="true">
      <path
         id="path23696"
         d="M 0,0 5,-5 -12.5,0 5,5 0,0 Z"
         style="fill:#000000;fill-opacity:1;fill-rule:evenodd;stroke:#000000;stroke-width:1pt;stroke-opacity:1"
         transform="matrix(-0.2,0,0,-0.2,-1.2,0)"
         inkscape:connector-curvature="0" />
    </marker>
    <marker
       inkscape:stockid="Arrow2Mend"
       orient="auto"
       refY="0"
       refX="0"
       id="marker24009"
       style="overflow:visible"
       inkscape:isstock="true">
      <path
         id="path24011"
         style="fill:#000000;fill-opacity:1;fill-rule:evenodd;stroke:#000000;stroke-width:0.625;stroke-linejoin:round;stroke-opacity:1"
         d="M 8.7185878,4.0337352 -2.2072895,0.01601326 8.7185884,-4.0017078 c -1.7454984,2.3720609 -1.7354408,5.6174519 -6e-7,8.035443 z"
         transform="scale(-0.6,-0.6)"
         inkscape:connector-curvature="0" />
    </marker>
    <marker
       inkscape:stockid="Arrow2Mend"
       orient="auto"
       refY="0"
       refX="0"
       id="Arrow2Mend"
       style="overflow:visible"
       inkscape:isstock="true">
      <path
         id="path23708"
         style="fill:#000000;fill-opacity:1;fill-rule:evenodd;stroke:#000000;stroke-width:0.625;stroke-linejoin:round;stroke-opacity:1"
         d="M 8.7185878,4.0337352 -2.2072895,0.01601326 8.7185884,-4.0017078 c -1.7454984,2.3720609 -1.7354408,5.6174519 -6e-7,8.035443 z"
         transform="scale(-0.6,-0.6)"
         inkscape:connector-curvature="0" />
    </marker>
    <inkscape:perspective
       sodipodi:type="inkscape:persp3d"
       inkscape:vp_x="-228.3815 : 1175.5807 : 1"
       inkscape:vp_y="602.23209 : 798.32101 : 0"
       inkscape:vp_z="1292.9973 : 1175.5807 : 1"
       inkscape:persp3d-origin="119.96793 : 438.26906 : 1"
       id="perspective18915" />
    <linearGradient
       gradientTransform="translate(-140.28498,49.07727)"
       inkscape:collect="always"
       xlink:href="#linearGradient13308"
       id="linearGradient13314"
       x1="-24.283331"
       y1="367.61813"
       x2="317.31421"
       y2="337.73221"
       gradientUnits="userSpaceOnUse" />
  </defs>
  <metadata
     id="metadata14350">
    <rdf:RDF>
      <cc:Work
         rdf:about="">
        <dc:format>image/svg+xml</dc:format>
        <dc:type
           rdf:resource="http://purl.org/dc/dcmitype/StillImage" />
        <dc:title></dc:title>
      </cc:Work>
    </rdf:RDF>
  </metadata>
  <g
     inkscape:label="Layer 1"
     inkscape:groupmode="layer"
     id="layer1"
     transform="translate(43.172139,-43.073663)">
    <rect
       style="opacity:1;fill:url(#linearGradient13314);fill-opacity:1;fill-rule:nonzero;stroke:#000000;stroke-width:4.06196165;stroke-linecap:square;stroke-linejoin:miter;stroke-miterlimit:4;stroke-dasharray:none;stroke-dashoffset:0;stroke-opacity:1"
       id="rect23612"
       width="341.97415"
       height="530.53381"
       x="-164.60997"
       y="167.18602"
       transform="matrix(0.87775615,-0.47910765,0.62424968,0.78122489,0,0)" />
    <path
       style="fill:#916f6f;fill-rule:evenodd;stroke:#000000;stroke-width:2;stroke-linecap:butt;stroke-linejoin:miter;stroke-miterlimit:4;stroke-dasharray:none;stroke-opacity:1"
       d="m 131.43823,186.01043 c 1.65923,-22.27602 92.19247,-20.61513 102.14279,-22.69839 40.61688,-8.50379 90.56256,-14.41753 113.49198,8.51189 15.32553,15.32554 -1.42034,62.05794 0.5539,92.49403 2.94171,45.35128 22.57271,100.07297 -6.2285,134.48994 -27.38734,32.72741 -97.10355,45.81648 -124.84118,28.37299 -11.27681,-11.27681 -41.56707,-57.46216 -48.23409,-76.60708 -16.49193,-47.358 -37.15531,-108.8114 -36.8849,-164.56338 z"
       id="path13358"
       inkscape:connector-curvature="0"
       sodipodi:nodetypes="csssacsc" />
    <path
       style="fill:#916f6f;fill-rule:evenodd;stroke:#000000;stroke-width:2;stroke-linecap:butt;stroke-linejoin:miter;stroke-miterlimit:4;stroke-dasharray:none;stroke-opacity:1"
       d="m 137.32255,243.48878 c 1.65923,-22.27602 92.19247,-20.61513 102.14279,-22.69839 40.61688,-8.50379 90.56256,-14.41753 113.49198,8.51189 15.32553,15.32554 1.57065,77.19149 3.54489,107.62758 2.94171,45.35128 16.85794,89.15217 -9.21949,119.3564 -27.88825,32.30162 -97.10355,45.81648 -124.84118,28.37299 -11.27681,-11.27681 -41.56707,-57.46216 -48.23409,-76.60708 -16.49193,-47.358 -37.15531,-108.8114 -36.8849,-164.56339 z"
       id="path13358-1"
       inkscape:connector-curvature="0"
       sodipodi:nodetypes="csssacsc" />
    <path
       style="fill:none;fill-rule:evenodd;stroke:#000000;stroke-width:4;stroke-linecap:butt;stroke-linejoin:miter;stroke-miterlimit:4;stroke-dasharray:4, 8;stroke-dashoffset:0;stroke-opacity:1"
       d="m 275.55614,334.78768 165.59278,207.2331"
       id="path15958"
       inkscape:connector-curvature="0" />
    <path
       style="fill:none;fill-rule:evenodd;stroke:#000000;stroke-width:4px;stroke-linecap:butt;stroke-linejoin:miter;stroke-opacity:1;marker-end:url(#marker27195)"
       d="m 275.55614,334.78767 35.30567,342.56618"
       id="path13446"
       inkscape:connector-curvature="0"
       sodipodi:nodetypes="cc" />
    <g
       transform="translate(-140.77346,-254.07462)"
       id="g15140">
      <g
         style="font-style:normal;font-variant:normal;font-weight:normal;font-stretch:normal;letter-spacing:normal;word-spacing:normal;text-anchor:start;fill:none;fill-opacity:1;fill-rule:evenodd;stroke:#000000;stroke-linecap:butt;stroke-linejoin:miter;stroke-miterlimit:10.43299961;stroke-dasharray:none;stroke-dashoffset:0;stroke-opacity:1"
         id="content"
         transform="matrix(1.273861,0,0,-1.273861,-222.92567,1500.6367)"
         xml:space="preserve"
         stroke-miterlimit="10.433"
         font-style="normal"
         font-variant="normal"
         font-weight="normal"
         font-stretch="normal"
         font-size-adjust="none"
         letter-spacing="normal"
         word-spacing="normal"><path
           style="fill:#000000;stroke-width:0"
           inkscape:connector-curvature="0"
           d="m 478.83,424.73 0,0.12 0,0.13 -0.01,0.12 0,0.11 -0.01,0.12 -0.01,0.11 -0.01,0.11 -0.02,0.1 -0.03,0.21 -0.03,0.19 -0.05,0.18 -0.04,0.18 -0.06,0.16 -0.06,0.16 -0.06,0.15 -0.07,0.13 -0.07,0.13 -0.07,0.12 -0.08,0.12 -0.08,0.1 -0.08,0.1 -0.09,0.09 -0.08,0.08 -0.09,0.07 -0.09,0.07 -0.09,0.06 -0.1,0.05 -0.09,0.05 -0.09,0.04 -0.09,0.03 -0.09,0.03 -0.1,0.03 -0.09,0.01 -0.08,0.02 -0.09,0 -0.09,0 c -1.25,0 -2.43,-1.29 -2.43,-2.39 0,-0.64 0.25,-0.93 0.79,-1.48 1.05,-1 1.69,-2.3 1.69,-4.09 0,-2.1 -3.03,-13.5 -8.86,-13.5 -2.54,0 -3.69,1.75 -3.69,4.32 0,2.8 1.35,6.44 2.9,10.57 0.34,0.86 0.59,1.54 0.59,2.5 0,2.23 -1.59,4.07 -4.09,4.07 -4.68,0 -6.58,-7.21 -6.58,-7.67 0,-0.5 0.5,-0.5 0.61,-0.5 0.5,0 0.54,0.11 0.79,0.91 1.44,5.03 3.58,6.17 5.03,6.17 0.4,0 1.25,0 1.25,-1.59 0,-1.25 -0.5,-2.6 -0.85,-3.49 -2.19,-5.78 -2.83,-8.08 -2.83,-10.22 0,-5.37 4.37,-6.17 6.67,-6.17 8.37,0 11.2,16.49 11.2,19.08 z"
           id="path15143" /><path
           style="fill:#000000;stroke-width:0"
           inkscape:connector-curvature="0"
           d="m 494.77,401.59 -0.02,-0.07 -0.02,-0.07 -0.02,-0.07 -0.01,-0.07 -0.02,-0.08 -0.02,-0.08 -0.04,-0.15 -0.04,-0.17 -0.04,-0.16 -0.04,-0.16 -0.02,-0.07 -0.02,-0.08 -0.02,-0.08 -0.02,-0.07 -0.01,-0.07 -0.02,-0.07 -0.02,-0.07 -0.01,-0.06 -0.01,-0.06 -0.02,-0.06 -0.01,-0.05 -0.01,-0.05 -0.01,-0.04 -0.01,-0.04 0,-0.04 -0.01,-0.03 0,-0.02 0,-0.02 c 0,-0.77 0.63,-1.11 1.17,-1.11 0.64,0 1.19,0.45 1.36,0.76 0.19,0.32 0.46,1.43 0.64,2.16 0.17,0.66 0.55,2.27 0.77,3.14 0.2,0.77 0.4,1.53 0.59,2.33 0.38,1.5 0.38,1.56 1.08,2.65 1.11,1.71 2.86,3.69 5.56,3.69 1.96,0 2.07,-1.61 2.07,-2.44 0,-2.09 -1.5,-5.95 -2.07,-7.42 -0.37,-0.98 -0.51,-1.29 -0.51,-1.89 0,-1.84 1.53,-2.98 3.31,-2.98 3.48,0 5.02,4.79 5.02,5.33 0,0.45 -0.46,0.45 -0.57,0.45 -0.48,0 -0.51,-0.2 -0.65,-0.59 -0.8,-2.79 -2.3,-4.22 -3.69,-4.22 -0.74,0 -0.88,0.48 -0.88,1.22 0,0.79 0.18,1.25 0.8,2.82 0.42,1.08 1.84,4.77 1.84,6.72 0,0.56 0,2.03 -1.28,3.03 -0.59,0.46 -1.61,0.94 -3.25,0.94 -3.12,0 -5.04,-2.05 -6.15,-3.51 -0.28,2.96 -2.77,3.51 -4.53,3.51 -2.89,0 -4.85,-1.76 -5.89,-3.16 -0.25,2.4 -2.3,3.16 -3.74,3.16 -1.5,0 -2.3,-1.08 -2.75,-1.87 -0.76,-1.29 -1.25,-3.29 -1.25,-3.46 0,-0.45 0.49,-0.45 0.6,-0.45 0.48,0 0.51,0.11 0.76,1.05 0.52,2.06 1.19,3.76 2.55,3.76 0.9,0 1.14,-0.76 1.14,-1.7 0,-0.67 -0.31,-1.95 -0.56,-2.89 -0.24,-0.95 -0.58,-2.38 -0.77,-3.14 l -1.11,-4.47 c -0.14,-0.44 -0.34,-1.31 -0.34,-1.42 0,-0.77 0.62,-1.11 1.18,-1.11 0.63,0 1.18,0.45 1.36,0.76 0.18,0.32 0.46,1.43 0.63,2.16 0.17,0.66 0.55,2.27 0.76,3.14 0.21,0.77 0.43,1.53 0.6,2.33 0.37,1.44 0.45,1.7 1.45,3.14 0.99,1.39 2.63,3.2 5.24,3.2 2.01,0 2.04,-1.78 2.04,-2.44 0,-0.87 -0.09,-1.32 -0.59,-3.28 z"
           id="path15145" /><path
           style="fill:#000000;stroke-width:0"
           inkscape:connector-curvature="0"
           d="m 533.54,408.03 -0.01,0.36 -0.02,0.34 -0.05,0.34 -0.05,0.33 -0.07,0.32 -0.09,0.31 -0.1,0.3 -0.12,0.28 -0.12,0.28 -0.15,0.27 -0.15,0.25 -0.17,0.25 -0.17,0.23 -0.19,0.22 -0.2,0.22 -0.21,0.2 -0.22,0.19 -0.23,0.17 -0.24,0.17 -0.25,0.15 -0.25,0.15 -0.27,0.13 -0.27,0.12 -0.28,0.1 -0.28,0.1 -0.29,0.08 -0.3,0.07 -0.3,0.06 -0.31,0.04 -0.31,0.04 -0.31,0.01 -0.32,0.01 c -5.17,0 -10.04,-4.84 -10.04,-9.61 0,-3.48 2.54,-6.09 6.34,-6.09 l 0.03,0.97 c -1.73,0 -3.48,1.12 -3.48,3.87 0,1.42 0.67,4.85 2.03,6.83 1.5,2.16 3.51,3.06 5.08,3.06 1.89,0 3.48,-1.29 3.48,-3.87 0,-0.83 -0.41,-4.28 -1.95,-6.72 -1.32,-2.05 -3.41,-3.17 -5.16,-3.17 l 0,0 -0.03,-0.97 c 4.98,0 10,4.59 10,9.61 z"
           id="path15147" /><path
           style="fill:#000000;stroke-width:0"
           inkscape:connector-curvature="0"
           d="m 543.3,412.53 3.54,0 c 0.66,0 1.11,0 1.11,0.76 0,0.49 -0.45,0.49 -1.03,0.49 l -3.31,0 1.28,5.15 c 0.03,0.18 0.11,0.35 0.11,0.49 0,0.64 -0.48,1.12 -1.19,1.12 -0.87,0 -1.39,-0.59 -1.64,-1.5 -0.23,-0.87 0.22,0.8 -1.33,-5.26 l -3.54,0 c -0.66,0 -1.11,0 -1.11,-0.77 0,-0.48 0.4,-0.48 1.04,-0.48 l 3.3,0 -2.05,-8.22 c -0.21,-0.88 -0.53,-2.13 -0.53,-2.58 0,-2.06 1.75,-3.31 3.74,-3.31 3.87,0 6.06,4.87 6.06,5.33 0,0.45 -0.45,0.45 -0.56,0.45 -0.41,0 -0.46,-0.08 -0.72,-0.66 -0.99,-2.2 -2.77,-4.15 -4.67,-4.15 -0.74,0 -1.22,0.45 -1.22,1.7 0,0.36 0.14,1.09 0.2,1.44 z"
           id="path15149" /><path
           style="fill:#000000;stroke-width:0"
           inkscape:connector-curvature="0"
           d="m 561.02,420.54 -0.01,0.05 0,0.06 -0.01,0.05 0,0.06 -0.02,0.05 -0.01,0.06 -0.02,0.05 -0.02,0.06 -0.02,0.06 -0.02,0.05 -0.03,0.06 -0.03,0.05 -0.03,0.06 -0.04,0.05 -0.04,0.05 -0.04,0.05 -0.04,0.05 -0.05,0.05 -0.05,0.04 -0.05,0.05 -0.06,0.04 -0.06,0.03 -0.06,0.04 -0.07,0.03 -0.06,0.03 -0.08,0.03 -0.07,0.02 -0.08,0.02 -0.08,0.01 -0.08,0.01 -0.09,0.01 -0.09,0 c -0.94,0 -1.95,-0.91 -1.95,-1.92 0,-0.59 0.45,-1.33 1.4,-1.33 1,0 1.96,0.99 1.96,1.92 z"
           id="path15151" /><path
           style="fill:#000000;stroke-width:0"
           inkscape:connector-curvature="0"
           d="m 553.91,402.84 -0.06,-0.17 -0.05,-0.17 -0.03,-0.08 -0.02,-0.09 -0.03,-0.08 -0.02,-0.09 -0.02,-0.09 -0.02,-0.09 -0.02,-0.1 -0.02,-0.09 -0.01,-0.1 0,-0.05 -0.01,-0.05 0,-0.06 0,-0.05 -0.01,-0.05 0,-0.06 c 0,-1.64 1.39,-2.95 3.3,-2.95 3.49,0 5.03,4.79 5.03,5.33 0,0.45 -0.45,0.45 -0.56,0.45 -0.48,0 -0.53,-0.2 -0.67,-0.59 -0.8,-2.79 -2.33,-4.22 -3.69,-4.22 -0.7,0 -0.88,0.45 -0.88,1.22 0,0.79 0.26,1.46 0.57,2.23 0.34,0.94 0.73,1.87 1.11,2.78 0.31,0.84 1.58,4.02 1.72,4.44 0.09,0.34 0.2,0.76 0.2,1.11 0,1.64 -1.39,2.95 -3.31,2.95 -3.46,0 -5.05,-4.73 -5.05,-5.33 0,-0.45 0.48,-0.45 0.59,-0.45 0.49,0 0.52,0.17 0.63,0.56 0.9,3 2.44,4.25 3.72,4.25 0.56,0 0.87,-0.28 0.87,-1.22 0,-0.79 -0.2,-1.32 -1.08,-3.48 z"
           id="path15153" /><path
           style="fill:#000000;stroke-width:0"
           inkscape:connector-curvature="0"
           d="m 582.26,408.03 -0.01,0.36 -0.03,0.34 -0.04,0.34 -0.05,0.33 -0.07,0.32 -0.09,0.31 -0.1,0.3 -0.12,0.28 -0.13,0.28 -0.14,0.27 -0.15,0.25 -0.17,0.25 -0.17,0.23 -0.19,0.22 -0.2,0.22 -0.21,0.2 -0.22,0.19 -0.23,0.17 -0.24,0.17 -0.25,0.15 -0.26,0.15 -0.26,0.13 -0.27,0.12 -0.28,0.1 -0.28,0.1 -0.29,0.08 -0.3,0.07 -0.3,0.06 -0.31,0.04 -0.31,0.04 -0.31,0.01 -0.32,0.01 c -5.17,0 -10.05,-4.84 -10.05,-9.61 0,-3.48 2.55,-6.09 6.35,-6.09 l 0.03,0.97 c -1.74,0 -3.49,1.12 -3.49,3.87 0,1.42 0.68,4.85 2.04,6.83 1.5,2.16 3.51,3.06 5.07,3.06 1.89,0 3.49,-1.29 3.49,-3.87 0,-0.83 -0.41,-4.28 -1.95,-6.72 -1.32,-2.05 -3.41,-3.17 -5.16,-3.17 l 0,0 -0.03,-0.97 c 4.98,0 10,4.59 10,9.61 z"
           id="path15155" /><path
           style="fill:#000000;stroke-width:0"
           inkscape:connector-curvature="0"
           d="m 587.69,400.95 -0.02,-0.04 -0.01,-0.05 -0.01,-0.04 -0.02,-0.05 -0.01,-0.05 -0.02,-0.06 -0.01,-0.05 -0.02,-0.05 -0.02,-0.11 -0.03,-0.11 -0.03,-0.12 -0.03,-0.1 -0.01,-0.06 -0.01,-0.05 -0.01,-0.05 -0.01,-0.05 -0.01,-0.05 -0.01,-0.04 -0.01,-0.05 -0.01,-0.04 -0.01,-0.03 -0.01,-0.04 0,-0.03 -0.01,-0.03 0,-0.02 0,-0.02 0,-0.01 -0.01,-0.01 0,-0.01 0,0 c 0,-0.77 0.63,-1.11 1.19,-1.11 0.63,0 1.17,0.45 1.36,0.76 0.17,0.32 0.45,1.43 0.63,2.16 0.17,0.66 0.54,2.27 0.76,3.14 0.2,0.77 0.42,1.53 0.6,2.33 0.37,1.44 0.45,1.7 1.45,3.14 0.98,1.39 2.62,3.2 5.23,3.2 2.02,0 2.05,-1.78 2.05,-2.44 0,-2.09 -1.49,-5.95 -2.05,-7.42 -0.39,-0.98 -0.53,-1.29 -0.53,-1.89 0,-1.84 1.55,-2.98 3.31,-2.98 3.49,0 5.02,4.79 5.02,5.33 0,0.45 -0.45,0.45 -0.55,0.45 -0.5,0 -0.53,-0.2 -0.67,-0.59 -0.8,-2.79 -2.3,-4.22 -3.69,-4.22 -0.73,0 -0.87,0.48 -0.87,1.22 0,0.79 0.17,1.25 0.8,2.82 0.42,1.08 1.85,4.77 1.85,6.72 0,3.39 -2.68,3.97 -4.53,3.97 -2.89,0 -4.84,-1.76 -5.89,-3.16 -0.25,2.4 -2.29,3.16 -3.73,3.16 -1.5,0 -2.3,-1.08 -2.75,-1.87 -0.77,-1.29 -1.25,-3.29 -1.25,-3.46 0,-0.45 0.48,-0.45 0.59,-0.45 0.49,0 0.52,0.11 0.77,1.05 0.51,2.06 1.18,3.76 2.54,3.76 0.91,0 1.14,-0.76 1.14,-1.7 0,-0.67 -0.31,-1.95 -0.56,-2.89 -0.23,-0.95 -0.58,-2.38 -0.76,-3.14 z"
           id="path15157" /></g>    </g>
    <circle
       r="12.759247"
       cy="783.55438"
       cx="849.69543"
       id="path15209"
       style="opacity:1;fill:#000000;fill-opacity:1;fill-rule:nonzero;stroke:#000000;stroke-width:4.2877059;stroke-linejoin:miter;stroke-miterlimit:4;stroke-dasharray:none;stroke-dashoffset:0;stroke-opacity:1" />
    <path
       inkscape:connector-curvature="0"
       id="path15343"
       d="M 275.55615,334.78767 841.73046,773.58655"
       style="fill:none;fill-rule:evenodd;stroke:#000000;stroke-width:4;stroke-linecap:butt;stroke-linejoin:miter;stroke-miterlimit:4;stroke-dasharray:none;stroke-opacity:1;marker-start:url(#marker25537)" />
    <g
       id="g15512"
       transform="translate(244.44423,-403.97938)">
      <g
         word-spacing="normal"
         letter-spacing="normal"
         font-size-adjust="none"
         font-stretch="normal"
         font-weight="normal"
         font-variant="normal"
         font-style="normal"
         stroke-miterlimit="10.433"
         xml:space="preserve"
         transform="matrix(1.273861,0,0,-1.273861,-222.92567,1500.6367)"
         id="g15514"
         style="font-style:normal;font-variant:normal;font-weight:normal;font-stretch:normal;letter-spacing:normal;word-spacing:normal;text-anchor:start;fill:none;fill-opacity:1;fill-rule:evenodd;stroke:#000000;stroke-linecap:butt;stroke-linejoin:miter;stroke-miterlimit:10.43299961;stroke-dasharray:none;stroke-dashoffset:0;stroke-opacity:1"><path
           id="path15516"
           d="m 474.16,436.34 0.04,0.16 0.04,0.16 0.04,0.15 0.04,0.15 0.04,0.13 0.05,0.13 0.05,0.13 0.05,0.11 0.06,0.12 0.06,0.1 0.08,0.1 0.08,0.09 0.09,0.09 0.1,0.08 0.11,0.08 0.12,0.07 0.13,0.06 0.15,0.06 0.16,0.06 0.18,0.05 0.09,0.02 0.1,0.02 0.1,0.02 0.11,0.02 0.11,0.02 0.11,0.02 0.12,0.02 0.13,0.01 0.13,0.01 0.14,0.02 0.14,0.01 0.14,0.01 0.15,0.01 0.16,0.01 0.16,0.01 0.17,0.01 0.17,0 0.18,0.01 0.18,0 0.19,0.01 0.2,0 0.2,0 0.21,0 0.22,0 c 1.49,0 1.89,0 1.89,0.96 0,0.59 -0.54,0.59 -0.79,0.59 -1.66,0 -5.74,-0.16 -7.38,-0.16 -1.5,0 -5.14,0.16 -6.62,0.16 -0.36,0 -0.96,0 -0.96,-1 0,-0.55 0.46,-0.55 1.39,-0.55 0.11,0 1.05,0 1.91,-0.09 0.89,-0.11 1.34,-0.16 1.34,-0.8 0,-0.2 -0.06,-0.36 -0.2,-0.95 l -6.67,-26.75 c -0.5,-1.95 -0.61,-2.34 -4.55,-2.34 -0.84,0 -1.34,0 -1.34,-1 0,-0.55 0.45,-0.55 1.34,-0.55 l 23.08,0 c 1.19,0 1.23,0 1.55,0.84 l 3.92,10.77 c 0.2,0.55 0.2,0.64 0.2,0.7 0,0.19 -0.14,0.55 -0.59,0.55 -0.46,0 -0.5,-0.25 -0.85,-1.05 -1.7,-4.59 -3.89,-10.26 -12.51,-10.26 l -4.67,0 c -0.71,0 -0.8,0 -1.1,0.04 -0.5,0.05 -0.65,0.1 -0.65,0.5 0,0.14 0,0.25 0.25,1.14 z"
           inkscape:connector-curvature="0"
           style="fill:#000000;stroke-width:0" /><path
           id="path15518"
           d="m 526.35,427.92 -0.01,0.74 -0.05,0.73 -0.07,0.71 -0.11,0.7 -0.13,0.68 -0.16,0.66 -0.19,0.64 -0.22,0.62 -0.24,0.6 -0.27,0.59 -0.29,0.56 -0.32,0.54 -0.34,0.52 -0.37,0.5 -0.39,0.47 -0.41,0.45 -0.43,0.43 -0.46,0.41 -0.47,0.38 -0.49,0.35 -0.52,0.33 -0.53,0.3 -0.55,0.28 -0.57,0.25 -0.59,0.22 -0.6,0.2 -0.62,0.16 -0.64,0.14 -0.64,0.1 -0.67,0.08 -0.68,0.05 -0.69,0.01 -0.29,-1.25 c 4.09,0 8.57,-2.78 8.57,-10.2 0,-3.59 -1.34,-11.36 -6.28,-17.5 -2.39,-3.03 -6.48,-5.97 -10.65,-5.97 l 0,0 c -4.94,0 -8.43,4.03 -8.43,10.61 0,2.19 0.69,9.47 4.54,15.3 3.43,5.17 8.31,7.76 12.25,7.76 l 0.29,1.25 c -10.75,0 -21.72,-11.31 -21.72,-22.92 0,-8.26 5.58,-13.29 12.77,-13.29 10.55,0 21.67,10.9 21.67,22.81 z"
           inkscape:connector-curvature="0"
           style="fill:#000000;stroke-width:0" /><path
           id="path15520"
           d="m 561.1,440.82 0,0.02 0,0.02 -0.01,0.01 0,0.02 0,0.02 -0.01,0.02 0,0.02 -0.01,0.02 0,0.02 -0.01,0.02 -0.01,0.02 -0.01,0.02 -0.01,0.02 -0.01,0.02 -0.02,0.02 -0.01,0.02 -0.02,0.02 -0.02,0.02 -0.01,0.02 -0.02,0.02 -0.03,0.01 -0.02,0.02 -0.02,0.01 -0.03,0.02 -0.03,0.01 -0.03,0.01 -0.01,0.01 -0.02,0 -0.01,0.01 -0.02,0 -0.02,0 -0.01,0.01 -0.02,0 -0.02,0 -0.02,0 -0.02,0 -0.02,0 -0.02,0 c -0.25,0 -0.31,-0.04 -0.9,-0.75 l -2.4,-2.84 c -1.29,2.34 -3.89,3.59 -7.12,3.59 -6.33,0 -12.3,-5.73 -12.3,-11.76 0,-4.03 2.64,-6.33 5.17,-7.06 l 5.33,-1.41 c 1.85,-0.44 4.6,-1.19 4.6,-5.28 0,-4.49 -4.1,-9.16 -8.97,-9.16 -3.19,0 -8.72,1.1 -8.72,7.27 0,1.2 0.25,2.39 0.29,2.69 0.05,0.2 0.1,0.25 0.1,0.35 0,0.5 -0.35,0.55 -0.6,0.55 -0.25,0 -0.34,-0.05 -0.5,-0.2 -0.2,-0.2 -2.98,-11.56 -2.98,-11.7 0,-0.3 0.25,-0.5 0.55,-0.5 0.25,0 0.3,0.04 0.89,0.75 l 2.45,2.82 c 2.14,-2.89 5.52,-3.57 8.41,-3.57 6.78,0 12.65,6.62 12.65,12.79 0,3.44 -1.68,5.14 -2.43,5.83 -1.14,1.16 -1.89,1.34 -6.33,2.5 -1.09,0.3 -2.89,0.8 -3.34,0.89 -1.35,0.45 -3.04,1.89 -3.04,4.53 0,4.05 3.99,8.28 8.72,8.28 4.14,0 7.17,-2.14 7.17,-7.73 0,-1.59 -0.2,-2.49 -0.2,-2.78 0,-0.05 0,-0.5 0.61,-0.5 0.5,0 0.55,0.15 0.74,1 z"
           inkscape:connector-curvature="0"
           style="fill:#000000;stroke-width:0" /></g>    </g>
    <path
       style="opacity:1;fill:none;fill-opacity:1;fill-rule:nonzero;stroke:#000000;stroke-width:2;stroke-linejoin:miter;stroke-miterlimit:4;stroke-dasharray:none;stroke-dashoffset:0;stroke-opacity:1"
       id="path15960"
       sodipodi:type="arc"
       sodipodi:cx="275.55615"
       sodipodi:cy="334.78769"
       sodipodi:rx="348.93991"
       sodipodi:ry="348.93991"
       sodipodi:start="0.65916197"
       sodipodi:end="1.4707499"
       d="M 551.39516,548.49754 A 348.93991,348.93991 0 0 1 310.40814,681.98274"
       sodipodi:open="true" />
    <path
       style="opacity:1;fill:none;fill-opacity:1;fill-rule:nonzero;stroke:#000000;stroke-width:2;stroke-linejoin:miter;stroke-miterlimit:4;stroke-dasharray:none;stroke-dashoffset:0;stroke-opacity:1"
       id="path15962"
       sodipodi:type="arc"
       sodipodi:cx="275.55612"
       sodipodi:cy="334.78769"
       sodipodi:rx="262.13608"
       sodipodi:ry="262.13608"
       sodipodi:start="0.65916199"
       sodipodi:end="0.89728626"
       sodipodi:open="true"
       d="m 482.7762,495.33414 a 262.13608,262.13608 0 0 1 -43.71705,44.34884" />
  </g>
</svg>
