<?xml version="1.0" encoding="UTF-8" standalone="no"?>
<!-- Created with Inkscape (http://www.inkscape.org/) -->

<svg
   xmlns:dc="http://purl.org/dc/elements/1.1/"
   xmlns:cc="http://creativecommons.org/ns#"
   xmlns:rdf="http://www.w3.org/1999/02/22-rdf-syntax-ns#"
   xmlns:svg="http://www.w3.org/2000/svg"
   xmlns="http://www.w3.org/2000/svg"
   xmlns:sodipodi="http://sodipodi.sourceforge.net/DTD/sodipodi-0.dtd"
   xmlns:inkscape="http://www.inkscape.org/namespaces/inkscape"
   width="820.62335"
   height="325.95163"
   id="svg6304"
   version="1.1"
   inkscape:version="0.91+devel r"
   sodipodi:docname="polarimetry_waves.svg"
   inkscape:export-filename="/home/baffelli/PhD_work/Presentation_workshop/Drawings/polarimetry_waves.png"
   inkscape:export-xdpi="90"
   inkscape:export-ydpi="90"
   viewBox="0 0 820.62335 325.95163">
  <sodipodi:namedview
     id="base"
     pagecolor="#ffffff"
     bordercolor="#666666"
     borderopacity="1.0"
     inkscape:pageopacity="0.0"
     inkscape:pageshadow="2"
     inkscape:zoom="0.71"
     inkscape:cx="174.74145"
     inkscape:cy="141.41925"
     inkscape:document-units="px"
     inkscape:current-layer="layer1"
     showgrid="false"
     inkscape:object-paths="true"
     inkscape:snap-intersection-paths="true"
     inkscape:object-nodes="true"
     inkscape:snap-smooth-nodes="true"
     inkscape:snap-midpoints="true"
     inkscape:window-width="1920"
     inkscape:window-height="1056"
     inkscape:window-x="1920"
     inkscape:window-y="24"
     inkscape:window-maximized="1"
     fit-margin-top="0"
     fit-margin-left="0"
     fit-margin-right="0"
     fit-margin-bottom="0"
     inkscape:snap-global="false" />
  <defs
     id="defs6306">
    <marker
       inkscape:isstock="true"
       style="overflow:visible"
       id="marker8576"
       refX="0.0"
       refY="0.0"
       orient="auto"
       inkscape:stockid="TriangleOutL">
      <path
         transform="scale(0.8)"
         style="fill-rule:evenodd;stroke:#000000;stroke-width:1pt;stroke-opacity:1;fill:#000000;fill-opacity:1"
         d="M 5.77,0.0 L -2.88,5.0 L -2.88,-5.0 L 5.77,0.0 z "
         id="path8574" />
    </marker>
    <marker
       inkscape:isstock="true"
       style="overflow:visible"
       id="TriangleOutL"
       refX="0.0"
       refY="0.0"
       orient="auto"
       inkscape:stockid="TriangleOutL">
      <path
         transform="scale(0.8)"
         style="fill-rule:evenodd;stroke:#000000;stroke-width:1pt;stroke-opacity:1;fill:#000000;fill-opacity:1"
         d="M 5.77,0.0 L -2.88,5.0 L -2.88,-5.0 L 5.77,0.0 z "
         id="path8444" />
    </marker>
    <marker
       inkscape:isstock="true"
       style="overflow:visible"
       id="TriangleInL"
       refX="0.0"
       refY="0.0"
       orient="auto"
       inkscape:stockid="TriangleInL">
      <path
         transform="scale(-0.8)"
         style="fill-rule:evenodd;stroke:#000000;stroke-width:1pt;stroke-opacity:1;fill:#000000;fill-opacity:1"
         d="M 5.77,0.0 L -2.88,5.0 L -2.88,-5.0 L 5.77,0.0 z "
         id="path8435" />
    </marker>
    <marker
       inkscape:isstock="true"
       style="overflow:visible"
       id="Arrow2Lstart"
       refX="0.0"
       refY="0.0"
       orient="auto"
       inkscape:stockid="Arrow2Lstart">
      <path
         transform="scale(1.1) translate(1,0)"
         d="M 8.7185878,4.0337352 L -2.2072895,0.016013256 L 8.7185884,-4.0017078 C 6.9730900,-1.6296469 6.9831476,1.6157441 8.7185878,4.0337352 z "
         style="fill-rule:evenodd;stroke-width:0.625;stroke-linejoin:round;stroke:#000000;stroke-opacity:1;fill:#000000;fill-opacity:1"
         id="path8320" />
    </marker>
    <marker
       style="overflow:visible"
       id="Arrow1Lend"
       refX="0"
       refY="0"
       orient="auto"
       inkscape:stockid="Arrow1Lend">
      <path
         inkscape:connector-curvature="0"
         transform="matrix(-0.8,0,0,-0.8,-10,0)"
         style="fill-rule:evenodd;stroke:#000000;stroke-width:1.00000003pt"
         d="M 0,0 5,-5 -12.5,0 5,5 Z"
         id="path4478" />
    </marker>
    <marker
       style="overflow:visible"
       id="Arrow1Lstart"
       refX="0"
       refY="0"
       orient="auto"
       inkscape:stockid="Arrow1Lstart">
      <path
         inkscape:connector-curvature="0"
         transform="matrix(0.8,0,0,0.8,10,0)"
         style="fill-rule:evenodd;stroke:#000000;stroke-width:1.00000003pt"
         d="M 0,0 5,-5 -12.5,0 5,5 Z"
         id="path4475" />
    </marker>
  </defs>
  <metadata
     id="metadata6309">
    <rdf:RDF>
      <cc:Work
         rdf:about="">
        <dc:format>image/svg+xml</dc:format>
        <dc:type
           rdf:resource="http://purl.org/dc/dcmitype/StillImage" />
        <dc:title></dc:title>
      </cc:Work>
    </rdf:RDF>
  </metadata>
  <g
     transform="translate(-23.324186,-347.8298)"
     id="layer1"
     inkscape:groupmode="layer"
     inkscape:label="Layer 1">
    <path
       sodipodi:nodetypes="ccc"
       inkscape:connector-curvature="0"
       id="path6312"
       d="M 77.142857,376.98995 V 592.36218 H 830.34205"
       style="fill:none;stroke:#000000;stroke-width:2.66666667;stroke-linecap:butt;stroke-linejoin:miter;stroke-miterlimit:4;stroke-dasharray:none;stroke-opacity:1;marker-start:url(#TriangleInL);marker-end:url(#TriangleOutL)" />
    <path
       sodipodi:nodetypes="cc"
       inkscape:connector-curvature="0"
       id="path6316"
       d="M 74.285714,592.36218 198.31506,504.18433"
       style="fill:none;stroke:#000000;stroke-width:2.66666667;stroke-linecap:butt;stroke-linejoin:miter;stroke-miterlimit:4;stroke-dasharray:none;stroke-opacity:1;marker-end:url(#marker8576)" />
    <path
       inkscape:connector-curvature="0"
       style="fill:none;stroke:#0000ff;stroke-width:2.66666667;stroke-miterlimit:4;stroke-dasharray:none;stroke-dashoffset:0;stroke-opacity:1"
       d="m 69.332237,560.78312 c 1.30177,5.0005 2.60354,10.00089 3.90531,14.94439 1.30177,4.9435 2.60354,9.82968 3.90531,14.6034 1.30177,4.7737 2.60354,9.43418 3.90531,13.92917 1.30177,4.49499 2.60354,8.82342 3.90531,12.93713 1.30177,4.1137 2.60354,8.01132 3.90531,11.64988 1.30177,3.63855 2.60354,7.01643 3.90531,10.09681 1.30177,3.08038 2.60355,5.86143 3.90532,8.31335 1.30177,2.45192 2.60354,4.57269 3.905303,6.3402 1.30177,1.76751 2.60354,3.17962 3.90531,4.22238 1.30177,1.04278 2.60354,1.71398 3.90531,2.00822 1.30177,0.29424 2.60354,0.20924 3.90531,-0.25177 1.30177,-0.46101 2.60354,-1.30028 3.90531,-2.50602 1.30177,-1.20574 2.60354,-2.78013 3.90531,-4.70308 1.30177,-1.92295 2.60354,-4.19653 3.90531,-6.79282 1.30177,-2.5963 2.60354,-5.51719 3.90531,-8.72758 1.30177,-3.21039 2.60354,-6.71195 3.90531,-10.46319 1.30177,-3.75123 2.60354,-7.75356 3.90531,-11.96004 1.30177,-4.20648 2.60354,-8.61826 3.90531,-13.184 1.30177,-4.56575 2.60355,-9.2863 3.90532,-14.10713 1.30177,-4.82083 2.60354,-9.74245 3.90531,-14.70836 1.30177,-4.96592 2.60354,-9.9763 3.90531,-14.97398 1.30177,-4.99769 2.60354,-9.98251 3.90531,-14.89794 1.30177,-4.91542 2.60354,-9.76094 3.90531,-14.48193 1.30177,-4.721 2.60354,-9.31666 3.90531,-13.73551 1.30177,-4.41885 2.60354,-8.65977 3.90531,-12.67565 1.30177,-4.01587 2.60354,-7.8053 3.90531,-11.32657 1.30177,-3.52127 2.60354,-6.77272 3.90531,-9.71904 1.30177,-2.94631 2.60354,-5.58561 3.90531,-7.88974 1.30177,-2.30413 2.60354,-4.27105 3.90531,-5.88042 1.30177,-1.60937 2.60354,-2.85903 3.90531,-3.73692 1.30177,-0.87789 2.60354,-1.38177 3.90532,-1.50815 1.30177,-0.12637 2.60354,0.12702 3.90531,0.75503 1.30177,0.62803 2.60354,1.63291 3.90531,3.00099 1.30177,1.36809 2.60354,3.10153 3.90531,5.17847 1.30177,2.07694 2.60354,4.49939 3.90531,7.23778 1.30177,2.7384 2.60354,5.79458 3.90531,9.13196 1.30177,3.33737 2.60354,6.95755 3.90531,10.81774 1.30177,3.86019 2.60354,7.96177 3.90531,12.2567 1.30177,4.29494 2.60354,8.78432 3.90531,13.416 1.30177,4.63167 2.60354,9.40642 3.90531,14.26915 1.30177,4.86274 2.60354,9.8139 3.90531,14.79673 1.30177,4.98283 2.60354,9.99744 3.90531,14.98667 1.30177,4.98923 2.60354,9.95286 3.90532,14.83465 1.30177,4.88179 2.60354,9.68118 3.90531,14.34414 1.30177,4.66296 2.60354,9.18859 3.90531,13.52632 1.30177,4.33773 2.60354,8.48634 3.90531,12.39986 1.30177,3.91352 2.60354,7.59046 3.90531,10.99048 1.30177,3.4 2.60354,6.52137 3.90531,9.33029 1.30177,2.80892 2.60354,5.30349 3.90531,7.45723 1.30177,2.15374 2.60354,3.96458 3.90531,5.414 1.30177,1.44942 2.60354,2.53522 3.90531,3.24724 1.30177,0.71202 2.60354,1.048 3.90531,1.00638 1.30177,-0.0416 2.60354,-0.46312 3.90531,-1.25745 1.30177,-0.79431 2.60354,-1.96367 3.90531,-3.49257 1.30177,-1.52889 2.60354,-3.41943 3.90532,-5.648 1.30177,-2.22858 2.60354,-4.79717 3.90531,-7.67457 1.30177,-2.87741 2.60354,-6.06543 3.90531,-9.52602 1.30177,-3.46058 2.60354,-7.1953 3.90531,-11.16009 1.30177,-3.9648 2.60354,-8.16099 3.90531,-12.53953 1.30177,-4.37855 2.60354,-8.94046 3.90531,-13.63284 1.30177,-4.69238 2.60354,-9.51592 3.90531,-14.41507 1.30177,-4.89915 2.60354,-9.87426 3.90531,-14.86839 1.30177,-4.99413 2.60354,-10.00729 3.90531,-14.98244 1.30177,-4.97515 2.60354,-9.91198 3.90531,-14.75463 1.30177,-4.84265 2.60354,-9.59048 3.90531,-14.19014 1.30177,-4.59966 2.60354,-9.05017 3.90531,-13.30187 1.30177,-4.25171 2.60354,-8.30335 3.90531,-12.11009 1.30178,-3.80674 2.60355,-7.36705 3.90532,-10.64196 1.30177,-3.27492 2.60354,-6.26266 3.90531,-8.93102 1.30177,-2.66837 2.60354,-5.01538 3.90531,-7.0163 1.30177,-2.00092 2.60354,-3.65364 3.90531,-4.94147 1.30177,-1.28782 2.60354,-2.20854 3.90531,-2.75389 1.30177,-0.54534 2.60354,-0.71305 3.90531,-0.50347 1.30177,0.20958 2.60354,0.7987 3.90531,1.75843 1.30177,0.95972 2.60354,2.29225 3.90531,3.98021 1.30177,1.68797 2.60354,3.73348 3.90531,6.11118 1.30177,2.37769 2.60354,5.08952 3.90531,8.10269 1.30177,3.01317 2.60354,6.32943 3.90531,9.90932 1.30177,3.57989 2.60354,7.42492 3.90531,11.48985 1.30178,4.06493 2.60355,8.35099 3.90532,12.8082 1.30177,4.4572 2.60354,9.0865 3.90531,13.83429 1.30177,4.74778 2.60354,9.61468 3.90531,14.54472 1.30177,4.93003 2.60354,9.92348 3.90531,14.92326 1.30177,4.99979 2.60354,10.00585 3.90531,14.9613 1.30177,4.95545 2.60354,9.8599 3.90531,14.65795 1.30177,4.79805 2.60354,9.48897 3.90531,14.02013 1.30177,4.53116 2.60354,8.90152 3.90531,13.06241 1.30177,4.16088 2.60354,8.11096 3.90531,11.80663 1.30177,3.69566 2.60354,7.13532 3.90531,10.28144 1.30177,3.14612 2.60354,5.99688 3.90531,8.52167 1.30177,2.52478 2.60354,4.7216 3.90531,6.56744 1.30178,1.84584 2.60355,3.33858 3.90532,4.46336 1.30177,1.12478 2.60354,1.87938 3.90531,2.25743 1.30177,0.37806 2.60354,0.3773 3.90531,0 1.30177,-0.37729 2.60354,-1.13339 3.90531,-2.25743 1.30177,-1.12404 2.60354,-2.61822 3.90531,-4.46336 1.30177,-1.84514 2.60354,-4.04331 3.90531,-6.56744 1.30177,-2.52414 2.60354,-5.37614 3.90531,-8.52167 1.30177,-3.14553 2.60354,-6.58629 3.90531,-10.28145 1.30177,-3.69515 2.60354,-7.64616 3.90531,-11.80663 1.30177,-4.16046 2.60354,-8.53156 3.90531,-13.06241 1.30177,-4.53083 2.60354,-9.22229 3.90531,-14.02012 1.30177,-4.79784 2.60354,-9.70261 3.90531,-14.65795 1.30177,-4.95535 2.60355,-9.96151 3.90532,-14.9613 1.30177,-4.99979 2.60354,-9.99311 3.90531,-14.92327 1.30177,-4.93015 2.60354,-9.79669 3.90531,-14.54472 1.30177,-4.74802 2.60354,-9.37674 3.90531,-13.83429 1.30177,-4.45755 2.60354,-8.74283 3.90531,-12.80819 1.30177,-4.06537 2.60354,-7.90943 3.90531,-11.48985 1.30177,-3.58042 2.60354,-6.89555 3.90531,-9.90933 1.30177,-3.01377 2.60354,-5.72433 3.90531,-8.10269 1.30177,-2.37836 2.60354,-4.42249 3.90531,-6.11117 1.30177,-1.68868 2.60354,-3.01975 3.90531,-3.98021 1.30177,-0.96047 2.60354,-1.5481 3.90531,-1.75843 1.30177,-0.21034 2.60354,-0.0411 3.90531,0.50347 1.30177,0.54459 2.60355,1.4668 3.90532,2.75389 1.30177,1.2871 2.60354,2.94124 3.90531,4.94147 1.30177,2.00023 2.60354,4.34858 3.90531,7.0163 1.30177,2.66772 2.60354,5.65668 3.90531,8.93102 1.30177,3.27434 2.60354,6.83572 3.90531,10.64197 1.30177,3.80625 2.60354,7.85877 3.90531,12.11008 1.30177,4.25131 2.60354,8.70251 3.90531,13.30187 1.30177,4.59936 2.60354,9.34768 3.90531,14.19015 1.30177,4.84246 2.60354,9.77955 3.90531,14.75462 1.30177,4.97508 2.60354,9.98828 3.90531,14.98245 1.30177,4.99416 2.60354,9.96908 3.90531,14.86838 1.30177,4.8993 2.60354,9.72243 3.90531,14.41508 1.30177,4.69264 2.60354,9.25393 3.90532,13.63283 1.30177,4.37891 2.60354,8.57427 3.90531,12.53953 1.30177,3.96526 2.60354,7.69896 3.90531,11.16009 1.30177,3.46113 2.60354,6.64799 3.90531,9.52602 1.30177,2.87802 2.60354,5.44531 3.90531,7.67457 1.30177,2.22925 2.60354,4.11839 3.90531,5.648 1.30177,1.52962 2.60354,2.69751 3.90531,3.49257 1.30177,0.79507 2.60354,1.21507 3.90531,1.25745 1.30177,0.0424 2.60354,-0.29511 3.90531,-1.00638 1.30177,-0.71128 2.60354,-1.79855 3.90531,-3.24724 1.30177,-1.4487 2.60354,-3.26094 3.90531,-5.414 1.30177,-2.15306 2.60354,-4.64893 3.90531,-7.45723 1.30177,-2.8083 2.60354,-5.93084 3.90532,-9.3303 1.30177,-3.39946 2.60354,-7.07742 3.90531,-10.99047 1.30177,-3.91305 2.60354,-8.06252 3.90531,-12.39987 1.30177,-4.33734 2.60354,-8.86363 3.90531,-13.52632 1.30177,-4.66268 2.60354,-9.46251 3.90531,-14.34414 1.30177,-4.88163 2.60354,-9.84546 3.90531,-14.83465 1.30177,-4.98918 2.60354,-10.00377 3.90531,-14.98667 1.30177,-4.98289 2.60354,-9.93381 3.90531,-14.79672 1.30177,-4.86291 2.60354,-9.63719 3.90531,-14.26916 1.30177,-4.63196 2.60354,-9.12067 3.90531,-13.41599 1.30177,-4.29532 2.60354,-8.39603 3.90531,-12.2567 1.30177,-3.86067 2.60354,-7.47981 3.90531,-10.81775 1.30177,-3.33793 2.60354,-6.39292 3.90532,-9.13195 1.30177,-2.73903 2.60354,-5.16015 3.90531,-7.23778 1.30177,-2.07762 2.60354,-3.80965 3.90531,-5.17847 1.30177,-1.36881 2.60354,-2.37221 3.90531,-3.00099 1.30177,-0.62876 2.60354,-0.88065 3.90531,-0.75503 1.30177,0.12562 2.60354,0.63101 3.90531,1.50815 1.30177,0.87715 2.60354,2.12827 3.90531,3.73692 1.30177,1.60865 2.60354,3.57696 3.90531,5.88042 1.30177,2.30346 2.60354,4.94404 3.90531,7.88974 1.30177,2.94571 2.60354,6.19831 3.90531,9.71904 1.30177,3.52074 2.60354,7.31115 3.90531,11.32658 1.30177,4.01542 2.60354,8.25715 3.90531,12.67565 1.30177,4.4185 2.60354,9.01475 3.90531,13.7355 1.30178,4.72075 2.60355,9.56666 3.90532,14.48194 1.30177,4.91528 2.60354,9.90027 3.90531,14.89793 1.30177,4.99766 2.60354,10.00798 3.90531,14.97398 1.30177,4.966 2.60354,9.88733 3.90531,14.70836 1.30177,4.82103 2.60354,9.54108 3.90531,14.10713 1.30177,4.56605 2.60354,8.97711 3.90531,13.184 1.30177,4.20689 2.60354,8.20831 3.90531,11.96005 1.30177,3.75173 2.60354,7.25221 3.90531,10.46318 1.30177,3.21097 2.60354,6.13063 3.90531,8.72758 1.30177,2.59694 2.60354,4.86917 3.90531,6.79282 1.30177,1.92365 2.60354,3.49661 3.90531,4.70308 1.30177,1.20647 2.60354,2.04425 3.90531,2.50602 1.30178,0.46176 2.60355,0.54525 3.90532,0.25177 1.30177,-0.29348 2.60354,-0.96618 3.90531,-2.00822 1.30177,-1.04203 2.60354,-2.45558 3.90531,-4.22238 1.30177,-1.7668 2.60354,-3.88894 3.90531,-6.3402 1.30177,-2.45126 2.60354,-5.23357 3.90531,-8.31335 1.30177,-3.07979 2.60354,-6.45878 3.90531,-10.09681 1.30177,-3.63804 2.60354,-7.53661 3.90531,-11.64988 1.30177,-4.11328 2.60354,-8.44247 3.90531,-12.93714 1.30177,-4.49465 2.60354,-9.15569 3.90531,-13.92917 1.30177,-4.77348 2.60354,-9.66001 3.90531,-14.60339 1.30177,-4.94339 2.60354,-9.9439 3.90531,-14.9444"
       title="t sin( 5 * t)"
       id="path6381" />
    <path
       id="path6897"
       title="t sin( 5 * t)"
       d="m 86.827653,573.08668 c -3.6987,5.0005 -7.39729,10.00089 -11.03899,14.94439 -3.6417,4.9435 -7.22608,9.82968 -10.697997,14.6034 -3.471904,4.7737 -6.830586,9.43418 -10.023782,13.92917 -3.193196,4.49499 -6.219824,8.82342 -9.031744,12.93713 -2.8119,4.1137 -5.407724,8.01132 -7.7445,11.64988 -2.336756,3.63855 -4.412844,7.01643 -6.191438,10.09681 -1.778592,3.08038 -3.257838,5.86143 -4.407978,8.31335 -1.150131,2.45192 -1.969126,4.57269 -2.434854,6.3402 -0.465729,1.76751 -0.576061,3.17962 -0.317044,4.22238 0.258996,1.04278 0.88957,1.71398 1.897102,2.00822 1.007531,0.29424 2.394301,0.20924 4.157078,-0.25177 1.762777,-0.46101 3.903812,-1.30028 6.411315,-2.50602 2.507463,-1.20574 5.383653,-2.78013 8.608362,-4.70308 3.224708,-1.92295 6.800044,-4.19653 10.698089,-6.79282 3.898054,-2.5963 8.120696,-5.51719 12.632837,-8.72758 4.51214,-3.21039 9.315449,-6.71195 14.368437,-10.46319 5.052977,-3.75123 10.357053,-7.75356 15.865277,-11.96004 5.508227,-4.20648 11.221747,-8.61826 17.089227,-13.184 5.8675,-4.56575 11.8898,-9.2863 18.01237,-14.10713 6.12257,-4.82083 12.34593,-9.74245 18.61358,-14.70836 6.26766,-4.96592 12.57978,-9.9763 18.8792,-14.97398 6.29943,-4.99769 12.58599,-9.98251 18.80316,-14.89794 6.21716,-4.91542 12.36442,-9.76094 18.38715,-14.48193 6.02274,-4.721 11.92013,-9.31666 17.64074,-13.73551 5.72059,-4.41885 11.26326,-8.65977 16.58088,-12.67565 5.31762,-4.01587 10.40879,-7.8053 15.23181,-11.32657 4.82302,-3.52127 9.37622,-6.77272 13.62429,-9.71904 4.24807,-2.94631 8.18912,-5.58561 11.79501,-7.88974 3.60588,-2.30413 6.87456,-4.27105 9.78569,-5.88042 2.91113,-1.60937 5.46255,-2.85903 7.64221,-3.73692 2.17965,-0.87789 3.9853,-1.38177 5.41346,-1.50815 1.42814,-0.12637 2.47652,0.12702 3.15028,0.75503 0.67375,0.62803 0.97064,1.63291 0.90434,3.00099 -0.0663,1.36809 -0.49797,3.10153 -1.27313,5.17847 -0.77515,2.07694 -1.89582,4.49939 -3.33242,7.23778 -1.43662,2.7384 -3.19101,5.79458 -5.2266,9.13196 -2.03558,3.33737 -4.35397,6.95755 -6.91236,10.81774 -2.5584,3.86019 -5.35818,7.96177 -8.35132,12.2567 -2.99314,4.29494 -6.18074,8.78432 -9.51061,13.416 -3.32987,4.63167 -6.80282,9.40642 -10.36375,14.26915 -3.56094,4.86274 -7.2103,9.8139 -10.89133,14.79673 -3.68103,4.98283 -7.39384,9.99744 -11.08127,14.98667 -3.68743,4.98923 -7.34926,9.95286 -10.92924,14.83465 -3.57999,4.88179 -7.07758,9.68118 -10.43874,14.34414 -3.36117,4.66296 -6.585,9.18859 -9.62093,13.52632 -3.03594,4.33773 -5.88275,8.48634 -8.49448,12.39986 -2.61172,3.91352 -4.98687,7.59046 -7.0851,10.99048 -2.09821,3.4 -3.91779,6.52137 -5.42492,9.33029 -1.50714,2.80892 -2.69992,5.30349 -3.55188,7.45723 -0.85196,2.15374 -1.36102,3.96458 -1.50866,5.414 -0.14764,1.44942 0.0683,2.53522 0.65809,3.24724 0.58976,0.71202 1.55555,1.048 2.89894,1.00638 1.34337,-0.0416 3.06666,-0.46312 5.16275,-1.25745 2.09608,-0.79431 4.5672,-1.96367 7.39786,-3.49257 2.83065,-1.52889 6.02295,-3.41943 9.55329,-5.648 3.53033,-2.22858 7.40068,-4.79717 11.57983,-7.67457 4.17916,-2.87741 8.66893,-6.06543 13.43127,-9.52602 4.76233,-3.46058 9.7988,-7.1953 15.06533,-11.16009 5.26655,-3.9648 10.76449,-8.16099 16.44477,-12.53953 5.68029,-4.37855 11.54394,-8.94046 17.53807,-13.63284 5.99412,-4.69238 12.1194,-9.51592 18.32029,-14.41507 6.20089,-4.89915 12.47774,-9.87426 18.77361,-14.86839 6.29587,-4.99413 12.61077,-10.00729 18.88766,-14.98244 6.27689,-4.97515 12.51546,-9.91198 18.65985,-14.75463 6.14439,-4.84265 12.19396,-9.59048 18.09536,-14.19014 5.90141,-4.59966 11.65366,-9.05017 17.2071,-13.30187 5.55346,-4.25171 10.90684,-8.30335 16.01533,-12.11009 5.1085,-3.80674 9.97056,-7.36705 14.54722,-10.64196 4.57667,-3.27492 8.86616,-6.26266 12.83627,-8.93102 3.97013,-2.66837 7.61889,-5.01538 10.92157,-7.0163 3.30268,-2.00092 6.25716,-3.65364 8.84675,-4.94147 2.58962,-1.28782 4.81207,-2.20854 6.65918,-2.75389 1.84711,-0.54534 3.31659,-0.71305 4.40878,-0.50347 1.09219,0.20958 1.80484,0.7987 2.14689,1.75843 0.34206,0.95972 0.3113,2.29225 -0.0749,3.98021 -0.38619,1.68797 -1.12991,3.73348 -2.20583,6.11118 -1.0759,2.37769 -2.48595,5.08952 -4.19733,8.10269 -1.71138,3.01317 -3.72585,6.32943 -6.00395,9.90932 -2.2781,3.57989 -4.82133,7.42492 -7.58447,11.48985 -2.76313,4.06493 -5.74739,8.35099 -8.9028,12.8082 -3.15541,4.4572 -6.48291,9.0865 -9.9289,13.83429 -3.44598,4.74778 -7.01108,9.61468 -10.63932,14.54472 -3.62823,4.93003 -7.31988,9.92348 -11.01786,14.92326 -3.69799,4.99979 -7.40225,10.00585 -11.0559,14.9613 -3.65365,4.95545 -7.2563,9.8599 -10.75255,14.65795 -3.49625,4.79805 -6.88537,9.48897 -10.11474,14.02013 -3.22936,4.53116 -6.29792,8.90152 -9.15702,13.06241 -2.85908,4.16088 -5.50737,8.11096 -7.90125,11.80663 -2.39386,3.69566 -4.53173,7.13532 -6.37606,10.28144 -1.84434,3.14612 -3.39331,5.99688 -4.61631,8.52167 -1.223,2.52478 -2.11803,4.7216 -2.66209,6.56744 -0.54405,1.84584 -0.73501,3.33858 -0.55802,4.46336 0.177,1.12478 0.72417,1.87938 1.6479,2.25743 0.92371,0.37806 2.22624,0.3773 3.90531,0 1.67905,-0.37729 3.73692,-1.13339 6.16272,-2.25743 2.42581,-1.12404 5.22172,-2.61822 8.36865,-4.46336 3.1469,-1.84514 6.64682,-4.04331 10.47271,-6.56744 3.82589,-2.52414 7.97964,-5.37614 12.42693,-8.52167 4.44728,-3.14553 9.18979,-6.58629 14.18669,-10.28145 4.9969,-3.69515 10.24966,-7.64616 15.71187,-11.80663 5.46221,-4.16046 11.13505,-8.53156 16.96764,-13.06241 5.83258,-4.53083 11.82578,-9.22229 17.92535,-14.02012 6.09958,-4.79784 12.30609,-9.70261 18.56317,-14.65795 6.25709,-4.95535 12.565,-9.96151 18.86653,-14.9613 6.30153,-4.99979 12.59659,-9.99311 18.82849,-14.92327 6.23189,-4.93015 12.40017,-9.79669 18.44994,-14.54472 6.04976,-4.74802 11.98022,-9.37674 17.73952,-13.83429 5.75929,-4.45755 11.34631,-8.74283 16.71342,-12.80819 5.36712,-4.06537 10.51292,-7.90943 15.39509,-11.48985 4.88217,-3.58042 9.49905,-6.89555 13.81458,-9.90933 4.31552,-3.01377 8.32784,-5.72433 12.00795,-8.10269 3.68012,-2.37836 7.026,-4.42249 10.01644,-6.11117 2.99044,-1.68868 5.62328,-3.01975 7.88548,-3.98021 2.26223,-0.96047 4.15163,-1.5481 5.66373,-1.75843 1.51211,-0.21034 2.64464,-0.0411 3.40184,0.50347 0.75719,0.54459 1.13676,1.4668 1.15145,2.75389 0.0147,1.2871 -0.33768,2.94124 -1.03613,4.94147 -0.69845,2.00023 -1.74501,4.34858 -3.11095,7.0163 -1.36593,2.66772 -3.0531,5.65668 -5.02565,8.93102 -1.97255,3.27434 -4.23214,6.83572 -6.7366,10.64197 -2.50446,3.80625 -5.25518,7.85877 -8.2047,12.11008 -2.94951,4.25131 -6.09891,8.70251 -9.39648,13.30187 -3.29756,4.59936 -6.74408,9.34768 -10.28475,14.19015 -3.54066,4.84246 -7.17595,9.77955 -10.84922,14.75462 -3.67328,4.97508 -7.38468,9.98828 -11.07705,14.98245 -3.69236,4.99416 -7.36548,9.96908 -10.96298,14.86838 -3.5975,4.8993 -7.11883,9.72243 -10.50968,14.41508 -3.39085,4.69264 -6.65034,9.25393 -9.72743,13.63283 -3.07711,4.37891 -5.97068,8.57427 -8.63415,12.53953 -2.66346,3.96526 -5.09537,7.69896 -7.25471,11.16009 -2.15934,3.46113 -4.04441,6.64799 -5.62065,9.52602 -1.57623,2.87802 -2.84174,5.44531 -3.76921,7.67457 -0.92747,2.22925 -1.51483,4.11839 -1.74266,5.648 -0.22784,1.52962 -0.094,2.69751 0.41276,3.49257 0.50671,0.79507 1.38848,1.21507 2.64787,1.25745 1.25937,0.0424 2.89865,-0.29511 4.91168,-1.00638 2.01305,-0.71128 4.40208,-1.79855 7.15253,-3.24724 2.75046,-1.4487 5.86446,-3.26094 9.31928,-5.414 3.45482,-2.15306 7.25244,-4.64893 11.3625,-7.45723 4.11005,-2.8083 8.53434,-5.93084 13.23556,-9.3303 4.70121,-3.39946 9.68092,-7.07742 14.89571,-10.99047 5.2148,-3.91305 10.66601,-8.06252 16.30511,-12.39987 5.63908,-4.33734 11.46711,-8.86363 17.43155,-13.52632 5.96442,-4.66268 12.06599,-9.46251 18.24936,-14.34414 6.18337,-4.88163 12.44894,-9.84546 18.73987,-14.83465 6.29092,-4.98918 12.60725,-10.00377 18.89189,-14.98667 6.28463,-4.98289 12.53729,-9.93381 18.70194,-14.79672 6.16465,-4.86291 12.24067,-9.63719 18.17438,-14.26916 5.9337,-4.63196 11.72416,-9.12067 17.32122,-13.41599 5.59707,-4.29532 10.99952,-8.39603 16.16194,-12.2567 5.16241,-3.86067 10.0833,-7.47981 14.72299,-10.81775 4.63968,-3.33793 8.99642,-6.39292 13.03722,-9.13195 4.04078,-2.73903 7.76366,-5.16015 11.14304,-7.23778 3.37938,-2.07762 6.41317,-3.80965 9.08375,-5.17847 2.6706,-1.36881 4.97574,-2.37221 6.90628,-3.00099 1.93053,-0.62876 3.48419,-0.88065 4.66034,-0.75503 1.17615,0.12562 1.97253,0.63101 2.39717,1.50815 0.42462,0.87715 0.47528,2.12827 0.16841,3.73692 -0.30687,1.60865 -0.9734,3.57696 -1.97507,5.88042 -1.00168,2.30346 -2.34047,4.94404 -3.98439,7.88974 -1.64392,2.94571 -3.59473,6.19831 -5.81367,9.71904 -2.21895,3.52074 -4.70756,7.31115 -7.4212,11.32658 -2.71362,4.01542 -5.65356,8.25715 -8.77026,12.67565 -3.11671,4.4185 -6.41116,9.01475 -9.83011,13.7355 -3.41894,4.72075 -6.96305,9.56666 -10.57653,14.48194 -3.61348,4.91528 -7.29667,9.90027 -10.99253,14.89793 -3.69586,4.99766 -7.40438,10.00798 -11.06858,14.97398 -3.6642,4.966 -7.28373,9.88733 -10.80296,14.70836 -3.51923,4.82103 -6.93748,9.54108 -10.20174,14.10713 -3.26425,4.56605 -6.37351,8.97711 -9.27861,13.184 -2.90509,4.20689 -5.60472,8.20831 -8.05466,11.96005 -2.44994,3.75173 -4.64863,7.25221 -6.55781,10.46318 -1.90918,3.21097 -3.52705,6.13063 -4.82222,8.72758 -1.29515,2.59694 -2.2656,4.86917 -2.88747,6.79282 -0.62187,1.92365 -0.89305,3.49661 -0.79774,4.70308 0.0953,1.20647 0.5593,2.04425 1.39931,2.50602 0.84002,0.46176 2.0583,0.54525 3.65355,0.25177 1.59525,-0.29348 3.56971,-0.96618 5.91352,-2.00822 2.34379,-1.04203 5.0591,-2.45558 8.12766,-4.22238 3.06856,-1.7668 6.49246,-3.88894 10.24547,-6.3402 3.75302,-2.45126 7.83708,-5.23357 12.21861,-8.31335 4.38154,-3.07979 9.06228,-6.45878 14.00206,-10.09681 4.93979,-3.63804 10.1401,-7.53661 15.55512,-11.64988 5.41503,-4.11328 11.04596,-8.44247 16.84237,-12.93714 5.79639,-4.49465 11.75918,-9.15569 17.8344,-13.92917 6.07522,-4.77348 12.26349,-9.66001 18.50861,-14.60339 6.24513,-4.94339 12.54738,-9.9439 18.84962,-14.9444"
       style="fill:none;stroke:#ff0000;stroke-width:2.956599;stroke-miterlimit:4;stroke-dasharray:none;stroke-dashoffset:0;stroke-opacity:1"
       inkscape:connector-curvature="0" />
    <g
       id="g8733"
       transform="matrix(2,0,0,2,-41.948997,-346.05566)">
      <g
         word-spacing="normal"
         letter-spacing="normal"
         font-size-adjust="none"
         font-stretch="normal"
         font-weight="normal"
         font-variant="normal"
         font-style="normal"
         stroke-miterlimit="10.433"
         xml:space="preserve"
         transform="matrix(0.46564519,0,0,-0.46564519,-81.487908,615.46751)"
         id="content"
         style="font-style:normal;font-variant:normal;font-weight:normal;font-stretch:normal;letter-spacing:normal;word-spacing:normal;text-anchor:start;fill:none;fill-opacity:1;fill-rule:evenodd;stroke:#000000;stroke-linecap:butt;stroke-linejoin:miter;stroke-miterlimit:10.43299961;stroke-dasharray:none;stroke-dashoffset:0;stroke-opacity:1"><path
           id="path8730"
           d="m 463.49,410.09 -0.05,-0.18 -0.04,-0.17 -0.05,-0.16 -0.04,-0.15 -0.04,-0.15 -0.05,-0.13 -0.05,-0.13 -0.05,-0.12 -0.05,-0.11 -0.06,-0.11 -0.07,-0.1 -0.07,-0.09 -0.07,-0.09 -0.09,-0.07 -0.09,-0.08 -0.11,-0.06 -0.11,-0.07 -0.13,-0.05 -0.13,-0.05 -0.15,-0.05 -0.16,-0.04 -0.09,-0.02 -0.09,-0.01 -0.09,-0.02 -0.1,-0.02 -0.1,-0.01 -0.1,-0.01 -0.11,-0.01 -0.12,-0.02 -0.11,-0.01 -0.13,-0.01 h -0.12 l -0.13,-0.01 -0.14,-0.01 h -0.14 l -0.14,-0.01 h -0.15 l -0.16,-0.01 h -0.16 -0.16 -0.17 -0.18 -0.18 c -0.85,0 -1.35,0 -1.35,-1 0,-0.55 0.46,-0.55 1.35,-0.55 h 17.78 c 7.87,0 13.75,5.87 13.75,10.76 0,3.58 -2.89,6.47 -7.72,7.02 5.19,0.95 10.42,4.64 10.42,9.38 0,3.68 -3.3,6.87 -9.28,6.87 l -0.69,-1.55 c 4.38,0 5.42,-2.93 5.42,-5.12 0,-4.39 -4.28,-9.13 -10.35,-9.13 h -7.27 l -0.3,-1.09 h 9.41 c 4.78,0 5.73,-3.69 5.73,-5.83 0,-4.94 -4.43,-9.76 -10.31,-9.76 h -6.78 c -0.69,0 -0.8,0 -1.09,0.04 -0.5,0.05 -0.64,0.1 -0.64,0.5 0,0.14 0,0.25 0.25,1.14 l 3.43,13.91 0.3,1.09 3.08,12.36 c 0.45,1.74 0.54,1.89 2.7,1.89 h 6.42 l 0.69,1.55 h -16.73 c -0.94,0 -1.44,0 -1.44,-1 0,-0.55 0.44,-0.55 1.39,-0.55 0.09,0 1.05,0 1.89,-0.09 0.89,-0.11 1.34,-0.16 1.34,-0.8 0,-0.2 -0.04,-0.36 -0.2,-0.95 z"
           inkscape:connector-curvature="0"
           style="fill:#000000;stroke-width:0" /></g>    </g>
    <g
       id="g8797"
       transform="matrix(2,0,0,2,-172.31736,-460.69025)">
      <g
         id="g8795"
         transform="matrix(0.46564519,0,0,-0.46564519,-81.487908,615.46751)"
         xml:space="preserve"
         stroke-miterlimit="10.433"
         font-style="normal"
         font-variant="normal"
         font-weight="normal"
         font-stretch="normal"
         font-size-adjust="none"
         letter-spacing="normal"
         word-spacing="normal"
         style="font-style:normal;font-variant:normal;font-weight:normal;font-stretch:normal;letter-spacing:normal;word-spacing:normal;text-anchor:start;fill:none;fill-opacity:1;fill-rule:evenodd;stroke:#000000;stroke-linecap:butt;stroke-linejoin:miter;stroke-miterlimit:10.43299961;stroke-dasharray:none;stroke-dashoffset:0;stroke-opacity:1"><path
           d="m 490.8,417.81 0.01,0.02 0.01,0.03 0.02,0.05 0.02,0.05 0.02,0.05 0.02,0.05 0.02,0.05 0.02,0.05 0.01,0.05 0.01,0.03 0.01,0.02 0.01,0.02 0.01,0.03 v 0.02 l 0.01,0.02 0.01,0.02 v 0.02 l 0.01,0.02 v 0.02 l 0.01,0.01 v 0.02 0.02 0.01 0.01 l 0.01,0.01 c 0,0.05 0,0.55 -0.6,0.55 -0.45,0 -0.55,-0.3 -0.64,-0.61 -3.25,-7.38 -5.08,-10.7 -13.61,-10.7 h -7.26 c -0.71,0 -0.8,0 -1.1,0.04 -0.5,0.05 -0.65,0.1 -0.65,0.5 0,0.14 0,0.25 0.25,1.14 l 3.39,13.61 h 4.93 c 4.24,0 4.24,-1.04 4.24,-2.29 0,-0.35 0,-0.96 -0.36,-2.44 -0.09,-0.25 -0.14,-0.41 -0.14,-0.55 0,-0.25 0.19,-0.55 0.64,-0.55 0.41,0 0.55,0.25 0.75,0.99 l 2.84,11.67 c 0,0.3 -0.25,0.55 -0.61,0.55 -0.43,0 -0.54,-0.3 -0.68,-0.91 -1.05,-3.78 -1.96,-4.92 -6.54,-4.92 h -4.68 l 3,12 c 0.43,1.75 0.5,1.94 2.68,1.94 h 7.02 c 6.08,0 7.58,-1.44 7.58,-5.53 0,-1.19 0,-1.29 -0.2,-2.64 0,-0.3 -0.05,-0.65 -0.05,-0.9 0,-0.25 0.15,-0.59 0.59,-0.59 0.56,0 0.61,0.3 0.71,1.25 l 1,8.61 c 0.14,1.34 -0.1,1.34 -1.35,1.34 h -25.15 c -1,0 -1.5,0 -1.5,-1 0,-0.54 0.45,-0.54 1.39,-0.54 1.84,0 3.23,0 3.23,-0.89 0,-0.21 0,-0.3 -0.25,-1.21 l -6.56,-26.34 c -0.5,-1.95 -0.61,-2.34 -4.55,-2.34 -0.84,0 -1.39,0 -1.39,-0.96 0,-0.59 0.45,-0.59 1.39,-0.59 h 25.86 c 1.16,0 1.2,0.05 1.55,0.84 z"
           id="path8793"
           inkscape:connector-curvature="0"
           style="fill:#000000;stroke-width:0" /></g>    </g>
    <g
       id="g8867"
       transform="matrix(2,0,0,2,543.41667,-209.94878)">
      <g
         word-spacing="normal"
         letter-spacing="normal"
         font-size-adjust="none"
         font-stretch="normal"
         font-weight="normal"
         font-variant="normal"
         font-style="normal"
         stroke-miterlimit="10.433"
         xml:space="preserve"
         transform="matrix(0.46564519,0,0,-0.46564519,-81.487908,615.46751)"
         id="g8865"
         style="font-style:normal;font-variant:normal;font-weight:normal;font-stretch:normal;letter-spacing:normal;word-spacing:normal;text-anchor:start;fill:none;fill-opacity:1;fill-rule:evenodd;stroke:#000000;stroke-linecap:butt;stroke-linejoin:miter;stroke-miterlimit:10.43299961;stroke-dasharray:none;stroke-dashoffset:0;stroke-opacity:1"><path
           id="path8863"
           d="m 491.39,439.03 0.01,0.04 0.01,0.04 0.01,0.04 0.02,0.04 0.01,0.04 0.01,0.05 0.01,0.04 0.01,0.05 0.01,0.04 0.01,0.05 0.01,0.05 0.01,0.05 0.01,0.05 v 0.06 0.05 0.03 l 0.01,0.03 c 0,0.45 -0.25,0.45 -1.24,0.45 h -21.03 c -1.19,0 -1.25,-0.05 -1.55,-1 l -2.73,-8.97 c -0.11,-0.25 -0.16,-0.59 -0.16,-0.7 0,-0.05 0,-0.55 0.61,-0.55 0.44,0 0.55,0.36 0.64,0.5 1.89,5.89 4.49,9.17 12.25,9.17 h 8.13 l -27.85,-31.14 c 0,-0.04 -0.2,-0.75 -0.2,-0.89 0,-0.45 0.34,-0.45 1.25,-0.45 h 21.67 c 1.19,0 1.24,0.05 1.55,1 l 3.53,11 c 0.05,0.2 0.2,0.56 0.2,0.75 0,0.25 -0.2,0.55 -0.65,0.55 -0.44,0 -0.5,-0.19 -0.85,-1.24 -2.18,-6.78 -4.57,-10.37 -13.04,-10.37 h -8.53 z"
           inkscape:connector-curvature="0"
           style="fill:#000000;stroke-width:0" /></g>    </g>
  </g>
</svg>
