<?xml version="1.0" encoding="UTF-8" standalone="no"?>
<!-- Created with Inkscape (http://www.inkscape.org/) -->

<svg
   xmlns:dc="http://purl.org/dc/elements/1.1/"
   xmlns:cc="http://creativecommons.org/ns#"
   xmlns:rdf="http://www.w3.org/1999/02/22-rdf-syntax-ns#"
   xmlns:svg="http://www.w3.org/2000/svg"
   xmlns="http://www.w3.org/2000/svg"
   xmlns:sodipodi="http://sodipodi.sourceforge.net/DTD/sodipodi-0.dtd"
   xmlns:inkscape="http://www.inkscape.org/namespaces/inkscape"
   sodipodi:docname="radar_rphase.svg"
   inkscape:version="0.92pre1 unknown"
   id="svg8"
   version="1.1"
   viewBox="0 0 406.53342 386.99536"
   height="386.99536mm"
   width="406.53342mm">
  <sodipodi:namedview
     inkscape:snap-bbox-edge-midpoints="true"
     inkscape:bbox-nodes="true"
     inkscape:bbox-paths="true"
     inkscape:snap-midpoints="true"
     inkscape:snap-global="true"
     inkscape:snap-smooth-nodes="true"
     inkscape:snap-intersection-paths="true"
     inkscape:window-maximized="1"
     inkscape:window-y="24"
     inkscape:window-x="65"
     inkscape:window-height="1056"
     inkscape:window-width="1855"
     fit-margin-bottom="0"
     fit-margin-right="0"
     fit-margin-left="0"
     fit-margin-top="0"
     inkscape:snap-center="true"
     inkscape:snap-object-midpoints="true"
     inkscape:snap-bbox-midpoints="true"
     inkscape:snap-bbox="true"
     inkscape:guide-bbox="true"
     showguides="true"
     showgrid="false"
     inkscape:current-layer="layer1"
     inkscape:document-units="mm"
     inkscape:cy="807.00518"
     inkscape:cx="1181.8516"
     inkscape:zoom="0.62450376"
     inkscape:pageshadow="2"
     inkscape:pageopacity="0.0"
     borderopacity="1.0"
     bordercolor="#666666"
     pagecolor="#ffffff"
     id="base">
    <sodipodi:guide
       position="53.917358,232.56911"
       orientation="0.92410961,-0.38212751"
       id="guide3430"
       inkscape:locked="false" />
    <sodipodi:guide
       position="82.001768,260.65352"
       orientation="0.44229826,-0.89686802"
       id="guide3447"
       inkscape:locked="false" />
    <sodipodi:guide
       position="-118.26773,61.627349"
       orientation="0.5,0.8660254"
       id="guide3449"
       inkscape:locked="false" />
    <sodipodi:guide
       inkscape:locked="false"
       id="guide5379"
       orientation="-0.84404168,0.53627758"
       position="141.47574,72.280256" />
    <sodipodi:guide
       inkscape:locked="false"
       id="guide11453"
       orientation="-0.50000003,-0.86602538"
       position="299.27597,320.64039" />
  </sodipodi:namedview>
  <defs
     id="defs2">
    <marker
       inkscape:isstock="true"
       style="overflow:visible"
       id="TriangleInM"
       refX="0.0"
       refY="0.0"
       orient="auto"
       inkscape:stockid="TriangleInM">
      <path
         transform="scale(-0.4)"
         style="fill-rule:evenodd;stroke:#000000;stroke-width:1pt;stroke-opacity:1;fill:#000000;fill-opacity:1"
         d="M 5.77,0.0 L -2.88,5.0 L -2.88,-5.0 L 5.77,0.0 z "
         id="path5139" />
    </marker>
    <marker
       inkscape:stockid="TriangleOutM"
       orient="auto"
       refY="0"
       refX="0"
       id="TriangleOutM"
       style="overflow:visible"
       inkscape:isstock="true">
      <path
         id="path5148"
         d="M 5.77,0 -2.88,5 V -5 Z"
         style="fill:#000000;fill-opacity:1;fill-rule:evenodd;stroke:#000000;stroke-width:1.00000003pt;stroke-opacity:1"
         transform="scale(0.4)"
         inkscape:connector-curvature="0" />
    </marker>
    <inkscape:path-effect
       effect="skeletal"
       id="path-effect7570"
       is_visible="true"
       pattern="M 0,0 H 1"
       copytype="single_stretched"
       prop_scale="1"
       scale_y_rel="false"
       spacing="0"
       normal_offset="0"
       tang_offset="0"
       prop_units="false"
       vertical_pattern="false"
       fuse_tolerance="0" />
    <inkscape:path-effect
       effect="skeletal"
       id="path-effect7554"
       is_visible="true"
       pattern="M 0,0 H 1"
       copytype="single_stretched"
       prop_scale="1"
       scale_y_rel="false"
       spacing="0"
       normal_offset="0"
       tang_offset="0"
       prop_units="false"
       vertical_pattern="false"
       fuse_tolerance="0" />
    <marker
       inkscape:stockid="StopL"
       orient="auto"
       refY="0"
       refX="0"
       id="marker5542"
       style="overflow:visible"
       inkscape:isstock="true">
      <path
         id="path5540"
         d="M 0,5.65 V -5.65"
         style="fill:none;fill-opacity:0.75;fill-rule:evenodd;stroke:#000000;stroke-width:1.00000003pt;stroke-opacity:1"
         transform="scale(0.8)"
         inkscape:connector-curvature="0" />
    </marker>
    <marker
       inkscape:stockid="StopL"
       orient="auto"
       refY="0"
       refX="0"
       id="StopL"
       style="overflow:visible"
       inkscape:isstock="true">
      <path
         id="path5172"
         d="M 0,5.65 V -5.65"
         style="fill:none;fill-opacity:0.75;fill-rule:evenodd;stroke:#000000;stroke-width:1.00000003pt;stroke-opacity:1"
         transform="scale(0.8)"
         inkscape:connector-curvature="0" />
    </marker>
    <marker
       inkscape:stockid="TriangleOutL"
       orient="auto"
       refY="0"
       refX="0"
       id="marker5383"
       style="overflow:visible"
       inkscape:isstock="true">
      <path
         id="path5381"
         d="M 5.77,0 -2.88,5 V -5 Z"
         style="fill:#000000;fill-opacity:1;fill-rule:evenodd;stroke:#000000;stroke-width:1.00000003pt;stroke-opacity:1"
         transform="scale(0.8)"
         inkscape:connector-curvature="0" />
    </marker>
    <marker
       inkscape:collect="always"
       inkscape:isstock="true"
       style="overflow:visible"
       id="TriangleOutL"
       refX="0"
       refY="0"
       orient="auto"
       inkscape:stockid="TriangleOutL">
      <path
         transform="scale(0.8)"
         style="fill:#000000;fill-opacity:1;fill-rule:evenodd;stroke:#000000;stroke-width:1.00000003pt;stroke-opacity:1"
         d="M 5.77,0 -2.88,5 V -5 Z"
         id="path5145"
         inkscape:connector-curvature="0" />
    </marker>
    <style
       id="style3505"
       type="text/css">
    .fil0 {fill:#969594}
   </style>
    <marker
       inkscape:stockid="TriangleOutM"
       orient="auto"
       refY="0"
       refX="0"
       id="TriangleOutM-1"
       style="overflow:visible"
       inkscape:isstock="true">
      <path
         id="path5148-2"
         d="M 5.77,0 -2.88,5 V -5 Z"
         style="fill:#000000;fill-opacity:1;fill-rule:evenodd;stroke:#000000;stroke-width:1.00000003pt;stroke-opacity:1"
         transform="scale(0.4)"
         inkscape:connector-curvature="0" />
    </marker>
    <inkscape:path-effect
       effect="skeletal"
       id="path-effect7570-7"
       is_visible="true"
       pattern="M 0,0 H 1"
       copytype="single_stretched"
       prop_scale="1"
       scale_y_rel="false"
       spacing="0"
       normal_offset="0"
       tang_offset="0"
       prop_units="false"
       vertical_pattern="false"
       fuse_tolerance="0" />
    <marker
       inkscape:collect="always"
       inkscape:isstock="true"
       style="overflow:visible"
       id="TriangleOutL-7"
       refX="0"
       refY="0"
       orient="auto"
       inkscape:stockid="TriangleOutL">
      <path
         transform="scale(0.8)"
         style="fill:#000000;fill-opacity:1;fill-rule:evenodd;stroke:#000000;stroke-width:1.00000003pt;stroke-opacity:1"
         d="M 5.77,0 -2.88,5 V -5 Z"
         id="path5145-3"
         inkscape:connector-curvature="0" />
    </marker>
  </defs>
  <metadata
     id="metadata5">
    <rdf:RDF>
      <cc:Work
         rdf:about="">
        <dc:format>image/svg+xml</dc:format>
        <dc:type
           rdf:resource="http://purl.org/dc/dcmitype/StillImage" />
        <dc:title></dc:title>
      </cc:Work>
    </rdf:RDF>
  </metadata>
  <g
     inkscape:label="Layer 1"
     inkscape:groupmode="layer"
     id="layer1"
     transform="translate(-8.3300425,102.8679)">
    <g
       style="clip-rule:evenodd;fill:#000000;fill-rule:evenodd;image-rendering:optimizeQuality;shape-rendering:geometricPrecision;text-rendering:geometricPrecision"
       id="g3523"
       transform="translate(206.83626,-104.32846)">
      <g
         id="Layer_x0020_1"
         style="fill:#000000">
        <metadata
           id="CorelCorpID_0Corel-Layer" />
        <path
           id="path3510"
           d="m 140.408,26.5956 -2.5657,3.5923 c -8.9213,-0.9473 -18.5923,-2.1316 -28.895,-3.5923 -0.0793,-0.0788 -0.1581,-0.158 -0.2369,-0.2368 0,-0.3156 1.263,-0.7893 3.8287,-1.3814 z m 67.6192,38.6057 c -4.6973,4.5789 -7.9343,6.7898 -9.7106,6.7105 -4.1448,-0.2369 -36.7506,-1.4602 -97.817,-3.6711 -2.8421,0.987 -5.6446,1.8556 -8.3291,2.6449 -6.3949,1.6976 -11.9999,2.5657 -16.7764,2.6449 -13.8158,0.1576 -23.9213,-1.6975 -30.3949,-5.5266 5.0525,0.0792 7.9734,-0.9474 8.6448,-3.0394 0.2369,-0.5133 0.3553,-1.0658 0.3553,-1.6183 0,-3.5135 -2.4869,-5.8819 -7.5003,-7.0265 -4.7765,-1.1055 -7.9739,-0.0397 -9.5134,3.1186 -0.8289,1.6971 -0.7105,3.1181 0.3553,4.2632 -0.9078,-0.4345 -1.8948,-1.816 -2.8813,-4.0264 -0.4737,-5.329 8.3683,-11.0529 26.487,-17.1321 6.8685,-9.1577 14.0526,-13.5789 21.6316,-13.184 8.0924,0.4737 18.1187,1.5786 30.0402,3.355 9.7498,1.4607 17.2104,2.1316 22.4606,1.974 2.1316,-0.0793 9.0397,-11.1317 20.6843,-33.1979 2.0924,-0.0788 3.6711,0 4.7369,0.2368 0.8686,0.2369 1.974,0.5525 3.3554,0.9078 l -5.4078,25.1055 35.4871,3.5923 c -0.3156,0.6318 -1.1054,1.2631 -2.4472,1.9736 -3.079,0.0792 -14.6844,-0.276 -34.777,-1.0658 l -2.8025,10.0659 c -1.9736,1.9344 -5.9608,5.4083 -11.8819,10.4212 -2.5657,1.9344 -6.3156,4.066 -11.2501,6.474 z M 52.6172,44.3986 c -2.092,0.7106 -5.2894,2.0524 -9.5922,4.0656 -1.6971,0.987 -3.9472,2.6449 -6.7105,4.9737 C 27.5909,48.425 16.3407,42.0693 2.5245,34.4512 2.1692,34.2143 1.972,33.9775 1.972,33.7406 c 0,-1.0658 5.0525,-1.8556 15.1581,-2.4081 z m -2.2104,19.7766 c 0,2.0919 -3.0394,3.1181 -9.1186,3.1181 -2.6449,0 -3.9475,-0.7893 -3.9475,-2.4076 0,-4.1056 2.5265,-6.0395 7.5398,-5.8027 3.6711,0.2369 5.5263,1.9339 5.5263,5.0922 z m 58.3034,-16.4216 -2.4477,-10.3027 -8.8817,-1.1446 4.1448,12.474 z M 98.4075,49.3724 94.8152,36.3063 93.4337,50.1617 Z M 92.6439,35.7142 c -5.8815,-1.9344 -10.934,-2.8818 -15.158,-2.8818 -1.6971,0 -3.1182,0.1581 -4.3024,0.4737 -2.4477,0.6714 -5.8027,3.7895 -10.0267,9.3554 2.2108,0.0792 6.1188,0.4736 11.645,1.145 5.0134,1.0262 10.3815,2.8813 16.1054,5.5659 z"
           class="fil0"
           inkscape:connector-curvature="0"
           style="fill:#000000" />
      </g>
    </g>
    <path
       style="fill:none;fill-rule:evenodd;stroke:#000000;stroke-width:1.05833328;stroke-linecap:butt;stroke-linejoin:miter;stroke-miterlimit:4;stroke-dasharray:none;stroke-opacity:1"
       d="m 12.963108,257.66419 c 6.807226,-5.79226 11.252967,-13.56467 17.345933,-18.13439 9.962573,-7.47193 8.010583,-15.04362 18.922835,-20.49974 20.828495,-10.41425 34.308492,40.39187 52.826254,12.61522 4.54854,-6.82281 24.79581,-51.86089 37.05722,-45.73019 10.56706,5.28353 18.34315,17.05609 29.96116,22.8651 4.79349,2.39674 7.08238,-8.28559 15.76903,-3.94226 8.89726,4.44863 17.33907,16.55748 26.0189,16.55748"
       id="path3525"
       inkscape:connector-curvature="0" />
    <path
       style="fill:none;fill-rule:evenodd;stroke:#000000;stroke-width:0.26458332px;stroke-linecap:butt;stroke-linejoin:miter;stroke-opacity:1"
       d="M 307.33587,-36.087759 149.80579,211.84723"
       id="path4332"
       inkscape:connector-curvature="0" />
    <path
       style="fill:none;fill-rule:evenodd;stroke:#000000;stroke-width:1.22244704;stroke-linecap:butt;stroke-linejoin:miter;stroke-miterlimit:4;stroke-dasharray:none;stroke-opacity:1;marker-start:url(#StopL);marker-end:url(#marker5542)"
       d="M 277.30537,-27.272606 140.31115,186.68944"
       id="path4332-6"
       inkscape:connector-curvature="0" />
    <g
       id="g5494"
       transform="translate(203.20087,1.0040913)">
      <g
         word-spacing="normal"
         letter-spacing="normal"
         font-size-adjust="none"
         font-stretch="normal"
         font-weight="normal"
         font-variant="normal"
         font-style="normal"
         stroke-miterlimit="10.433"
         xml:space="preserve"
         transform="matrix(0.53802481,0,0,-0.53802481,-260.60856,283.72825)"
         id="content"
         style="font-style:normal;font-variant:normal;font-weight:normal;font-stretch:normal;letter-spacing:normal;word-spacing:normal;text-anchor:start;fill:none;fill-opacity:1;fill-rule:evenodd;stroke:#000000;stroke-linecap:butt;stroke-linejoin:miter;stroke-miterlimit:10.43299961;stroke-dasharray:none;stroke-dashoffset:0;stroke-opacity:1"><path
           id="path5491"
           d="m 481.38,423.14 0.47,0.11 0.48,0.12 0.48,0.14 0.48,0.15 0.49,0.16 0.48,0.18 0.48,0.19 0.47,0.2 0.47,0.22 0.47,0.23 0.46,0.24 0.45,0.25 0.43,0.27 0.43,0.28 0.42,0.29 0.4,0.3 0.39,0.31 0.37,0.32 0.36,0.34 0.33,0.35 0.32,0.35 0.29,0.37 0.28,0.38 0.25,0.39 0.22,0.4 0.2,0.41 0.17,0.42 0.15,0.43 0.11,0.44 0.08,0.45 0.05,0.46 0.02,0.47 c 0,4.28 -4.48,7.47 -11,7.47 h -14.2 c -1,0 -1.45,0 -1.45,-1 0,-0.55 0.45,-0.55 1.4,-0.55 0.1,0 1.05,0 1.89,-0.09 0.89,-0.11 1.35,-0.16 1.35,-0.8 0,-0.2 -0.05,-0.36 -0.21,-0.95 l -6.67,-26.75 c -0.5,-1.95 -0.59,-2.34 -4.53,-2.34 -0.91,0 -1.34,0 -1.34,-1 0,-0.55 0.59,-0.55 0.68,-0.55 1.41,0 4.89,0.16 6.29,0.16 1.39,0 4.93,-0.16 6.32,-0.16 0.41,0 1,0 1,1 0,0.55 -0.45,0.55 -1.39,0.55 -1.84,0 -3.25,0 -3.25,0.89 0,0.29 0.11,0.54 0.16,0.84 l 3.28,13.2 h 5.94 l -0.05,1.11 h -5.59 l 3.25,13 c 0.29,1.19 0.43,1.69 1.39,1.85 0.45,0.04 2.04,0.04 3.03,0.04 3.55,0 9.08,0 9.08,-4.93 0,-1.69 -0.8,-5.13 -2.75,-7.07 -1.28,-1.29 -3.92,-2.89 -8.41,-2.89 l 0.05,-1.11 c 4.53,0 5.42,-2.78 5.42,-4.53 0,-0.75 -0.39,-2.28 -0.69,-3.44 -0.36,-1.39 -0.79,-3.23 -0.79,-4.23 0,-5.37 5.96,-5.37 6.62,-5.37 4.23,0 5.97,5.03 5.97,5.73 0,0.59 -0.55,0.59 -0.59,0.59 -0.46,0 -0.55,-0.36 -0.65,-0.7 -1.25,-3.69 -3.39,-4.53 -4.54,-4.53 -1.64,0 -1.99,1.09 -1.99,3.05 0,1.53 0.3,4.07 0.5,5.67 0.1,0.7 0.21,1.64 0.21,2.34 0,3.83 -3.35,5.38 -4.69,5.88 z"
           inkscape:connector-curvature="0"
           style="fill:#000000;stroke-width:0" /></g>    </g>
    <path
       inkscape:connector-curvature="0"
       style="color:#000000;clip-rule:nonzero;display:inline;overflow:visible;visibility:visible;opacity:1;isolation:auto;mix-blend-mode:normal;color-interpolation:sRGB;color-interpolation-filters:linearRGB;solid-color:#000000;solid-opacity:1;fill:none;fill-opacity:1;fill-rule:nonzero;stroke:#ff4500;stroke-width:1.56715763;stroke-linecap:butt;stroke-linejoin:miter;stroke-miterlimit:4;stroke-dasharray:none;stroke-dashoffset:0;stroke-opacity:1;color-rendering:auto;image-rendering:auto;shape-rendering:auto;text-rendering:auto;enable-background:accumulate"
       d="m 180.87983,203.78732 c -0.77091,-0.97259 -1.5418,-1.94516 -2.29984,-2.9103 -0.75804,-0.96514 -1.50312,-1.92279 -2.22283,-2.86575 -0.71971,-0.94296 -1.41388,-1.87113 -2.0708,-2.77775 -0.65693,-0.90663 -1.27638,-1.79156 -1.84768,-2.64863 -0.57131,-0.85706 -1.09416,-1.68611 -1.55922,-2.48168 -0.46505,-0.79557 -0.87194,-1.55749 -1.21285,-2.28121 -0.34091,-0.72374 -0.61544,-1.40906 -0.81753,-2.05244 -0.20208,-0.64339 -0.33128,-1.2446 -0.38344,-1.80121 -0.0522,-0.55662 -0.0268,-1.06838 0.0782,-1.53404 0.10501,-0.46566 0.29014,-0.88494 0.55549,-1.2578 0.26535,-0.37288 0.61139,-0.69903 1.03612,-0.97965 0.42474,-0.28063 0.92863,-0.51543 1.50768,-0.70674 0.57905,-0.19132 1.23369,-0.33888 1.958,-0.44612 0.72431,-0.10724 1.51869,-0.17393 2.37547,-0.20451 0.85677,-0.0306 1.77629,-0.0248 2.74931,0.0118 0.97301,0.0367 1.99983,0.10454 3.06987,0.19738 1.07005,0.0928 2.18356,0.21085 3.32891,0.34728 1.14535,0.13644 2.32271,0.2914 3.5197,0.45771 1.197,0.16632 2.41371,0.34405 3.63735,0.52579 1.22364,0.18175 2.45422,0.3675 3.67882,0.5498 1.2246,0.18229 2.44317,0.3611 3.64302,0.52908 1.19985,0.16797 2.38086,0.32504 3.5309,0.46419 1.15004,0.13913 2.2689,0.26023 3.34534,0.35679 1.07643,0.0965 2.11017,0.16838 3.09112,0.20966 0.98095,0.0413 1.90878,0.0518 2.77481,0.0266 0.86605,-0.0252 1.66991,-0.0864 2.40459,-0.18767 0.73467,-0.10124 1.39971,-0.24278 1.98995,-0.42761 0.59024,-0.18484 1.10521,-0.41323 1.54168,-0.68707 0.43646,-0.27383 0.79395,-0.59336 1.07127,-0.9593 0.2773,-0.36595 0.47402,-0.77852 0.59088,-1.23733 0.11691,-0.45878 0.15356,-0.96399 0.11293,-1.51394 -0.0406,-0.54995 -0.15905,-1.1449 -0.35028,-1.78202 -0.19126,-0.63711 -0.45577,-1.31663 -0.7868,-2.03464 -0.33102,-0.718 -0.72894,-1.47473 -1.18532,-2.26529 -0.45638,-0.79055 -0.97154,-1.61513 -1.53561,-2.46802 -0.56406,-0.85287 -1.17729,-1.73421 -1.8286,-2.63758 -0.65131,-0.90337 -1.34091,-1.8289 -2.05676,-2.76963 -0.71586,-0.94072 -1.45812,-1.89674 -2.21417,-2.86073 -0.75605,-0.96399 -1.52594,-1.93599 -2.2968,-2.90854 -0.77084,-0.97255 -1.5426,-1.94565 -2.30246,-2.91183 -0.75987,-0.9662 -1.50772,-1.92545 -2.2311,-2.87052 -0.72338,-0.94508 -1.42212,-1.87591 -2.08447,-2.78567 -0.66234,-0.90976 -1.28806,-1.79832 -1.8664,-2.65946 -0.57834,-0.86114 -1.10899,-1.69468 -1.5825,-2.49516 -0.47352,-0.80048 -0.88954,-1.56767 -1.24012,-2.297 -0.35059,-0.72933 -0.63534,-1.42056 -0.84806,-2.0701 -0.21272,-0.64955 -0.35297,-1.25714 -0.41645,-1.82031 -0.0635,-0.56318 -0.0497,-1.08165 0.0436,-1.55409 0.0933,-0.47244 0.26658,-0.89858 0.52012,-1.27828 0.25353,-0.3797 0.58779,-0.71268 1.00092,-1.00002 0.41313,-0.28733 0.90561,-0.52874 1.47357,-0.72647 0.56796,-0.19774 1.21184,-0.35153 1.92586,-0.46473 0.71401,-0.11319 1.49857,-0.18557 2.34612,-0.22149 0.84754,-0.0359 1.75843,-0.0352 2.72351,-0.003 0.96509,0.0321 1.98469,0.0958 3.04831,0.18489 1.06362,0.0891 2.17151,0.20387 3.3121,0.33756 1.1406,0.13368 2.31408,0.28639 3.5081,0.451 1.19405,0.1646 2.40873,0.34115 3.63128,0.52227 1.22255,0.18111 2.45299,0.36678 3.67839,0.54955 1.22542,0.18276 2.44574,0.36259 3.64828,0.53212 1.20255,0.16952 2.38717,0.32868 3.5417,0.47043 1.15454,0.14174 2.27878,0.26596 3.3614,0.36609 1.08262,0.10012 2.12336,0.17602 3.11203,0.22176 0.98866,0.0457 1.92493,0.0612 2.80002,0.0412 0.87509,-0.02 1.68863,-0.0756 2.43345,-0.17096 0.74482,-0.0954 1.42051,-0.23074 2.02175,-0.40922 0.60122,-0.17846 1.12753,-0.4003 1.57555,-0.66746 0.448,-0.26715 0.81723,-0.57989 1.10635,-0.93899 0.28916,-0.35908 0.49765,-0.76485 0.62626,-1.21686 0.12865,-0.45197 0.17696,-0.95044 0.14773,-1.4938 -0.0293,-0.54335 -0.13649,-1.13184 -0.31698,-1.76274 -0.18049,-0.63089 -0.43465,-1.30441 -0.75585,-2.01672 -0.32119,-0.71233 -0.70981,-1.46367 -1.15752,-2.24921 -0.44773,-0.78555 -0.95489,-1.60551 -1.5117,-2.45418 -0.55681,-0.84868 -1.16354,-1.72626 -1.80918,-2.62635 -0.64564,-0.90009 -1.33039,-1.82282 -2.04233,-2.76127 -0.71192,-0.93845 -1.45115,-1.89271 -2.2051,-2.85547 -0.75394,-0.96278 -1.52268,-1.93411 -2.29332,-2.90654 -0.77063,-0.97243 -1.54315,-1.94594 -2.30469,-2.91312 -0.76154,-0.96718 -1.51202,-1.92793 -2.23894,-2.87506 -0.72691,-0.94713 -1.4301,-1.88052 -2.09775,-2.79335 -0.66763,-0.91283 -1.2995,-1.80495 -1.88476,-2.67009 -0.58525,-0.865148 -1.1236,-1.703128 -1.60548,-2.508446 -0.48188,-0.80532 -0.90693,-1.57775 -1.26711,-2.31263 -0.36018,-0.73487 -0.65508,-1.43198 -0.87837,-2.08764 -0.2233,-0.65567 -0.37455,-1.26964 -0.44931,-1.83934 -0.0748,-0.56969 -0.0726,-1.09486 0.009,-1.57407 0.0816,-0.47922 0.24305,-0.91221 0.48477,-1.298747 0.24171,-0.38653 0.56417,-0.72634 0.96568,-1.0204 0.40151,-0.29407 0.88253,-0.54211 1.43935,-0.74628 0.55682,-0.20418 1.18988,-0.36423 1.89354,-0.48343 0.70366,-0.1192 1.47832,-0.1973 2.31654,-0.23861 0.83822,-0.0413 1.74038,-0.0456 2.69744,-0.0182 0.95705,0.0275 1.96932,0.0869 3.02639,0.17221 1.05708,0.0854 2.15922,0.19677 3.29494,0.32762 1.13572,0.13086 2.30519,0.28126 3.49612,0.44407 1.19094,0.16281 2.40345,0.33812 3.62478,0.51851 1.22132,0.18039 2.45147,0.36591 3.67756,0.54907 1.22608,0.18315 2.44802,0.36392 3.65312,0.53491 1.20509,0.171007 2.39319,0.332187 3.55209,0.476457 1.1589,0.14427 2.28839,0.27153 3.37708,0.37516 1.08868,0.10364 2.13631,0.18351 3.13259,0.23367 0.99628,0.0502 1.94089,0.0704 2.82495,0.0556 0.88405,-0.0148 1.70717,-0.0649 2.46207,-0.15439 0.7549,-0.0895 1.44118,-0.21879 2.05334,-0.39093 0.61216,-0.17215 1.14977,-0.38745 1.6093,-0.647937 0.45951,-0.26048 0.84048,-0.56644 1.14139,-0.91871 0.30093,-0.35228 0.52128,-0.75119 0.66174,-1.19632 0.14042,-0.44516 0.20041,-0.93689 0.18261,-1.47361 -0.0178,-0.53674 -0.11386,-1.11876 -0.28354,-1.74339 -0.16967,-0.62463 -0.41341,-1.29212 -0.72469,-1.99871 -0.31129,-0.70658 -0.69051,-1.45249 -1.12949,-2.23297 -0.43896,-0.780481 -0.93802,-1.595739 -1.48746,-2.44016 -0.54944,-0.844416 -1.14957,-1.718156 -1.78941,-2.614896 -0.63985,-0.89674 -1.31965,-1.816602 -2.02751,-2.752704 -0.70786,-0.936101 -1.44392,-1.888513 -2.19563,-2.849995 -0.75171,-0.961477 -1.51915,-1.93206 -2.28943,-2.904287 -0.77028,-0.972231 -1.5434,-1.946092 -2.30649,-2.914155 -0.76309,-0.968064 -1.51606,-1.930278 -2.24638,-2.879377 -0.73032,-0.949087 -1.43782,-1.884983 -2.11063,-2.800801 -0.67282,-0.915818 -1.31071,-1.811428 -1.90277,-2.680511 -0.59206,-0.869074 -1.138,-1.711463 -1.62814,-2.52156 -0.49014,-0.810099 -0.92414,-1.587706 -1.29383,-2.328086 -0.36969,-0.740386 -0.67466,-1.443323 -0.90847,-2.105071 -0.2338,-0.661747 -0.396,-1.282051 -0.48201,-1.85825 -0.086,-0.576206 -0.0953,-1.108049 -0.0254,-1.594014 0.0699,-0.485985 0.21955,-0.925816 0.44945,-1.319187 0.22987,-0.393397 0.54056,-0.740026 0.93041,-1.040826 0.38986,-0.300817 0.85938,-0.555503 1.40502,-0.766153 0.54564,-0.210651 1.16783,-0.376996 1.86106,-0.502229 0.69323,-0.125232 1.45791,-0.209102 2.28673,-0.255861 0.82882,-0.04676 1.72215,-0.05617 2.67108,-0.03343 0.94892,0.02275 1.95374,0.07786 3.00416,0.159346 1.05042,0.08149 2.14669,0.189526 3.27741,0.317473 1.1307,0.127964 2.29603,0.275956 3.48374,0.4369 1.1877,0.16095 2.39791,0.334916 3.61787,0.514513 1.21995,0.179615 2.44968,0.364881 3.67629,0.548338 1.22661,0.183467 2.45005,0.365091 3.65756,0.53748 1.2075,0.172412 2.39896,0.335523 3.56208,0.482239 1.16313,0.146731 2.29775,0.276947 3.39239,0.384027 1.09463,0.10708 2.14903,0.190868 3.15281,0.245377 1.00379,0.0545 1.95664,0.07952 2.84956,0.06986 0.89293,-0.0097 1.72554,-0.05422 2.49045,-0.137959 0.76491,-0.08375 1.4617,-0.206933 2.08475,-0.372772 0.62305,-0.165847 1.17191,-0.374632 1.64291,-0.628464 0.471,-0.253846 0.86368,-0.553023 1.17637,-0.898489 0.3127,-0.345461 0.54491,-0.737493 0.69714,-1.175826 0.15223,-0.438329 0.22388,-0.923297 0.21755,-1.453391 -0.006,-0.530099 -0.0911,-1.105606 -0.24995,-1.723949 -0.15881,-0.618343 -0.39204,-1.279759 -0.69334,-1.980566 -0.3013,-0.700807 -0.67106,-1.441227 -1.10119,-2.216593 -0.43013,-0.775367 -0.92097,-1.585871 -1.46294,-2.425964 -0.54197,-0.840085 -1.13535,-1.709932 -1.76928,-2.603251 -0.63394,-0.89331 -1.30866,-1.81024 -2.01232,-2.743912 -0.70366,-0.933663 -1.43641,-1.884171 -2.18576,-2.84428 -0.74933,-0.960096 -1.51532,-1.929851 -2.28512,-2.901797 -0.7698,-0.971938 -1.54338,-1.946077 -2.30788,-2.914958 -0.76449,-0.968875 -1.51982,-1.932451 -2.2534,-2.88343 -0.73359,-0.950989 -1.44528,-1.889308 -2.12314,-2.808036 -0.67785,-0.918746 -1.32165,-1.817774 -1.9204,-2.6907205 -0.59875,-0.872955 -1.15216,-1.71967 -1.65047,-2.534485 -0.4983,-0.814832 -0.94115,-1.597563 -1.32027,-2.343397 -0.37911,-0.745843 -0.69409,-1.454569 -0.93835,-2.122352 -0.24425,-0.667801 -0.41734,-1.294401 -0.51454,-1.877088 -0.0972,-0.5826877 -0.11805,-1.1211767 -0.0598,-1.6138987 0.0582,-0.492731 0.19607,-0.939391 0.41415,-1.33961 0.21809,-0.40022 0.51691,-0.753702 0.89509,-1.061263 0.37819,-0.307564 0.83619,-0.568929 1.3706,-0.786077 0.53441,-0.217148 1.14567,-0.389811 1.82841,-0.521124 0.68273,-0.131297 1.43736,-0.220994 2.2567,-0.273242 0.81933,-0.05224 1.70375,-0.06682 2.64444,-0.04885 0.94068,0.01799 1.93795,0.06872 2.9816,0.146291 1.04365,0.07758 2.13393,0.18214 3.25951,0.307124 1.12557,0.124985 2.28663,0.270503 3.47098,0.429501 1.18433,0.159003 2.39209,0.331551 3.61054,0.510285 1.21845,0.178734 2.44763,0.36368 3.67462,0.547371 1.227,0.183684 2.45179,0.366084 3.66156,0.5398 1.20979,0.17372 2.40445,0.338689 3.57169,0.487794 1.16723,0.149095 2.30685,0.282207 3.40731,0.392653 1.10046,0.110452 2.1615,0.1981 3.17269,0.256883 1.01118,0.05878 1.97218,0.08851 2.87388,0.08393 0.9017,-0.0046 1.74373,-0.04368 2.51857,-0.121685 0.77484,-0.078 1.48207,-0.195128 2.11595,-0.354709 0.63388,-0.159581 1.19395,-0.361865 1.6764,-0.609084 0.48246,-0.247219 0.88681,-0.539634 1.21127,-0.878293 0.32445,-0.338645 0.56854,-0.723813 0.73253,-1.155339 0.16401,-0.431516 0.24741,-0.909682 0.25258,-1.433124 0.005,-0.523428 -0.0684,-1.092417 -0.21624,-1.704434 -0.14789,-0.612013 -0.37057,-1.267332 -0.66181,-1.9623178 -0.29124,-0.694978 -0.65144,-1.429872 -1.07263,-2.200069 -0.42119,-0.770183 -0.90372,-1.575888 -1.43811,-2.411584 -0.53439,-0.835705 -1.12092,-1.70159 -1.74883,-2.591409 -0.6279,-0.889828 -1.2974,-1.803743 -1.99674,-2.734901 -0.69933,-0.931163 -1.42865,-1.879687 -2.17548,-2.83833 -0.74682,-0.958652 -1.51124,-1.927496 -2.2804,-2.899067 -0.76916,-0.971581 -1.54308,-1.945911 -2.30884,-2.915514 -0.76576,-0.96962 -1.52331,-1.93447 -2.26003,-2.887271 -0.73671,-0.952801 -1.45246,-1.893457 -2.13523,-2.81504 -0.68277,-0.921592 -1.33236,-1.82396 -1.93768,-2.700719"
       title="sin(2*x)"
       id="path10077" />
    <path
       style="fill:none;fill-rule:evenodd;stroke:#000000;stroke-width:1.52798152;stroke-linecap:butt;stroke-linejoin:miter;stroke-miterlimit:4;stroke-dasharray:none;stroke-opacity:1;marker-end:url(#TriangleOutL)"
       d="M 307.43543,-36.151013 251.45398,51.957621"
       id="path4332-3"
       inkscape:connector-curvature="0" />
    <path
       inkscape:connector-curvature="0"
       style="color:#000000;clip-rule:nonzero;display:inline;overflow:visible;visibility:visible;opacity:1;isolation:auto;mix-blend-mode:normal;color-interpolation:sRGB;color-interpolation-filters:linearRGB;solid-color:#000000;solid-opacity:1;fill:none;fill-opacity:1;fill-rule:nonzero;stroke:#0000ff;stroke-width:1.61500156;stroke-linecap:butt;stroke-linejoin:miter;stroke-miterlimit:4;stroke-dasharray:none;stroke-dashoffset:0;stroke-opacity:1;color-rendering:auto;image-rendering:auto;shape-rendering:auto;text-rendering:auto;enable-background:accumulate"
       d="m 211.64461,221.53647 c -0.77427,-1.0284 -1.54852,-2.05678 -2.30986,-3.0773 -0.76135,-1.02052 -1.50968,-2.03312 -2.23252,-3.03019 -0.72285,-0.99706 -1.42005,-1.97849 -2.07983,-2.93714 -0.6598,-0.95865 -1.28195,-1.89436 -1.85575,-2.8006 -0.5738,-0.90624 -1.09893,-1.78286 -1.56601,-2.62408 -0.46707,-0.84123 -0.87573,-1.64686 -1.21813,-2.41211 -0.3424,-0.76527 -0.61812,-1.48991 -0.82109,-2.17021 -0.20297,-0.68031 -0.33273,-1.31602 -0.38512,-1.90457 -0.0524,-0.58856 -0.0269,-1.12968 0.0785,-1.62206 0.10547,-0.49238 0.29141,-0.93572 0.55792,-1.32997 0.2665,-0.39428 0.61405,-0.73914 1.04063,-1.03587 0.42659,-0.29673 0.93268,-0.545 1.51426,-0.74729 0.58157,-0.2023 1.23906,-0.35832 1.96653,-0.47172 0.72747,-0.11339 1.52531,-0.18391 2.38583,-0.21624 0.8605,-0.0324 1.78403,-0.0262 2.76129,0.0125 0.97725,0.0388 2.00855,0.11054 3.08326,0.20871 1.07471,0.0981 2.19307,0.22295 3.34342,0.36721 1.15034,0.14427 2.33283,0.30812 3.53504,0.48397 1.20222,0.17586 2.42423,0.36379 3.65321,0.55596 1.22897,0.19218 2.46492,0.38859 3.69486,0.58135 1.22993,0.19275 2.45381,0.38182 3.6589,0.55944 1.20508,0.17761 2.39124,0.34369 3.54628,0.49082 1.15505,0.14712 2.27879,0.27517 3.35993,0.37727 1.08113,0.10203 2.11937,0.17804 3.10459,0.22169 0.98524,0.0437 1.91711,0.0548 2.78691,0.0281 0.86982,-0.0266 1.67719,-0.0914 2.41508,-0.19844 0.73786,-0.10704 1.40581,-0.25671 1.99862,-0.45214 0.59282,-0.19545 1.11003,-0.43694 1.54841,-0.7265 0.43835,-0.28954 0.79741,-0.6274 1.07594,-1.01434 0.2785,-0.38695 0.47608,-0.82319 0.59344,-1.30833 0.11743,-0.48511 0.15424,-1.0193 0.11343,-1.60081 -0.0408,-0.58151 -0.15974,-1.2106 -0.3518,-1.88427 -0.1921,-0.67367 -0.45776,-1.39218 -0.79023,-2.15139 -0.33247,-0.7592 -0.73212,-1.55935 -1.19049,-2.39528 -0.45837,-0.83591 -0.97578,-1.7078 -1.54231,-2.60963 -0.56651,-0.90181 -1.18242,-1.83372 -1.83657,-2.78893 -0.65415,-0.9552 -1.34675,-1.93384 -2.06573,-2.92855 -0.71897,-0.99471 -1.46447,-2.00558 -2.22382,-3.02489 -0.75934,-1.01929 -1.53259,-2.04708 -2.30681,-3.07542 -0.7742,-1.02836 -1.54932,-2.0573 -2.3125,-3.07893 -0.76318,-1.02164 -1.51429,-2.03593 -2.24083,-3.03523 -0.72653,-0.9993 -1.42832,-1.98354 -2.09356,-2.9455 -0.66522,-0.96197 -1.29367,-1.90151 -1.87454,-2.81207 -0.58085,-0.91055 -1.11382,-1.79192 -1.58938,-2.63832 -0.47559,-0.84643 -0.89342,-1.65763 -1.24553,-2.42882 -0.35212,-0.77118 -0.63811,-1.50206 -0.85176,-2.18888 -0.21366,-0.68682 -0.35451,-1.32927 -0.41826,-1.92476 -0.0638,-0.59549 -0.0499,-1.14371 0.0438,-1.64326 0.0937,-0.49954 0.26773,-0.95014 0.52238,-1.35163 0.25464,-0.40149 0.59035,-0.75357 1.00529,-1.0574 0.41493,-0.30381 0.90956,-0.55909 1.47999,-0.76816 0.57044,-0.20909 1.21711,-0.37169 1.93426,-0.4914 0.71712,-0.11967 1.5051,-0.19621 2.35634,-0.23419 0.85124,-0.038 1.7661,-0.0372 2.73539,-0.003 0.9693,0.0339 1.99334,0.1013 3.0616,0.1955 1.06825,0.0942 2.18097,0.21557 3.32653,0.35692 1.14558,0.14135 2.32417,0.30282 3.52339,0.47688 1.19926,0.17404 2.41923,0.36073 3.64712,0.55224 1.22788,0.1915 2.46368,0.38783 3.69443,0.58108 1.23076,0.19325 2.45639,0.3834 3.66418,0.56266 1.20779,0.17924 2.39758,0.34753 3.55714,0.49743 1.15957,0.14987 2.28871,0.28121 3.37604,0.38709 1.08735,0.10586 2.13263,0.18612 3.12561,0.23448 0.99297,0.0483 1.93331,0.0647 2.81223,0.0436 0.8789,-0.0212 1.69598,-0.0799 2.44406,-0.18077 0.74806,-0.10087 1.4267,-0.24398 2.03056,-0.4327 0.60384,-0.1887 1.13244,-0.42327 1.58242,-0.70576 0.44994,-0.28248 0.82079,-0.61316 1.11117,-0.99287 0.29042,-0.37968 0.49982,-0.80874 0.62898,-1.28668 0.12922,-0.47791 0.17774,-1.00498 0.14837,-1.57952 -0.0294,-0.57452 -0.13707,-1.19678 -0.31835,-1.86388 -0.18127,-0.66709 -0.43654,-1.37926 -0.75914,-2.13244 -0.32259,-0.75321 -0.71291,-1.54766 -1.16258,-2.37828 -0.44967,-0.83062 -0.95904,-1.69763 -1.51828,-2.595 -0.55925,-0.89737 -1.16861,-1.82531 -1.81707,-2.77705 -0.64845,-0.95173 -1.33619,-1.92739 -2.05124,-2.9197 -0.71501,-0.99229 -1.45747,-2.00132 -2.2147,-3.01931 -0.75723,-1.01803 -1.52932,-2.0451 -2.30332,-3.07332 -0.774,-1.02823 -1.54989,-2.05761 -2.31474,-3.08027 -0.76486,-1.02268 -1.51861,-2.03856 -2.2487,-3.04004 -0.73008,-1.00147 -1.43634,-1.98843 -2.10689,-2.95363 -0.67054,-0.96522 -1.30517,-1.90852 -1.89298,-2.8233 -0.5878,-0.91479 -1.12851,-1.80086 -1.61249,-2.65239 -0.48397,-0.85153 -0.91087,-1.66828 -1.27262,-2.44533 -0.36175,-0.77703 -0.65795,-1.51414 -0.88221,-2.20743 -0.22427,-0.69329 -0.37617,-1.34249 -0.45127,-1.94488 -0.0751,-0.60238 -0.0729,-1.15768 0.009,-1.66439 0.082,-0.50672 0.24411,-0.96455 0.48688,-1.37327 0.24277,-0.40871 0.56664,-0.768019 0.96989,-1.078952 0.40326,-0.310944 0.88638,-0.573217 1.44563,-0.789102 0.55924,-0.215896 1.19506,-0.38513 1.90179,-0.511169 0.70674,-0.12604 1.48478,-0.208622 2.32664,-0.252302 0.84189,-0.04367 1.74798,-0.04822 2.7092,-0.01924 0.96123,0.02908 1.97791,0.09189 3.03959,0.182091 1.06168,0.0903 2.16864,0.208061 3.3093,0.346419 1.14068,0.138369 2.31524,0.297399 3.51136,0.469551 1.19613,0.172152 2.41393,0.357522 3.64058,0.548262 1.22665,0.190741 2.46217,0.386907 3.69359,0.580576 1.23143,0.19366 2.45871,0.384802 3.66906,0.565596 1.21034,0.18083 2.40361,0.35125 3.56756,0.5038 1.16396,0.15255 2.29837,0.28711 3.39182,0.39669 1.09341,0.10959 2.14562,0.19404 3.14624,0.24708 1.00062,0.0531 1.94934,0.0744 2.83726,0.0588 0.8879,-0.0157 1.71462,-0.0686 2.4728,-0.16325 0.7582,-0.0946 1.44746,-0.23134 2.0623,-0.41336 0.61483,-0.18203 1.15478,-0.40968 1.61631,-0.68512 0.46151,-0.275424 0.84415,-0.59894 1.14637,-0.971423 0.30224,-0.372494 0.52356,-0.794294 0.66462,-1.264966 0.14103,-0.470703 0.20129,-0.990649 0.1834,-1.558166 -0.0179,-0.567538 -0.11434,-1.182955 -0.28476,-1.843427 -0.17042,-0.660471 -0.41521,-1.366262 -0.72785,-2.113395 -0.31265,-0.747124 -0.69352,-1.535835 -1.13441,-2.361099 -0.44088,-0.825265 -0.94211,-1.687305 -1.49395,-2.580178 -0.55184,-0.892873 -1.15459,-1.816738 -1.79721,-2.764944 -0.64264,-0.948185 -1.3254,-1.920837 -2.03635,-2.910651 -0.71095,-0.989814 -1.45021,-1.996874 -2.2052,-3.013524 -0.75499,-1.01665 -1.52577,-2.042922 -2.29942,-3.070939 -0.77363,-1.028017 -1.55012,-2.057758 -2.31654,-3.081366 -0.76642,-1.023618 -1.52268,-2.04104 -2.25618,-3.0446 -0.7335,-1.003549 -1.44409,-1.993141 -2.11983,-2.961511 -0.67574,-0.96837 -1.31641,-1.915371 -1.91106,-2.834329 -0.59465,-0.918938 -1.14296,-1.809665 -1.63523,-2.666238 -0.49229,-0.856594 -0.92817,-1.678814 -1.29948,-2.461677 -0.37131,-0.782874 -0.67759,-1.526138 -0.91243,-2.22586 -0.23482,-0.699721 -0.39773,-1.355614 -0.48412,-1.964877 -0.0864,-0.609273 -0.0957,-1.17163 -0.0255,-1.685486 0.0702,-0.513865 0.22051,-0.978933 0.45141,-1.394875 0.23088,-0.415973 0.54292,-0.782493 0.93447,-1.100553 0.39156,-0.318081 0.86313,-0.587375 1.41115,-0.810112 0.54802,-0.222737 1.17292,-0.398632 1.86917,-0.531048 0.69626,-0.132416 1.46426,-0.221098 2.2967,-0.270542 0.83243,-0.04948 1.72966,-0.05942 2.68272,-0.03532 0.95306,0.02411 1.96227,0.08237 3.01727,0.168483 1.055,0.08618 2.15604,0.200405 3.2917,0.335697 1.13561,0.135302 2.30603,0.291784 3.49891,0.46197 1.19289,0.170185 2.40838,0.354127 3.63365,0.544032 1.22527,0.189917 2.46035,0.385817 3.69232,0.579804 1.23196,0.193998 2.46072,0.386039 3.67351,0.568321 1.21276,0.182303 2.40941,0.354773 3.5776,0.509911 1.16821,0.15515 2.30777,0.292831 3.40718,0.406056 1.09941,0.113224 2.1584,0.201822 3.16655,0.25946 1.00817,0.05763 1.96518,0.08406 2.86198,0.07391 0.89683,-0.01057 1.73307,-0.05731 2.50132,-0.145877 0.76824,-0.08861 1.46806,-0.218803 2.09384,-0.394159 0.62575,-0.175367 1.177,-0.396127 1.65007,-0.664532 0.47305,-0.268406 0.86743,-0.584753 1.1815,-0.950035 0.31405,-0.365294 0.54728,-0.779819 0.70018,-1.2433 0.15288,-0.463482 0.22485,-0.976279 0.21849,-1.536786 -0.006,-0.560518 -0.0915,-1.169051 -0.25104,-1.822871 -0.1595,-0.653821 -0.39374,-1.353194 -0.69636,-2.094216 -0.30261,-0.741013 -0.67398,-1.523918 -1.106,-2.343779 -0.432,-0.819861 -0.92497,-1.676868 -1.46931,-2.565163 -0.54433,-0.888295 -1.14031,-1.808051 -1.77699,-2.752631 -0.63671,-0.944568 -1.31436,-1.914111 -2.02109,-2.901359 -0.70673,-0.987235 -1.44267,-1.992286 -2.19529,-3.007484 -0.7526,-1.015187 -1.52193,-2.040589 -2.29509,-3.068305 -0.77316,-1.027708 -1.5501,-2.057744 -2.31793,-3.082219 -0.76783,-1.024469 -1.52645,-2.043336 -2.26323,-3.048882 -0.73679,-1.005558 -1.45158,-1.997717 -2.1324,-2.969163 -0.68081,-0.971465 -1.32741,-1.92208 -1.92876,-2.845117 -0.60136,-0.923043 -1.15719,-1.818345 -1.65768,-2.679913 -0.50047,-0.861588 -0.94524,-1.689231 -1.32602,-2.4778616 -0.38076,-0.7886409 -0.69712,-1.5380339 -0.94244,-2.2441335 -0.24531,-0.7061219 -0.41916,-1.3686765 -0.51678,-1.9847973 -0.0976,-0.6161218 -0.11856,-1.1855117 -0.0601,-1.7065042 0.0585,-0.5210041 0.19692,-0.9932947 0.41596,-1.4164795 0.21905,-0.4231837 0.51917,-0.7969476 0.899,-1.1221577 0.37984,-0.3252132 0.83982,-0.60157334 1.37656,-0.83118245 0.53675,-0.22960911 1.15067,-0.41217853 1.83639,-0.55102528 0.6857,-0.13883088 1.44363,-0.23367473 2.26654,-0.28892286 0.8229,-0.0552376 1.71118,-0.0706542 2.65597,-0.051653 0.94478,0.0190223 1.9464,0.0726632 2.9946,0.15468525 1.0482,0.0820316 2.14323,0.19259339 3.27372,0.32474903 1.13046,0.13215564 2.2966,0.28602352 3.4861,0.45414596 1.1895,0.16812455 2.40252,0.35057343 3.62629,0.53956325 1.22376,0.1889898 2.45829,0.3845481 3.69064,0.5787815 1.23235,0.1942239 2.46248,0.3870879 3.67751,0.570774 1.21507,0.1836881 2.41494,0.358122 3.58727,0.5157838 1.17231,0.1576501 2.31691,0.2984002 3.42217,0.4151826 1.10525,0.1167908 2.17092,0.2094681 3.18652,0.2716241 1.01558,0.062153 1.98077,0.093589 2.88641,0.088746 0.90563,-0.00486 1.75133,-0.046186 2.52954,-0.1286663 0.77822,-0.082476 1.48854,-0.2063245 2.12518,-0.3750623 0.63664,-0.1687368 1.19915,-0.382629 1.68371,-0.6440336 0.48456,-0.2614034 0.89067,-0.5705973 1.21655,-0.9286887 0.32586,-0.3580766 0.57102,-0.76534572 0.73572,-1.22163394 0.16473,-0.45627764 0.24849,-0.96188102 0.25368,-1.51535736 0.005,-0.5534625 -0.0687,-1.1551002 -0.21718,-1.802236 -0.14854,-0.6471306 -0.37219,-1.34005 -0.6647,-2.0749157 -0.29251,-0.7348561 -0.65428,-1.5119187 -1.0773,-2.3263099 -0.42303,-0.8143765 -0.90766,-1.6663132 -1.44438,-2.5499623 -0.53673,-0.883658 -1.12581,-1.799228 -1.75647,-2.740105 -0.63062,-0.940887 -1.30304,-1.907242 -2.00543,-2.891831 -0.70239,-0.984593 -1.43488,-1.987544 -2.18497,-3.001194 -0.75007,-1.01366 -1.51782,-2.038097 -2.29033,-3.065417 -0.77252,-1.027331 -1.54981,-2.057569 -2.31892,-3.082808 -0.7691,-1.025257 -1.52994,-2.045471 -2.26987,-3.052944 -0.73992,-1.007473 -1.45879,-2.002104 -2.14454,-2.976568 -0.68575,-0.974483 -1.33817,-1.928621 -1.94614,-2.85569"
       title="sin(2*x)"
       id="path10077-9" />
    <path
       style="fill:none;fill-rule:evenodd;stroke:#000000;stroke-width:1.52798152;stroke-linecap:butt;stroke-linejoin:miter;stroke-miterlimit:4;stroke-dasharray:none;stroke-opacity:1;marker-end:url(#TriangleOutL-7)"
       d="m 207.93402,220.32392 55.98145,-88.10864"
       id="path4332-3-6"
       inkscape:connector-curvature="0" />
    <path
       sodipodi:nodetypes="cc"
       inkscape:connector-curvature="0"
       id="path11447"
       d="M 307.60601,-36.51293 379.27698,4.866328"
       style="fill:none;fill-rule:evenodd;stroke:#000000;stroke-width:0.70555556;stroke-linecap:butt;stroke-linejoin:miter;stroke-opacity:1;stroke-miterlimit:4;stroke-dasharray:0.70555556,0.70555556;stroke-dashoffset:0" />
    <path
       sodipodi:nodetypes="cc"
       inkscape:connector-curvature="0"
       id="path11451"
       d="M 386.1653,-5.9751286 314.49434,-47.35438"
       style="fill:none;fill-rule:evenodd;stroke:#000000;stroke-width:0.70555556;stroke-linecap:butt;stroke-linejoin:miter;stroke-opacity:1;stroke-miterlimit:4;stroke-dasharray:0.70555556,0.70555556;stroke-dashoffset:0" />
    <path
       inkscape:connector-curvature="0"
       id="path11455"
       d="M 369.10891,-0.24888639 375.99723,-11.090342"
       style="fill:none;fill-rule:evenodd;stroke:#000000;stroke-width:1.76388889;stroke-linecap:butt;stroke-linejoin:miter;stroke-opacity:1;marker-start:url(#TriangleInM);marker-end:url(#TriangleOutM);stroke-miterlimit:4;stroke-dasharray:none" />
    <g
       id="g13038"
       transform="translate(229.90711,-66.884229)">
      <g
         word-spacing="normal"
         letter-spacing="normal"
         font-size-adjust="none"
         font-stretch="normal"
         font-weight="normal"
         font-variant="normal"
         font-style="normal"
         stroke-miterlimit="10.433"
         xml:space="preserve"
         transform="matrix(0.55285051,0,0,-0.55285051,-96.74884,304.90006)"
         id="g13036"
         style="font-style:normal;font-variant:normal;font-weight:normal;font-stretch:normal;letter-spacing:normal;word-spacing:normal;text-anchor:start;fill:none;fill-opacity:1;fill-rule:evenodd;stroke:#000000;stroke-linecap:butt;stroke-linejoin:miter;stroke-miterlimit:10.43299961;stroke-dasharray:none;stroke-dashoffset:0;stroke-opacity:1"><path
           id="path13034"
           d="m 477.29,439.57 v 0.01 0.01 0 0.01 0.01 0.01 0 0.01 l 0.01,0.02 v 0.03 0.02 l 0.01,0.02 0.01,0.03 v 0.03 l 0.01,0.02 v 0.03 l 0.01,0.03 0.01,0.03 0.01,0.06 0.02,0.06 v 0.03 l 0.01,0.02 0.01,0.03 v 0.03 l 0.01,0.02 0.01,0.02 v 0.02 l 0.01,0.02 v 0.01 0.01 0.01 0.01 h 0.01 v 0.01 0.01 0 0.01 0 0 0.01 c 0,0.04 0,0.5 -0.59,0.5 -0.5,0 -0.55,-0.16 -0.75,-1 l -2.89,-11.5 c -7.92,-0.25 -15.25,-6.88 -15.25,-13.66 0,-4.73 3.48,-8.67 9.56,-9.01 l 0.25,1.09 c -2.98,0.14 -6.58,1.89 -6.58,6.87 0,5.99 4.3,12.96 11.72,13.6 l -5.14,-20.47 -0.25,-1.09 c -0.39,-1.55 -0.73,-3.15 -1.14,-4.69 -0.59,-2.35 -1.09,-4.24 -1.09,-4.39 0,-0.49 0.34,-0.55 0.59,-0.55 0.25,0 0.36,0.06 0.5,0.2 0.09,0.1 0.41,1.3 0.55,2 l 1.89,7.43 0.25,1.09 5.14,20.47 c 3.78,-0.19 6.62,-2.49 6.62,-6.88 0,-5.87 -4.28,-13 -11.76,-13.59 l -0.25,-1.09 c 8.03,0.25 15.25,6.96 15.25,13.64 0,3.93 -2.64,8.53 -9.57,9.03 z"
           inkscape:connector-curvature="0"
           style="fill:#000000;stroke-width:0" /></g>    </g>
  </g>
</svg>
