<?xml version="1.0" encoding="UTF-8" standalone="no"?>
<!-- Created with Inkscape (http://www.inkscape.org/) -->

<svg
   xmlns:dc="http://purl.org/dc/elements/1.1/"
   xmlns:cc="http://creativecommons.org/ns#"
   xmlns:rdf="http://www.w3.org/1999/02/22-rdf-syntax-ns#"
   xmlns:svg="http://www.w3.org/2000/svg"
   xmlns="http://www.w3.org/2000/svg"
   xmlns:sodipodi="http://sodipodi.sourceforge.net/DTD/sodipodi-0.dtd"
   xmlns:inkscape="http://www.inkscape.org/namespaces/inkscape"
   width="196.65295"
   height="123.0625"
   id="svg6305"
   version="1.1"
   inkscape:version="0.48.4 r9939"
   sodipodi:docname="New document 23">
  <defs
     id="defs6307">
    <marker
       inkscape:stockid="TriangleOutM"
       orient="auto"
       refY="0"
       refX="0"
       id="TriangleOutM"
       style="overflow:visible">
      <path
         id="path4147"
         d="m 5.77,0 -8.65,5 0,-10 8.65,5 z"
         style="fill-rule:evenodd;stroke:#000000;stroke-width:1pt"
         transform="scale(0.4,0.4)"
         inkscape:connector-curvature="0" />
    </marker>
    <marker
       inkscape:stockid="TriangleInM"
       orient="auto"
       refY="0"
       refX="0"
       id="TriangleInM"
       style="overflow:visible">
      <path
         id="path4138"
         d="m 5.77,0 -8.65,5 0,-10 8.65,5 z"
         style="fill-rule:evenodd;stroke:#000000;stroke-width:1pt"
         transform="scale(-0.4,-0.4)"
         inkscape:connector-curvature="0" />
    </marker>
  </defs>
  <sodipodi:namedview
     id="base"
     pagecolor="#ffffff"
     bordercolor="#666666"
     borderopacity="1.0"
     inkscape:pageopacity="0.0"
     inkscape:pageshadow="2"
     inkscape:zoom="0.35"
     inkscape:cx="-58.097391"
     inkscape:cy="27.245566"
     inkscape:document-units="px"
     inkscape:current-layer="layer1"
     showgrid="false"
     fit-margin-top="0"
     fit-margin-left="0"
     fit-margin-right="0"
     fit-margin-bottom="0"
     inkscape:window-width="472"
     inkscape:window-height="383"
     inkscape:window-x="1446"
     inkscape:window-y="24"
     inkscape:window-maximized="0" />
  <metadata
     id="metadata6310">
    <rdf:RDF>
      <cc:Work
         rdf:about="">
        <dc:format>image/svg+xml</dc:format>
        <dc:type
           rdf:resource="http://purl.org/dc/dcmitype/StillImage" />
        <dc:title></dc:title>
      </cc:Work>
    </rdf:RDF>
  </metadata>
  <g
     inkscape:label="Layer 1"
     inkscape:groupmode="layer"
     id="layer1"
     transform="translate(-433.09739,-436.54525)">
    <g
       transform="translate(128.37534,26.701499)"
       id="g6100">
      <g
         id="g6102"
         transform="translate(-112,0)">
        <rect
           y="410.37497"
           x="417.89343"
           height="122"
           width="194.94502"
           id="rect6104"
           style="fill:none;stroke:#000000;stroke-width:1.0629921;stroke-miterlimit:4;stroke-opacity:1;stroke-dasharray:none;stroke-dashoffset:0" />
        <path
           sodipodi:nodetypes="cc"
           inkscape:connector-curvature="0"
           id="path6106"
           d="m 440.7844,504.33768 157.26047,0.0268"
           style="fill:none;stroke:#000000;stroke-width:1px;stroke-linecap:butt;stroke-linejoin:miter;stroke-opacity:1;marker-end:url(#TriangleOutM)" />
        <path
           sodipodi:nodetypes="cc"
           inkscape:connector-curvature="0"
           id="path6108"
           d="m 440.7845,419.12497 -10e-5,85.21271"
           style="fill:none;stroke:#000000;stroke-width:0.99921262;stroke-linecap:butt;stroke-linejoin:miter;stroke-miterlimit:4;stroke-opacity:1;stroke-dasharray:none;marker-start:url(#TriangleInM);marker-end:none" />
        <g
           transform="translate(337.03562,378.69574)"
           id="g6110">
          <g
             style="font-style:normal;font-variant:normal;font-weight:normal;font-stretch:normal;letter-spacing:normal;word-spacing:normal;text-anchor:start;fill:none;stroke:#000000;stroke-linecap:butt;stroke-linejoin:miter;stroke-miterlimit:10.43299961;stroke-opacity:1;stroke-dasharray:none;stroke-dashoffset:0"
             word-spacing="normal"
             letter-spacing="normal"
             font-size-adjust="none"
             font-stretch="normal"
             font-weight="normal"
             font-variant="normal"
             font-style="normal"
             stroke-miterlimit="10.433"
             xml:space="preserve"
             transform="matrix(0.28210707,0,0,-0.28210707,-49.368738,205.17224)"
             id="g6112"><path
               style="fill:#000000;stroke-width:0"
               inkscape:connector-curvature="0"
               id="path6114"
               d="m 470.61,421.95 0.21,1.28 3.39,13.56 c 0.43,1.74 0.54,1.89 2.68,1.89 h 4.79 c 4.14,0 6.78,-1.34 6.78,-4.78 0,-1.95 -1,-6.23 -2.94,-8.03 -2.5,-2.23 -5.48,-2.64 -7.69,-2.64 h -7.01 l -0.21,-1.28 h 8.47 c 7.08,0 14,5.17 14,10.75 0,3.84 -3.28,7.53 -9.81,7.53 h -16.14 c -0.95,0 -1.5,0 -1.5,-0.95 0,-0.6 0.45,-0.6 1.45,-0.6 0.64,0 1.55,-0.04 2.14,-0.09 0.8,-0.11 1.1,-0.25 1.1,-0.8 0,-0.2 -0.05,-0.36 -0.21,-0.95 l -6.67,-26.75 c -0.5,-1.95 -0.59,-2.34 -4.53,-2.34 -0.84,0 -1.39,0 -1.39,-0.96 0,-0.59 0.59,-0.59 0.73,-0.59 1.41,0 4.94,0.16 6.33,0.16 1.05,0 2.14,-0.07 3.19,-0.07 1.11,0 2.2,-0.09 3.25,-0.09 0.34,0 0.98,0 0.98,1 0,0.55 -0.43,0.55 -1.39,0.55 -1.84,0 -3.23,0 -3.23,0.89 0,0.29 0.09,0.54 0.14,0.84 z" /><path
               style="fill:#000000;stroke-width:0"
               inkscape:connector-curvature="0"
               id="path6116"
               d="m 494.14,401.48 -0.03,-0.11 -0.02,-0.1 -0.03,-0.1 -0.02,-0.09 -0.02,-0.09 -0.03,-0.09 -0.03,-0.08 -0.03,-0.07 -0.04,-0.07 -0.03,-0.07 -0.05,-0.06 -0.04,-0.06 -0.05,-0.05 -0.06,-0.05 -0.06,-0.05 -0.07,-0.04 -0.08,-0.04 -0.09,-0.03 -0.09,-0.04 -0.1,-0.03 -0.06,-0.01 -0.05,-0.01 -0.06,-0.02 -0.06,-0.01 -0.07,-0.01 -0.07,-0.01 -0.07,-0.01 -0.07,-0.01 -0.07,0 -0.08,-0.01 -0.08,-0.01 -0.09,0 -0.08,-0.01 -0.09,-0.01 -0.1,0 -0.09,0 -0.1,-0.01 -0.11,0 -0.11,0 -0.11,0 -0.11,-0.01 -0.12,0 -0.12,0 -0.13,0 c -0.62,0 -1.04,0 -1.04,-0.76 0,-0.49 0.42,-0.49 1.04,-0.49 h 12.44 l -0.62,1.25 h -4.74 c -1.08,0 -1.11,0.05 -1.11,0.36 0,0.03 0,0.2 0.13,0.72 l 4.78,19.03 c 0.28,1.08 0.31,1.19 1.78,1.19 h 4.45 c 3.91,0 7.19,-1.95 7.19,-6.69 0,-0.81 -0.36,-6.83 -3.84,-10.81 -1.36,-1.56 -4.35,-3.8 -8.64,-3.8 l 0.62,-1.25 c 7.74,0 15.16,7.11 15.16,14.7 0,5.1 -3.52,9.1 -9.19,9.1 h -12.69 c -0.7,0 -1.11,0 -1.11,-0.77 0,-0.48 0.38,-0.48 1.14,-0.48 0.57,0 0.71,0 1.33,-0.08 0.71,-0.06 0.77,-0.14 0.77,-0.48 0,-0.07 0,-0.24 -0.14,-0.77 z" /></g>        </g>
        <g
           transform="translate(424.29895,429.72681)"
           id="g6118">
          <g
             style="font-style:normal;font-variant:normal;font-weight:normal;font-stretch:normal;letter-spacing:normal;word-spacing:normal;text-anchor:start;fill:none;stroke:#000000;stroke-linecap:butt;stroke-linejoin:miter;stroke-miterlimit:10.43299961;stroke-opacity:1;stroke-dasharray:none;stroke-dashoffset:0"
             id="g6120"
             transform="matrix(0.28210707,0,0,-0.28210707,-49.368738,205.17224)"
             xml:space="preserve"
             stroke-miterlimit="10.433"
             font-style="normal"
             font-variant="normal"
             font-weight="normal"
             font-stretch="normal"
             font-size-adjust="none"
             letter-spacing="normal"
             word-spacing="normal"><path
               style="fill:#000000;stroke-width:0"
               inkscape:connector-curvature="0"
               d="m 470.61,421.95 0.21,1.28 3.39,13.56 c 0.43,1.74 0.54,1.89 2.68,1.89 h 4.79 c 4.14,0 6.78,-1.34 6.78,-4.78 0,-1.95 -1,-6.23 -2.94,-8.03 -2.5,-2.23 -5.48,-2.64 -7.69,-2.64 h -7.01 l -0.21,-1.28 h 8.47 c 7.08,0 14,5.17 14,10.75 0,3.84 -3.28,7.53 -9.81,7.53 h -16.14 c -0.95,0 -1.5,0 -1.5,-0.95 0,-0.6 0.45,-0.6 1.45,-0.6 0.64,0 1.55,-0.04 2.14,-0.09 0.8,-0.11 1.1,-0.25 1.1,-0.8 0,-0.2 -0.05,-0.36 -0.21,-0.95 l -6.67,-26.75 c -0.5,-1.95 -0.59,-2.34 -4.53,-2.34 -0.84,0 -1.39,0 -1.39,-0.96 0,-0.59 0.59,-0.59 0.73,-0.59 1.41,0 4.94,0.16 6.33,0.16 1.05,0 2.14,-0.07 3.19,-0.07 1.11,0 2.2,-0.09 3.25,-0.09 0.34,0 0.98,0 0.98,1 0,0.55 -0.43,0.55 -1.39,0.55 -1.84,0 -3.23,0 -3.23,0.89 0,0.29 0.09,0.54 0.14,0.84 z"
               id="path6122" /><path
               style="fill:#000000;stroke-width:0"
               inkscape:connector-curvature="0"
               d="m 499.48,409.98 h 3.72 c 2.66,0 3.11,-0.42 3.11,-1.56 0,-0.53 0,-0.6 -0.25,-1.58 -0.06,-0.2 -0.11,-0.31 -0.11,-0.41 0,-0.36 0.25,-0.53 0.59,-0.53 0.46,0 0.5,0.17 0.67,0.8 l 1.88,7.39 c 0.03,0.11 0.14,0.62 0.14,0.7 0,0.35 -0.25,0.52 -0.59,0.52 -0.49,0 -0.52,-0.2 -0.69,-0.83 -0.7,-2.72 -1.72,-3.25 -4.67,-3.25 h -3.49 l 2.19,8.75 c 0.28,1.08 0.31,1.19 1.78,1.19 h 5.33 c 4.64,0 5.51,-1.11 5.51,-4.02 0,-1.14 -0.13,-1.87 -0.13,-2.15 0,-0.29 0.09,-0.6 0.59,-0.6 0.51,0 0.54,0.31 0.62,0.91 l 0.63,6.06 c 0.09,1.05 -0.14,1.05 -1.02,1.05 h -18.61 c -0.65,0 -1.11,0 -1.11,-0.77 0,-0.48 0.43,-0.48 1.11,-0.48 0.05,0 0.71,0 1.33,-0.08 0.74,-0.06 0.8,-0.13 0.8,-0.48 0,-0.24 -0.1,-0.6 -0.14,-0.77 l -4.56,-18.22 c -0.35,-1.36 -0.38,-1.61 -3.1,-1.61 -0.59,0 -1.05,0 -1.05,-0.73 0,-0.35 0.24,-0.52 0.57,-0.52 1,0 3.58,0.14 4.59,0.14 l 2.69,-0.03 c 0.9,0 1.87,-0.11 2.75,-0.11 0.23,0 0.76,0 0.76,0.77 0,0.48 -0.42,0.48 -1.21,0.48 -0.08,0 -0.94,0 -1.82,0.08 -0.73,0.06 -1.08,0.09 -1.08,0.59 0,0.14 0,0.24 0.1,0.63 z"
               id="path6124" /></g>        </g>
      </g>
    </g>
    <path
       style="fill:none;stroke:#000000;stroke-width:1px;stroke-linecap:butt;stroke-linejoin:miter;stroke-opacity:1"
       d="M 457.15974,531.03918 599.07219,449.10599"
       id="path6128"
       inkscape:connector-curvature="0" />
  </g>
</svg>
