<?xml version="1.0" encoding="UTF-8" standalone="no"?>
<!-- Created with Inkscape (http://www.inkscape.org/) -->

<svg
   xmlns:dc="http://purl.org/dc/elements/1.1/"
   xmlns:cc="http://creativecommons.org/ns#"
   xmlns:rdf="http://www.w3.org/1999/02/22-rdf-syntax-ns#"
   xmlns:svg="http://www.w3.org/2000/svg"
   xmlns="http://www.w3.org/2000/svg"
   xmlns:xlink="http://www.w3.org/1999/xlink"
   xmlns:sodipodi="http://sodipodi.sourceforge.net/DTD/sodipodi-0.dtd"
   xmlns:inkscape="http://www.inkscape.org/namespaces/inkscape"
   width="807.8761"
   height="794.19885"
   id="svg6726"
   version="1.1"
   inkscape:version="0.48.4 r9939"
   sodipodi:docname="scattering_matrix.svg"
   inkscape:export-filename="/home/baffelli/PhD_work/Presentation_workshop/Drawings/scattering_matrix.png"
   inkscape:export-xdpi="90"
   inkscape:export-ydpi="90">
  <sodipodi:namedview
     id="base"
     pagecolor="#ffffff"
     bordercolor="#666666"
     borderopacity="1.0"
     inkscape:pageopacity="0.0"
     inkscape:pageshadow="2"
     inkscape:zoom="1.125738"
     inkscape:cx="560.32847"
     inkscape:cy="262.39748"
     inkscape:document-units="px"
     inkscape:current-layer="layer1"
     showgrid="false"
     inkscape:snap-bbox="true"
     inkscape:bbox-paths="true"
     inkscape:bbox-nodes="true"
     inkscape:snap-bbox-edge-midpoints="false"
     inkscape:snap-bbox-midpoints="false"
     inkscape:object-paths="true"
     inkscape:snap-intersection-paths="true"
     inkscape:object-nodes="true"
     inkscape:snap-smooth-nodes="true"
     inkscape:snap-midpoints="true"
     inkscape:snap-object-midpoints="true"
     inkscape:snap-center="true"
     inkscape:window-width="1855"
     inkscape:window-height="1056"
     inkscape:window-x="65"
     inkscape:window-y="24"
     inkscape:window-maximized="1"
     fit-margin-top="0"
     fit-margin-left="0"
     fit-margin-right="0"
     fit-margin-bottom="0"
     inkscape:snap-nodes="true"
     showguides="true"
     inkscape:guide-bbox="true">
    <sodipodi:guide
       id="guide11307"
       position="261.67743,339.64274"
       orientation="0,1" />
    <sodipodi:guide
       id="guide11985"
       position="261.67743,547.83635"
       orientation="0,1" />
    <sodipodi:guide
       id="guide11987"
       position="261.67743,743.83633"
       orientation="0,1" />
    <sodipodi:guide
       id="guide11989"
       position="261.67743,657.64277"
       orientation="0,1" />
    <sodipodi:guide
       id="guide11991"
       position="261.67743,461.64277"
       orientation="0,1" />
    <sodipodi:guide
       id="guide11993"
       position="96.774196,1092.2573"
       orientation="0,1" />
    <sodipodi:guide
       id="guide11997"
       position="445.16129,700.73955"
       orientation="0,1" />
    <sodipodi:guide
       id="guide11999"
       position="427.41935,504.73958"
       orientation="0,1" />
    <inkscape:grid
       originy="37.418567px"
       originx="1.2304688e-06px"
       snapvisiblegridlinesonly="true"
       enabled="true"
       visible="true"
       empspacing="5"
       id="grid12026"
       type="xygrid" />
    <sodipodi:guide
       id="guide12166"
       position="368.44189,700.73955"
       orientation="1,0" />
    <sodipodi:guide
       id="guide12168"
       position="479.39557,700.73955"
       orientation="1,0" />
    <sodipodi:guide
       id="guide12170"
       position="595.95471,657.64277"
       orientation="1,0" />
    <sodipodi:guide
       id="guide12172"
       position="710.5217,657.64277"
       orientation="1,0" />
  </sodipodi:namedview>
  <defs
     id="defs6728">
    <marker
       style="overflow:visible"
       id="TriangleInL"
       refX="0"
       refY="0"
       orient="auto"
       inkscape:stockid="TriangleInL">
      <path
         inkscape:connector-curvature="0"
         transform="scale(-0.8,-0.8)"
         style="fill-rule:evenodd;stroke:#000000;stroke-width:1pt"
         d="m 5.77,0 -8.65,5 0,-10 8.65,5 z"
         id="path5185" />
    </marker>
    <marker
       style="overflow:visible"
       id="TriangleOutL"
       refX="0"
       refY="0"
       orient="auto"
       inkscape:stockid="TriangleOutL">
      <path
         inkscape:connector-curvature="0"
         transform="scale(0.8,0.8)"
         style="fill-rule:evenodd;stroke:#000000;stroke-width:1pt"
         d="m 5.77,0 -8.65,5 0,-10 8.65,5 z"
         id="path5194" />
    </marker>
    <radialGradient
       inkscape:collect="always"
       xlink:href="#linearGradient2057"
       id="radialGradient1375"
       gradientUnits="userSpaceOnUse"
       gradientTransform="scale(1.39523,0.716728)"
       cx="14.207293"
       cy="222.04396"
       fx="14.207293"
       fy="222.04396"
       r="8.2519293" />
    <radialGradient
       inkscape:collect="always"
       xlink:href="#linearGradient2057"
       id="radialGradient1371"
       gradientUnits="userSpaceOnUse"
       gradientTransform="scale(1.39523,0.716728)"
       cx="14.207293"
       cy="222.04396"
       fx="14.207293"
       fy="222.04396"
       r="8.2519293" />
    <radialGradient
       inkscape:collect="always"
       xlink:href="#linearGradient2057"
       id="radialGradient1367"
       gradientUnits="userSpaceOnUse"
       gradientTransform="scale(1.39523,0.716728)"
       cx="14.207293"
       cy="222.04396"
       fx="14.207293"
       fy="222.04396"
       r="8.2519293" />
    <radialGradient
       inkscape:collect="always"
       xlink:href="#linearGradient2057"
       id="radialGradient1363"
       gradientUnits="userSpaceOnUse"
       gradientTransform="scale(1.39523,0.716728)"
       cx="14.207293"
       cy="222.04396"
       fx="14.207293"
       fy="222.04396"
       r="8.2519293" />
    <radialGradient
       inkscape:collect="always"
       xlink:href="#linearGradient2057"
       id="radialGradient1359"
       gradientUnits="userSpaceOnUse"
       gradientTransform="scale(1.39523,0.716728)"
       cx="14.207293"
       cy="222.04396"
       fx="14.207293"
       fy="222.04396"
       r="8.2519293" />
    <radialGradient
       inkscape:collect="always"
       xlink:href="#linearGradient2057"
       id="radialGradient1355"
       gradientUnits="userSpaceOnUse"
       gradientTransform="scale(1.39523,0.716728)"
       cx="14.207293"
       cy="222.04396"
       fx="14.207293"
       fy="222.04396"
       r="8.2519293" />
    <radialGradient
       inkscape:collect="always"
       xlink:href="#linearGradient2057"
       id="radialGradient1351"
       gradientUnits="userSpaceOnUse"
       gradientTransform="scale(1.39523,0.716728)"
       cx="14.207293"
       cy="222.04396"
       fx="14.207293"
       fy="222.04396"
       r="8.2519293" />
    <radialGradient
       inkscape:collect="always"
       xlink:href="#linearGradient2057"
       id="radialGradient1347"
       gradientUnits="userSpaceOnUse"
       gradientTransform="scale(1.39523,0.716728)"
       cx="14.207293"
       cy="222.04396"
       fx="14.207293"
       fy="222.04396"
       r="8.2519293" />
    <radialGradient
       inkscape:collect="always"
       xlink:href="#linearGradient2057"
       id="radialGradient1343"
       gradientUnits="userSpaceOnUse"
       gradientTransform="scale(1.39523,0.716728)"
       cx="14.207293"
       cy="222.04396"
       fx="14.207293"
       fy="222.04396"
       r="8.2519293" />
    <radialGradient
       inkscape:collect="always"
       xlink:href="#linearGradient2057"
       id="radialGradient1339"
       gradientUnits="userSpaceOnUse"
       gradientTransform="scale(1.39523,0.716728)"
       cx="14.207293"
       cy="222.04396"
       fx="14.207293"
       fy="222.04396"
       r="8.2519293" />
    <radialGradient
       inkscape:collect="always"
       xlink:href="#linearGradient2057"
       id="radialGradient1335"
       gradientUnits="userSpaceOnUse"
       gradientTransform="scale(1.39523,0.716728)"
       cx="14.207293"
       cy="222.04396"
       fx="14.207293"
       fy="222.04396"
       r="8.2519293" />
    <radialGradient
       inkscape:collect="always"
       xlink:href="#linearGradient2057"
       id="radialGradient1331"
       gradientUnits="userSpaceOnUse"
       gradientTransform="scale(1.39523,0.716728)"
       cx="14.207293"
       cy="222.04396"
       fx="14.207293"
       fy="222.04396"
       r="8.2519293" />
    <radialGradient
       inkscape:collect="always"
       xlink:href="#linearGradient2057"
       id="radialGradient1327"
       gradientUnits="userSpaceOnUse"
       gradientTransform="scale(1.39523,0.716728)"
       cx="14.207293"
       cy="222.04396"
       fx="14.207293"
       fy="222.04396"
       r="8.2519293" />
    <radialGradient
       inkscape:collect="always"
       xlink:href="#linearGradient2057"
       id="radialGradient1323"
       gradientUnits="userSpaceOnUse"
       gradientTransform="scale(1.39523,0.716728)"
       cx="14.207293"
       cy="222.04396"
       fx="14.207293"
       fy="222.04396"
       r="8.2519293" />
    <radialGradient
       inkscape:collect="always"
       xlink:href="#linearGradient2057"
       id="radialGradient1319"
       gradientUnits="userSpaceOnUse"
       gradientTransform="scale(1.39523,0.716728)"
       cx="14.207293"
       cy="222.04396"
       fx="14.207293"
       fy="222.04396"
       r="8.2519293" />
    <radialGradient
       inkscape:collect="always"
       xlink:href="#linearGradient2057"
       id="radialGradient1315"
       gradientUnits="userSpaceOnUse"
       gradientTransform="scale(1.39523,0.716728)"
       cx="14.207293"
       cy="222.04396"
       fx="14.207293"
       fy="222.04396"
       r="8.2519293" />
    <radialGradient
       gradientUnits="userSpaceOnUse"
       r="8.2519293"
       fy="222.04396"
       fx="14.207293"
       cy="222.04396"
       cx="14.207293"
       gradientTransform="scale(1.39523,0.716728)"
       id="radialGradient2063"
       xlink:href="#linearGradient2057"
       inkscape:collect="always" />
    <linearGradient
       id="linearGradient2057"
       inkscape:collect="always">
      <stop
         id="stop2059"
         offset="0"
         style="stop-color:#000000;stop-opacity:1;" />
      <stop
         id="stop2061"
         offset="1"
         style="stop-color:#000000;stop-opacity:0;" />
    </linearGradient>
  </defs>
  <metadata
     id="metadata6731">
    <rdf:RDF>
      <cc:Work
         rdf:about="">
        <dc:format>image/svg+xml</dc:format>
        <dc:type
           rdf:resource="http://purl.org/dc/dcmitype/StillImage" />
        <dc:title />
      </cc:Work>
    </rdf:RDF>
  </metadata>
  <g
     transform="translate(258.69638,-166.5158)"
     id="layer1"
     inkscape:groupmode="layer"
     inkscape:label="Layer 1">
    <path
       inkscape:connector-curvature="0"
       id="path6736"
       d="m -127.41936,171.00934 0,569.93152"
       style="fill:none;stroke:#000000;stroke-width:8.98707104;stroke-linecap:butt;stroke-linejoin:miter;stroke-miterlimit:4;stroke-opacity:1;stroke-dasharray:none" />
    <path
       inkscape:connector-curvature="0"
       id="path6738"
       d="M -127.41936,741.07186 -27.08955,798.9973"
       style="fill:none;stroke:#000000;stroke-width:8;stroke-linecap:butt;stroke-linejoin:miter;stroke-miterlimit:4;stroke-opacity:1;stroke-dasharray:none" />
    <path
       inkscape:connector-curvature="0"
       id="path6738-0"
       d="M -128.41936,741.07186 -228.74917,798.9973"
       style="fill:none;stroke:#000000;stroke-width:8;stroke-linecap:butt;stroke-linejoin:miter;stroke-miterlimit:4;stroke-opacity:1;stroke-dasharray:none" />
    <rect
       y="265.9751"
       x="-256.69638"
       height="37.096775"
       width="259.67743"
       id="rect7270"
       style="fill:#ffffff;stroke:#4d4d4d;stroke-width:4;stroke-miterlimit:4;stroke-opacity:1;stroke-dasharray:none;stroke-dashoffset:0" />
    <rect
       y="216.87831"
       x="-256.69638"
       height="37.096775"
       width="259.67743"
       id="rect7274"
       style="fill:#ffffff;stroke:#4d4d4d;stroke-width:4;stroke-miterlimit:4;stroke-opacity:1;stroke-dasharray:none;stroke-dashoffset:0" />
    <rect
       style="fill:#ffffff;stroke:#4d4d4d;stroke-width:4;stroke-miterlimit:4;stroke-opacity:1;stroke-dasharray:none;stroke-dashoffset:0"
       id="rect7284"
       width="259.67743"
       height="37.096775"
       x="-256.69638"
       y="461.9751" />
    <rect
       style="fill:#ffffff;stroke:#4d4d4d;stroke-width:4;stroke-miterlimit:4;stroke-opacity:1;stroke-dasharray:none;stroke-dashoffset:0"
       id="rect7286"
       width="259.67743"
       height="37.096775"
       x="-256.69638"
       y="412.8783" />
    <rect
       y="583.9751"
       x="-256.69638"
       height="37.096775"
       width="259.67743"
       id="rect7288"
       style="fill:#ffffff;stroke:#4d4d4d;stroke-width:4;stroke-miterlimit:4;stroke-opacity:1;stroke-dasharray:none;stroke-dashoffset:0" />
    <rect
       y="534.8783"
       x="-256.69638"
       height="37.096775"
       width="259.67743"
       id="rect7290"
       style="fill:#ffffff;stroke:#4d4d4d;stroke-width:4;stroke-miterlimit:4;stroke-opacity:1;stroke-dasharray:none;stroke-dashoffset:0" />
    <text
       sodipodi:linespacing="125%"
       id="text7292"
       y="250.00677"
       x="-172.17993"
       style="font-size:40px;font-style:normal;font-weight:normal;line-height:125%;letter-spacing:0px;word-spacing:0px;fill:#0000ff;fill-opacity:1;stroke:none;font-family:Sans"
       xml:space="preserve"><tspan
         y="250.00677"
         x="-172.17993"
         id="tspan7294"
         sodipodi:role="line">TX H</tspan></text>
    <text
       sodipodi:linespacing="125%"
       id="text7292-6"
       y="299.10358"
       x="-172.61938"
       style="font-size:40px;font-style:normal;font-weight:normal;line-height:125%;letter-spacing:0px;word-spacing:0px;fill:#ff0000;fill-opacity:1;stroke:none;font-family:Sans"
       xml:space="preserve"><tspan
         y="299.10358"
         x="-172.61938"
         id="tspan7294-9"
         sodipodi:role="line">TX V</tspan></text>
    <text
       sodipodi:linespacing="125%"
       id="text7292-6-5"
       y="446.00677"
       x="-195.09009"
       style="font-size:40px;font-style:normal;font-weight:normal;line-height:125%;letter-spacing:0px;word-spacing:0px;fill:#0000ff;fill-opacity:1;stroke:none;font-family:Sans"
       xml:space="preserve"><tspan
         y="446.00677"
         x="-195.09009"
         id="tspan7294-9-2"
         sodipodi:role="line">RX H 1</tspan></text>
    <text
       sodipodi:linespacing="125%"
       id="text7292-6-7"
       y="495.10358"
       x="-193.7229"
       style="font-size:40px;font-style:normal;font-weight:normal;line-height:125%;letter-spacing:0px;word-spacing:0px;fill:#ff0000;fill-opacity:1;stroke:none;font-family:Sans"
       xml:space="preserve"><tspan
         y="495.10358"
         x="-193.7229"
         id="tspan7294-9-6"
         sodipodi:role="line">RX V 1</tspan></text>
    <text
       sodipodi:linespacing="125%"
       id="text7292-6-0"
       y="568.27045"
       x="-194.93384"
       style="font-size:40px;font-style:normal;font-weight:normal;line-height:125%;letter-spacing:0px;word-spacing:0px;fill:#000000;fill-opacity:0.24705882;stroke:none;font-family:Sans"
       xml:space="preserve"><tspan
         y="568.27045"
         x="-194.93384"
         id="tspan7294-9-1"
         sodipodi:role="line">RX H 2</tspan></text>
    <text
       sodipodi:linespacing="125%"
       id="text7292-6-8"
       y="617.36725"
       x="-193.56665"
       style="font-size:40px;font-style:normal;font-weight:normal;line-height:125%;letter-spacing:0px;word-spacing:0px;fill:#000000;fill-opacity:0.24657533;stroke:none;font-family:Sans"
       xml:space="preserve"><tspan
         y="617.36725"
         x="-193.56665"
         id="tspan7294-9-4"
         sodipodi:role="line">RX V 2</tspan></text>
    <text
       sodipodi:linespacing="125%"
       id="text12001"
       y="259.9751"
       x="105.81973"
       style="font-size:40px;font-style:normal;font-weight:normal;line-height:125%;letter-spacing:0px;word-spacing:0px;fill:#0000ff;fill-opacity:1;stroke:none;font-family:Sans"
       xml:space="preserve"><tspan
         y="259.9751"
         x="105.81973"
         id="tspan12003"
         sodipodi:role="line">H</tspan></text>
    <text
       sodipodi:linespacing="125%"
       id="text12001-1"
       y="455.97507"
       x="106.90973"
       style="font-size:40px;font-style:normal;font-weight:normal;line-height:125%;letter-spacing:0px;word-spacing:0px;fill:#0000ff;fill-opacity:1;stroke:none;font-family:Sans"
       xml:space="preserve"><tspan
         y="455.97507"
         x="106.90973"
         id="tspan12003-3"
         sodipodi:role="line">H</tspan></text>
    <text
       sodipodi:linespacing="125%"
       id="text12001-8"
       y="259.9751"
       x="220.69919"
       style="font-size:40px;font-style:normal;font-weight:normal;line-height:125%;letter-spacing:0px;word-spacing:0px;fill:#0000ff;fill-opacity:1;stroke:none;font-family:Sans"
       xml:space="preserve"><tspan
         y="259.9751"
         x="220.69919"
         id="tspan12003-6"
         sodipodi:role="line">H</tspan></text>
    <text
       sodipodi:linespacing="125%"
       id="text12001-1-9"
       y="499.07187"
       x="220.38669"
       style="font-size:40px;font-style:normal;font-weight:normal;line-height:125%;letter-spacing:0px;word-spacing:0px;fill:#ff0000;fill-opacity:1;stroke:none;font-family:Sans"
       xml:space="preserve"><tspan
         y="499.07187"
         x="220.38669"
         id="tspan12003-3-1"
         sodipodi:role="line">V</tspan></text>
    <text
       sodipodi:linespacing="125%"
       id="text12001-1-9-4"
       y="303.07187"
       x="336.94583"
       style="font-size:40px;font-style:normal;font-weight:normal;line-height:125%;letter-spacing:0px;word-spacing:0px;fill:#ff0000;fill-opacity:1;stroke:none;font-family:Sans"
       xml:space="preserve"><tspan
         y="303.07187"
         x="336.94583"
         id="tspan12003-3-1-0"
         sodipodi:role="line">V</tspan></text>
    <text
       sodipodi:linespacing="125%"
       id="text12001-8-6"
       y="455.97507"
       x="333.02005"
       style="font-size:40px;font-style:normal;font-weight:normal;line-height:125%;letter-spacing:0px;word-spacing:0px;fill:#0000ff;fill-opacity:1;stroke:none;font-family:Sans"
       xml:space="preserve"><tspan
         y="455.97507"
         x="333.02005"
         id="tspan12003-6-6"
         sodipodi:role="line">H</tspan></text>
    <text
       sodipodi:linespacing="125%"
       id="text12001-1-9-4-7"
       y="303.07187"
       x="451.82532"
       style="font-size:40px;font-style:normal;font-weight:normal;line-height:125%;letter-spacing:0px;word-spacing:0px;fill:#ff0000;fill-opacity:1;stroke:none;font-family:Sans"
       xml:space="preserve"><tspan
         y="303.07187"
         x="451.82532"
         id="tspan12003-3-1-0-3"
         sodipodi:role="line">V</tspan></text>
    <text
       sodipodi:linespacing="125%"
       id="text12001-1-9-4-7-8"
       y="499.07187"
       x="451.82532"
       style="font-size:40px;font-style:normal;font-weight:normal;line-height:125%;letter-spacing:0px;word-spacing:0px;fill:#ff0000;fill-opacity:1;stroke:none;font-family:Sans"
       xml:space="preserve"><tspan
         y="499.07187"
         x="451.82532"
         id="tspan12003-3-1-0-3-0"
         sodipodi:role="line">V</tspan></text>
    <g
       id="g12253"
       transform="translate(-196.32888,-318.968)">
      <g
         word-spacing="normal"
         letter-spacing="normal"
         font-size-adjust="none"
         font-stretch="normal"
         font-weight="normal"
         font-variant="normal"
         font-style="normal"
         stroke-miterlimit="10.433"
         xml:space="preserve"
         transform="matrix(1.0811147,0,0,-1.0811147,-189.19507,1371.1452)"
         id="content"
         style="font-style:normal;font-variant:normal;font-weight:normal;font-stretch:normal;letter-spacing:normal;word-spacing:normal;text-anchor:start;fill:none;stroke:#000000;stroke-linecap:butt;stroke-linejoin:miter;stroke-miterlimit:10.43299961;stroke-opacity:1;stroke-dasharray:none;stroke-dashoffset:0"><path
           id="path12256"
           d="m 487.66,440.82 0,0.02 0,0.02 0,0.01 -0.01,0.02 0,0.02 0,0.02 -0.01,0.02 0,0.02 -0.01,0.02 -0.01,0.02 -0.01,0.02 -0.01,0.02 -0.01,0.02 -0.01,0.02 -0.01,0.02 -0.02,0.02 -0.02,0.02 -0.01,0.02 -0.02,0.02 -0.02,0.02 -0.02,0.01 -0.03,0.02 -0.02,0.01 -0.03,0.02 -0.02,0.01 -0.03,0.01 -0.02,0.01 -0.01,0 -0.02,0.01 -0.02,0 -0.01,0 -0.02,0.01 -0.02,0 -0.02,0 -0.02,0 -0.02,0 -0.02,0 -0.02,0 c -0.25,0 -0.31,-0.04 -0.9,-0.75 l -2.39,-2.84 c -1.3,2.34 -3.89,3.59 -7.13,3.59 -6.33,0 -12.3,-5.73 -12.3,-11.76 0,-4.03 2.65,-6.33 5.18,-7.06 l 5.32,-1.41 c 1.85,-0.44 4.6,-1.19 4.6,-5.28 0,-4.49 -4.1,-9.16 -8.97,-9.16 -3.19,0 -8.72,1.1 -8.72,7.27 0,1.2 0.25,2.39 0.3,2.69 0.04,0.2 0.09,0.25 0.09,0.35 0,0.5 -0.34,0.55 -0.59,0.55 -0.25,0 -0.35,-0.05 -0.5,-0.2 -0.21,-0.2 -2.99,-11.56 -2.99,-11.7 0,-0.3 0.25,-0.5 0.55,-0.5 0.25,0 0.3,0.04 0.89,0.75 l 2.45,2.82 c 2.14,-2.89 5.52,-3.57 8.41,-3.57 6.78,0 12.66,6.62 12.66,12.79 0,3.44 -1.69,5.14 -2.44,5.83 -1.14,1.16 -1.89,1.34 -6.33,2.5 -1.09,0.3 -2.89,0.8 -3.34,0.89 -1.35,0.45 -3.03,1.89 -3.03,4.53 0,4.05 3.98,8.28 8.71,8.28 4.15,0 7.18,-2.14 7.18,-7.73 0,-1.59 -0.21,-2.49 -0.21,-2.78 0,-0.05 0,-0.5 0.61,-0.5 0.5,0 0.55,0.15 0.74,1 z"
           inkscape:connector-curvature="0"
           style="fill:#000000;stroke-width:0" /><path
           id="path12258"
           d="m 515.42,419.73 0.03,0.12 0.03,0.11 0.03,0.11 0.02,0.1 0.03,0.1 0.03,0.09 0.03,0.08 0.04,0.08 0.03,0.08 0.04,0.07 0.05,0.07 0.04,0.06 0.05,0.06 0.06,0.05 0.06,0.05 0.07,0.05 0.07,0.04 0.08,0.04 0.09,0.03 0.1,0.03 0.11,0.03 0.05,0.01 0.06,0.01 0.06,0.02 0.07,0.01 0.06,0.01 0.07,0 0.07,0.01 0.08,0.01 0.07,0.01 0.08,0 0.09,0.01 0.08,0.01 0.09,0 0.09,0 0.1,0.01 0.1,0 0.1,0 0.1,0.01 0.11,0 0.11,0 0.12,0 0.12,0 c 0.76,0 1.18,0 1.18,0.76 0,0.14 -0.1,0.49 -0.56,0.49 -1.01,0 -3.54,-0.14 -4.56,-0.14 -0.6,0 -1.81,0 -2.41,0.03 -0.68,0.05 -1.53,0.11 -2.18,0.11 -0.22,0 -0.74,0 -0.74,-0.77 0,-0.48 0.42,-0.48 1.11,-0.48 0.03,0 0.7,0 1.33,-0.08 0.73,-0.06 0.79,-0.14 0.79,-0.48 0,-0.04 0,-0.24 -0.13,-0.77 l -2.05,-8.22 H 498.5 l 2.01,8.08 c 0.31,1.19 0.39,1.47 3.06,1.47 0.6,0 1.05,0 1.05,0.76 0,0.14 -0.11,0.49 -0.56,0.49 -1,0 -3.55,-0.14 -4.56,-0.14 -0.6,0 -1.82,0 -2.41,0.03 -0.69,0.05 -1.53,0.11 -2.19,0.11 -0.2,0 -0.73,0 -0.73,-0.77 0,-0.48 0.42,-0.48 1.12,-0.48 0.03,0 0.69,0 1.32,-0.08 0.73,-0.06 0.81,-0.14 0.81,-0.48 0,-0.07 0,-0.24 -0.14,-0.77 l -4.64,-18.5 c -0.28,-1.19 -0.35,-1.47 -3.07,-1.47 -0.59,0 -1.04,0 -1.04,-0.73 0,-0.35 0.23,-0.52 0.56,-0.52 1,0 3.52,0.14 4.52,0.14 0.59,0 1.81,0 2.4,-0.03 0.7,-0.05 1.58,-0.11 2.24,-0.11 0.17,0 0.73,0 0.73,0.74 0,0.51 -0.34,0.51 -1.16,0.51 -0.54,0 -0.68,0 -1.31,0.08 -0.78,0.09 -0.78,0.17 -0.78,0.52 0,0.03 0,0.25 0.14,0.76 l 2.31,9.14 h 11.68 l -2.27,-9.03 c -0.28,-1.19 -0.36,-1.47 -3.08,-1.47 -0.58,0 -1.03,0 -1.03,-0.73 0,-0.35 0.23,-0.52 0.55,-0.52 1.01,0 3.51,0.14 4.53,0.14 0.59,0 1.81,0 2.4,-0.03 0.71,-0.05 1.57,-0.11 2.24,-0.11 0.17,0 0.73,0 0.73,0.74 0,0.51 -0.36,0.51 -1.15,0.51 -0.56,0 -0.71,0 -1.33,0.08 -0.77,0.09 -0.77,0.17 -0.77,0.52 0,0.21 0.11,0.56 0.14,0.76 z"
           inkscape:connector-curvature="0"
           style="fill:#000000;stroke-width:0" /><path
           id="path12260"
           d="m 550.7,419.73 0.03,0.12 0.02,0.11 0.03,0.11 0.03,0.1 0.03,0.1 0.03,0.09 0.03,0.08 0.03,0.08 0.04,0.08 0.04,0.07 0.04,0.07 0.05,0.06 0.05,0.06 0.06,0.05 0.06,0.05 0.07,0.05 0.07,0.04 0.08,0.04 0.09,0.03 0.1,0.03 0.1,0.03 0.06,0.01 0.06,0.01 0.06,0.02 0.06,0.01 0.07,0.01 0.07,0 0.07,0.01 0.07,0.01 0.08,0.01 0.08,0 0.08,0.01 0.09,0.01 0.09,0 0.09,0 0.09,0.01 0.1,0 0.1,0 0.11,0.01 0.11,0 0.11,0 0.11,0 0.12,0 c 0.77,0 1.19,0 1.19,0.76 0,0.14 -0.11,0.49 -0.56,0.49 -1.02,0 -3.55,-0.14 -4.56,-0.14 -0.6,0 -1.82,0 -2.41,0.03 -0.69,0.05 -1.53,0.11 -2.19,0.11 -0.22,0 -0.73,0 -0.73,-0.77 0,-0.48 0.42,-0.48 1.11,-0.48 0.03,0 0.7,0 1.33,-0.08 0.73,-0.06 0.79,-0.14 0.79,-0.48 0,-0.04 0,-0.24 -0.14,-0.77 l -2.04,-8.22 h -11.68 l 2.02,8.08 c 0.31,1.19 0.39,1.47 3.06,1.47 0.6,0 1.05,0 1.05,0.76 0,0.14 -0.11,0.49 -0.56,0.49 -1,0 -3.55,-0.14 -4.57,-0.14 -0.59,0 -1.81,0 -2.4,0.03 -0.69,0.05 -1.53,0.11 -2.19,0.11 -0.2,0 -0.73,0 -0.73,-0.77 0,-0.48 0.42,-0.48 1.12,-0.48 0.03,0 0.69,0 1.31,-0.08 0.74,-0.06 0.82,-0.14 0.82,-0.48 0,-0.07 0,-0.24 -0.15,-0.77 l -4.64,-18.5 c -0.28,-1.19 -0.34,-1.47 -3.06,-1.47 -0.59,0 -1.05,0 -1.05,-0.73 0,-0.35 0.24,-0.52 0.57,-0.52 1,0 3.51,0.14 4.51,0.14 0.6,0 1.82,0 2.41,-0.03 0.7,-0.05 1.58,-0.11 2.23,-0.11 0.18,0 0.74,0 0.74,0.74 0,0.51 -0.35,0.51 -1.16,0.51 -0.55,0 -0.69,0 -1.31,0.08 -0.78,0.09 -0.78,0.17 -0.78,0.52 0,0.03 0,0.25 0.14,0.76 l 2.31,9.14 h 11.67 l -2.26,-9.03 c -0.28,-1.19 -0.36,-1.47 -3.08,-1.47 -0.58,0 -1.03,0 -1.03,-0.73 0,-0.35 0.23,-0.52 0.54,-0.52 1.02,0 3.52,0.14 4.54,0.14 0.59,0 1.81,0 2.4,-0.03 0.71,-0.05 1.56,-0.11 2.24,-0.11 0.17,0 0.73,0 0.73,0.74 0,0.51 -0.36,0.51 -1.16,0.51 -0.56,0 -0.7,0 -1.32,0.08 -0.77,0.09 -0.77,0.17 -0.77,0.52 0,0.21 0.11,0.56 0.14,0.76 z"
           inkscape:connector-curvature="0"
           style="fill:#000000;stroke-width:0" /></g>    </g>
    <g
       transform="translate(-85.375185,-319.72479)"
       id="g12521">
      <g
         style="font-style:normal;font-variant:normal;font-weight:normal;font-stretch:normal;letter-spacing:normal;word-spacing:normal;text-anchor:start;fill:none;stroke:#000000;stroke-linecap:butt;stroke-linejoin:miter;stroke-miterlimit:10.43299961;stroke-opacity:1;stroke-dasharray:none;stroke-dashoffset:0"
         id="g12523"
         transform="matrix(1.0811147,0,0,-1.0811147,-189.19507,1371.1452)"
         xml:space="preserve"
         stroke-miterlimit="10.433"
         font-style="normal"
         font-variant="normal"
         font-weight="normal"
         font-stretch="normal"
         font-size-adjust="none"
         letter-spacing="normal"
         word-spacing="normal"><path
           style="fill:#000000;stroke-width:0"
           inkscape:connector-curvature="0"
           d="m 487.66,440.82 0,0.02 0,0.02 0,0.01 -0.01,0.02 0,0.02 0,0.02 -0.01,0.02 0,0.02 -0.01,0.02 -0.01,0.02 -0.01,0.02 -0.01,0.02 -0.01,0.02 -0.01,0.02 -0.01,0.02 -0.02,0.02 -0.02,0.02 -0.01,0.02 -0.02,0.02 -0.02,0.02 -0.02,0.01 -0.03,0.02 -0.02,0.01 -0.03,0.02 -0.02,0.01 -0.03,0.01 -0.02,0.01 -0.01,0 -0.02,0.01 -0.02,0 -0.01,0 -0.02,0.01 -0.02,0 -0.02,0 -0.02,0 -0.02,0 -0.02,0 -0.02,0 c -0.25,0 -0.31,-0.04 -0.9,-0.75 l -2.39,-2.84 c -1.3,2.34 -3.89,3.59 -7.13,3.59 -6.33,0 -12.3,-5.73 -12.3,-11.76 0,-4.03 2.65,-6.33 5.18,-7.06 l 5.32,-1.41 c 1.85,-0.44 4.6,-1.19 4.6,-5.28 0,-4.49 -4.1,-9.16 -8.97,-9.16 -3.19,0 -8.72,1.1 -8.72,7.27 0,1.2 0.25,2.39 0.3,2.69 0.04,0.2 0.09,0.25 0.09,0.35 0,0.5 -0.34,0.55 -0.59,0.55 -0.25,0 -0.35,-0.05 -0.5,-0.2 -0.21,-0.2 -2.99,-11.56 -2.99,-11.7 0,-0.3 0.25,-0.5 0.55,-0.5 0.25,0 0.3,0.04 0.89,0.75 l 2.45,2.82 c 2.14,-2.89 5.52,-3.57 8.41,-3.57 6.78,0 12.66,6.62 12.66,12.79 0,3.44 -1.69,5.14 -2.44,5.83 -1.14,1.16 -1.89,1.34 -6.33,2.5 -1.09,0.3 -2.89,0.8 -3.34,0.89 -1.35,0.45 -3.03,1.89 -3.03,4.53 0,4.05 3.98,8.28 8.71,8.28 4.15,0 7.18,-2.14 7.18,-7.73 0,-1.59 -0.21,-2.49 -0.21,-2.78 0,-0.05 0,-0.5 0.61,-0.5 0.5,0 0.55,0.15 0.74,1 z"
           id="path12525" /><path
           style="fill:#000000;stroke-width:0"
           inkscape:connector-curvature="0"
           d="m 515.42,419.73 0.03,0.12 0.03,0.11 0.03,0.11 0.02,0.1 0.03,0.1 0.03,0.09 0.03,0.08 0.04,0.08 0.03,0.08 0.04,0.07 0.05,0.07 0.04,0.06 0.05,0.06 0.06,0.05 0.06,0.05 0.07,0.05 0.07,0.04 0.08,0.04 0.09,0.03 0.1,0.03 0.11,0.03 0.05,0.01 0.06,0.01 0.06,0.02 0.07,0.01 0.06,0.01 0.07,0 0.07,0.01 0.08,0.01 0.07,0.01 0.08,0 0.09,0.01 0.08,0.01 0.09,0 0.09,0 0.1,0.01 0.1,0 0.1,0 0.1,0.01 0.11,0 0.11,0 0.12,0 0.12,0 c 0.76,0 1.18,0 1.18,0.76 0,0.14 -0.1,0.49 -0.56,0.49 -1.01,0 -3.54,-0.14 -4.56,-0.14 -0.6,0 -1.81,0 -2.41,0.03 -0.68,0.05 -1.53,0.11 -2.18,0.11 -0.22,0 -0.74,0 -0.74,-0.77 0,-0.48 0.42,-0.48 1.11,-0.48 0.03,0 0.7,0 1.33,-0.08 0.73,-0.06 0.79,-0.14 0.79,-0.48 0,-0.04 0,-0.24 -0.13,-0.77 l -2.05,-8.22 H 498.5 l 2.01,8.08 c 0.31,1.19 0.39,1.47 3.06,1.47 0.6,0 1.05,0 1.05,0.76 0,0.14 -0.11,0.49 -0.56,0.49 -1,0 -3.55,-0.14 -4.56,-0.14 -0.6,0 -1.82,0 -2.41,0.03 -0.69,0.05 -1.53,0.11 -2.19,0.11 -0.2,0 -0.73,0 -0.73,-0.77 0,-0.48 0.42,-0.48 1.12,-0.48 0.03,0 0.69,0 1.32,-0.08 0.73,-0.06 0.81,-0.14 0.81,-0.48 0,-0.07 0,-0.24 -0.14,-0.77 l -4.64,-18.5 c -0.28,-1.19 -0.35,-1.47 -3.07,-1.47 -0.59,0 -1.04,0 -1.04,-0.73 0,-0.35 0.23,-0.52 0.56,-0.52 1,0 3.52,0.14 4.52,0.14 0.59,0 1.81,0 2.4,-0.03 0.7,-0.05 1.58,-0.11 2.24,-0.11 0.17,0 0.73,0 0.73,0.74 0,0.51 -0.34,0.51 -1.16,0.51 -0.54,0 -0.68,0 -1.31,0.08 -0.78,0.09 -0.78,0.17 -0.78,0.52 0,0.03 0,0.25 0.14,0.76 l 2.31,9.14 h 11.68 l -2.27,-9.03 c -0.28,-1.19 -0.36,-1.47 -3.08,-1.47 -0.58,0 -1.03,0 -1.03,-0.73 0,-0.35 0.23,-0.52 0.55,-0.52 1.01,0 3.51,0.14 4.53,0.14 0.59,0 1.81,0 2.4,-0.03 0.71,-0.05 1.57,-0.11 2.24,-0.11 0.17,0 0.73,0 0.73,0.74 0,0.51 -0.36,0.51 -1.15,0.51 -0.56,0 -0.71,0 -1.33,0.08 -0.77,0.09 -0.77,0.17 -0.77,0.52 0,0.21 0.11,0.56 0.14,0.76 z"
           id="path12527" /><path
           style="fill:#000000;stroke-width:0"
           inkscape:connector-curvature="0"
           d="m 546.3,418.42 0.13,0.17 0.12,0.17 0.12,0.16 0.11,0.15 0.12,0.15 0.12,0.15 0.12,0.14 0.12,0.13 0.12,0.13 0.12,0.12 0.12,0.12 0.12,0.11 0.12,0.11 0.12,0.1 0.12,0.09 0.13,0.09 0.13,0.09 0.13,0.08 0.13,0.08 0.13,0.07 0.14,0.06 0.14,0.06 0.14,0.06 0.15,0.05 0.14,0.05 0.15,0.04 0.16,0.04 0.16,0.03 0.16,0.03 0.17,0.02 0.17,0.02 0.17,0.02 c 0.42,0.03 0.8,0.06 0.8,0.76 0,0.11 -0.06,0.49 -0.49,0.49 -0.84,0 -1.92,-0.14 -2.79,-0.14 -1.11,0 -2.58,0.14 -3.61,0.14 -0.33,0 -0.71,-0.11 -0.71,-0.77 0,-0.45 0.49,-0.48 0.63,-0.48 1.11,-0.08 1.42,-0.49 1.42,-1.02 0,-0.48 -0.23,-0.83 -0.62,-1.39 l -11.43,-16.86 -3.17,17.8 c -0.06,0.31 -0.06,0.39 -0.06,0.53 0,0.94 1.94,0.94 2.19,0.94 0.59,0 1.04,0 1.04,0.76 0,0.04 -0.03,0.49 -0.59,0.49 -1.01,0 -3.48,-0.14 -4.5,-0.14 -0.86,0 -2.98,0.14 -3.86,0.14 -0.31,0 -0.7,-0.11 -0.7,-0.77 0,-0.48 0.48,-0.48 0.87,-0.48 1.96,0 1.99,-0.22 2.16,-1.13 l 3.8,-21.17 c 0.14,-0.73 0.17,-0.95 0.84,-0.95 0.66,0 0.83,0.25 1.19,0.76 z"
           id="path12529" /></g>    </g>
    <g
       id="g12719"
       transform="translate(31.183945,-319.72478)">
      <g
         word-spacing="normal"
         letter-spacing="normal"
         font-size-adjust="none"
         font-stretch="normal"
         font-weight="normal"
         font-variant="normal"
         font-style="normal"
         stroke-miterlimit="10.433"
         xml:space="preserve"
         transform="matrix(1.0811147,0,0,-1.0811147,-189.19507,1371.1452)"
         id="g12721"
         style="font-style:normal;font-variant:normal;font-weight:normal;font-stretch:normal;letter-spacing:normal;word-spacing:normal;text-anchor:start;fill:none;stroke:#000000;stroke-linecap:butt;stroke-linejoin:miter;stroke-miterlimit:10.43299961;stroke-opacity:1;stroke-dasharray:none;stroke-dashoffset:0"><path
           id="path12723"
           d="m 487.66,440.82 0,0.02 0,0.02 0,0.01 -0.01,0.02 0,0.02 0,0.02 -0.01,0.02 0,0.02 -0.01,0.02 -0.01,0.02 -0.01,0.02 -0.01,0.02 -0.01,0.02 -0.01,0.02 -0.01,0.02 -0.02,0.02 -0.02,0.02 -0.01,0.02 -0.02,0.02 -0.02,0.02 -0.02,0.01 -0.03,0.02 -0.02,0.01 -0.03,0.02 -0.02,0.01 -0.03,0.01 -0.02,0.01 -0.01,0 -0.02,0.01 -0.02,0 -0.01,0 -0.02,0.01 -0.02,0 -0.02,0 -0.02,0 -0.02,0 -0.02,0 -0.02,0 c -0.25,0 -0.31,-0.04 -0.9,-0.75 l -2.39,-2.84 c -1.3,2.34 -3.89,3.59 -7.13,3.59 -6.33,0 -12.3,-5.73 -12.3,-11.76 0,-4.03 2.65,-6.33 5.18,-7.06 l 5.32,-1.41 c 1.85,-0.44 4.6,-1.19 4.6,-5.28 0,-4.49 -4.1,-9.16 -8.97,-9.16 -3.19,0 -8.72,1.1 -8.72,7.27 0,1.2 0.25,2.39 0.3,2.69 0.04,0.2 0.09,0.25 0.09,0.35 0,0.5 -0.34,0.55 -0.59,0.55 -0.25,0 -0.35,-0.05 -0.5,-0.2 -0.21,-0.2 -2.99,-11.56 -2.99,-11.7 0,-0.3 0.25,-0.5 0.55,-0.5 0.25,0 0.3,0.04 0.89,0.75 l 2.45,2.82 c 2.14,-2.89 5.52,-3.57 8.41,-3.57 6.78,0 12.66,6.62 12.66,12.79 0,3.44 -1.69,5.14 -2.44,5.83 -1.14,1.16 -1.89,1.34 -6.33,2.5 -1.09,0.3 -2.89,0.8 -3.34,0.89 -1.35,0.45 -3.03,1.89 -3.03,4.53 0,4.05 3.98,8.28 8.71,8.28 4.15,0 7.18,-2.14 7.18,-7.73 0,-1.59 -0.21,-2.49 -0.21,-2.78 0,-0.05 0,-0.5 0.61,-0.5 0.5,0 0.55,0.15 0.74,1 z"
           inkscape:connector-curvature="0"
           style="fill:#000000;stroke-width:0" /><path
           id="path12725"
           d="m 511.03,418.42 0.12,0.17 0.12,0.17 0.12,0.16 0.12,0.15 0.11,0.15 0.12,0.15 0.12,0.14 0.12,0.13 0.12,0.13 0.12,0.12 0.12,0.12 0.12,0.11 0.12,0.11 0.12,0.1 0.13,0.09 0.12,0.09 0.13,0.09 0.13,0.08 0.13,0.08 0.14,0.07 0.13,0.06 0.14,0.06 0.14,0.06 0.15,0.05 0.15,0.05 0.15,0.04 0.15,0.04 0.16,0.03 0.16,0.03 0.17,0.02 0.17,0.02 0.17,0.02 c 0.43,0.03 0.8,0.06 0.8,0.76 0,0.11 -0.06,0.49 -0.48,0.49 -0.85,0 -1.92,-0.14 -2.8,-0.14 -1.11,0 -2.58,0.14 -3.61,0.14 -0.33,0 -0.7,-0.11 -0.7,-0.77 0,-0.45 0.48,-0.48 0.62,-0.48 1.11,-0.08 1.42,-0.49 1.42,-1.02 0,-0.48 -0.23,-0.83 -0.62,-1.39 l -11.42,-16.86 -3.17,17.8 c -0.07,0.31 -0.07,0.39 -0.07,0.53 0,0.94 1.94,0.94 2.19,0.94 0.59,0 1.05,0 1.05,0.76 0,0.04 -0.03,0.49 -0.6,0.49 -1.01,0 -3.48,-0.14 -4.5,-0.14 -0.86,0 -2.98,0.14 -3.86,0.14 -0.31,0 -0.7,-0.11 -0.7,-0.77 0,-0.48 0.49,-0.48 0.88,-0.48 1.95,0 1.98,-0.22 2.15,-1.13 l 3.8,-21.17 c 0.14,-0.73 0.17,-0.95 0.84,-0.95 0.66,0 0.83,0.25 1.19,0.76 z"
           inkscape:connector-curvature="0"
           style="fill:#000000;stroke-width:0" /><path
           id="path12727"
           d="m 547.46,419.73 0.03,0.12 0.03,0.11 0.02,0.11 0.03,0.1 0.03,0.1 0.03,0.09 0.03,0.08 0.04,0.08 0.03,0.08 0.04,0.07 0.04,0.07 0.05,0.06 0.05,0.06 0.06,0.05 0.06,0.05 0.07,0.05 0.07,0.04 0.08,0.04 0.09,0.03 0.1,0.03 0.11,0.03 0.05,0.01 0.06,0.01 0.06,0.02 0.07,0.01 0.06,0.01 0.07,0 0.07,0.01 0.08,0.01 0.07,0.01 0.08,0 0.09,0.01 0.08,0.01 0.09,0 0.09,0 0.1,0.01 0.09,0 0.11,0 0.1,0.01 0.11,0 0.11,0 0.12,0 0.12,0 c 0.76,0 1.18,0 1.18,0.76 0,0.14 -0.11,0.49 -0.56,0.49 -1.02,0 -3.55,-0.14 -4.56,-0.14 -0.59,0 -1.81,0 -2.41,0.03 -0.68,0.05 -1.53,0.11 -2.18,0.11 -0.22,0 -0.74,0 -0.74,-0.77 0,-0.48 0.42,-0.48 1.11,-0.48 0.03,0 0.7,0 1.33,-0.08 0.73,-0.06 0.8,-0.14 0.8,-0.48 0,-0.04 0,-0.24 -0.15,-0.77 l -2.04,-8.22 h -11.68 l 2.02,8.08 c 0.31,1.19 0.39,1.47 3.06,1.47 0.6,0 1.05,0 1.05,0.76 0,0.14 -0.11,0.49 -0.56,0.49 -1,0 -3.55,-0.14 -4.57,-0.14 -0.59,0 -1.81,0 -2.4,0.03 -0.69,0.05 -1.53,0.11 -2.19,0.11 -0.2,0 -0.73,0 -0.73,-0.77 0,-0.48 0.42,-0.48 1.12,-0.48 0.03,0 0.69,0 1.32,-0.08 0.73,-0.06 0.81,-0.14 0.81,-0.48 0,-0.07 0,-0.24 -0.14,-0.77 l -4.64,-18.5 c -0.28,-1.19 -0.35,-1.47 -3.07,-1.47 -0.59,0 -1.04,0 -1.04,-0.73 0,-0.35 0.23,-0.52 0.56,-0.52 1,0 3.52,0.14 4.52,0.14 0.59,0 1.81,0 2.4,-0.03 0.7,-0.05 1.58,-0.11 2.23,-0.11 0.18,0 0.74,0 0.74,0.74 0,0.51 -0.34,0.51 -1.16,0.51 -0.54,0 -0.68,0 -1.31,0.08 -0.78,0.09 -0.78,0.17 -0.78,0.52 0,0.03 0,0.25 0.14,0.76 l 2.31,9.14 h 11.68 l -2.27,-9.03 c -0.28,-1.19 -0.36,-1.47 -3.08,-1.47 -0.58,0 -1.03,0 -1.03,-0.73 0,-0.35 0.23,-0.52 0.55,-0.52 1.01,0 3.51,0.14 4.53,0.14 0.59,0 1.81,0 2.4,-0.03 0.71,-0.05 1.57,-0.11 2.24,-0.11 0.17,0 0.73,0 0.73,0.74 0,0.51 -0.36,0.51 -1.15,0.51 -0.57,0 -0.71,0 -1.33,0.08 -0.77,0.09 -0.77,0.17 -0.77,0.52 0,0.21 0.11,0.56 0.14,0.76 z"
           inkscape:connector-curvature="0"
           style="fill:#000000;stroke-width:0" /></g>    </g>
    <g
       transform="translate(145.75095,-319.72479)"
       id="g12915">
      <g
         style="font-style:normal;font-variant:normal;font-weight:normal;font-stretch:normal;letter-spacing:normal;word-spacing:normal;text-anchor:start;fill:none;stroke:#000000;stroke-linecap:butt;stroke-linejoin:miter;stroke-miterlimit:10.43299961;stroke-opacity:1;stroke-dasharray:none;stroke-dashoffset:0"
         id="g12917"
         transform="matrix(1.0811147,0,0,-1.0811147,-189.19507,1371.1452)"
         xml:space="preserve"
         stroke-miterlimit="10.433"
         font-style="normal"
         font-variant="normal"
         font-weight="normal"
         font-stretch="normal"
         font-size-adjust="none"
         letter-spacing="normal"
         word-spacing="normal"><path
           style="fill:#000000;stroke-width:0"
           inkscape:connector-curvature="0"
           d="m 487.66,440.82 0,0.02 0,0.02 0,0.01 -0.01,0.02 0,0.02 0,0.02 -0.01,0.02 0,0.02 -0.01,0.02 -0.01,0.02 -0.01,0.02 -0.01,0.02 -0.01,0.02 -0.01,0.02 -0.01,0.02 -0.02,0.02 -0.02,0.02 -0.01,0.02 -0.02,0.02 -0.02,0.02 -0.02,0.01 -0.03,0.02 -0.02,0.01 -0.03,0.02 -0.02,0.01 -0.03,0.01 -0.02,0.01 -0.01,0 -0.02,0.01 -0.02,0 -0.01,0 -0.02,0.01 -0.02,0 -0.02,0 -0.02,0 -0.02,0 -0.02,0 -0.02,0 c -0.25,0 -0.31,-0.04 -0.9,-0.75 l -2.39,-2.84 c -1.3,2.34 -3.89,3.59 -7.13,3.59 -6.33,0 -12.3,-5.73 -12.3,-11.76 0,-4.03 2.65,-6.33 5.18,-7.06 l 5.32,-1.41 c 1.85,-0.44 4.6,-1.19 4.6,-5.28 0,-4.49 -4.1,-9.16 -8.97,-9.16 -3.19,0 -8.72,1.1 -8.72,7.27 0,1.2 0.25,2.39 0.3,2.69 0.04,0.2 0.09,0.25 0.09,0.35 0,0.5 -0.34,0.55 -0.59,0.55 -0.25,0 -0.35,-0.05 -0.5,-0.2 -0.21,-0.2 -2.99,-11.56 -2.99,-11.7 0,-0.3 0.25,-0.5 0.55,-0.5 0.25,0 0.3,0.04 0.89,0.75 l 2.45,2.82 c 2.14,-2.89 5.52,-3.57 8.41,-3.57 6.78,0 12.66,6.62 12.66,12.79 0,3.44 -1.69,5.14 -2.44,5.83 -1.14,1.16 -1.89,1.34 -6.33,2.5 -1.09,0.3 -2.89,0.8 -3.34,0.89 -1.35,0.45 -3.03,1.89 -3.03,4.53 0,4.05 3.98,8.28 8.71,8.28 4.15,0 7.18,-2.14 7.18,-7.73 0,-1.59 -0.21,-2.49 -0.21,-2.78 0,-0.05 0,-0.5 0.61,-0.5 0.5,0 0.55,0.15 0.74,1 z"
           id="path12919" /><path
           style="fill:#000000;stroke-width:0"
           inkscape:connector-curvature="0"
           d="m 511.03,418.42 0.12,0.17 0.12,0.17 0.12,0.16 0.12,0.15 0.11,0.15 0.12,0.15 0.12,0.14 0.12,0.13 0.12,0.13 0.12,0.12 0.12,0.12 0.12,0.11 0.12,0.11 0.12,0.1 0.13,0.09 0.12,0.09 0.13,0.09 0.13,0.08 0.13,0.08 0.14,0.07 0.13,0.06 0.14,0.06 0.14,0.06 0.15,0.05 0.15,0.05 0.15,0.04 0.15,0.04 0.16,0.03 0.16,0.03 0.17,0.02 0.17,0.02 0.17,0.02 c 0.43,0.03 0.8,0.06 0.8,0.76 0,0.11 -0.06,0.49 -0.48,0.49 -0.85,0 -1.92,-0.14 -2.8,-0.14 -1.11,0 -2.58,0.14 -3.61,0.14 -0.33,0 -0.7,-0.11 -0.7,-0.77 0,-0.45 0.48,-0.48 0.62,-0.48 1.11,-0.08 1.42,-0.49 1.42,-1.02 0,-0.48 -0.23,-0.83 -0.62,-1.39 l -11.42,-16.86 -3.17,17.8 c -0.07,0.31 -0.07,0.39 -0.07,0.53 0,0.94 1.94,0.94 2.19,0.94 0.59,0 1.05,0 1.05,0.76 0,0.04 -0.03,0.49 -0.6,0.49 -1.01,0 -3.48,-0.14 -4.5,-0.14 -0.86,0 -2.98,0.14 -3.86,0.14 -0.31,0 -0.7,-0.11 -0.7,-0.77 0,-0.48 0.49,-0.48 0.88,-0.48 1.95,0 1.98,-0.22 2.15,-1.13 l 3.8,-21.17 c 0.14,-0.73 0.17,-0.95 0.84,-0.95 0.66,0 0.83,0.25 1.19,0.76 z"
           id="path12921" /><path
           style="fill:#000000;stroke-width:0"
           inkscape:connector-curvature="0"
           d="m 543.07,418.42 0.12,0.17 0.12,0.17 0.12,0.16 0.12,0.15 0.11,0.15 0.12,0.15 0.12,0.14 0.12,0.13 0.12,0.13 0.12,0.12 0.12,0.12 0.12,0.11 0.12,0.11 0.12,0.1 0.13,0.09 0.12,0.09 0.13,0.09 0.13,0.08 0.13,0.08 0.13,0.07 0.14,0.06 0.14,0.06 0.14,0.06 0.15,0.05 0.14,0.05 0.16,0.04 0.15,0.04 0.16,0.03 0.16,0.03 0.17,0.02 0.17,0.02 0.17,0.02 c 0.42,0.03 0.8,0.06 0.8,0.76 0,0.11 -0.06,0.49 -0.48,0.49 -0.85,0 -1.93,-0.14 -2.8,-0.14 -1.11,0 -2.58,0.14 -3.61,0.14 -0.33,0 -0.7,-0.11 -0.7,-0.77 0,-0.45 0.48,-0.48 0.62,-0.48 1.11,-0.08 1.42,-0.49 1.42,-1.02 0,-0.48 -0.23,-0.83 -0.62,-1.39 l -11.42,-16.86 -3.17,17.8 c -0.07,0.31 -0.07,0.39 -0.07,0.53 0,0.94 1.94,0.94 2.19,0.94 0.59,0 1.05,0 1.05,0.76 0,0.04 -0.04,0.49 -0.6,0.49 -1.01,0 -3.48,-0.14 -4.5,-0.14 -0.86,0 -2.98,0.14 -3.86,0.14 -0.31,0 -0.7,-0.11 -0.7,-0.77 0,-0.48 0.49,-0.48 0.87,-0.48 1.96,0 1.99,-0.22 2.16,-1.13 l 3.8,-21.17 c 0.14,-0.73 0.17,-0.95 0.84,-0.95 0.66,0 0.83,0.25 1.19,0.76 z"
           id="path12923" /></g>    </g>
    <g
       id="g13121"
       transform="translate(-109.36393,660.70968)">
      <g
         word-spacing="normal"
         letter-spacing="normal"
         font-size-adjust="none"
         font-stretch="normal"
         font-weight="normal"
         font-variant="normal"
         font-style="normal"
         stroke-miterlimit="10.433"
         xml:space="preserve"
         transform="matrix(0.9092593,0,0,-0.9092593,-159.12038,605.90707)"
         id="g13123"
         style="font-style:normal;font-variant:normal;font-weight:normal;font-stretch:normal;letter-spacing:normal;word-spacing:normal;text-anchor:start;fill:none;stroke:#000000;stroke-linecap:butt;stroke-linejoin:miter;stroke-miterlimit:10.43299961;stroke-opacity:1;stroke-dasharray:none;stroke-dashoffset:0"><polygon
           id="polygon13125"
           points="481.08,339.18 470.72,339.18 470.72,453.21 481.08,453.21 481.08,455.96 467.97,455.96 467.97,336.43 481.08,336.43 "
           style="fill:#000000;stroke-width:0" /><path
           id="path13127"
           d="m 513.94,448.75 0,0.01 0,0.02 0,0.01 0,0.02 -0.01,0.02 0,0.02 -0.01,0.02 0,0.02 -0.01,0.02 -0.01,0.02 -0.01,0.02 -0.01,0.02 -0.01,0.02 -0.01,0.02 -0.01,0.02 -0.02,0.02 -0.01,0.02 -0.02,0.02 -0.02,0.02 -0.02,0.02 -0.02,0.02 -0.02,0.01 -0.03,0.02 -0.03,0.01 -0.02,0.01 -0.03,0.01 -0.02,0.01 -0.01,0 -0.02,0.01 -0.02,0 -0.01,0 -0.02,0.01 -0.02,0 -0.02,0 -0.02,0 -0.01,0.01 -0.02,0 -0.02,0 c -0.25,0 -0.32,-0.05 -0.91,-0.75 l -2.39,-2.85 c -1.3,2.35 -3.89,3.6 -7.13,3.6 -6.33,0 -12.29,-5.74 -12.29,-11.77 0,-4.03 2.64,-6.33 5.17,-7.06 l 5.33,-1.41 c 1.84,-0.44 4.59,-1.19 4.59,-5.28 0,-4.48 -4.09,-9.16 -8.97,-9.16 -3.19,0 -8.72,1.1 -8.72,7.27 0,1.2 0.25,2.39 0.3,2.69 0.05,0.2 0.09,0.25 0.09,0.36 0,0.5 -0.34,0.54 -0.59,0.54 -0.25,0 -0.34,-0.04 -0.5,-0.2 -0.2,-0.2 -2.99,-11.56 -2.99,-11.7 0,-0.3 0.25,-0.5 0.55,-0.5 0.25,0 0.3,0.04 0.89,0.75 l 2.46,2.83 c 2.14,-2.9 5.51,-3.58 8.4,-3.58 6.78,0 12.66,6.62 12.66,12.79 0,3.44 -1.69,5.14 -2.44,5.83 -1.14,1.16 -1.89,1.35 -6.33,2.5 -1.09,0.3 -2.89,0.8 -3.34,0.89 -1.35,0.46 -3.03,1.89 -3.03,4.53 0,4.05 3.98,8.29 8.72,8.29 4.14,0 7.17,-2.15 7.17,-7.74 0,-1.59 -0.21,-2.48 -0.21,-2.78 0,-0.05 0,-0.5 0.61,-0.5 0.5,0 0.55,0.16 0.74,1 z"
           inkscape:connector-curvature="0"
           style="fill:#000000;stroke-width:0" /><path
           id="path13129"
           d="m 541.7,427.65 0.03,0.12 0.02,0.11 0.03,0.11 0.03,0.1 0.03,0.09 0.03,0.1 0.03,0.08 0.03,0.08 0.04,0.08 0.04,0.07 0.04,0.07 0.05,0.06 0.05,0.06 0.06,0.05 0.06,0.05 0.07,0.04 0.07,0.05 0.08,0.03 0.09,0.04 0.1,0.03 0.1,0.03 0.06,0.01 0.06,0.01 0.06,0.01 0.06,0.01 0.07,0.01 0.07,0.01 0.07,0.01 0.07,0.01 0.08,0.01 0.08,0 0.08,0.01 0.09,0 0.09,0.01 0.09,0 0.09,0.01 0.1,0 0.1,0 0.11,0 0.11,0.01 0.11,0 0.11,0 0.12,0 c 0.77,0 1.19,0 1.19,0.76 0,0.14 -0.11,0.49 -0.56,0.49 -1.02,0 -3.55,-0.14 -4.56,-0.14 -0.6,0 -1.82,0 -2.41,0.03 -0.69,0.04 -1.53,0.11 -2.19,0.11 -0.22,0 -0.73,0 -0.73,-0.77 0,-0.48 0.42,-0.48 1.11,-0.48 0.03,0 0.7,0 1.33,-0.08 0.73,-0.06 0.79,-0.14 0.79,-0.49 0,-0.03 0,-0.23 -0.14,-0.76 l -2.04,-8.22 h -11.68 l 2.02,8.08 c 0.31,1.19 0.39,1.47 3.06,1.47 0.6,0 1.05,0 1.05,0.76 0,0.14 -0.11,0.49 -0.56,0.49 -1,0 -3.55,-0.14 -4.57,-0.14 -0.59,0 -1.81,0 -2.4,0.03 -0.69,0.04 -1.53,0.11 -2.19,0.11 -0.2,0 -0.73,0 -0.73,-0.77 0,-0.48 0.42,-0.48 1.12,-0.48 0.03,0 0.69,0 1.31,-0.08 0.74,-0.06 0.82,-0.14 0.82,-0.49 0,-0.06 0,-0.23 -0.15,-0.76 l -4.64,-18.5 c -0.28,-1.19 -0.34,-1.47 -3.06,-1.47 -0.59,0 -1.05,0 -1.05,-0.73 0,-0.35 0.24,-0.52 0.57,-0.52 1,0 3.51,0.14 4.51,0.14 0.6,0 1.82,0 2.41,-0.03 0.7,-0.05 1.58,-0.11 2.23,-0.11 0.18,0 0.74,0 0.74,0.73 0,0.52 -0.35,0.52 -1.16,0.52 -0.55,0 -0.69,0 -1.31,0.08 -0.78,0.09 -0.78,0.17 -0.78,0.51 0,0.03 0,0.25 0.14,0.77 l 2.31,9.14 h 11.67 l -2.26,-9.03 c -0.28,-1.19 -0.36,-1.47 -3.08,-1.47 -0.58,0 -1.03,0 -1.03,-0.73 0,-0.35 0.23,-0.52 0.54,-0.52 1.02,0 3.52,0.14 4.54,0.14 0.59,0 1.81,0 2.4,-0.03 0.71,-0.05 1.56,-0.11 2.24,-0.11 0.17,0 0.73,0 0.73,0.73 0,0.52 -0.36,0.52 -1.16,0.52 -0.56,0 -0.7,0 -1.32,0.08 -0.77,0.09 -0.77,0.17 -0.77,0.51 0,0.22 0.11,0.57 0.14,0.77 z"
           inkscape:connector-curvature="0"
           style="fill:#000000;stroke-width:0" /><path
           id="path13131"
           d="m 576.97,427.65 0.03,0.12 0.03,0.11 0.03,0.11 0.03,0.1 0.03,0.09 0.03,0.1 0.03,0.08 0.03,0.08 0.04,0.08 0.04,0.07 0.04,0.07 0.05,0.06 0.05,0.06 0.05,0.05 0.07,0.05 0.06,0.04 0.08,0.05 0.08,0.03 0.09,0.04 0.1,0.03 0.1,0.03 0.06,0.01 0.06,0.01 0.06,0.01 0.06,0.01 0.07,0.01 0.07,0.01 0.07,0.01 0.07,0.01 0.08,0.01 0.08,0 0.08,0.01 0.09,0 0.08,0.01 0.1,0 0.09,0.01 0.1,0 0.1,0 0.11,0 0.1,0.01 0.12,0 0.11,0 0.12,0 c 0.77,0 1.19,0 1.19,0.76 0,0.14 -0.11,0.49 -0.56,0.49 -1.02,0 -3.55,-0.14 -4.57,-0.14 -0.59,0 -1.81,0 -2.4,0.03 -0.69,0.04 -1.53,0.11 -2.19,0.11 -0.22,0 -0.73,0 -0.73,-0.77 0,-0.48 0.42,-0.48 1.1,-0.48 0.04,0 0.71,0 1.33,-0.08 0.74,-0.06 0.8,-0.14 0.8,-0.49 0,-0.03 0,-0.23 -0.14,-0.76 l -2.05,-8.22 h -11.67 l 2.02,8.08 c 0.31,1.19 0.39,1.47 3.06,1.47 0.59,0 1.05,0 1.05,0.76 0,0.14 -0.11,0.49 -0.57,0.49 -1,0 -3.54,-0.14 -4.56,-0.14 -0.59,0 -1.81,0 -2.4,0.03 -0.69,0.04 -1.54,0.11 -2.19,0.11 -0.21,0 -0.74,0 -0.74,-0.77 0,-0.48 0.43,-0.48 1.13,-0.48 0.03,0 0.68,0 1.31,-0.08 0.74,-0.06 0.81,-0.14 0.81,-0.49 0,-0.06 0,-0.23 -0.14,-0.76 l -4.64,-18.5 c -0.28,-1.19 -0.34,-1.47 -3.06,-1.47 -0.6,0 -1.05,0 -1.05,-0.73 0,-0.35 0.24,-0.52 0.57,-0.52 1,0 3.51,0.14 4.51,0.14 0.59,0 1.81,0 2.41,-0.03 0.7,-0.05 1.58,-0.11 2.23,-0.11 0.17,0 0.73,0 0.73,0.73 0,0.52 -0.34,0.52 -1.15,0.52 -0.55,0 -0.69,0 -1.31,0.08 -0.79,0.09 -0.79,0.17 -0.79,0.51 0,0.03 0,0.25 0.15,0.77 l 2.31,9.14 h 11.67 l -2.26,-9.03 c -0.29,-1.19 -0.37,-1.47 -3.08,-1.47 -0.58,0 -1.04,0 -1.04,-0.73 0,-0.35 0.24,-0.52 0.55,-0.52 1.02,0 3.52,0.14 4.53,0.14 0.6,0 1.82,0 2.41,-0.03 0.7,-0.05 1.56,-0.11 2.23,-0.11 0.18,0 0.74,0 0.74,0.73 0,0.52 -0.36,0.52 -1.16,0.52 -0.56,0 -0.7,0 -1.33,0.08 -0.76,0.09 -0.76,0.17 -0.76,0.51 0,0.22 0.11,0.57 0.14,0.77 z"
           inkscape:connector-curvature="0"
           style="fill:#000000;stroke-width:0" /><path
           id="path13133"
           d="m 667.42,448.75 0,0.01 0,0.02 0,0.01 0,0.02 -0.01,0.02 0,0.02 -0.01,0.02 0,0.02 -0.01,0.02 -0.01,0.02 -0.01,0.02 -0.01,0.02 -0.01,0.02 -0.01,0.02 -0.01,0.02 -0.02,0.02 -0.01,0.02 -0.02,0.02 -0.02,0.02 -0.02,0.02 -0.02,0.02 -0.02,0.01 -0.03,0.02 -0.02,0.01 -0.03,0.01 -0.03,0.01 -0.02,0.01 -0.01,0 -0.02,0.01 -0.02,0 -0.01,0 -0.02,0.01 -0.02,0 -0.02,0 -0.02,0 -0.01,0.01 -0.02,0 -0.02,0 c -0.26,0 -0.32,-0.05 -0.91,-0.75 l -2.39,-2.85 c -1.3,2.35 -3.89,3.6 -7.13,3.6 -6.33,0 -12.29,-5.74 -12.29,-11.77 0,-4.03 2.64,-6.33 5.17,-7.06 l 5.33,-1.41 c 1.84,-0.44 4.59,-1.19 4.59,-5.28 0,-4.48 -4.09,-9.16 -8.97,-9.16 -3.19,0 -8.72,1.1 -8.72,7.27 0,1.2 0.25,2.39 0.3,2.69 0.05,0.2 0.09,0.25 0.09,0.36 0,0.5 -0.34,0.54 -0.59,0.54 -0.25,0 -0.34,-0.04 -0.5,-0.2 -0.2,-0.2 -2.98,-11.56 -2.98,-11.7 0,-0.3 0.24,-0.5 0.54,-0.5 0.25,0 0.3,0.04 0.89,0.75 l 2.46,2.83 c 2.14,-2.9 5.51,-3.58 8.4,-3.58 6.78,0 12.66,6.62 12.66,12.79 0,3.44 -1.69,5.14 -2.44,5.83 -1.14,1.16 -1.89,1.35 -6.33,2.5 -1.09,0.3 -2.89,0.8 -3.34,0.89 -1.34,0.46 -3.03,1.89 -3.03,4.53 0,4.05 3.98,8.29 8.72,8.29 4.14,0 7.17,-2.15 7.17,-7.74 0,-1.59 -0.2,-2.48 -0.2,-2.78 0,-0.05 0,-0.5 0.6,-0.5 0.5,0 0.55,0.16 0.74,1 z"
           inkscape:connector-curvature="0"
           style="fill:#000000;stroke-width:0" /><path
           id="path13135"
           d="m 695.18,427.65 0.03,0.12 0.03,0.11 0.02,0.11 0.03,0.1 0.03,0.09 0.03,0.1 0.03,0.08 0.04,0.08 0.03,0.08 0.04,0.07 0.04,0.07 0.05,0.06 0.05,0.06 0.06,0.05 0.06,0.05 0.07,0.04 0.07,0.05 0.08,0.03 0.09,0.04 0.1,0.03 0.1,0.03 0.06,0.01 0.06,0.01 0.06,0.01 0.06,0.01 0.07,0.01 0.07,0.01 0.07,0.01 0.07,0.01 0.08,0.01 0.08,0 0.08,0.01 0.09,0 0.09,0.01 0.09,0 0.1,0.01 0.09,0 0.11,0 0.1,0 0.11,0.01 0.11,0 0.12,0 0.12,0 c 0.76,0 1.18,0 1.18,0.76 0,0.14 -0.11,0.49 -0.56,0.49 -1.02,0 -3.55,-0.14 -4.56,-0.14 -0.6,0 -1.81,0 -2.41,0.03 -0.69,0.04 -1.53,0.11 -2.19,0.11 -0.21,0 -0.73,0 -0.73,-0.77 0,-0.48 0.42,-0.48 1.11,-0.48 0.03,0 0.7,0 1.33,-0.08 0.73,-0.06 0.79,-0.14 0.79,-0.49 0,-0.03 0,-0.23 -0.14,-0.76 l -2.04,-8.22 h -11.68 l 2.02,8.08 c 0.31,1.19 0.39,1.47 3.06,1.47 0.6,0 1.05,0 1.05,0.76 0,0.14 -0.11,0.49 -0.56,0.49 -1,0 -3.55,-0.14 -4.57,-0.14 -0.59,0 -1.81,0 -2.4,0.03 -0.69,0.04 -1.53,0.11 -2.19,0.11 -0.2,0 -0.73,0 -0.73,-0.77 0,-0.48 0.42,-0.48 1.12,-0.48 0.03,0 0.69,0 1.31,-0.08 0.74,-0.06 0.82,-0.14 0.82,-0.49 0,-0.06 0,-0.23 -0.15,-0.76 l -4.63,-18.5 c -0.29,-1.19 -0.35,-1.47 -3.07,-1.47 -0.59,0 -1.05,0 -1.05,-0.73 0,-0.35 0.24,-0.52 0.57,-0.52 1,0 3.51,0.14 4.51,0.14 0.6,0 1.82,0 2.41,-0.03 0.7,-0.05 1.58,-0.11 2.23,-0.11 0.18,0 0.74,0 0.74,0.73 0,0.52 -0.34,0.52 -1.16,0.52 -0.55,0 -0.68,0 -1.31,0.08 -0.78,0.09 -0.78,0.17 -0.78,0.51 0,0.03 0,0.25 0.14,0.77 l 2.31,9.14 h 11.67 l -2.26,-9.03 c -0.28,-1.19 -0.36,-1.47 -3.08,-1.47 -0.58,0 -1.03,0 -1.03,-0.73 0,-0.35 0.23,-0.52 0.54,-0.52 1.02,0 3.52,0.14 4.54,0.14 0.59,0 1.81,0 2.4,-0.03 0.71,-0.05 1.56,-0.11 2.24,-0.11 0.17,0 0.73,0 0.73,0.73 0,0.52 -0.36,0.52 -1.16,0.52 -0.56,0 -0.7,0 -1.32,0.08 -0.77,0.09 -0.77,0.17 -0.77,0.51 0,0.22 0.11,0.57 0.14,0.77 z"
           inkscape:connector-curvature="0"
           style="fill:#000000;stroke-width:0" /><path
           id="path13137"
           d="m 726.06,426.34 0.12,0.17 0.12,0.17 0.12,0.16 0.12,0.15 0.12,0.15 0.12,0.15 0.12,0.14 0.12,0.13 0.11,0.13 0.12,0.12 0.12,0.12 0.12,0.11 0.13,0.1 0.12,0.1 0.12,0.1 0.13,0.09 0.13,0.09 0.13,0.08 0.13,0.07 0.13,0.07 0.14,0.07 0.14,0.06 0.14,0.06 0.14,0.05 0.15,0.05 0.15,0.04 0.16,0.04 0.15,0.03 0.17,0.03 0.16,0.02 0.17,0.02 0.18,0.02 c 0.42,0.03 0.8,0.06 0.8,0.76 0,0.11 -0.07,0.49 -0.49,0.49 -0.84,0 -1.92,-0.14 -2.79,-0.14 -1.11,0 -2.58,0.14 -3.61,0.14 -0.33,0 -0.71,-0.11 -0.71,-0.77 0,-0.45 0.49,-0.48 0.63,-0.48 1.11,-0.08 1.42,-0.49 1.42,-1.02 0,-0.48 -0.23,-0.83 -0.63,-1.39 l -11.42,-16.86 -3.17,17.8 c -0.06,0.31 -0.06,0.39 -0.06,0.53 0,0.94 1.94,0.94 2.19,0.94 0.59,0 1.04,0 1.04,0.76 0,0.03 -0.03,0.49 -0.59,0.49 -1.02,0 -3.49,-0.14 -4.5,-0.14 -0.86,0 -2.99,0.14 -3.86,0.14 -0.31,0 -0.7,-0.11 -0.7,-0.77 0,-0.48 0.48,-0.48 0.87,-0.48 1.95,0 1.99,-0.22 2.16,-1.13 l 3.79,-21.17 c 0.15,-0.73 0.18,-0.95 0.85,-0.95 0.65,0 0.83,0.25 1.19,0.76 z"
           inkscape:connector-curvature="0"
           style="fill:#000000;stroke-width:0" /><path
           id="path13139"
           d="m 515.62,388.98 0,0.02 0,0.02 0,0.01 0,0.02 -0.01,0.02 0,0.02 -0.01,0.02 0,0.02 -0.01,0.02 -0.01,0.02 -0.01,0.02 -0.01,0.02 -0.01,0.02 -0.01,0.02 -0.01,0.02 -0.02,0.02 -0.01,0.02 -0.02,0.02 -0.02,0.02 -0.02,0.02 -0.02,0.01 -0.03,0.02 -0.02,0.01 -0.03,0.02 -0.02,0.01 -0.03,0.01 -0.02,0.01 -0.01,0 -0.02,0.01 -0.02,0 -0.01,0 -0.02,0.01 -0.02,0 -0.02,0 -0.02,0 -0.02,0 -0.02,0 -0.02,0 c -0.25,0 -0.31,-0.04 -0.9,-0.75 l -2.39,-2.84 c -1.3,2.34 -3.89,3.59 -7.13,3.59 -6.33,0 -12.29,-5.73 -12.29,-11.76 0,-4.03 2.64,-6.33 5.17,-7.06 l 5.33,-1.41 c 1.84,-0.44 4.59,-1.19 4.59,-5.28 0,-4.49 -4.09,-9.16 -8.97,-9.16 -3.19,0 -8.72,1.1 -8.72,7.27 0,1.2 0.25,2.39 0.3,2.69 0.05,0.2 0.09,0.25 0.09,0.35 0,0.5 -0.34,0.55 -0.59,0.55 -0.25,0 -0.35,-0.05 -0.5,-0.2 -0.2,-0.2 -2.99,-11.56 -2.99,-11.7 0,-0.3 0.25,-0.5 0.55,-0.5 0.25,0 0.3,0.04 0.89,0.75 l 2.45,2.82 c 2.15,-2.89 5.52,-3.57 8.41,-3.57 6.78,0 12.66,6.62 12.66,12.79 0,3.44 -1.69,5.14 -2.44,5.83 -1.14,1.16 -1.89,1.34 -6.33,2.5 -1.09,0.3 -2.89,0.8 -3.34,0.89 -1.35,0.45 -3.03,1.89 -3.03,4.53 0,4.05 3.98,8.28 8.72,8.28 4.14,0 7.17,-2.14 7.17,-7.73 0,-1.59 -0.21,-2.48 -0.21,-2.78 0,-0.05 0,-0.5 0.61,-0.5 0.5,0 0.55,0.15 0.74,1 z"
           inkscape:connector-curvature="0"
           style="fill:#000000;stroke-width:0" /><path
           id="path13141"
           d="m 538.98,366.58 0.13,0.17 0.12,0.17 0.11,0.16 0.12,0.15 0.12,0.15 0.12,0.15 0.12,0.14 0.12,0.13 0.12,0.13 0.11,0.12 0.12,0.12 0.13,0.11 0.12,0.11 0.12,0.1 0.12,0.09 0.13,0.09 0.13,0.09 0.13,0.08 0.13,0.08 0.13,0.07 0.14,0.06 0.14,0.06 0.14,0.06 0.14,0.05 0.15,0.05 0.15,0.04 0.16,0.04 0.16,0.03 0.16,0.03 0.17,0.02 0.17,0.02 0.17,0.02 c 0.42,0.03 0.8,0.06 0.8,0.76 0,0.11 -0.06,0.49 -0.49,0.49 -0.84,0 -1.92,-0.14 -2.79,-0.14 -1.11,0 -2.58,0.14 -3.61,0.14 -0.33,0 -0.71,-0.11 -0.71,-0.77 0,-0.45 0.49,-0.48 0.63,-0.48 1.11,-0.08 1.42,-0.49 1.42,-1.02 0,-0.48 -0.23,-0.83 -0.62,-1.39 L 526.48,350.2 523.31,368 c -0.06,0.31 -0.06,0.39 -0.06,0.53 0,0.94 1.94,0.94 2.19,0.94 0.59,0 1.04,0 1.04,0.76 0,0.04 -0.03,0.49 -0.59,0.49 -1.01,0 -3.48,-0.14 -4.5,-0.14 -0.86,0 -2.98,0.14 -3.86,0.14 -0.31,0 -0.7,-0.11 -0.7,-0.77 0,-0.48 0.48,-0.48 0.87,-0.48 1.96,0 1.99,-0.22 2.16,-1.13 l 3.8,-21.17 c 0.14,-0.73 0.17,-0.95 0.84,-0.95 0.66,0 0.83,0.25 1.19,0.76 z"
           inkscape:connector-curvature="0"
           style="fill:#000000;stroke-width:0" /><path
           id="path13143"
           d="m 575.42,367.89 0.03,0.12 0.03,0.11 0.03,0.11 0.02,0.1 0.03,0.1 0.03,0.09 0.03,0.08 0.04,0.08 0.03,0.08 0.04,0.07 0.05,0.07 0.04,0.06 0.05,0.06 0.06,0.05 0.06,0.05 0.07,0.05 0.07,0.04 0.08,0.04 0.09,0.03 0.1,0.03 0.11,0.03 0.05,0.01 0.06,0.01 0.06,0.02 0.07,0.01 0.06,0.01 0.07,0 0.07,0.01 0.08,0.01 0.07,0.01 0.08,0 0.09,0.01 0.08,0.01 0.09,0 0.09,0 0.1,0.01 0.1,0 0.1,0 0.1,0.01 0.11,0 0.11,0 0.12,0 0.12,0 c 0.76,0 1.18,0 1.18,0.76 0,0.15 -0.1,0.49 -0.56,0.49 -1.01,0 -3.54,-0.14 -4.56,-0.14 -0.6,0 -1.81,0 -2.41,0.03 -0.69,0.05 -1.53,0.11 -2.19,0.11 -0.21,0 -0.73,0 -0.73,-0.77 0,-0.48 0.42,-0.48 1.11,-0.48 0.03,0 0.7,0 1.33,-0.08 0.73,-0.06 0.79,-0.14 0.79,-0.48 0,-0.03 0,-0.24 -0.13,-0.77 l -2.05,-8.22 H 558.5 l 2.01,8.08 c 0.31,1.19 0.39,1.47 3.06,1.47 0.6,0 1.05,0 1.05,0.76 0,0.15 -0.11,0.49 -0.56,0.49 -1,0 -3.55,-0.14 -4.56,-0.14 -0.6,0 -1.82,0 -2.41,0.03 -0.69,0.05 -1.53,0.11 -2.19,0.11 -0.2,0 -0.73,0 -0.73,-0.77 0,-0.48 0.42,-0.48 1.12,-0.48 0.03,0 0.69,0 1.31,-0.08 0.74,-0.06 0.82,-0.14 0.82,-0.48 0,-0.07 0,-0.24 -0.14,-0.77 l -4.64,-18.5 c -0.29,-1.19 -0.35,-1.47 -3.07,-1.47 -0.59,0 -1.04,0 -1.04,-0.73 0,-0.35 0.23,-0.52 0.56,-0.52 1,0 3.51,0.14 4.51,0.14 0.6,0 1.82,0 2.41,-0.03 0.71,-0.05 1.58,-0.11 2.24,-0.11 0.17,0 0.73,0 0.73,0.74 0,0.51 -0.34,0.51 -1.16,0.51 -0.54,0 -0.68,0 -1.31,0.08 -0.78,0.09 -0.78,0.17 -0.78,0.52 0,0.03 0,0.25 0.14,0.76 l 2.31,9.14 h 11.67 l -2.26,-9.03 c -0.28,-1.19 -0.36,-1.47 -3.08,-1.47 -0.58,0 -1.03,0 -1.03,-0.73 0,-0.35 0.24,-0.52 0.55,-0.52 1.01,0 3.51,0.14 4.53,0.14 0.59,0 1.81,0 2.41,-0.03 0.7,-0.05 1.56,-0.11 2.23,-0.11 0.17,0 0.73,0 0.73,0.74 0,0.51 -0.36,0.51 -1.15,0.51 -0.56,0 -0.71,0 -1.33,0.08 -0.77,0.09 -0.77,0.17 -0.77,0.52 0,0.21 0.11,0.56 0.14,0.76 z"
           inkscape:connector-curvature="0"
           style="fill:#000000;stroke-width:0" /><path
           id="path13145"
           d="m 668.98,388.98 0,0.02 0,0.02 0,0.01 -0.01,0.02 0,0.02 0,0.02 -0.01,0.02 0,0.02 -0.01,0.02 -0.01,0.02 -0.01,0.02 -0.01,0.02 -0.01,0.02 -0.01,0.02 -0.01,0.02 -0.02,0.02 -0.02,0.02 -0.01,0.02 -0.02,0.02 -0.02,0.02 -0.02,0.01 -0.03,0.02 -0.02,0.01 -0.03,0.02 -0.02,0.01 -0.03,0.01 -0.02,0.01 -0.01,0 -0.02,0.01 -0.02,0 -0.01,0 -0.02,0.01 -0.02,0 -0.02,0 -0.02,0 -0.02,0 -0.02,0 -0.02,0 c -0.25,0 -0.31,-0.04 -0.9,-0.75 l -2.39,-2.84 c -1.3,2.34 -3.89,3.59 -7.13,3.59 -6.33,0 -12.29,-5.73 -12.29,-11.76 0,-4.03 2.63,-6.33 5.17,-7.06 l 5.33,-1.41 c 1.84,-0.44 4.59,-1.19 4.59,-5.28 0,-4.49 -4.09,-9.16 -8.97,-9.16 -3.19,0 -8.72,1.1 -8.72,7.27 0,1.2 0.25,2.39 0.3,2.69 0.05,0.2 0.09,0.25 0.09,0.35 0,0.5 -0.34,0.55 -0.59,0.55 -0.25,0 -0.35,-0.05 -0.5,-0.2 -0.2,-0.2 -2.99,-11.56 -2.99,-11.7 0,-0.3 0.25,-0.5 0.55,-0.5 0.25,0 0.3,0.04 0.89,0.75 l 2.45,2.82 c 2.15,-2.89 5.52,-3.57 8.41,-3.57 6.78,0 12.66,6.62 12.66,12.79 0,3.44 -1.69,5.14 -2.44,5.83 -1.14,1.16 -1.89,1.34 -6.33,2.5 -1.09,0.3 -2.89,0.8 -3.34,0.89 -1.35,0.45 -3.03,1.89 -3.03,4.53 0,4.05 3.98,8.28 8.72,8.28 4.13,0 7.17,-2.14 7.17,-7.73 0,-1.59 -0.21,-2.48 -0.21,-2.78 0,-0.05 0,-0.5 0.61,-0.5 0.5,0 0.55,0.15 0.74,1 z"
           inkscape:connector-curvature="0"
           style="fill:#000000;stroke-width:0" /><path
           id="path13147"
           d="m 692.35,366.58 0.12,0.17 0.12,0.17 0.12,0.16 0.12,0.15 0.12,0.15 0.11,0.15 0.12,0.14 0.12,0.13 0.12,0.13 0.12,0.12 0.12,0.12 0.12,0.11 0.12,0.11 0.12,0.1 0.13,0.09 0.12,0.09 0.13,0.09 0.13,0.08 0.13,0.08 0.14,0.07 0.13,0.06 0.14,0.06 0.14,0.06 0.15,0.05 0.15,0.05 0.15,0.04 0.15,0.04 0.16,0.03 0.16,0.03 0.17,0.02 0.17,0.02 0.18,0.02 c 0.42,0.03 0.79,0.06 0.79,0.76 0,0.11 -0.06,0.49 -0.48,0.49 -0.85,0 -1.93,-0.14 -2.8,-0.14 -1.11,0 -2.58,0.14 -3.61,0.14 -0.33,0 -0.7,-0.11 -0.7,-0.77 0,-0.45 0.48,-0.48 0.62,-0.48 1.11,-0.08 1.43,-0.49 1.43,-1.02 0,-0.48 -0.24,-0.83 -0.63,-1.39 L 679.85,350.2 676.68,368 c -0.07,0.31 -0.07,0.39 -0.07,0.53 0,0.94 1.94,0.94 2.19,0.94 0.6,0 1.05,0 1.05,0.76 0,0.04 -0.03,0.49 -0.6,0.49 -1.01,0 -3.48,-0.14 -4.5,-0.14 -0.85,0 -2.98,0.14 -3.85,0.14 -0.32,0 -0.71,-0.11 -0.71,-0.77 0,-0.48 0.49,-0.48 0.88,-0.48 1.95,0 1.98,-0.22 2.15,-1.13 l 3.8,-21.17 c 0.14,-0.73 0.17,-0.95 0.84,-0.95 0.66,0 0.83,0.25 1.19,0.76 z"
           inkscape:connector-curvature="0"
           style="fill:#000000;stroke-width:0" /><path
           id="path13149"
           d="m 724.39,366.58 0.12,0.17 0.12,0.17 0.12,0.16 0.12,0.15 0.11,0.15 0.12,0.15 0.12,0.14 0.12,0.13 0.12,0.13 0.12,0.12 0.12,0.12 0.12,0.11 0.12,0.11 0.12,0.1 0.13,0.09 0.12,0.09 0.13,0.09 0.13,0.08 0.13,0.08 0.14,0.07 0.13,0.06 0.14,0.06 0.14,0.06 0.15,0.05 0.15,0.05 0.15,0.04 0.15,0.04 0.16,0.03 0.16,0.03 0.17,0.02 0.17,0.02 0.17,0.02 c 0.42,0.03 0.8,0.06 0.8,0.76 0,0.11 -0.06,0.49 -0.48,0.49 -0.85,0 -1.93,-0.14 -2.8,-0.14 -1.11,0 -2.58,0.14 -3.61,0.14 -0.33,0 -0.7,-0.11 -0.7,-0.77 0,-0.45 0.48,-0.48 0.62,-0.48 1.11,-0.08 1.42,-0.49 1.42,-1.02 0,-0.48 -0.23,-0.83 -0.62,-1.39 L 711.89,350.2 708.72,368 c -0.07,0.31 -0.07,0.39 -0.07,0.53 0,0.94 1.94,0.94 2.19,0.94 0.59,0 1.05,0 1.05,0.76 0,0.04 -0.04,0.49 -0.6,0.49 -1.01,0 -3.48,-0.14 -4.5,-0.14 -0.86,0 -2.98,0.14 -3.86,0.14 -0.31,0 -0.7,-0.11 -0.7,-0.77 0,-0.48 0.49,-0.48 0.87,-0.48 1.96,0 1.99,-0.22 2.16,-1.13 l 3.8,-21.17 c 0.14,-0.73 0.17,-0.95 0.84,-0.95 0.66,0 0.83,0.25 1.19,0.76 z"
           inkscape:connector-curvature="0"
           style="fill:#000000;stroke-width:0" /><polygon
           id="polygon13151"
           points="736.42,336.43 749.52,336.43 749.52,455.96 736.42,455.96 736.42,453.21 746.78,453.21 746.78,339.18 736.42,339.18 "
           style="fill:#000000;stroke-width:0" /></g>    </g>
    <g
       id="g3877"
       style="fill:#666666;stroke:#666666"
       transform="matrix(1.2880518,0,0,1.2880518,-83.617687,-243.47444)">
      <path
         inkscape:transform-center-y="10.094105"
         transform="translate(-222.89312,298.42254)"
         d="m 513.18005,545.32265 -17.4835,-30.28232 -17.4835,-30.28231 34.967,-10e-6 34.96701,10e-6 -17.4835,30.28232 z"
         inkscape:randomized="0"
         inkscape:rounded="0"
         inkscape:flatsided="false"
         sodipodi:arg2="2.6179939"
         sodipodi:arg1="1.5707963"
         sodipodi:r2="20.188213"
         sodipodi:r1="40.376423"
         sodipodi:cy="504.94623"
         sodipodi:cx="513.18005"
         sodipodi:sides="3"
         id="path3093"
         style="fill:#666666;fill-opacity:0.29680367;fill-rule:nonzero;stroke:#666666;stroke-width:3;stroke-miterlimit:4;stroke-opacity:1;stroke-dasharray:none;stroke-dashoffset:0"
         sodipodi:type="star" />
      <path
         transform="translate(-258.69638,166.5158)"
         inkscape:connector-curvature="0"
         id="path3095"
         d="m 548.98331,616.66475 0,-102.92475"
         style="fill:#666666;fill-opacity:1;stroke:#666666;stroke-width:8;stroke-linecap:butt;stroke-linejoin:miter;stroke-miterlimit:4;stroke-opacity:1;stroke-dasharray:none" />
    </g>
  </g>
</svg>
